<?xml version="1.0" encoding="UTF-8"?>
<svg xmlns="http://www.w3.org/2000/svg" xmlns:sodipodi="http://sodipodi.sourceforge.net/DTD/sodipodi-0.dtd" xmlns:inkscape="http://www.inkscape.org/namespaces/inkscape" version="1.1" width="360mm" height="200mm" viewBox="0 0 360 200">
	<sodipodi:namedview inkscape:document-units="mm">
		<inkscape:grid empspacing="10" type="xygrid" units="mm" spacingx="1" spacingy="1"/>
	</sodipodi:namedview>
	<path d="m49.34 27.905 13.88 1.828 1.828-13.88-13.88-1.828z" style="fill:none;stroke-width:.3;stroke:#f00"/>
	<path d="m68.177 30.385 13.88 1.828 1.828-13.88-13.88-1.828z" style="fill:none;stroke-width:.3;stroke:#f00"/>
	<path d="m87.015 32.865 13.88 1.828 1.828-13.88-13.88-1.828z" style="fill:none;stroke-width:.3;stroke:#f00"/>
	<path d="m105.852 35.345 13.88 1.828 1.828-13.88-13.88-1.828z" style="fill:none;stroke-width:.3;stroke:#f00"/>
	<path d="m124.689 37.825 13.88 1.828 1.828-13.88-13.88-1.828z" style="fill:none;stroke-width:.3;stroke:#f00"/>
	<path d="m143.527 40.306 13.88 1.828 1.828-13.88-13.88-1.828z" style="fill:none;stroke-width:.3;stroke:#f00"/>
	<path d="m42.821 57.729 13.694 2.911 2.911-13.694-13.694-2.911z" style="fill:none;stroke-width:.3;stroke:#f00"/>
	<path d="m62.029 58.745 13.694 2.911 2.911-13.694-13.694-2.911z" style="fill:none;stroke-width:.3;stroke:#f00"/>
	<path d="m82.069 55.848 13.694 2.911 2.911-13.694-13.694-2.911z" style="fill:none;stroke-width:.3;stroke:#f00"/>
	<path d="m101.278 56.864 13.694 2.911 2.911-13.694-13.694-2.911z" style="fill:none;stroke-width:.3;stroke:#f00"/>
	<path d="m119.447 62.771 13.694 2.911 2.911-13.694-13.694-2.911z" style="fill:none;stroke-width:.3;stroke:#f00"/>
	<path d="m137.408 69.656 13.694 2.911 2.911-13.694-13.694-2.911z" style="fill:none;stroke-width:.3;stroke:#f00"/>
	<path d="m38.87 76.314 13.694 2.911 2.911-13.694-13.694-2.911z" style="fill:none;stroke-width:.3;stroke:#f00"/>
	<path d="m58.079 77.33 13.694 2.911 2.911-13.694-13.694-2.911z" style="fill:none;stroke-width:.3;stroke:#f00"/>
	<path d="m78.119 74.433 13.694 2.911 2.911-13.694-13.694-2.911z" style="fill:none;stroke-width:.3;stroke:#f00"/>
	<path d="m97.328 75.449 13.694 2.911 2.911-13.694-13.694-2.911z" style="fill:none;stroke-width:.3;stroke:#f00"/>
	<path d="m115.497 81.356 13.694 2.911 2.911-13.694-13.694-2.911z" style="fill:none;stroke-width:.3;stroke:#f00"/>
	<path d="m133.458 88.241 13.694 2.911 2.911-13.694-13.694-2.911z" style="fill:none;stroke-width:.3;stroke:#f00"/>
	<path d="m34.92 94.899 13.694 2.911 2.911-13.694-13.694-2.911z" style="fill:none;stroke-width:.3;stroke:#f00"/>
	<path d="m54.129 95.915 13.694 2.911 2.911-13.694-13.694-2.911z" style="fill:none;stroke-width:.3;stroke:#f00"/>
	<path d="m74.169 93.018 13.694 2.911 2.911-13.694-13.694-2.911z" style="fill:none;stroke-width:.3;stroke:#f00"/>
	<path d="m93.377 94.034 13.694 2.911 2.911-13.694-13.694-2.911z" style="fill:none;stroke-width:.3;stroke:#f00"/>
	<path d="m111.546 99.941 13.694 2.911 2.911-13.694-13.694-2.911z" style="fill:none;stroke-width:.3;stroke:#f00"/>
	<path d="m129.507 106.825 13.694 2.911 2.911-13.694-13.694-2.911z" style="fill:none;stroke-width:.3;stroke:#f00"/>
	<path d="m30.97 113.484 13.694 2.911 2.911-13.694-13.694-2.911z" style="fill:none;stroke-width:.3;stroke:#f00"/>
	<path d="m50.178 114.5 13.694 2.911 2.911-13.694-13.694-2.911z" style="fill:none;stroke-width:.3;stroke:#f00"/>
	<path d="m70.219 111.603 13.694 2.911 2.911-13.694-13.694-2.911z" style="fill:none;stroke-width:.3;stroke:#f00"/>
	<path d="m89.427 112.619 13.694 2.911 2.911-13.694-13.694-2.911z" style="fill:none;stroke-width:.3;stroke:#f00"/>
	<path d="m107.596 118.525 13.694 2.911 2.911-13.694-13.694-2.911z" style="fill:none;stroke-width:.3;stroke:#f00"/>
	<path d="m125.557 125.41 13.694 2.911 2.911-13.694-13.694-2.911z" style="fill:none;stroke-width:.3;stroke:#f00"/>
	<path d="m93.457 142.221 13.128 4.865 4.865-13.128-13.128-4.865z" style="fill:none;stroke-width:.3;stroke:#f00"/>
	<path d="m111.163 149.502 11.421 8.097 8.097-11.421-11.421-8.097z" style="fill:none;stroke-width:.3;stroke:#f00"/>
	<path d="m126.38 161.118 8.936 10.777 10.777-8.936-8.936-10.777z" style="fill:none;stroke-width:.3;stroke:#f00"/>
	<path d="m138.072 176.277 5.843 12.723 12.723-5.843-5.843-12.723z" style="fill:none;stroke-width:.3;stroke:#f00"/>
	<path d="m173 77h14v-14h-14z" style="fill:none;stroke-width:.3;stroke:#f00"/>
	<path d="m173 96h14v-14h-14z" style="fill:none;stroke-width:.3;stroke:#f00"/>
	<path d="m173 115h14v-14h-14z" style="fill:none;stroke-width:.3;stroke:#f00"/>
	<path d="m173 141h14v-14h-14z" style="fill:none;stroke-width:.3;stroke:#f00"/>
	<path d="m154 160h14v-14h-14z" style="fill:none;stroke-width:.3;stroke:#f00"/>
	<path d="m173 160h14v-14h-14z" style="fill:none;stroke-width:.3;stroke:#f00"/>
	<path d="m192 160h14v-14h-14z" style="fill:none;stroke-width:.3;stroke:#f00"/>
	<path d="m216.086 189 5.843-12.723-12.723-5.843-6.234 12.723z" style="fill:none;stroke-width:.3;stroke:#f00"/>
	<path d="m224.685 171.896 8.936-10.777-10.777-8.936-8.936 10.777z" style="fill:none;stroke-width:.3;stroke:#f00"/>
	<path d="m237.417 157.599 11.421-8.097-8.097-11.421-11.421 8.097z" style="fill:none;stroke-width:.3;stroke:#f00"/>
	<path d="m253.416 147.086 13.128-4.865-4.865-13.128-13.128 4.865z" style="fill:none;stroke-width:.3;stroke:#f00"/>
	<path d="m202.596 42.132 13.88-1.828-1.828-13.88-13.88 1.828z" style="fill:none;stroke-width:.3;stroke:#f00"/>
	<path d="m221.434 39.653 13.88-1.828-1.828-13.88-13.88 1.828z" style="fill:none;stroke-width:.3;stroke:#f00"/>
	<path d="m240.272 37.173 13.88-1.828-1.828-13.88-13.88 1.828z" style="fill:none;stroke-width:.3;stroke:#f00"/>
	<path d="m259.109 34.692 13.88-1.828-1.828-13.88-13.88 1.828z" style="fill:none;stroke-width:.3;stroke:#f00"/>
	<path d="m277.946 32.212 13.88-1.828-1.828-13.88-13.88 1.828z" style="fill:none;stroke-width:.3;stroke:#f00"/>
	<path d="m296.784 29.733 13.88-1.828-1.828-13.88-13.88 1.828z" style="fill:none;stroke-width:.3;stroke:#f00"/>
	<path d="m315.621 27.252 13.88-1.828-1.828-13.88-13.88 1.828z" style="fill:none;stroke-width:.3;stroke:#f00"/>
	<path d="m208.902 72.566 13.694-2.911-2.911-13.694-13.694 2.911z" style="fill:none;stroke-width:.3;stroke:#f00"/>
	<path d="m226.863 65.682 13.694-2.911-2.911-13.694-13.694 2.911z" style="fill:none;stroke-width:.3;stroke:#f00"/>
	<path d="m245.032 59.775 13.694-2.911-2.911-13.694-13.694 2.911z" style="fill:none;stroke-width:.3;stroke:#f00"/>
	<path d="m264.24 58.759 13.694-2.911-2.911-13.694-13.694 2.911z" style="fill:none;stroke-width:.3;stroke:#f00"/>
	<path d="m284.281 61.656 13.694-2.911-2.911-13.694-13.694 2.911z" style="fill:none;stroke-width:.3;stroke:#f00"/>
	<path d="m303.489 60.64 13.694-2.911-2.911-13.694-13.694 2.911z" style="fill:none;stroke-width:.3;stroke:#f00"/>
	<path d="m322.906 60.602 13.694-2.911-2.911-13.694-13.694 2.911z" style="fill:none;stroke-width:.3;stroke:#f00"/>
	<path d="m212.852 91.151 13.694-2.911-2.911-13.694-13.694 2.911z" style="fill:none;stroke-width:.3;stroke:#f00"/>
	<path d="m230.813 84.267 13.694-2.911-2.911-13.694-13.694 2.911z" style="fill:none;stroke-width:.3;stroke:#f00"/>
	<path d="m248.982 78.36 13.694-2.911-2.911-13.694-13.694 2.911z" style="fill:none;stroke-width:.3;stroke:#f00"/>
	<path d="m268.191 77.344 13.694-2.911-2.911-13.694-13.694 2.911z" style="fill:none;stroke-width:.3;stroke:#f00"/>
	<path d="m288.231 80.241 13.694-2.911-2.911-13.694-13.694 2.911z" style="fill:none;stroke-width:.3;stroke:#f00"/>
	<path d="m307.439 79.225 13.694-2.911-2.911-13.694-13.694 2.911z" style="fill:none;stroke-width:.3;stroke:#f00"/>
	<path d="m326.856 79.187 13.694-2.911-2.911-13.694-13.694 2.911z" style="fill:none;stroke-width:.3;stroke:#f00"/>
	<path d="m216.802 109.736 13.694-2.911-2.911-13.694-13.694 2.911z" style="fill:none;stroke-width:.3;stroke:#f00"/>
	<path d="m234.764 102.851 13.694-2.911-2.911-13.694-13.694 2.911z" style="fill:none;stroke-width:.3;stroke:#f00"/>
	<path d="m252.932 96.945 13.694-2.911-2.911-13.694-13.694 2.911z" style="fill:none;stroke-width:.3;stroke:#f00"/>
	<path d="m272.141 95.929 13.694-2.911-2.911-13.694-13.694 2.911z" style="fill:none;stroke-width:.3;stroke:#f00"/>
	<path d="m292.181 98.826 13.694-2.911-2.911-13.694-13.694 2.911z" style="fill:none;stroke-width:.3;stroke:#f00"/>
	<path d="m311.39 97.81 13.694-2.911-2.911-13.694-13.694 2.911z" style="fill:none;stroke-width:.3;stroke:#f00"/>
	<path d="m330.806 97.772 13.694-2.911-2.911-13.694-13.694 2.911z" style="fill:none;stroke-width:.3;stroke:#f00"/>
	<path d="m220.753 128.321 13.694-2.911-2.911-13.694-13.694 2.911z" style="fill:none;stroke-width:.3;stroke:#f00"/>
	<path d="m238.714 121.436 13.694-2.911-2.911-13.694-13.694 2.911z" style="fill:none;stroke-width:.3;stroke:#f00"/>
	<path d="m256.883 115.529 13.694-2.911-2.911-13.694-13.694 2.911z" style="fill:none;stroke-width:.3;stroke:#f00"/>
	<path d="m276.091 114.514 13.694-2.911-2.911-13.694-13.694 2.911z" style="fill:none;stroke-width:.3;stroke:#f00"/>
	<path d="m296.132 117.41 13.694-2.911-2.911-13.694-13.694 2.911z" style="fill:none;stroke-width:.3;stroke:#f00"/>
	<path d="m315.34 116.394 13.694-2.911-2.911-13.694-13.694 2.911z" style="fill:none;stroke-width:.3;stroke:#f00"/>
	<rect x="156" y="72" width="10" height="10" style="fill:none;stroke-width:.3;stroke:#00f"/>
	<rect x="194" y="72" width="10" height="10" style="fill:none;stroke-width:.3;stroke:#00f"/>
	<rect x="234" y="126" width="10" height="10" style="fill:none;stroke-width:.3;stroke:#00f"/>
	<rect x="116" y="126" width="10" height="10" style="fill:none;stroke-width:.3;stroke:#00f"/>
	<path d="m211.433 142.225 25.925-9.535-0.989-2.688-22.715 8.211-12.517-58.888-2.842 0.599z" style="fill:none;stroke-width:3;stroke:#0f0"/>
	<path d="m148.57 142.225 13.138-62.301-2.841-0.599-12.517 58.888-22.716-8.211-0.989 2.688z" style="fill:none;stroke-width:3;stroke:#0f0"/>
	<path d="m141.214 198h77.573l60.988-40.211-13.273-35.818-24.452 8.993-0.979-2.661 28.883-10.44 13.462 35.687 72.8-46.857-22.327-105.043-145.199 19.116 11.408 53.668-2.835 0.598-10.865-51.522h-12.793l-10.865 51.522-2.834-0.598 11.408-53.668-126.303-16.628-24.137 113.553 55.713 35.859 13.463-35.687 28.882 10.439-0.979 2.662-24.454-8.993-13.273 35.818z" style="fill:none;stroke-width:3;stroke:#0f0"/>
</svg>
