<?xml version="1.0" encoding="UTF-8"?>
<svg xmlns="http://www.w3.org/2000/svg" xmlns:sodipodi="http://sodipodi.sourceforge.net/DTD/sodipodi-0.dtd" xmlns:inkscape="http://www.inkscape.org/namespaces/inkscape" version="1.1" width="200mm" height="200mm" viewBox="0 0 200 200">
	<sodipodi:namedview inkscape:document-units="mm">
		<inkscape:grid empspacing="10" type="xygrid" units="mm" spacingx="1" spacingy="1"/>
	</sodipodi:namedview>
	<path d="m13.457 142.221 13.128 4.865 4.865-13.128-13.128-4.865z" style="fill:none;stroke-width:.3;stroke:#f00"/>
	<path d="m31.163 149.502 11.421 8.097 8.097-11.421-11.421-8.097z" style="fill:none;stroke-width:.3;stroke:#f00"/>
	<path d="m46.38 161.118 8.936 10.777 10.777-8.936-8.936-10.777z" style="fill:none;stroke-width:.3;stroke:#f00"/>
	<path d="m58.072 176.277 5.843 12.723 12.723-5.843-5.843-12.723z" style="fill:none;stroke-width:.3;stroke:#f00"/>
	<path d="m93 77h14v-14h-14z" style="fill:none;stroke-width:.3;stroke:#f00"/>
	<path d="m93 96h14v-14h-14z" style="fill:none;stroke-width:.3;stroke:#f00"/>
	<path d="m93 115h14v-14h-14z" style="fill:none;stroke-width:.3;stroke:#f00"/>
	<path d="m93 141h14v-14h-14z" style="fill:none;stroke-width:.3;stroke:#f00"/>
	<path d="m74 160h14v-14h-14z" style="fill:none;stroke-width:.3;stroke:#f00"/>
	<path d="m93 160h14v-14h-14z" style="fill:none;stroke-width:.3;stroke:#f00"/>
	<path d="m112 160h14v-14h-14z" style="fill:none;stroke-width:.3;stroke:#f00"/>
	<path d="m136.086 189 5.843-12.723-12.723-5.843-6.2335681 12.723z" style="fill:none;stroke-width:.3;stroke:#f00"/>
	<path d="m144.685 171.896 8.936-10.777-10.777-8.936-8.936 10.777z" style="fill:none;stroke-width:.3;stroke:#f00"/>
	<path d="m157.417 157.599 11.421-8.097-8.097-11.421-11.421 8.097z" style="fill:none;stroke-width:.3;stroke:#f00"/>
	<path d="m173.416 147.086 13.128-4.865-4.865-13.128-13.128 4.865z" style="fill:none;stroke-width:.3;stroke:#f00"/>
	<path d="m186.502 121.971-55.069 20.254-25.035-118.715h-12.793l-25.035 118.715-55.071-20.254-13.273 35.818 60.988 40.211h77.573l60.988-40.211z" style="fill:none;stroke-width:3;stroke:#0f0"/>
</svg>
