<?xml version="1.0" encoding="UTF-8"?>
<svg xmlns="http://www.w3.org/2000/svg" xmlns:sodipodi="http://sodipodi.sourceforge.net/DTD/sodipodi-0.dtd" xmlns:inkscape="http://www.inkscape.org/namespaces/inkscape" version="1.1" width="120mm" height="120mm" viewBox="0 0 120 120">
	<sodipodi:namedview inkscape:document-units="mm">
		<inkscape:grid empspacing="4" type="xygrid" units="mm" spacingx=".25" spacingy=".25"/>
	</sodipodi:namedview>
	<path d="m13.5 27h14v-14h-14z" style="fill:none;stroke-width:.25;stroke:#f00"/>
	<path d="m32.25 27h14v-14h-14z" style="fill:none;stroke-width:.25;stroke:#f00"/>
	<path d="m51 27h14v-14h-14z" style="fill:none;stroke-width:.25;stroke:#f00"/>
	<path d="m69.75 27h14v-14h-14z" style="fill:none;stroke-width:.25;stroke:#f00"/>
	<path d="m13.5 50.75h14v-14h-14z" style="fill:none;stroke-width:.25;stroke:#f00"/>
	<path d="m32.25 47.75h14v-14h-14z" style="fill:none;stroke-width:.25;stroke:#f00"/>
	<path d="m51 50.75h14v-14h-14z" style="fill:none;stroke-width:.25;stroke:#f00"/>
	<path d="m69.75 53.75h14v-14h-14z" style="fill:none;stroke-width:.25;stroke:#f00"/>
	<path d="m13.5 69.5h14v-14h-14z" style="fill:none;stroke-width:.25;stroke:#f00"/>
	<path d="m32.25 66.5h14v-14h-14z" style="fill:none;stroke-width:.25;stroke:#f00"/>
	<path d="m51 69.5h14v-14h-14z" style="fill:none;stroke-width:.25;stroke:#f00"/>
	<path d="m69.75 72.5h14v-14h-14z" style="fill:none;stroke-width:.25;stroke:#f00"/>
	<path d="m13.5 88.25h14v-14h-14z" style="fill:none;stroke-width:.25;stroke:#f00"/>
	<path d="m32.25 85.25h14v-14h-14z" style="fill:none;stroke-width:.25;stroke:#f00"/>
	<path d="m51 88.25h14v-14h-14z" style="fill:none;stroke-width:.25;stroke:#f00"/>
	<path d="m69.75 91.25h14v-14h-14z" style="fill:none;stroke-width:.25;stroke:#f00"/>
	<path d="m13.5 107h14v-14h-14z" style="fill:none;stroke-width:.25;stroke:#f00"/>
	<path d="m32.25 104h14v-14h-14z" style="fill:none;stroke-width:.25;stroke:#f00"/>
	<path d="m51 107h14v-14h-14z" style="fill:none;stroke-width:.25;stroke:#f00"/>
	<path d="m69.75 110h14v-14h-14z" style="fill:none;stroke-width:.25;stroke:#f00"/>
	<rect x="7" y="111" width="6" height="6" style="fill:none;stroke-width:.5;stroke:#00f"/>
	<rect x="107" y="75" width="6" height="6" style="fill:none;stroke-width:.5;stroke:#00f"/>
	<rect x="91" y="3" width="6" height="6" style="fill:none;stroke-width:.5;stroke:#00f"/>
	<rect x="7" y="3" width="6" height="6" style="fill:none;stroke-width:.5;stroke:#00f"/>
	<path d="m10 6v107.5h76.555l23.256-35.029-15.748-72.471z" style="fill:none;stroke-width:3;stroke:#0f0"/>
</svg>
