<?xml version="1.0" encoding="UTF-8"?>
<svg xmlns="http://www.w3.org/2000/svg" xmlns:sodipodi="http://sodipodi.sourceforge.net/DTD/sodipodi-0.dtd" xmlns:inkscape="http://www.inkscape.org/namespaces/inkscape" version="1.1" width="360mm" height="480mm" viewBox="0 0 360 480">
	<sodipodi:namedview inkscape:document-units="mm">
		<inkscape:grid empspacing="4" type="xygrid" units="mm" spacingx=".25" spacingy=".25"/>
	</sodipodi:namedview>
	<path d="m78 28.5h14v-14h-14z" style="fill:none;stroke-width:.25;stroke:#f00"/>
	<path d="m101.75 28.5h14v-14h-14z" style="fill:none;stroke-width:.25;stroke:#f00"/>
	<path d="m120.5 28.5h14v-14h-14z" style="fill:none;stroke-width:.25;stroke:#f00"/>
	<path d="m139.25 28.5h14v-14h-14z" style="fill:none;stroke-width:.25;stroke:#f00"/>
	<path d="m158 28.5h14v-14h-14z" style="fill:none;stroke-width:.25;stroke:#f00"/>
	<path d="m78 47.25h14v-14h-14z" style="fill:none;stroke-width:.25;stroke:#f00"/>
	<path d="m98.75 47.25h14v-14h-14z" style="fill:none;stroke-width:.25;stroke:#f00"/>
	<path d="m117.5 47.25h14v-14h-14z" style="fill:none;stroke-width:.25;stroke:#f00"/>
	<path d="m136.25 47.25h14v-14h-14z" style="fill:none;stroke-width:.25;stroke:#f00"/>
	<path d="m155 47.25h14v-14h-14z" style="fill:none;stroke-width:.25;stroke:#f00"/>
	<path d="m78 66h14v-14h-14z" style="fill:none;stroke-width:.25;stroke:#f00"/>
	<path d="m101.75 66h14v-14h-14z" style="fill:none;stroke-width:.25;stroke:#f00"/>
	<path d="m120.5 66h14v-14h-14z" style="fill:none;stroke-width:.25;stroke:#f00"/>
	<path d="m139.25 66h14v-14h-14z" style="fill:none;stroke-width:.25;stroke:#f00"/>
	<path d="m158 66h14v-14h-14z" style="fill:none;stroke-width:.25;stroke:#f00"/>
	<path d="m78 84.75h14v-14h-14z" style="fill:none;stroke-width:.25;stroke:#f00"/>
	<path d="m104.75 84.75h14v-14h-14z" style="fill:none;stroke-width:.25;stroke:#f00"/>
	<path d="m123.5 84.75h14v-14h-14z" style="fill:none;stroke-width:.25;stroke:#f00"/>
	<path d="m142.25 84.75h14v-14h-14z" style="fill:none;stroke-width:.25;stroke:#f00"/>
	<path d="m161 84.75h14v-14h-14z" style="fill:none;stroke-width:.25;stroke:#f00"/>
	<path d="m188 28.5h14v-14h-14z" style="fill:none;stroke-width:.25;stroke:#f00"/>
	<path d="m206.75 28.5h14v-14h-14z" style="fill:none;stroke-width:.25;stroke:#f00"/>
	<path d="m225.5 28.5h14v-14h-14z" style="fill:none;stroke-width:.25;stroke:#f00"/>
	<path d="m244.25 28.5h14v-14h-14z" style="fill:none;stroke-width:.25;stroke:#f00"/>
	<path d="m268 28.5h14v-14h-14z" style="fill:none;stroke-width:.25;stroke:#f00"/>
	<path d="m191 47.25h14v-14h-14z" style="fill:none;stroke-width:.25;stroke:#f00"/>
	<path d="m209.75 47.25h14v-14h-14z" style="fill:none;stroke-width:.25;stroke:#f00"/>
	<path d="m228.5 47.25h14v-14h-14z" style="fill:none;stroke-width:.25;stroke:#f00"/>
	<path d="m247.25 47.25h14v-14h-14z" style="fill:none;stroke-width:.25;stroke:#f00"/>
	<path d="m268 47.25h14v-14h-14z" style="fill:none;stroke-width:.25;stroke:#f00"/>
	<path d="m188 66h14v-14h-14z" style="fill:none;stroke-width:.25;stroke:#f00"/>
	<path d="m206.75 66h14v-14h-14z" style="fill:none;stroke-width:.25;stroke:#f00"/>
	<path d="m225.5 66h14v-14h-14z" style="fill:none;stroke-width:.25;stroke:#f00"/>
	<path d="m244.25 66h14v-14h-14z" style="fill:none;stroke-width:.25;stroke:#f00"/>
	<path d="m268 66h14v-14h-14z" style="fill:none;stroke-width:.25;stroke:#f00"/>
	<path d="m185 84.75h14v-14h-14z" style="fill:none;stroke-width:.25;stroke:#f00"/>
	<path d="m203.75 84.75h14v-14h-14z" style="fill:none;stroke-width:.25;stroke:#f00"/>
	<path d="m222.5 84.75h14v-14h-14z" style="fill:none;stroke-width:.25;stroke:#f00"/>
	<path d="m241.25 84.75h14v-14h-14z" style="fill:none;stroke-width:.25;stroke:#f00"/>
	<path d="m268 84.75h14v-14h-14z" style="fill:none;stroke-width:.25;stroke:#f00"/>
	<path d="m43.577 467.035 13.694-2.911-2.911-13.694-13.694 2.911z" style="fill:none;stroke-width:.25;stroke:#f00"/>
	<path d="m61.918 463.137 13.694-2.911-2.911-13.694-13.694 2.911z" style="fill:none;stroke-width:.25;stroke:#f00"/>
	<path d="m80.258 459.238 13.694-2.911-2.911-13.694-13.694 2.911z" style="fill:none;stroke-width:.25;stroke:#f00"/>
	<path d="m35.313 428.154 13.694-2.911-2.911-13.694-13.694 2.911z" style="fill:none;stroke-width:.25;stroke:#f00"/>
	<path d="m54.277 427.19 13.694-2.911-2.911-13.694-13.694 2.911z" style="fill:none;stroke-width:.25;stroke:#f00"/>
	<path d="m73.241 426.226 13.694-2.911-2.911-13.694-13.694 2.911z" style="fill:none;stroke-width:.25;stroke:#f00"/>
	<path d="m31.415 409.813 13.694-2.911-2.911-13.694-13.694 2.911z" style="fill:none;stroke-width:.25;stroke:#f00"/>
	<path d="m50.379 408.85 13.694-2.911-2.911-13.694-13.694 2.911z" style="fill:none;stroke-width:.25;stroke:#f00"/>
	<path d="m69.343 407.886 13.694-2.911-2.911-13.694-13.694 2.911z" style="fill:none;stroke-width:.25;stroke:#f00"/>
	<path d="m27.516 391.473 13.694-2.911-2.911-13.694-13.694 2.911z" style="fill:none;stroke-width:.25;stroke:#f00"/>
	<path d="m46.48 390.509 13.694-2.911-2.911-13.694-13.694 2.911z" style="fill:none;stroke-width:.25;stroke:#f00"/>
	<path d="m65.444 389.545 13.694-2.911-2.911-13.694-13.694 2.911z" style="fill:none;stroke-width:.25;stroke:#f00"/>
	<path d="m42.582 372.169 13.694-2.911-2.911-13.694-13.694 2.911z" style="fill:none;stroke-width:.25;stroke:#f00"/>
	<path d="m61.546 371.205 13.694-2.911-2.911-13.694-13.694 2.911z" style="fill:none;stroke-width:.25;stroke:#f00"/>
	<path d="m97.479 349 13.694-2.911-2.911-13.694-13.694 2.911z" style="fill:none;stroke-width:.25;stroke:#f00"/>
	<path d="m125.444 339.959 11.538-7.93-7.93-11.538-11.538 7.93z" style="fill:none;stroke-width:.25;stroke:#f00"/>
	<path d="m147.819 320.902 7.625-11.741-11.741-7.625-7.625 11.741z" style="fill:none;stroke-width:.25;stroke:#f00"/>
	<path d="m166.742 341.058 9.9-9.9-9.9-9.9-9.9 9.9z" style="fill:none;stroke-width:.25;stroke:#f00"/>
	<path d="m180 354.317 9.9-9.9-9.9-9.9-9.9 9.9z" style="fill:none;stroke-width:.25;stroke:#f00"/>
	<path d="m193.258 341.058 9.9-9.9-9.9-9.9-9.9 9.9z" style="fill:none;stroke-width:.25;stroke:#f00"/>
	<path d="m180 327.8 9.9-9.9-9.9-9.9-9.9 9.9z" style="fill:none;stroke-width:.25;stroke:#f00"/>
	<path d="m212.181 320.902 11.741-7.625-7.625-11.741-11.741 7.625z" style="fill:none;stroke-width:.25;stroke:#f00"/>
	<path d="m223.018 332.028 11.538 7.93 7.93-11.538-11.538-7.93z" style="fill:none;stroke-width:.25;stroke:#f00"/>
	<path d="m248.827 346.089 13.694 2.911 2.911-13.694-13.694-2.911z" style="fill:none;stroke-width:.25;stroke:#f00"/>
	<path d="m284.76 368.294 13.694 2.911 2.911-13.694-13.694-2.911z" style="fill:none;stroke-width:.25;stroke:#f00"/>
	<path d="m303.724 369.258 13.694 2.911 2.911-13.694-13.694-2.911z" style="fill:none;stroke-width:.25;stroke:#f00"/>
	<path d="m280.862 386.634 13.694 2.911 2.911-13.694-13.694-2.911z" style="fill:none;stroke-width:.25;stroke:#f00"/>
	<path d="m299.826 387.598 13.694 2.911 2.911-13.694-13.694-2.911z" style="fill:none;stroke-width:.25;stroke:#f00"/>
	<path d="m276.964 404.974 13.694 2.911 2.911-13.694-13.694-2.911z" style="fill:none;stroke-width:.25;stroke:#f00"/>
	<path d="m295.928 405.938 13.694 2.911 2.911-13.694-13.694-2.911z" style="fill:none;stroke-width:.25;stroke:#f00"/>
	<path d="m273.065 423.315 13.694 2.911 2.911-13.694-13.694-2.911z" style="fill:none;stroke-width:.25;stroke:#f00"/>
	<path d="m292.029 424.279 13.694 2.911 2.911-13.694-13.694-2.911z" style="fill:none;stroke-width:.25;stroke:#f00"/>
	<path d="m266.048 456.327 13.694 2.911 2.911-13.694-13.694-2.911z" style="fill:none;stroke-width:.25;stroke:#f00"/>
	<path d="m284.388 460.226 13.694 2.911 2.911-13.694-13.694-2.911z" style="fill:none;stroke-width:.25;stroke:#f00"/>
	<rect x="68" y="8" width="6" height="6" style="fill:none;stroke-width:.5;stroke:#00f"/>
	<rect x="176" y="8" width="8" height="6" style="fill:none;stroke-width:.5;stroke:#00f"/>
	<rect x="286" y="8" width="6" height="6" style="fill:none;stroke-width:.5;stroke:#00f"/>
	<rect x="68" y="92" width="6" height="6" style="fill:none;stroke-width:.5;stroke:#00f"/>
	<rect x="140" y="108" width="6" height="6" style="fill:none;stroke-width:.5;stroke:#00f"/>
	<rect x="214" y="108" width="6" height="6" style="fill:none;stroke-width:.5;stroke:#00f"/>
	<rect x="286" y="92" width="6" height="6" style="fill:none;stroke-width:.5;stroke:#00f"/>
	<rect x="96" y="459" width="6" height="6" style="fill:none;stroke-width:.5;stroke:#00f"/>
	<rect x="74" y="353" width="6" height="6" style="fill:none;stroke-width:.5;stroke:#00f"/>
	<rect x="177" y="368" width="6" height="6" style="fill:none;stroke-width:.5;stroke:#00f"/>
	<rect x="280" y="353" width="6" height="6" style="fill:none;stroke-width:.5;stroke:#00f"/>
	<rect x="258" y="459" width="6" height="6" style="fill:none;stroke-width:.5;stroke:#00f"/>
	<rect x="202" y="119" width="48" height="96" style="fill:none;stroke-width:.5;stroke:#00f"/>
	<rect x="92" y="92" width="16" height="16" style="fill:none;stroke-width:.25;stroke:#00f"/>
	<rect x="174" y="23" width="12" height="16" style="fill:none;stroke-width:.25;stroke:#00f"/>
	<rect x="252" y="92" width="16" height="16" style="fill:none;stroke-width:.25;stroke:#00f"/>
	<rect x="268" y="312" width="16" height="16" style="fill:none;stroke-width:.25;stroke:#00f"/>
	<rect x="172" y="268" width="16" height="32" style="fill:none;stroke-width:.25;stroke:#00f"/>
	<rect x="76" y="312" width="16" height="16" style="fill:none;stroke-width:.25;stroke:#00f"/>
	<path d="m57.197 121.263 33.988 7.225 3.951-18.585-33.989-7.224z" style="fill:none;stroke-width:1.5;stroke:#f00"/>
	<path d="m38.483 209.295 33.99 7.226 15.647-73.608-33.99-7.225z" style="fill:none;stroke-width:1.5;stroke:#f00"/>
	<path d="m80.482 204.932 69.171 14.701 19.958-93.902-69.17-14.701z" style="fill:none;stroke-width:1.5;stroke:#f00"/>
	<path d="m93.451 232.141 49.213 33.824h74.67l49.214-33.824-3.258-15.326-64.117 13.629-19.174-19.174-19.174 19.174-64.117-13.629z" style="fill:none;stroke-width:1.5;stroke:#f00"/>
	<path d="m210.344 219.633 32.63-6.934-9.46-44.506 3.912-0.832 9.46 44.506 32.629-6.935-19.959-93.902-50.568 10.747 1.664 7.826-3.913 0.831-1.663-7.83-14.69 3.127z" style="fill:none;stroke-width:1.5;stroke:#f00"/>
	<path d="m287.525 216.521 33.367-7.094 15.578-19.959-12.262-57.678-52.33 11.123z" style="fill:none;stroke-width:1.5;stroke:#f00"/>
	<path d="m268.813 128.488 52.331-11.124-3.95-18.584-52.332 11.123z" style="fill:none;stroke-width:1.5;stroke:#f00"/>
	<path d="m180 121.804 78.308-16.644-0.696-3.276-41.083 8.927-35.029-23.256v-54.055h-3v54.055l-35.029 23.256-41.086-8.928-0.696 3.276z" style="fill:none;stroke-width:3;stroke:#0f0"/>
	<path d="m143 292h34.5v-17h-34.5l-57.005 40.697 3.508 6.264z" style="fill:none;stroke-width:3;stroke:#0f0"/>
	<path d="m217 292 53.496 29.962 3.508-6.264-57.005-40.697h-34.5v17z" style="fill:none;stroke-width:3;stroke:#0f0"/>
	<path d="m10.021 314.36 43.624 24.433 28.256-20.172 3.24 5.784l-70.628 39.556 23.674 111.377 60.646-12.89-22.404-105.396 73.868-15.701 29.704 29.703 29.702-29.703 73.87 15.701-22.404 105.396 42.303 8.992 24.885-117.073-53.496-29.962 3.24-5.785 28.256 20.172 43.624-24.433-21.623-101.726 17.132-9.595-23.674-111.377-58.615 12.458-0.701-3.298 26.502-5.759v-84.063h-107.5v17.5h-3v-17.5h-107.5v84.063l26.499 5.758-0.701 3.298-40.269-8.559z" style="fill:none;stroke-width:3;stroke:#0f0"/>
</svg>
