<?xml version="1.0" encoding="UTF-8"?>
<svg xmlns="http://www.w3.org/2000/svg" xmlns:sodipodi="http://sodipodi.sourceforge.net/DTD/sodipodi-0.dtd" xmlns:inkscape="http://www.inkscape.org/namespaces/inkscape" version="1.1" width="360mm" height="200mm" viewBox="0 0 360 200">
	<sodipodi:namedview inkscape:document-units="mm">
		<inkscape:grid empspacing="4" type="xygrid" units="mm" spacingx=".25" spacingy=".25"/>
	</sodipodi:namedview>
	<path d="m59.007 33.557 13.694 2.911 2.911-13.694-13.694-2.911z" style="fill:none;stroke-width:.25;stroke:#f00"/>
	<path d="m77.347 37.456 13.694 2.911 2.911-13.694-13.694-2.911z" style="fill:none;stroke-width:.25;stroke:#f00"/>
	<path d="m51.366 69.504 13.694 2.911 2.911-13.694-13.694-2.911z" style="fill:none;stroke-width:.25;stroke:#f00"/>
	<path d="m70.33 70.468 13.694 2.911 2.911-13.694-13.694-2.911z" style="fill:none;stroke-width:.25;stroke:#f00"/>
	<path d="m47.467 87.845 13.694 2.911 2.911-13.694-13.694-2.911z" style="fill:none;stroke-width:.25;stroke:#f00"/>
	<path d="m66.431 88.809 13.694 2.911 2.911-13.694-13.694-2.911z" style="fill:none;stroke-width:.25;stroke:#f00"/>
	<path d="m43.569 106.185 13.694 2.911 2.911-13.694-13.694-2.911z" style="fill:none;stroke-width:.25;stroke:#f00"/>
	<path d="m62.533 107.149 13.694 2.911 2.911-13.694-13.694-2.911z" style="fill:none;stroke-width:.25;stroke:#f00"/>
	<path d="m39.671 124.525 13.694 2.911 2.911-13.694-13.694-2.911z" style="fill:none;stroke-width:.25;stroke:#f00"/>
	<path d="m58.635 125.489 13.694 2.911 2.911-13.694-13.694-2.911z" style="fill:none;stroke-width:.25;stroke:#f00"/>
	<path d="m94.568 147.694 13.694 2.911 2.911-13.694l-13.694-2.911z" style="fill:none;stroke-width:.25;stroke:#f00"/>
	<path d="m117.514 154.58 11.538 7.93 7.93-11.538-11.538-7.93z" style="fill:none;stroke-width:.25;stroke:#f00"/>
	<path d="m136.078 169.723 7.625 11.741 11.741-7.625-7.625-11.741z" style="fill:none;stroke-width:.25;stroke:#f00"/>
	<path d="m166.742 161.742 9.9-9.9-9.9-9.9-9.9 9.9z" style="fill:none;stroke-width:.25;stroke:#f00"/>
	<path d="m180 175 9.9-9.9-9.9-9.9-9.9 9.9z" style="fill:none;stroke-width:.25;stroke:#f00"/>
	<path d="m193.258 161.742 9.9-9.9-9.9-9.9-9.9 9.9z" style="fill:none;stroke-width:.25;stroke:#f00"/>
	<path d="m180 148.483 9.9-9.9-9.9-9.9-9.9 9.9z" style="fill:none;stroke-width:.25;stroke:#f00"/>
	<path d="m216.297 181.464 7.625-11.741-11.741-7.625-7.625 11.741z" style="fill:none;stroke-width:.25;stroke:#f00"/>
	<path d="m230.948 162.509 11.538-7.93-7.93-11.538-11.538 7.93z" style="fill:none;stroke-width:.25;stroke:#f00"/>
	<path d="m251.738 150.605 13.694-2.911-2.911-13.694-13.694 2.911z" style="fill:none;stroke-width:.25;stroke:#f00"/>
	<path d="m268.959 40.367 13.694-2.911-2.911-13.694-13.694 2.911z" style="fill:none;stroke-width:.25;stroke:#f00"/>
	<path d="m287.299 36.468 13.694-2.911-2.911-13.694-13.694 2.911z" style="fill:none;stroke-width:.25;stroke:#f00"/>
	<path d="m305.64 32.57 13.694-2.911-2.911-13.694-13.694 2.911z" style="fill:none;stroke-width:.25;stroke:#f00"/>
	<path d="m275.976 73.379 13.694-2.911-2.911-13.694-13.694 2.911z" style="fill:none;stroke-width:.25;stroke:#f00"/>
	<path d="m294.94 72.415 13.694-2.911-2.911-13.694-13.694 2.911z" style="fill:none;stroke-width:.25;stroke:#f00"/>
	<path d="m313.904 71.451 13.694-2.911-2.911-13.694-13.694 2.911z" style="fill:none;stroke-width:.25;stroke:#f00"/>
	<path d="m279.874 91.719 13.694-2.911-2.911-13.694-13.694 2.911z" style="fill:none;stroke-width:.25;stroke:#f00"/>
	<path d="m298.838 90.755 13.694-2.911-2.911-13.694-13.694 2.911z" style="fill:none;stroke-width:.25;stroke:#f00"/>
	<path d="m317.802 89.792 13.694-2.911-2.911-13.694-13.694 2.911z" style="fill:none;stroke-width:.25;stroke:#f00"/>
	<path d="m283.773 110.06 13.694-2.911-2.911-13.694-13.694 2.911z" style="fill:none;stroke-width:.25;stroke:#f00"/>
	<path d="m302.737 109.096 13.694-2.911-2.911-13.694-13.694 2.911z" style="fill:none;stroke-width:.25;stroke:#f00"/>
	<path d="m321.701 108.132 13.694-2.911-2.911-13.694-13.694 2.911z" style="fill:none;stroke-width:.25;stroke:#f00"/>
	<path d="m287.671 128.4 13.694-2.911-2.911-13.694-13.694 2.911z" style="fill:none;stroke-width:.25;stroke:#f00"/>
	<path d="m306.635 127.436 13.694-2.911-2.911-13.694-13.694 2.911z" style="fill:none;stroke-width:.25;stroke:#f00"/>
	<rect x="177" y="109" width="6" height="6" style="fill:none;stroke-width:.5;stroke:#00f"/>
	<rect x="96" y="18" width="6" height="6" style="fill:none;stroke-width:.5;stroke:#00f"/>
	<rect x="258" y="18" width="6" height="6" style="fill:none;stroke-width:.5;stroke:#00f"/>
	<rect x="74" y="124" width="6" height="6" style="fill:none;stroke-width:.5;stroke:#00f"/>
	<rect x="280" y="124" width="6" height="6" style="fill:none;stroke-width:.5;stroke:#00f"/>
	<path d="m31.644 128.633 111.356 62.367h74l128.488-71.961-23.674-111.377-60.646 12.89 22.404 105.396-73.868 15.701-29.704-29.703-29.702 29.703-73.87-15.701 22.404-105.396-42.303-8.992z" style="fill:none;stroke-width:3;stroke:#0f0"/>
</svg>
