<?xml version="1.0" encoding="UTF-8"?>
<svg xmlns="http://www.w3.org/2000/svg" xmlns:sodipodi="http://sodipodi.sourceforge.net/DTD/sodipodi-0.dtd" xmlns:inkscape="http://www.inkscape.org/namespaces/inkscape" version="1.1" width="360mm" height="270mm" viewBox="0 0 360 270">
	<sodipodi:namedview inkscape:document-units="mm">
		<inkscape:grid empspacing="4" type="xygrid" units="mm" spacingx=".25" spacingy=".25"/>
	</sodipodi:namedview>
	<rect x="202" y="34" width="48" height="96" style="fill:none;stroke-width:.5;stroke:#00f"/>
	<path d="m57.197 36.263 33.988 7.225 3.951-18.585-33.989-7.224z" style="fill:none;stroke-width:1.5;stroke:#f00"/>
	<path d="m38.483 124.295 33.99 7.226l15.647-73.608-33.99-7.225z" style="fill:none;stroke-width:1.5;stroke:#f00"/>
	<path d="m80.482 119.932 69.171 14.701 19.958-93.902-69.17-14.701z" style="fill:none;stroke-width:1.5;stroke:#f00"/>
	<path d="m210.344 134.633 32.63-6.934-9.46-44.506 3.912-0.832 9.46 44.506 32.629-6.935-19.959-93.902-50.568 10.747 1.664 7.826-3.913 0.831-1.663-7.83l-14.69 3.127z" style="fill:none;stroke-width:1.5;stroke:#f00"/>
	<path d="m268.813 43.488 52.331-11.124-3.95-18.584-52.332 11.123z" style="fill:none;stroke-width:1.5;stroke:#f00"/>
	<path d="m287.525 131.521 33.367-7.094 15.578-19.959-12.262-57.678-52.33 11.123z" style="fill:none;stroke-width:1.5;stroke:#f00"/>
	<path d="m93.451 147.141 49.213 33.824h74.67l49.214-33.824-3.258-15.326-64.117 13.629-19.174-19.174-19.174 19.174-64.117-13.629z" style="fill:none;stroke-width:1.5;stroke:#f00"/>
	<path d="m10.021 229.36 43.624 24.433 89.355-63.793h74l89.355 63.793 43.624-24.433-21.623-101.726 17.132-9.595-23.674-111.377-141.814 30.142-123.471-26.244z" style="fill:none;stroke-width:3;stroke:#0f0"/>
</svg>
