<?xml version="1.0" encoding="UTF-8"?>
<svg xmlns="http://www.w3.org/2000/svg" xmlns:sodipodi="http://sodipodi.sourceforge.net/DTD/sodipodi-0.dtd" xmlns:inkscape="http://www.inkscape.org/namespaces/inkscape" version="1.1" width="120mm" height="120mm" viewBox="0 0 120 120">
	<sodipodi:namedview inkscape:document-units="mm">
		<inkscape:grid empspacing="4" type="xygrid" units="mm" spacingx=".25" spacingy=".25"/>
	</sodipodi:namedview>
	<path d="m36.25 27h14v-14h-14z" style="fill:none;stroke-width:.25;stroke:#f00"/>
	<path d="m55 27h14v-14h-14z" style="fill:none;stroke-width:.25;stroke:#f00"/>
	<path d="m73.75 27h14v-14h-14z" style="fill:none;stroke-width:.25;stroke:#f00"/>
	<path d="m92.5 27h14v-14h-14z" style="fill:none;stroke-width:.25;stroke:#f00"/>
	<path d="m36.25 53.75h14v-14h-14z" style="fill:none;stroke-width:.25;stroke:#f00"/>
	<path d="m55 50.75h14v-14h-14z" style="fill:none;stroke-width:.25;stroke:#f00"/>
	<path d="m73.75 47.75h14v-14h-14z" style="fill:none;stroke-width:.25;stroke:#f00"/>
	<path d="m92.5 50.75h14v-14h-14z" style="fill:none;stroke-width:.25;stroke:#f00"/>
	<path d="m36.25 72.5h14v-14h-14z" style="fill:none;stroke-width:.25;stroke:#f00"/>
	<path d="m55 69.5h14v-14h-14z" style="fill:none;stroke-width:.25;stroke:#f00"/>
	<path d="m73.75 66.5h14v-14h-14z" style="fill:none;stroke-width:.25;stroke:#f00"/>
	<path d="m92.5 69.5h14v-14h-14z" style="fill:none;stroke-width:.25;stroke:#f00"/>
	<path d="m36.25 91.25h14v-14h-14z" style="fill:none;stroke-width:.25;stroke:#f00"/>
	<path d="m55 88.25h14v-14h-14z" style="fill:none;stroke-width:.25;stroke:#f00"/>
	<path d="m73.75 85.25h14v-14h-14z" style="fill:none;stroke-width:.25;stroke:#f00"/>
	<path d="m92.5 88.25h14v-14h-14z" style="fill:none;stroke-width:.25;stroke:#f00"/>
	<path d="m36.25 110h14v-14h-14z" style="fill:none;stroke-width:.25;stroke:#f00"/>
	<path d="m55 107h14v-14h-14z" style="fill:none;stroke-width:.25;stroke:#f00"/>
	<path d="m73.75 104h14v-14h-14z" style="fill:none;stroke-width:.25;stroke:#f00"/>
	<path d="m92.5 107h14v-14h-14z" style="fill:none;stroke-width:.25;stroke:#f00"/>
	<rect x="107" y="111" width="6" height="6" style="fill:none;stroke-width:.5;stroke:#00f"/>
	<rect x="107" y="3" width="6" height="6" style="fill:none;stroke-width:.5;stroke:#00f"/>
	<rect x="23" y="3" width="6" height="6" style="fill:none;stroke-width:.5;stroke:#00f"/>
	<rect x="7" y="75" width="6" height="6" style="fill:none;stroke-width:.5;stroke:#00f"/>
	<path d="M 10.189,78.471 33.445,113.5 H 110 V 6 H 25.937 Z" style="fill:none;stroke-width:3;stroke:#0f0"/>
</svg>
