<?xml version="1.0" encoding="UTF-8"?>
<svg xmlns="http://www.w3.org/2000/svg" xmlns:sodipodi="http://sodipodi.sourceforge.net/DTD/sodipodi-0.dtd" xmlns:inkscape="http://www.inkscape.org/namespaces/inkscape" version="1.1" width="160mm" height="160mm" viewBox="0 0 160 160">
	<sodipodi:namedview inkscape:document-units="mm">
		<inkscape:grid empspacing="10" type="xygrid" units="mm" spacingx="1" spacingy="1"/>
	</sodipodi:namedview>
	<path d="m35.176 37.472 13.957-1.098-1.098-13.957-13.957 1.098z" style="fill:none;stroke-width:.3;stroke:#f00"/>
	<path d="m54.117 35.981 13.957-1.098-1.098-13.957-13.957 1.098z" style="fill:none;stroke-width:.3;stroke:#f00"/>
	<path d="m73.059 34.491 13.957-1.098-1.098-13.957-13.957 1.098z" style="fill:none;stroke-width:.3;stroke:#f00"/>
	<path d="m92 33 13.957-1.098-1.098-13.957-13.957 1.098z" style="fill:none;stroke-width:.3;stroke:#f00"/>
	<path d="m110.941 31.509 13.957-1.098-1.098-13.957-13.957 1.098z" style="fill:none;stroke-width:.3;stroke:#f00"/>
	<path d="m129.883 30.019 13.957-1.098-1.098-13.957-13.957 1.098z" style="fill:none;stroke-width:.3;stroke:#f00"/>
	<path d="m35 68h14v-14h-14z" style="fill:none;stroke-width:.3;stroke:#f00"/>
	<path d="m54 65h14v-14h-14z" style="fill:none;stroke-width:.3;stroke:#f00"/>
	<path d="m73 58h14v-14h-14z" style="fill:none;stroke-width:.3;stroke:#f00"/>
	<path d="m92 55h14v-14h-14z" style="fill:none;stroke-width:.3;stroke:#f00"/>
	<path d="m111 57h14v-14h-14z" style="fill:none;stroke-width:.3;stroke:#f00"/>
	<path d="m130 60h14v-14h-14z" style="fill:none;stroke-width:.3;stroke:#f00"/>
	<path d="m35 87h14v-14h-14z" style="fill:none;stroke-width:.3;stroke:#f00"/>
	<path d="m54 84h14v-14h-14z" style="fill:none;stroke-width:.3;stroke:#f00"/>
	<path d="m73 77h14v-14h-14z" style="fill:none;stroke-width:.3;stroke:#f00"/>
	<path d="m92 74h14v-14h-14z" style="fill:none;stroke-width:.3;stroke:#f00"/>
	<path d="m111 76h14v-14h-14z" style="fill:none;stroke-width:.3;stroke:#f00"/>
	<path d="m130 79h14v-14h-14z" style="fill:none;stroke-width:.3;stroke:#f00"/>
	<path d="m35 106h14v-14h-14z" style="fill:none;stroke-width:.3;stroke:#f00"/>
	<path d="m54 103h14v-14h-14z" style="fill:none;stroke-width:.3;stroke:#f00"/>
	<path d="m73 96h14v-14h-14z" style="fill:none;stroke-width:.3;stroke:#f00"/>
	<path d="m92 93h14v-14h-14z" style="fill:none;stroke-width:.3;stroke:#f00"/>
	<path d="m111 95h14v-14h-14z" style="fill:none;stroke-width:.3;stroke:#f00"/>
	<path d="m130 98h14v-14h-14z" style="fill:none;stroke-width:.3;stroke:#f00"/>
	<path d="m35 125h14v-14h-14z" style="fill:none;stroke-width:.3;stroke:#f00"/>
	<path d="m54 122h14v-14h-14z" style="fill:none;stroke-width:.3;stroke:#f00"/>
	<path d="m73 115h14v-14h-14z" style="fill:none;stroke-width:.3;stroke:#f00"/>
	<path d="m92 112h14v-14h-14z" style="fill:none;stroke-width:.3;stroke:#f00"/>
	<path d="m111 114h14v-14h-14z" style="fill:none;stroke-width:.3;stroke:#f00"/>
	<path d="m130 117h14v-14h-14z" style="fill:none;stroke-width:.3;stroke:#f00"/>
	<path d="m93.7 117 59.3 8.2v-120.071l-127 9.995v116.09l61.951 23.492z" style="fill:none;stroke-width:3;stroke:#0f0"/>
</svg>
