<?xml version="1.0" encoding="UTF-8"?>
<svg width="360" height="360" version="1.1" xmlns="http://www.w3.org/2000/svg">
	<defs>
		<marker id="x" style="fill:#e22;overflow:visible" orient="auto">
			<path d="m2 0-3-2v4z"/>
		</marker>
		<marker id="y" style="fill:#3d1;overflow:visible" orient="auto">
			<path d="m2 0-3-2v4z"/>
		</marker>
		<marker id="z" style="fill:#18d;overflow:visible" orient="auto">
			<path d="m2 0-3-2v4z"/>
		</marker>
	</defs>
	<rect width="100%" height="100%" style="fill:#fff"/>
	<g style="fill:none;stroke-linecap:round">
		<path d="m53 137 196 113" style="marker-end:url(#x);stroke-width:6;stroke:#e22"/>
		<path d="m53 250 196-113" style="marker-end:url(#y);stroke-width:6;stroke:#3d1"/>
		<path d="m151 307v-227" style="marker-end:url(#z);stroke-width:6;stroke:#18d"/>
		<path d="m70 127c0-11-8-15-17-10s-17 19-17 30 8 14 17 9" style="marker-end:url(#x);stroke-width:4;stroke:#e22"/>
		<path d="m36 240c0-11 8-15 17-10s17 19 17 30-8 14-17 9" style="stroke-width:10;stroke:#fff"/>
		<path d="m36 240c0-11 8-15 17-10s17 19 17 30-8 14-17 9" style="marker-end:url(#y);stroke-width:4;stroke:#3d1"/>
		<path d="m134 297c-9 5-9 15 0 20s25 5 34 0 9-15 0-20" style="marker-end:url(#z);stroke-width:4;stroke:#18d"/>
	</g>
	<circle cx="151" cy="193.5" r="8" style="fill:#fff"/>
	<g style="font-family:'Source Code Pro', monospace;font-size:20px;text-anchor:middle">
		<text x="300" y="278" style="fill:#e22;font-weight:bold">Width</text>
		<text x="300" y="126" style="fill:#3d1;font-weight:bold">Depth</text>
		<text x="151" y="54" style="fill:#18d;font-weight:bold">Height</text>
		<text x="237" y="279" style="fill:#e22">+x</text>
		<text x="257" y="169" style="fill:#3d1">+y</text>
		<text x="178" y="86" style="fill:#18d">+z</text>
	</g>
	<g style="font-family:'Source Code Pro', monospace;font-size:18px">
		<text transform="rotate(30)" x="134.83" y="82" style="fill:#e22">Left</text>
		<text transform="rotate(30)" x="327.58" y="82" style="fill:#e22;text-anchor:end">Right</text>
		<text transform="rotate(-30)" x="-58.44" y="233" style="fill:#3d1">Front</text>
		<text transform="rotate(-30)" x="134.31" y="233" style="fill:#3d1;text-anchor:end">Back</text>
		<text x="143" y="286" style="fill:#18d;text-anchor:end">Ground</text>
		<text x="143" y="106" style="fill:#18d;text-anchor:end">Top</text>
	</g>
</svg>
