<?xml version="1.0" encoding="UTF-8"?>
<svg xmlns="http://www.w3.org/2000/svg" version="1.1" width="600" height="360">
	<rect width="600" height="360" style="fill:#fff"/>
	<g style="fill:#fff;stroke-linejoin:round;stroke:#999">
		<rect x="20.5" y="20.5" width="35" height="35"/>
		<rect x="58.5" y="20.5" width="35" height="35"/>
		<rect x="96.5" y="20.5" width="35" height="35"/>
		<rect x="134.5" y="20.5" width="35" height="35"/>
		<rect x="172.5" y="20.5" width="35" height="35"/>
		<rect x="210.5" y="20.5" width="35" height="35"/>
		<rect x="316.5" y="20.5" width="35" height="35"/>
		<rect x="354.5" y="20.5" width="35" height="35"/>
		<rect x="392.5" y="20.5" width="35" height="35"/>
		<rect x="430.5" y="20.5" width="35" height="35"/>
		<rect x="468.5" y="20.5" width="35" height="35"/>
		<rect x="506.5" y="20.5" width="35" height="35"/>
		<rect x="544.5" y="20.5" width="35" height="35"/>
		<rect x="20.5" y="92.5" width="35" height="35"/>
		<rect x="58.5" y="86.5" width="35" height="35"/>
		<rect x="96.5" y="72.5" width="35" height="35"/>
		<rect x="134.5" y="66.5" width="35" height="35"/>
		<rect x="172.5" y="70.5" width="35" height="35"/>
		<rect x="210.5" y="76.5" width="35" height="35"/>
		<rect x="316.5" y="76.5" width="35" height="35"/>
		<rect x="354.5" y="70.5" width="35" height="35"/>
		<rect x="392.5" y="66.5" width="35" height="35"/>
		<rect x="430.5" y="72.5" width="35" height="35"/>
		<rect x="468.5" y="86.5" width="35" height="35"/>
		<rect x="506.5" y="92.5" width="35" height="35"/>
		<rect x="544.5" y="100.5" width="35" height="35"/>
		<rect x="20.5" y="130.5" width="35" height="35"/>
		<rect x="58.5" y="124.5" width="35" height="35"/>
		<rect x="96.5" y="110.5" width="35" height="35"/>
		<rect x="134.5" y="104.5" width="35" height="35"/>
		<rect x="172.5" y="108.5" width="35" height="35"/>
		<rect x="210.5" y="114.5" width="35" height="35"/>
		<rect x="316.5" y="114.5" width="35" height="35"/>
		<rect x="354.5" y="108.5" width="35" height="35"/>
		<rect x="392.5" y="104.5" width="35" height="35"/>
		<rect x="430.5" y="110.5" width="35" height="35"/>
		<rect x="468.5" y="124.5" width="35" height="35"/>
		<rect x="506.5" y="130.5" width="35" height="35"/>
		<rect x="544.5" y="138.5" width="35" height="35"/>
		<rect x="20.5" y="168.5" width="35" height="35" style="fill:#39d;stroke:#39d"/>
		<rect x="58.5" y="162.5" width="35" height="35"/>
		<rect x="96.5" y="148.5" width="35" height="35"/>
		<rect x="134.5" y="142.5" width="35" height="35"/>
		<rect x="172.5" y="146.5" width="35" height="35"/>
		<rect x="210.5" y="152.5" width="35" height="35"/>
		<rect x="316.5" y="152.5" width="35" height="35"/>
		<rect x="354.5" y="146.5" width="35" height="35"/>
		<rect x="392.5" y="142.5" width="35" height="35"/>
		<rect x="430.5" y="148.5" width="35" height="35"/>
		<rect x="468.5" y="162.5" width="35" height="35"/>
		<rect x="506.5" y="168.5" width="35" height="35"/>
		<rect x="544.5" y="176.5" width="35" height="35"/>
		<rect x="20.5" y="206.5" width="35" height="35"/>
		<rect x="58.5" y="200.5" width="35" height="35"/>
		<rect x="96.5" y="186.5" width="35" height="35"/>
		<rect x="134.5" y="180.5" width="35" height="35"/>
		<rect x="172.5" y="184.5" width="35" height="35"/>
		<rect x="210.5" y="190.5" width="35" height="35"/>
		<rect x="316.5" y="190.5" width="35" height="35"/>
		<rect x="354.5" y="184.5" width="35" height="35"/>
		<rect x="392.5" y="180.5" width="35" height="35"/>
		<rect x="430.5" y="186.5" width="35" height="35"/>
		<rect x="468.5" y="200.5" width="35" height="35"/>
		<rect x="506.5" y="206.5" width="35" height="35"/>
		<rect x="81.5" y="246.5" width="35" height="35"/>
		<rect transform="rotate(15)" x="188" y="207" width="35" height="35"/>
		<rect transform="rotate(30)" x="281" y="141" width="35" height="35"/>
		<rect transform="rotate(45)" x="354" y="53" width="35" height="35"/>
		<rect x="263.5" y="86.5" width="35" height="35"/>
		<rect x="263.5" y="124.5" width="35" height="35"/>
		<rect x="263.5" y="162.5" width="35" height="35"/>
		<rect x="263.5" y="215.5" width="35" height="35"/>
		<rect x="225.5" y="253.5" width="35" height="35"/>
		<rect x="263.5" y="253.5" width="35" height="35"/>
		<rect x="301.5" y="253.5" width="35" height="35"/>
		<rect transform="rotate(-45)" x="8" y="450" width="35" height="35"/>
		<rect transform="rotate(-30)" x="171" y="422" width="35" height="35"/>
		<rect transform="rotate(-15)" x="320" y="352" width="35" height="35"/>
		<rect x="445.5" y="246.5" width="35" height="35"/>
	</g>
	<g style="font-family:'Source Code Pro', monospace;font-size:14px;text-anchor:middle">
		<text x="38" y="36">ESC</text>
		<text x="76" y="36">F1</text>
		<text x="114" y="36">F2</text>
		<text x="152" y="36">F3</text>
		<text x="190" y="36">F4</text>
		<text x="228" y="36">F5</text>
		<text x="334" y="36">F6</text>
		<text x="372" y="36">F7</text>
		<text x="410" y="36">F8</text>
		<text x="448" y="36">F9</text>
		<text x="486" y="36">F10</text>
		<text x="524" y="36">F11</text>
		<text x="562" y="36">F12</text>
		<text x="38" y="108">~ `</text>
		<text x="76" y="102">! 1</text>
		<text x="114" y="88">@ 2</text>
		<text x="152" y="82"># 3</text>
		<text x="190" y="86">$ 4</text>
		<text x="228" y="92">% 5</text>
		<text x="334" y="92">^ 6</text>
		<text x="372" y="86">&amp; 7</text>
		<text x="410" y="82">* 8</text>
		<text x="448" y="88">( 9</text>
		<text x="486" y="102">) 0</text>
		<text x="524" y="108">_ -</text>
		<text x="562" y="116">+ =</text>
		<text x="38" y="146">TAB</text>
		<text x="76" y="140">Q</text>
		<text x="114" y="126">W</text>
		<text x="152" y="120">E</text>
		<text x="190" y="124">R</text>
		<text x="228" y="130">T</text>
		<text x="334" y="130">Y</text>
		<text x="372" y="124">U</text>
		<text x="410" y="120">I</text>
		<text x="448" y="126">O</text>
		<text x="486" y="140">P</text>
		<text x="524" y="146">{ [</text>
		<text x="562" y="154">} ]</text>
		<text x="38" y="184" style="fill:#fff">LAY</text>
		<text x="76" y="178">A</text>
		<text x="114" y="164">S</text>
		<text x="152" y="158">D</text>
		<text x="190" y="162">F</text>
		<text x="228" y="168">G</text>
		<text x="334" y="168">H</text>
		<text x="372" y="162">J</text>
		<text x="410" y="158">K</text>
		<text x="448" y="164">L</text>
		<text x="486" y="178">: ;</text>
		<text x="524" y="184">" '</text>
		<text x="562" y="192">| \</text>
		<text x="38" y="222">SHF</text>
		<text x="76" y="216">Z</text>
		<text x="114" y="202">X</text>
		<text x="152" y="196">C</text>
		<text x="190" y="200">V</text>
		<text x="228" y="206">B</text>
		<text x="334" y="206">N</text>
		<text x="372" y="200">M</text>
		<text x="410" y="196">&lt; ,</text>
		<text x="448" y="202">&gt; .</text>
		<text x="486" y="216">? /</text>
		<text x="524" y="222">SHF</text>
		<text x="99" y="262">ALT</text>
		<text transform="rotate(15)" x="205.5" y="222.5">SP</text>
		<text transform="rotate(30)" x="298.5" y="156.5">BKS</text>
		<text transform="rotate(45)" x="371.5" y="68.5">CTR</text>
		<text x="281" y="102">F20</text>
		<text x="281" y="140">F21</text>
		<text x="281" y="178">F22</text>
		<text x="281" y="231">↑</text>
		<text x="243" y="269">←</text>
		<text x="281" y="269">↓</text>
		<text x="319" y="269">→</text>
		<text transform="rotate(-45)" x="25.5" y="465.5">CTR</text>
		<text transform="rotate(-30)" x="188.5" y="437.5">ENT</text>
		<text transform="rotate(-15)" x="337.5" y="367.5">SP</text>
		<text x="463" y="262">ALT</text>
	</g>
	<g style="fill:#39d;font-family:'Source Code Pro', monospace;font-size:14px;text-anchor:middle">
		<text x="38" y="51"></text>
		<text x="76" y="51">F13</text>
		<text x="114" y="51">F14</text>
		<text x="152" y="51">F15</text>
		<text x="190" y="51">F16</text>
		<text x="228" y="51">F17</text>
		<text x="334" y="51">F18</text>
		<text x="372" y="51">F19</text>
		<text x="410" y="51">/</text>
		<text x="448" y="51">*</text>
		<text x="486" y="51">-</text>
		<text x="524" y="51">F23</text>
		<text x="562" y="51">F24</text>
		<text x="38" y="123"></text>
		<text x="76" y="117"></text>
		<text x="114" y="103"></text>
		<text x="152" y="97">PRT</text>
		<text x="190" y="101">SCR</text>
		<text x="228" y="107">BRK</text>
		<text x="334" y="107"></text>
		<text x="372" y="101">7</text>
		<text x="410" y="97">8</text>
		<text x="448" y="103">9</text>
		<text x="486" y="117">+</text>
		<text x="524" y="123"></text>
		<text x="562" y="131"></text>
		<text x="38" y="161"></text>
		<text x="76" y="155"></text>
		<text x="114" y="141"></text>
		<text x="152" y="135"></text>
		<text x="190" y="139"></text>
		<text x="228" y="145"></text>
		<text x="334" y="145"></text>
		<text x="372" y="139">4</text>
		<text x="410" y="135">5</text>
		<text x="448" y="141">6</text>
		<text x="486" y="155">+</text>
		<text x="524" y="161"></text>
		<text x="562" y="169"></text>
		<text x="38" y="199"></text>
		<text x="76" y="193"></text>
		<text x="114" y="179"></text>
		<text x="152" y="173">INS</text>
		<text x="190" y="177">HOM</text>
		<text x="228" y="183">PGU</text>
		<text x="334" y="183"></text>
		<text x="372" y="177">1</text>
		<text x="410" y="173">2</text>
		<text x="448" y="179">3</text>
		<text x="486" y="193">ENT</text>
		<text x="524" y="199"></text>
		<text x="562" y="207"></text>
		<text x="38" y="237"></text>
		<text x="76" y="231"></text>
		<text x="114" y="217"></text>
		<text x="152" y="211">DEL</text>
		<text x="190" y="215">END</text>
		<text x="228" y="221">PGD</text>
		<text x="334" y="221"></text>
		<text x="372" y="215">0</text>
		<text x="410" y="211">0</text>
		<text x="448" y="217">.</text>
		<text x="486" y="231">ENT</text>
		<text x="524" y="237"></text>
		<text x="99" y="277"></text>
		<text transform="rotate(15)" x="205.5" y="237.5">SP</text>
		<text transform="rotate(30)" x="298.5" y="171.5">BKS</text>
		<text transform="rotate(45)" x="371.5" y="83.5"></text>
		<text x="281" y="117"></text>
		<text x="281" y="155"></text>
		<text x="281" y="193"></text>
		<text x="281" y="246"></text>
		<text x="243" y="284"></text>
		<text x="281" y="284"></text>
		<text x="319" y="284"></text>
		<text transform="rotate(-45)" x="25.5" y="480.5"></text>
		<text transform="rotate(-30)" x="188.5" y="452.5">ENT</text>
		<text transform="rotate(-15)" x="337.5" y="382.5">SP</text>
		<text x="463" y="277"></text>
	</g>
</svg>
