<?xml version="1.0" encoding="UTF-8"?>
<svg width="960" height="480" version="1.1" xmlns="http://www.w3.org/2000/svg">
	<rect width="100%" height="100%" style="fill:#fff"/>
	<g style="fill:none;stroke:#000">
		<rect x="24.5" y="48.5" width="56" height="56" rx="2" ry="2"/>
		<rect x="85.5" y="40.5" width="56" height="56" rx="2" ry="2"/>
		<rect x="146.5" y="34.5" width="56" height="56" rx="2" ry="2"/>
		<rect x="207.5" y="32.5" width="56" height="56" rx="2" ry="2"/>
		<rect x="268.5" y="34.5" width="56" height="56" rx="2" ry="2"/>
		<rect x="329.5" y="38.5" width="56" height="56" rx="2" ry="2"/>
		<rect x="513.5" y="38.5" width="56" height="56" rx="2" ry="2"/>
		<rect x="574.5" y="34.5" width="56" height="56" rx="2" ry="2"/>
		<rect x="635.5" y="32.5" width="56" height="56" rx="2" ry="2"/>
		<rect x="696.5" y="34.5" width="56" height="56" rx="2" ry="2"/>
		<rect x="757.5" y="40.5" width="56" height="56" rx="2" ry="2"/>
		<rect x="818.5" y="48.5" width="56" height="56" rx="2" ry="2"/>
		<rect x="879.5" y="60.5" width="56" height="56" rx="2" ry="2"/>
		<rect x="24.5" y="125.5" width="56" height="56" rx="2" ry="2"/>
		<rect x="85.5" y="121.5" width="56" height="56" rx="2" ry="2"/>
		<rect x="146.5" y="105.5" width="56" height="56" rx="2" ry="2"/>
		<rect x="207.5" y="97.5" width="56" height="56" rx="2" ry="2"/>
		<rect x="268.5" y="105.5" width="56" height="56" rx="2" ry="2"/>
		<rect x="329.5" y="113.5" width="56" height="56" rx="2" ry="2"/>
		<rect x="513.5" y="113.5" width="56" height="56" rx="2" ry="2"/>
		<rect x="574.5" y="105.5" width="56" height="56" rx="2" ry="2"/>
		<rect x="635.5" y="97.5" width="56" height="56" rx="2" ry="2"/>
		<rect x="696.5" y="105.5" width="56" height="56" rx="2" ry="2"/>
		<rect x="757.5" y="121.5" width="56" height="56" rx="2" ry="2"/>
		<rect x="818.5" y="125.5" width="56" height="56" rx="2" ry="2"/>
		<rect x="879.5" y="129.5" width="56" height="56" rx="2" ry="2"/>
		<rect x="24.5" y="186.5" width="56" height="56" rx="2" ry="2"/>
		<rect x="85.5" y="182.5" width="56" height="56" rx="2" ry="2"/>
		<rect x="146.5" y="166.5" width="56" height="56" rx="2" ry="2"/>
		<rect x="207.5" y="158.5" width="56" height="56" rx="2" ry="2"/>
		<rect x="268.5" y="166.5" width="56" height="56" rx="2" ry="2"/>
		<rect x="329.5" y="174.5" width="56" height="56" rx="2" ry="2"/>
		<rect x="513.5" y="174.5" width="56" height="56" rx="2" ry="2"/>
		<rect x="574.5" y="166.5" width="56" height="56" rx="2" ry="2"/>
		<rect x="635.5" y="158.5" width="56" height="56" rx="2" ry="2"/>
		<rect x="696.5" y="166.5" width="56" height="56" rx="2" ry="2"/>
		<rect x="757.5" y="182.5" width="56" height="56" rx="2" ry="2"/>
		<rect x="818.5" y="186.5" width="56" height="56" rx="2" ry="2"/>
		<rect x="879.5" y="190.5" width="56" height="56" rx="2" ry="2"/>
		<rect x="24.5" y="247.5" width="56" height="56" rx="2" ry="2" style="fill:#18d"/>
		<rect x="85.5" y="243.5" width="56" height="56" rx="2" ry="2"/>
		<rect x="146.5" y="227.5" width="56" height="56" rx="2" ry="2"/>
		<rect x="207.5" y="219.5" width="56" height="56" rx="2" ry="2"/>
		<rect x="268.5" y="227.5" width="56" height="56" rx="2" ry="2"/>
		<rect x="329.5" y="235.5" width="56" height="56" rx="2" ry="2"/>
		<rect x="513.5" y="235.5" width="56" height="56" rx="2" ry="2"/>
		<rect x="574.5" y="227.5" width="56" height="56" rx="2" ry="2"/>
		<rect x="635.5" y="219.5" width="56" height="56" rx="2" ry="2"/>
		<rect x="696.5" y="227.5" width="56" height="56" rx="2" ry="2"/>
		<rect x="757.5" y="243.5" width="56" height="56" rx="2" ry="2"/>
		<rect x="818.5" y="247.5" width="56" height="56" rx="2" ry="2"/>
		<rect x="879.5" y="251.5" width="56" height="56" rx="2" ry="2"/>
		<rect x="24.5" y="308.5" width="56" height="56" rx="2" ry="2"/>
		<rect x="85.5" y="304.5" width="56" height="56" rx="2" ry="2"/>
		<rect x="146.5" y="288.5" width="56" height="56" rx="2" ry="2"/>
		<rect x="207.5" y="280.5" width="56" height="56" rx="2" ry="2"/>
		<rect x="268.5" y="288.5" width="56" height="56" rx="2" ry="2"/>
		<rect x="329.5" y="296.5" width="56" height="56" rx="2" ry="2"/>
		<rect x="513.5" y="296.5" width="56" height="56" rx="2" ry="2"/>
		<rect x="574.5" y="288.5" width="56" height="56" rx="2" ry="2"/>
		<rect x="635.5" y="280.5" width="56" height="56" rx="2" ry="2"/>
		<rect x="696.5" y="288.5" width="56" height="56" rx="2" ry="2"/>
		<rect x="757.5" y="304.5" width="56" height="56" rx="2" ry="2"/>
		<rect x="818.5" y="308.5" width="56" height="56" rx="2" ry="2"/>
		<rect x="146.5" y="357.5" width="56" height="56" rx="2" ry="2"/>
		<rect x="207.5" y="357.5" width="70" height="56" rx="2" ry="2"/>
		<rect x="282.5" y="369.5" width="70" height="56" rx="2" ry="2"/>
		<rect x="357.5" y="393.5" width="70" height="56" rx="2" ry="2"/>
		<rect x="471.5" y="393.5" width="70" height="56" rx="2" ry="2"/>
		<rect x="546.5" y="369.5" width="70" height="56" rx="2" ry="2"/>
		<rect x="621.5" y="357.5" width="70" height="56" rx="2" ry="2"/>
		<rect x="696.5" y="357.5" width="56" height="56" rx="2" ry="2" style="fill:#18d"/>
		<circle cx="449.5" cy="334.5" r="38"/>
	</g>
	<g style="fill:#18d">
		<rect x="653" y="63" width="21" height="20" rx="2" ry="2"/>
		<rect x="714" y="65" width="21" height="20" rx="2" ry="2"/>
		<rect x="775" y="71" width="21" height="20" rx="2" ry="2"/>
		<rect x="592" y="136" width="21" height="20" rx="2" ry="2"/>
		<rect x="653" y="128" width="21" height="20" rx="2" ry="2"/>
		<rect x="714" y="136" width="21" height="20" rx="2" ry="2"/>
		<rect x="775" y="152" width="21" height="20" rx="2" ry="2"/>
		<rect x="592" y="197" width="21" height="20" rx="2" ry="2"/>
		<rect x="653" y="189" width="21" height="20" rx="2" ry="2"/>
		<rect x="714" y="197" width="21" height="20" rx="2" ry="2"/>
		<rect x="592" y="258" width="21" height="20" rx="2" ry="2"/>
		<rect x="653" y="250" width="21" height="20" rx="2" ry="2"/>
		<rect x="714" y="258" width="21" height="20" rx="2" ry="2"/>
		<rect x="592" y="319" width="21" height="20" rx="2" ry="2"/>
		<rect x="653" y="311" width="21" height="20" rx="2" ry="2"/>
		<rect x="714" y="319" width="21" height="20" rx="2" ry="2"/>
		<rect x="775" y="335" width="21" height="20" rx="2" ry="2"/>
	</g>
	<g style="font-family:'Source Code Pro', monospace;font-size:20px;text-anchor:middle">
		<text x="52.5" y="73">Esc</text>
		<text x="113.5" y="65">F1</text>
		<text x="174.5" y="59">F2</text>
		<text x="235.5" y="57">F3</text>
		<text x="296.5" y="59">F4</text>
		<text x="357.5" y="63">F5</text>
		<text x="541.5" y="63">F6</text>
		<text x="602.5" y="59">F7</text>
		<text x="663.5" y="57">F8</text>
		<text x="724.5" y="59">F9</text>
		<text x="785.5" y="65">F10</text>
		<text x="846.5" y="73">F11</text>
		<text x="907.5" y="85">F12</text>
		<text x="52.5" y="150">~ `</text>
		<text x="113.5" y="146">! 1</text>
		<text x="174.5" y="130">@ 2</text>
		<text x="235.5" y="122"># 3</text>
		<text x="296.5" y="130">$ 4</text>
		<text x="357.5" y="138">% 5</text>
		<text x="541.5" y="138">^ 6</text>
		<text x="602.5" y="130">&amp; 7</text>
		<text x="663.5" y="122">* 8</text>
		<text x="724.5" y="130">( 9</text>
		<text x="785.5" y="146">) 0</text>
		<text x="846.5" y="150">_ -</text>
		<text x="907.5" y="154">+ =</text>
		<text x="52.5" y="211">Tab</text>
		<text x="113.5" y="207">Q</text>
		<text x="174.5" y="191">W</text>
		<text x="235.5" y="183">E</text>
		<text x="296.5" y="191">R</text>
		<text x="357.5" y="199">T</text>
		<text x="541.5" y="199">Y</text>
		<text x="602.5" y="191">U</text>
		<text x="663.5" y="183">I</text>
		<text x="724.5" y="191">O</text>
		<text x="785.5" y="207">P</text>
		<text x="846.5" y="211">{ [</text>
		<text x="907.5" y="215">} ]</text>
		<text x="52.5" y="272" style="fill:#fff">Fn</text>
		<text x="113.5" y="268">A</text>
		<text x="174.5" y="252">S</text>
		<text x="235.5" y="244">D</text>
		<text x="296.5" y="252">F</text>
		<text x="357.5" y="260">G</text>
		<text x="541.5" y="260">H</text>
		<text x="602.5" y="252">J</text>
		<text x="663.5" y="244">K</text>
		<text x="724.5" y="252">L</text>
		<text x="785.5" y="268">: ;</text>
		<text x="846.5" y="272">" '</text>
		<text x="907.5" y="276">| \</text>
		<text x="52.5" y="333">Shf</text>
		<text x="113.5" y="329">Z</text>
		<text x="174.5" y="313">X</text>
		<text x="235.5" y="305">C</text>
		<text x="296.5" y="313">V</text>
		<text x="357.5" y="321">B</text>
		<text x="541.5" y="321">N</text>
		<text x="602.5" y="313">M</text>
		<text x="663.5" y="305">&lt; ,</text>
		<text x="724.5" y="313">&gt; .</text>
		<text x="785.5" y="329">? /</text>
		<text x="846.5" y="333">Shf</text>
		<text x="174.5" y="382">Sys</text>
		<text x="242.5" y="382">Alt</text>
		<text x="317.5" y="394">BkSp</text>
		<text x="392.5" y="418">Ctrl</text>
		<text x="506.5" y="418">Enter</text>
		<text x="581.5" y="394">Space</text>
		<text x="656.5" y="382">Alt</text>
		<text x="724.5" y="382" style="fill:#fff">Fn</text>
	</g>
	<g style="fill:#18d;font-family:'Source Code Pro', monospace;font-size:18px;text-anchor:middle">
		<text x="846.5" y="95">Ins</text>
		<text x="907.5" y="107">Del</text>
		<text x="846.5" y="172">Home</text>
		<text x="907.5" y="176">PgUp</text>
		<text x="235.5" y="205">↑</text>
		<text x="785.5" y="229">End</text>
		<text x="846.5" y="233">↑</text>
		<text x="907.5" y="237">PgDn</text>
		<text x="174.5" y="274">←</text>
		<text x="235.5" y="266">↓</text>
		<text x="296.5" y="274">→</text>
		<text x="785.5" y="290">←</text>
		<text x="846.5" y="294">↓</text>
		<text x="907.5" y="298">→</text>
	</g>
	<g style="fill:#fff;font-family:'Source Code Pro', monospace;font-size:18px;text-anchor:middle">
		<text x="663.5" y="79">÷</text>
		<text x="724.5" y="81">*</text>
		<text x="785.5" y="87">-</text>
		<text x="602.5" y="152">7</text>
		<text x="663.5" y="144">8</text>
		<text x="724.5" y="152">9</text>
		<text x="785.5" y="168">+</text>
		<text x="602.5" y="213">4</text>
		<text x="663.5" y="205">5</text>
		<text x="724.5" y="213">6</text>
		<text x="602.5" y="274">1</text>
		<text x="663.5" y="266">2</text>
		<text x="724.5" y="274">3</text>
		<text x="602.5" y="335">0</text>
		<text x="663.5" y="327">0</text>
		<text x="724.5" y="335">.</text>
		<text x="785.5" y="351">E</text>
	</g>
	<g style="fill:#18d">
		<path d="m607.5 69v8m-4-4h8"/>
		<path d="m110 78v8h8v-8z"/>
		<path d="m169 71v10h2v-10zm10-0.5-7 5.5 7 5.5z"/>
		<path d="m232 70v9h3v-9zm5 0v9h3v-9z"/>
		<path d="m302 71v10h-2v-10zm-10-0.5 7 5.5-7 5.5z"/>
		<path d="m356 74-4 4h-2v4h2l4 4zm3.5 2-1.5 1.5 2.5 2.5-2.5 2.5 1.5 1.5 2.5-2.5 2.5 2.5 1.5-1.5-2.5-2.5 2.5-2.5-1.5-1.5-2.5 2.5z"/>
		<path d="m540 74-4 4h-2v4h2l4 4zm2 5v2h8v-2z"/>
		<path d="m601 70-4 4h-2v4h2l4 4zm5 2v3h-3v2h3v3h2v-3h3v-2h-3v-3z"/>
		<path d="m172 142-5.5 5 5.5 5zm7 0-5.5 5 5.5 5z"/>
		<path d="m232 134 8 5-8 5z"/>
		<path d="m299 142 5.5 5-5.5 5zm-7 0 5.5 5-5.5 5z"/>
		<path d="m448 313-4 4h-2v4h2l4 4zm5 2v3h-3v2h3v3h2v-3h3v-2h-3v-3z"/>
		<path d="m448 344-4 4h-2v4h2l4 4zm2 5v2h8v-2z"/>
	</g>
</svg>
