<?xml version="1.0" encoding="UTF-8"?>
<svg width="1140" height="410" version="1.1" xmlns="http://www.w3.org/2000/svg">
	<rect width="100%" height="100%" style="fill:#fff"/>
	<g style="fill:none;stroke:#000">
		<rect x="20.5" y="20.5" width="56" height="56" rx="2" ry="2"/>
		<rect x="142.5" y="20.5" width="56" height="56" rx="2" ry="2"/>
		<rect x="203.5" y="20.5" width="56" height="56" rx="2" ry="2"/>
		<rect x="264.5" y="20.5" width="56" height="56" rx="2" ry="2"/>
		<rect x="325.5" y="20.5" width="56" height="56" rx="2" ry="2"/>
		<rect x="417.5" y="20.5" width="56" height="56" rx="2" ry="2"/>
		<rect x="478.5" y="20.5" width="56" height="56" rx="2" ry="2"/>
		<rect x="539.5" y="20.5" width="56" height="56" rx="2" ry="2"/>
		<rect x="600.5" y="20.5" width="56" height="56" rx="2" ry="2"/>
		<rect x="691.5" y="20.5" width="56" height="56" rx="2" ry="2"/>
		<rect x="752.5" y="20.5" width="56" height="56" rx="2" ry="2"/>
		<rect x="813.5" y="20.5" width="56" height="56" rx="2" ry="2"/>
		<rect x="874.5" y="20.5" width="56" height="56" rx="2" ry="2"/>
		<rect x="941.5" y="20.5" width="56" height="56" rx="2" ry="2" style="stroke:#ccc"/>
		<rect x="1002.5" y="20.5" width="56" height="56" rx="2" ry="2" style="stroke:#ccc"/>
		<rect x="1063.5" y="20.5" width="56" height="56" rx="2" ry="2" style="stroke:#ccc"/>
		<rect x="20.5" y="89.5" width="56" height="56" rx="2" ry="2"/>
		<rect x="81.5" y="89.5" width="56" height="56" rx="2" ry="2"/>
		<rect x="142.5" y="89.5" width="56" height="56" rx="2" ry="2"/>
		<rect x="203.5" y="89.5" width="56" height="56" rx="2" ry="2"/>
		<rect x="264.5" y="89.5" width="56" height="56" rx="2" ry="2"/>
		<rect x="325.5" y="89.5" width="56" height="56" rx="2" ry="2"/>
		<rect x="386.5" y="89.5" width="56" height="56" rx="2" ry="2"/>
		<rect x="447.5" y="89.5" width="56" height="56" rx="2" ry="2"/>
		<rect x="508.5" y="89.5" width="56" height="56" rx="2" ry="2"/>
		<rect x="569.5" y="89.5" width="56" height="56" rx="2" ry="2"/>
		<rect x="630.5" y="89.5" width="56" height="56" rx="2" ry="2"/>
		<rect x="691.5" y="89.5" width="56" height="56" rx="2" ry="2"/>
		<rect x="752.5" y="89.5" width="56" height="56" rx="2" ry="2"/>
		<rect x="813.5" y="89.5" width="117" height="56" rx="2" ry="2" style="stroke:#ccc"/>
		<rect x="941.5" y="89.5" width="56" height="56" rx="2" ry="2" style="stroke:#ccc"/>
		<rect x="1002.5" y="89.5" width="56" height="56" rx="2" ry="2" style="stroke:#ccc"/>
		<rect x="1063.5" y="89.5" width="56" height="56" rx="2" ry="2" style="stroke:#ccc"/>
		<rect x="20.5" y="150.5" width="87" height="56" rx="2" ry="2" style="stroke:#ccc"/>
		<rect x="112.5" y="150.5" width="56" height="56" rx="2" ry="2"/>
		<rect x="173.5" y="150.5" width="56" height="56" rx="2" ry="2"/>
		<rect x="234.5" y="150.5" width="56" height="56" rx="2" ry="2"/>
		<rect x="295.5" y="150.5" width="56" height="56" rx="2" ry="2"/>
		<rect x="356.5" y="150.5" width="56" height="56" rx="2" ry="2"/>
		<rect x="417.5" y="150.5" width="56" height="56" rx="2" ry="2"/>
		<rect x="478.5" y="150.5" width="56" height="56" rx="2" ry="2"/>
		<rect x="539.5" y="150.5" width="56" height="56" rx="2" ry="2"/>
		<rect x="600.5" y="150.5" width="56" height="56" rx="2" ry="2"/>
		<rect x="661.5" y="150.5" width="56" height="56" rx="2" ry="2"/>
		<rect x="722.5" y="150.5" width="56" height="56" rx="2" ry="2"/>
		<rect x="783.5" y="150.5" width="56" height="56" rx="2" ry="2"/>
		<rect x="844.5" y="150.5" width="87" height="56" rx="2" ry="2" style="stroke:#ccc"/>
		<rect x="941.5" y="150.5" width="56" height="56" rx="2" ry="2" style="fill:#19e"/>
		<rect x="1002.5" y="150.5" width="56" height="56" rx="2" ry="2" style="fill:#19e"/>
		<rect x="1063.5" y="150.5" width="56" height="56" rx="2" ry="2" style="fill:#19e"/>
		<rect x="20.5" y="211.5" width="103" height="56" rx="2" ry="2" style="stroke:#ccc"/>
		<rect x="128.5" y="211.5" width="56" height="56" rx="2" ry="2"/>
		<rect x="189.5" y="211.5" width="56" height="56" rx="2" ry="2"/>
		<rect x="250.5" y="211.5" width="56" height="56" rx="2" ry="2"/>
		<rect x="311.5" y="211.5" width="56" height="56" rx="2" ry="2"/>
		<rect x="372.5" y="211.5" width="56" height="56" rx="2" ry="2"/>
		<rect x="433.5" y="211.5" width="56" height="56" rx="2" ry="2"/>
		<rect x="494.5" y="211.5" width="56" height="56" rx="2" ry="2"/>
		<rect x="555.5" y="211.5" width="56" height="56" rx="2" ry="2"/>
		<rect x="616.5" y="211.5" width="56" height="56" rx="2" ry="2"/>
		<rect x="677.5" y="211.5" width="56" height="56" rx="2" ry="2"/>
		<rect x="738.5" y="211.5" width="56" height="56" rx="2" ry="2"/>
		<rect x="799.5" y="211.5" width="131" height="56" rx="2" ry="2" style="stroke:#ccc"/>
		<rect x="20.5" y="272.5" width="133" height="56" rx="2" ry="2" style="stroke:#ccc"/>
		<rect x="158.5" y="272.5" width="56" height="56" rx="2" ry="2"/>
		<rect x="219.5" y="272.5" width="56" height="56" rx="2" ry="2"/>
		<rect x="280.5" y="272.5" width="56" height="56" rx="2" ry="2"/>
		<rect x="341.5" y="272.5" width="56" height="56" rx="2" ry="2"/>
		<rect x="402.5" y="272.5" width="56" height="56" rx="2" ry="2"/>
		<rect x="463.5" y="272.5" width="56" height="56" rx="2" ry="2"/>
		<rect x="524.5" y="272.5" width="56" height="56" rx="2" ry="2"/>
		<rect x="585.5" y="272.5" width="56" height="56" rx="2" ry="2"/>
		<rect x="646.5" y="272.5" width="56" height="56" rx="2" ry="2"/>
		<rect x="707.5" y="272.5" width="56" height="56" rx="2" ry="2"/>
		<rect x="768.5" y="272.5" width="162" height="56" rx="2" ry="2" style="stroke:#ccc"/>
		<rect x="1002.5" y="272.5" width="56" height="56" rx="2" ry="2" style="fill:#19e"/>
		<rect x="20.5" y="333.5" width="70" height="56" rx="2" ry="2" style="fill:#19e"/>
		<rect x="95.5" y="333.5" width="70" height="56" rx="2" ry="2" style="fill:#19e"/>
		<rect x="170.5" y="333.5" width="70" height="56" rx="2" ry="2" style="fill:#19e"/>
		<rect x="245.5" y="333.5" width="385" height="56" rx="2" ry="2" style="stroke:#ccc"/>
		<rect x="635.5" y="333.5" width="70" height="56" rx="2" ry="2" style="fill:#19e"/>
		<rect x="710.5" y="333.5" width="70" height="56" rx="2" ry="2" style="fill:#19e"/>
		<rect x="785.5" y="333.5" width="70" height="56" rx="2" ry="2" style="fill:#19e"/>
		<rect x="860.5" y="333.5" width="70" height="56" rx="2" ry="2" style="stroke:#ccc"/>
		<rect x="941.5" y="333.5" width="56" height="56" rx="2" ry="2" style="fill:#19e"/>
		<rect x="1002.5" y="333.5" width="56" height="56" rx="2" ry="2" style="fill:#19e"/>
		<rect x="1063.5" y="333.5" width="56" height="56" rx="2" ry="2" style="fill:#19e"/>
	</g>
	<g style="font-family:'Source Code Pro', monospace;font-size:20px;text-anchor:middle">
		<text x="48.5" y="45">Esc</text>
		<text x="170.5" y="45">F1</text>
		<text x="231.5" y="45">F2</text>
		<text x="292.5" y="45">F3</text>
		<text x="353.5" y="45">F4</text>
		<text x="445.5" y="45">F5</text>
		<text x="506.5" y="45">F6</text>
		<text x="567.5" y="45">F7</text>
		<text x="628.5" y="45">F8</text>
		<text x="719.5" y="45">F9</text>
		<text x="780.5" y="45">F10</text>
		<text x="841.5" y="45">F11</text>
		<text x="902.5" y="45">F12</text>
		<text x="48.5" y="114">~ `</text>
		<text x="109.5" y="114">! 1</text>
		<text x="170.5" y="114">@ 2</text>
		<text x="231.5" y="114"># 3</text>
		<text x="292.5" y="114">$ 4</text>
		<text x="353.5" y="114">% 5</text>
		<text x="414.5" y="114">^ 6</text>
		<text x="475.5" y="114">&amp; 7</text>
		<text x="536.5" y="114">* 8</text>
		<text x="597.5" y="114">( 9</text>
		<text x="658.5" y="114">) 0</text>
		<text x="719.5" y="114">_ -</text>
		<text x="780.5" y="114">+ =</text>
		<text x="140.5" y="175">Q</text>
		<text x="201.5" y="175">W</text>
		<text x="262.5" y="175">E</text>
		<text x="323.5" y="175">R</text>
		<text x="384.5" y="175">T</text>
		<text x="445.5" y="175">Y</text>
		<text x="506.5" y="175">U</text>
		<text x="567.5" y="175">I</text>
		<text x="628.5" y="175">O</text>
		<text x="689.5" y="175">P</text>
		<text x="750.5" y="175">{ [</text>
		<text x="811.5" y="175">} ]</text>
		<text x="156.5" y="236">A</text>
		<text x="217.5" y="236">S</text>
		<text x="278.5" y="236">D</text>
		<text x="339.5" y="236">F</text>
		<text x="400.5" y="236">G</text>
		<text x="461.5" y="236">H</text>
		<text x="522.5" y="236">J</text>
		<text x="583.5" y="236">K</text>
		<text x="644.5" y="236">L</text>
		<text x="705.5" y="236">: ;</text>
		<text x="766.5" y="236">" '</text>
		<text x="186.5" y="297">Z</text>
		<text x="247.5" y="297">X</text>
		<text x="308.5" y="297">C</text>
		<text x="369.5" y="297">V</text>
		<text x="430.5" y="297">B</text>
		<text x="491.5" y="297">N</text>
		<text x="552.5" y="297">M</text>
		<text x="613.5" y="297">&lt; ,</text>
		<text x="674.5" y="297">&gt; .</text>
		<text x="735.5" y="297">? /</text>
	</g>
	<g style="fill:#fff;font-family:'Source Code Pro', monospace;font-size:20px;text-anchor:middle">
		<text transform="scale(-1)" x="-55.5" y="-365">Ctrl</text>
		<text transform="scale(-1)" x="-130.5" y="-365">BkSp</text>
		<text transform="scale(-1)" x="-205.5" y="-365">Alt</text>
		<text transform="scale(-1)" x="-670.5" y="-365">Alt</text>
		<text transform="scale(-1)" x="-745.5" y="-365">Space</text>
		<text transform="scale(-1)" x="-820.5" y="-365">Enter</text>
		<text x="969.5" y="175">Tab</text>
		<text x="1030.5" y="175">Shf</text>
		<text x="1091.5" y="175">Shf</text>
		<text transform="scale(-1)" x="-969.5" y="-365">Sys</text>
		<text transform="scale(-1)" x="-1030.5" y="-365">Fn</text>
		<text x="1030.5" y="297">Fn</text>
		<text x="1091.5" y="358">| \</text>
	</g>
	<g style="fill:#fff;font-family:'Source Code Pro', monospace;font-size:12px;text-anchor:end">
		<text x="84" y="348">1.25</text>
		<text x="159" y="348">1.25</text>
		<text x="234" y="348">1.25</text>
		<text x="699" y="348">1.25</text>
		<text x="774" y="348">1.25</text>
		<text x="849" y="348">1.25</text>
	</g>
</svg>
