<?xml version="1.0" encoding="UTF-8"?>
<svg xmlns="http://www.w3.org/2000/svg" version="1.1" width="600" height="420">
	<rect width="600" height="420" style="fill:#fff"/>
	<g style="fill:#fff;stroke-linejoin:round;stroke:#999">
		<rect x="20.5" y="20.5" width="35" height="35"/>
		<rect x="58.5" y="20.5" width="35" height="35"/>
		<rect x="96.5" y="20.5" width="35" height="35"/>
		<rect x="134.5" y="20.5" width="35" height="35"/>
		<rect x="172.5" y="20.5" width="35" height="35"/>
		<rect x="210.5" y="20.5" width="35" height="35"/>
		<rect x="316.5" y="20.5" width="35" height="35"/>
		<rect x="354.5" y="20.5" width="35" height="35"/>
		<rect x="392.5" y="20.5" width="35" height="35"/>
		<rect x="430.5" y="20.5" width="35" height="35"/>
		<rect x="468.5" y="20.5" width="35" height="35"/>
		<rect x="506.5" y="20.5" width="35" height="35"/>
		<rect x="544.5" y="20.5" width="35" height="35"/>
		<rect x="20.5" y="94.5" width="35" height="35"/>
		<rect x="58.5" y="88.5" width="35" height="35"/>
		<rect x="96.5" y="72.5" width="35" height="35"/>
		<rect x="134.5" y="66.5" width="35" height="35"/>
		<rect x="172.5" y="72.5" width="35" height="35"/>
		<rect x="210.5" y="78.5" width="35" height="35"/>
		<rect x="316.5" y="78.5" width="35" height="35"/>
		<rect x="354.5" y="72.5" width="35" height="35"/>
		<rect x="392.5" y="66.5" width="35" height="35"/>
		<rect x="430.5" y="72.5" width="35" height="35"/>
		<rect x="468.5" y="88.5" width="35" height="35"/>
		<rect x="506.5" y="94.5" width="35" height="35"/>
		<rect x="544.5" y="100.5" width="35" height="35"/>
		<rect x="20.5" y="132.5" width="35" height="35"/>
		<rect x="58.5" y="126.5" width="35" height="35"/>
		<rect x="96.5" y="110.5" width="35" height="35"/>
		<rect x="134.5" y="104.5" width="35" height="35"/>
		<rect x="172.5" y="110.5" width="35" height="35"/>
		<rect x="210.5" y="116.5" width="35" height="35"/>
		<rect x="316.5" y="116.5" width="35" height="35"/>
		<rect x="354.5" y="110.5" width="35" height="35"/>
		<rect x="392.5" y="104.5" width="35" height="35"/>
		<rect x="430.5" y="110.5" width="35" height="35"/>
		<rect x="468.5" y="126.5" width="35" height="35"/>
		<rect x="506.5" y="132.5" width="35" height="35"/>
		<rect x="544.5" y="138.5" width="35" height="35"/>
		<rect x="20.5" y="170.5" width="35" height="35"/>
		<rect x="58.5" y="164.5" width="35" height="35"/>
		<rect x="96.5" y="148.5" width="35" height="35"/>
		<rect x="134.5" y="142.5" width="35" height="35"/>
		<rect x="172.5" y="148.5" width="35" height="35"/>
		<rect x="210.5" y="154.5" width="35" height="35"/>
		<rect x="316.5" y="154.5" width="35" height="35"/>
		<rect x="354.5" y="148.5" width="35" height="35"/>
		<rect x="392.5" y="142.5" width="35" height="35"/>
		<rect x="430.5" y="148.5" width="35" height="35"/>
		<rect x="468.5" y="164.5" width="35" height="35"/>
		<rect x="506.5" y="170.5" width="35" height="35"/>
		<rect x="544.5" y="176.5" width="35" height="35"/>
		<rect x="20.5" y="208.5" width="35" height="35"/>
		<rect x="58.5" y="202.5" width="35" height="35"/>
		<rect x="96.5" y="186.5" width="35" height="35"/>
		<rect x="134.5" y="180.5" width="35" height="35"/>
		<rect x="172.5" y="186.5" width="35" height="35"/>
		<rect x="210.5" y="192.5" width="35" height="35"/>
		<rect x="316.5" y="192.5" width="35" height="35"/>
		<rect x="354.5" y="186.5" width="35" height="35"/>
		<rect x="392.5" y="180.5" width="35" height="35"/>
		<rect x="430.5" y="186.5" width="35" height="35"/>
		<rect x="468.5" y="202.5" width="35" height="35"/>
		<rect x="506.5" y="208.5" width="35" height="35"/>
		<rect x="87.5" y="253.5" width="43" height="35"/>
		<rect transform="rotate(15)" x="203" y="210" width="43" height="35"/>
		<rect transform="rotate(30)" x="304" y="138" width="43" height="35"/>
		<path d="m281 220.5 24.5 24.5-24.5 24.5-24.5-24.5z"/>
		<path d="m254 247.5 24.5 24.5-24.5 24.5-24.5-24.5z"/>
		<path d="m308 247.5 24.5 24.5-24.5 24.5-24.5-24.5z"/>
		<path d="m281 274.5 24.5 24.5-24.5 24.5-24.5-24.5z"/>
		<rect transform="rotate(-30)" x="140" y="419" width="43" height="35"/>
		<rect transform="rotate(-15)" x="297" y="355" width="43" height="35"/>
		<rect x="431.5" y="253.5" width="43" height="35"/>
	</g>
	<g style="fill:none;stroke-dasharray:2, 2;stroke-linejoin:round;stroke-width:2;stroke:#000">
		<path d="m38 38v188"/>
		<path d="m76 38v182l33 51"/>
		<path d="m114 38v166l44 74"/>
		<path d="m152 38v160l52 99"/>
		<path d="m190 38v166l64 68"/>
		<path d="m228 38v172l53 35"/>
		<path d="m334 38v172l-26 62"/>
		<path d="m372 38v166l-39 80-52 15"/>
		<path d="m410 38v160l-52 99"/>
		<path d="m448 38v166l-44 74"/>
		<path d="m486 38v181l-33 52"/>
		<path d="m524 38v188"/>
		<path d="m562 38v156"/>
		<path d="m28 373h128"/>
	</g>
	<g style="fill:none;stroke-linejoin:round;stroke-width:2;stroke:#000">
		<path d="m38 38h524"/>
		<path d="m38 112 38-6 38-16 38-6 76 12h106l76-12 38 6 38 16 76 12"/>
		<path d="m38 150 38-6 38-16 38-6 76 12h106l76-12 38 6 38 16 76 12"/>
		<path d="m38 188 38-6 38-16 38-6 76 12h106l76-12 38 6 38 16 76 12"/>
		<path d="m38 226 38-6 38-16 38-6 76 12h106l76-12 38 6 38 16 38 6"/>
		<path d="m109 271 49 7 46 19 50-25 27-27 27 27-27 27 77-2 46-19 49-7"/>
		<path d="m572 373h-400"/>
	</g>
	<g style="fill:#fff;stroke-linejoin:round;stroke-width:2;stroke:#000">
		<circle cx="28" cy="373" r="6"/>
		<path d="m164 363v-8"/>
		<path d="m152 363h24"/>
		<circle cx="156" cy="373" r="4"/>
		<circle cx="172" cy="373" r="4"/>
		<path d="m293 364v18"/>
		<path d="m307 365v16l-14-8z"/>
		<path d="m442 336-6-10-6 10"/>
		<path d="m436 326v15l-6 2 12 4-12 4 12 4-12 4 12 4-6 2v8"/>
		<circle cx="572" cy="373" r="6"/>
	</g>
	<g>
		<circle cx="38" cy="38" r="3"/>
		<circle cx="76" cy="38" r="3"/>
		<circle cx="114" cy="38" r="3"/>
		<circle cx="152" cy="38" r="3"/>
		<circle cx="190" cy="38" r="3"/>
		<circle cx="228" cy="38" r="3"/>
		<circle cx="334" cy="38" r="3"/>
		<circle cx="372" cy="38" r="3"/>
		<circle cx="410" cy="38" r="3"/>
		<circle cx="448" cy="38" r="3"/>
		<circle cx="486" cy="38" r="3"/>
		<circle cx="524" cy="38" r="3"/>
		<circle cx="562" cy="38" r="3"/>
		<circle cx="38" cy="112" r="3"/>
		<circle cx="76" cy="106" r="3"/>
		<circle cx="114" cy="90" r="3"/>
		<circle cx="152" cy="84" r="3"/>
		<circle cx="190" cy="90" r="3"/>
		<circle cx="228" cy="96" r="3"/>
		<circle cx="334" cy="96" r="3"/>
		<circle cx="372" cy="90" r="3"/>
		<circle cx="410" cy="84" r="3"/>
		<circle cx="448" cy="90" r="3"/>
		<circle cx="486" cy="106" r="3"/>
		<circle cx="524" cy="112" r="3"/>
		<circle cx="562" cy="118" r="3"/>
		<circle cx="38" cy="150" r="3"/>
		<circle cx="76" cy="144" r="3"/>
		<circle cx="114" cy="128" r="3"/>
		<circle cx="152" cy="122" r="3"/>
		<circle cx="190" cy="128" r="3"/>
		<circle cx="228" cy="134" r="3"/>
		<circle cx="334" cy="134" r="3"/>
		<circle cx="372" cy="128" r="3"/>
		<circle cx="410" cy="122" r="3"/>
		<circle cx="448" cy="128" r="3"/>
		<circle cx="486" cy="144" r="3"/>
		<circle cx="524" cy="150" r="3"/>
		<circle cx="562" cy="156" r="3"/>
		<circle cx="38" cy="188" r="3"/>
		<circle cx="76" cy="182" r="3"/>
		<circle cx="114" cy="166" r="3"/>
		<circle cx="152" cy="160" r="3"/>
		<circle cx="190" cy="166" r="3"/>
		<circle cx="228" cy="172" r="3"/>
		<circle cx="334" cy="172" r="3"/>
		<circle cx="372" cy="166" r="3"/>
		<circle cx="410" cy="160" r="3"/>
		<circle cx="448" cy="166" r="3"/>
		<circle cx="486" cy="182" r="3"/>
		<circle cx="524" cy="188" r="3"/>
		<circle cx="562" cy="194" r="3"/>
		<circle cx="38" cy="226" r="3"/>
		<circle cx="76" cy="220" r="3"/>
		<circle cx="114" cy="204" r="3"/>
		<circle cx="152" cy="198" r="3"/>
		<circle cx="190" cy="204" r="3"/>
		<circle cx="228" cy="210" r="3"/>
		<circle cx="334" cy="210" r="3"/>
		<circle cx="372" cy="204" r="3"/>
		<circle cx="410" cy="198" r="3"/>
		<circle cx="448" cy="204" r="3"/>
		<circle cx="486" cy="220" r="3"/>
		<circle cx="524" cy="226" r="3"/>
		<circle cx="109" cy="271" r="3"/>
		<circle cx="158" cy="278" r="3"/>
		<circle cx="204" cy="297" r="3"/>
		<circle cx="254" cy="272" r="3"/>
		<circle cx="281" cy="245" r="3"/>
		<circle cx="308" cy="272" r="3"/>
		<circle cx="281" cy="299" r="3"/>
		<circle cx="358" cy="297" r="3"/>
		<circle cx="404" cy="278" r="3"/>
		<circle cx="453" cy="271" r="3"/>
	</g>
	<g style="font-family:'Source Code Pro', monospace;font-size:14px">
		<text x="20" y="400">Output</text>
		<text x="164" y="400" style="text-anchor:middle">Switch</text>
		<text x="300" y="400" style="text-anchor:middle">Diode</text>
		<text x="436" y="400" style="text-anchor:middle">Pullup</text>
		<text x="580" y="400" style="text-anchor:end">Input</text>
		<text x="452" y="352">(internal)</text>
	</g>
</svg>
