  0
SECTION
  2
HEADER
  9
$ACADVER
  1
AC1009
  9
$DWGCODEPAGE
  3
ANSI_1252
  9
$INSBASE
 10
0.0
 20
0.0
 30
0.0
  9
$EXTMIN
 10
-100
 20
-100
 30
-100
  9
$EXTMAX
 10
100
 20
100
 30
100
  9
$LIMMIN
 10
0.0
 20
0.0
  9
$LIMMAX
 10
420.0
 20
297.0
  9
$ORTHOMODE
 70
0
  9
$REGENMODE
 70
1
  9
$DRAGMODE
 70
2
  9
$FILLMODE
 70
1
  9
$QTEXTMODE
 70
0
  9
$MIRRTEXT
 70
1
  9
$OSMODE
 70
20583
  9
$LTSCALE
 40
1.0
  9
$ATTMODE
 70
1
  9
$TEXTSIZE
 40
2.5
  9
$TRACEWID
 40
1.0
  9
$TEXTSTYLE
  7
Standard
  9
$CLAYER
  8
0
  9
$CELTYPE
  6
ByLayer
  9
$CECOLOR
 62
256
  9
$DIMSCALE
 40
1.0
  9
$DIMASZ
 40
2.5
  9
$DIMEXO
 40
0.625
  9
$DIMDLI
 40
3.75
  9
$DIMRND
 40
0.0
  9
$DIMDLE
 40
0.0
  9
$DIMEXE
 40
1.25
  9
$DIMTP
 40
0.0
  9
$DIMTM
 40
0.0
  9
$DIMTXT
 40
2.5
  9
$DIMCEN
 40
2.5
  9
$DIMTSZ
 40
0.0
  9
$DIMTOL
 70
0
  9
$DIMLIM
 70
0
  9
$DIMTIH
 70
0
  9
$DIMTOH
 70
0
  9
$DIMSE1
 70
0
  9
$DIMSE2
 70
0
  9
$DIMTAD
 70
1
  9
$DIMZIN
 70
8
  9
$DIMBLK
  1

  9
$DIMASO
 70
1
  9
$DIMSHO
 70
1
  9
$DIMPOST
  1

  9
$DIMAPOST
  1

  9
$DIMALT
 70
0
  9
$DIMALTD
 70
3
  9
$DIMALTF
 40
0.03937007874
  9
$DIMLFAC
 40
1.0
  9
$DIMTOFL
 70
1
  9
$DIMTVP
 40
0.0
  9
$DIMTIX
 70
0
  9
$DIMSOXD
 70
0
  9
$DIMSAH
 70
0
  9
$DIMBLK1
  1

  9
$DIMBLK2
  1

  9
$DIMSTYLE
  2
ISO-25
  9
$DIMCLRD
 70
0
  9
$DIMCLRE
 70
0
  9
$DIMCLRT
 70
0
  9
$DIMTFAC
 40
1.0
  9
$DIMGAP
 40
0.625
  9
$COORDS
 70
1
  9
$ATTDIA
 70
0
  9
$ATTREQ
 70
1
  9
$HANDLING
 70
1
  9
$LUNITS
 70
2
  9
$LUPREC
 70
4
  9
$SKETCHINC
 40
1.0
  9
$FILLETRAD
 40
10.0
  9
$AUNITS
 70
0
  9
$AUPREC
 70
2
  9
$MENU
  1
.
  9
$ELEVATION
 40
0.0
  9
$PELEVATION
 40
0.0
  9
$THICKNESS
 40
0.0
  9
$LIMCHECK
 70
0
  9
$CHAMFERA
 40
0.0
  9
$CHAMFERB
 40
0.0
  9
$SKPOLY
 70
0
  9
$TDCREATE
 40
2459085.6291203704
  9
$TDUPDATE
 40
2459085.6291203704
  9
$TDINDWG
 40
0.0
  9
$TDUSRTIMER
 40
0.0
  9
$USRTIMER
 70
1
  9
$ANGBASE
 50
0.0
  9
$ANGDIR
 70
0
  9
$PDMODE
 70
0
  9
$PDSIZE
 40
0.0
  9
$PLINEWID
 40
0.0
  9
$SPLFRAME
 70
0
  9
$SPLINETYPE
 70
6
  9
$SPLINESEGS
 70
8
  9
$HANDSEED
  5
157
  9
$SURFTAB1
 70
6
  9
$SURFTAB2
 70
6
  9
$SURFTYPE
 70
6
  9
$SURFU
 70
6
  9
$SURFV
 70
6
  9
$UCSNAME
  2

  9
$UCSORG
 10
0.0
 20
0.0
 30
0.0
  9
$UCSXDIR
 10
1.0
 20
0.0
 30
0.0
  9
$UCSYDIR
 10
0.0
 20
1.0
 30
0.0
  9
$PUCSNAME
  2

  9
$PUCSORG
 10
0.0
 20
0.0
 30
0.0
  9
$PUCSXDIR
 10
1.0
 20
0.0
 30
0.0
  9
$PUCSYDIR
 10
0.0
 20
1.0
 30
0.0
  9
$USERI1
 70
0
  9
$USERI2
 70
0
  9
$USERI3
 70
0
  9
$USERI4
 70
0
  9
$USERI5
 70
0
  9
$USERR1
 40
0.0
  9
$USERR2
 40
0.0
  9
$USERR3
 40
0.0
  9
$USERR4
 40
0.0
  9
$USERR5
 40
0.0
  9
$WORLDVIEW
 70
1
  9
$SHADEDGE
 70
3
  9
$SHADEDIF
 70
70
  9
$TILEMODE
 70
1
  9
$MAXACTVP
 70
64
  9
$PLIMCHECK
 70
0
  9
$PEXTMIN
 10
1e+20
 20
1e+20
 30
1e+20
  9
$PEXTMAX
 10
-1e+20
 20
-1e+20
 30
-1e+20
  9
$PLIMMIN
 10
0.0
 20
0.0
  9
$PLIMMAX
 10
420.0
 20
297.0
  9
$UNITMODE
 70
0
  9
$VISRETAIN
 70
1
  9
$PLINEGEN
 70
0
  9
$PSLTSCALE
 70
1
  0
ENDSEC
  0
SECTION
  2
TABLES
  0
TABLE
  2
VPORT
 70
1
  0
VPORT
  5
23
  2
*Active
 70
0
 10
0.0
 20
0.0
 11
1.0
 21
1.0
 12
70.0
 22
50.0
 13
0.0
 23
0.0
 14
0.5
 24
0.5
 15
0.5
 25
0.5
 16
0.0
 26
0.0
 36
1.0
 17
0.0
 27
0.0
 37
0.0
 40
1.0
 41
1.34
 42
50.0
 43
0.0
 44
0.0
 50
0.0
 51
0.0
 71
0
 72
1000
 73
1
 74
3
 75
0
 76
0
 77
0
 78
0
  0
ENDTAB
  0
TABLE
  2
LTYPE
 70
3
  0
LTYPE
  5
24
  2
ByBlock
 70
0
  3

 72
65
 73
0
 40
0.0
  0
LTYPE
  5
25
  2
ByLayer
 70
0
  3

 72
65
 73
0
 40
0.0
  0
LTYPE
  5
26
  2
Continuous
 70
0
  3

 72
65
 73
0
 40
0.0
  0
ENDTAB
  0
TABLE
  2
LAYER
 70
2
  0
LAYER
  5
27
  2
0
 70
0
 62
7
  6
Continuous
  0
LAYER
  5
28
  2
Defpoints
 70
0
 62
7
  6
Continuous
  0
ENDTAB
  0
TABLE
  2
STYLE
 70
1
  0
STYLE
  5
29
  2
Standard
 70
0
 40
0.0
 41
1.0
 50
0.0
 71
0
 42
2.5
  3
txt
  4

  0
ENDTAB
  0
TABLE
  2
VIEW
 70
0
  0
ENDTAB
  0
TABLE
  2
UCS
 70
0
  0
ENDTAB
  0
TABLE
  2
APPID
 70
1
  0
APPID
  5
2A
  2
ACAD
 70
0
  0
ENDTAB
  0
TABLE
  2
DIMSTYLE
 70
1
  0
DIMSTYLE
105
2B
  2
Standard
 70
0
  3

  4

  5

  6

  7

 40
1.0
 41
2.5
 42
0.625
 43
3.75
 44
1.25
 45
0.0
 46
0.0
 47
0.0
 48
0.0
140
2.5
141
2.5
142
0.0
143
0.03937007874
144
1.0
145
0.0
146
1.0
147
0.625
 71
0
 72
0
 73
0
 74
0
 75
0
 76
0
 77
1
 78
8
170
0
171
3
172
1
173
0
174
0
175
0
176
0
177
0
178
0
  0
ENDTAB
  0
ENDSEC
  0
SECTION
  2
BLOCKS
  0
BLOCK
  5
18
  8
0
  2
$Model_Space
 70
0
 10
0.0
 20
0.0
 30
0.0
  3
$Model_Space
  1

  0
ENDBLK
  5
19
  8
0
  0
BLOCK
  5
1C
  8
0
  2
$Paper_Space
 70
0
 10
0.0
 20
0.0
 30
0.0
  3
$Paper_Space
  1

  0
ENDBLK
  5
1D
  8
0
  0
ENDSEC
  0
SECTION
  2
ENTITIES
  0
LINE
  5
2D
  8
0
 10
59.25153599063649
 20
166.39101779839763
 30
0.0
 11
72.4564640093635
 21
163.58398220160237
 31
0.0
  0
ARC
  5
2E
  8
0
 10
72.50844621096587
 20
163.82851819223885
 30
0.0
 40
0.25
 50
257.998997438636
 51
347.998997438636
  0
LINE
  5
2F
  8
0
 10
72.75298220160236
 20
163.7765359906365
 30
0.0
 11
75.56001779839762
 21
176.98146400936352
 31
0.0
  0
ARC
  5
30
  8
0
 10
75.31548180776113
 20
177.03344621096588
 30
0.0
 40
0.25
 50
347.998997438636
 51
77.99899743863601
  0
LINE
  5
31
  8
0
 10
75.3674640093635
 20
177.27798220160236
 30
0.0
 11
62.162535990636485
 21
180.08501779839762
 31
0.0
  0
ARC
  5
32
  8
0
 10
62.110553789034114
 20
179.84048180776114
 30
0.0
 40
0.25
 50
77.99899743863601
 51
167.99899743863605
  0
LINE
  5
33
  8
0
 10
61.86601779839762
 20
179.8924640093635
 30
0.0
 11
59.05898220160237
 21
166.68753599063646
 31
0.0
  0
ARC
  5
34
  8
0
 10
59.30351819223886
 20
166.6355537890341
 30
0.0
 40
0.25
 50
167.99899743863605
 51
257.998997438636
  0
LINE
  5
35
  8
0
 10
77.59153599063649
 20
162.49201779839763
 30
0.0
 11
90.7964640093635
 21
159.68498220160237
 31
0.0
  0
ARC
  5
36
  8
0
 10
90.84844621096588
 20
159.92951819223885
 30
0.0
 40
0.25
 50
257.998997438636
 51
347.998997438636
  0
LINE
  5
37
  8
0
 10
91.09298220160237
 20
159.8775359906365
 30
0.0
 11
93.90001779839763
 21
173.08246400936352
 31
0.0
  0
ARC
  5
38
  8
0
 10
93.65548180776113
 20
173.13444621096588
 30
0.0
 40
0.25
 50
347.998997438636
 51
77.99899743863601
  0
LINE
  5
39
  8
0
 10
93.7074640093635
 20
173.37898220160235
 30
0.0
 11
80.50253599063649
 21
176.18601779839761
 31
0.0
  0
ARC
  5
3A
  8
0
 10
80.45055378903412
 20
175.94148180776114
 30
0.0
 40
0.25
 50
77.99899743863601
 51
167.99899743863602
  0
LINE
  5
3B
  8
0
 10
80.20601779839762
 20
175.9934640093635
 30
0.0
 11
77.39898220160237
 21
162.78853599063646
 31
0.0
  0
ARC
  5
3C
  8
0
 10
77.64351819223886
 20
162.7365537890341
 30
0.0
 40
0.25
 50
167.99899743863602
 51
257.998997438636
  0
LINE
  5
3D
  8
0
 10
51.61053599063649
 20
130.44401779839762
 30
0.0
 11
64.81546400936351
 21
127.63698220160236
 31
0.0
  0
ARC
  5
3E
  8
0
 10
64.86744621096588
 20
127.88151819223886
 30
0.0
 40
0.25
 50
257.998997438636
 51
347.998997438636
  0
LINE
  5
3F
  8
0
 10
65.11198220160237
 20
127.82953599063649
 30
0.0
 11
67.91901779839763
 21
141.03446400936352
 31
0.0
  0
ARC
  5
40
  8
0
 10
67.67448180776114
 20
141.08644621096587
 30
0.0
 40
0.25
 50
347.998997438636
 51
77.99899743863601
  0
LINE
  5
41
  8
0
 10
67.72646400936351
 20
141.33098220160235
 30
0.0
 11
54.521535990636494
 21
144.1380177983976
 31
0.0
  0
ARC
  5
42
  8
0
 10
54.46955378903412
 20
143.89348180776113
 30
0.0
 40
0.25
 50
77.99899743863601
 51
167.99899743863602
  0
LINE
  5
43
  8
0
 10
54.22501779839763
 20
143.9454640093635
 30
0.0
 11
51.41798220160237
 21
130.74053599063646
 31
0.0
  0
ARC
  5
44
  8
0
 10
51.66251819223886
 20
130.6885537890341
 30
0.0
 40
0.25
 50
167.99899743863602
 51
257.998997438636
  0
LINE
  5
45
  8
0
 10
70.57453599063649
 20
129.48001779839763
 30
0.0
 11
83.77946400936351
 21
126.67298220160237
 31
0.0
  0
ARC
  5
46
  8
0
 10
83.83144621096588
 20
126.91751819223886
 30
0.0
 40
0.25
 50
257.998997438636
 51
347.998997438636
  0
LINE
  5
47
  8
0
 10
84.07598220160237
 20
126.86553599063649
 30
0.0
 11
86.88301779839763
 21
140.07046400936352
 31
0.0
  0
ARC
  5
48
  8
0
 10
86.63848180776114
 20
140.12244621096588
 30
0.0
 40
0.25
 50
347.998997438636
 51
77.99899743863601
  0
LINE
  5
49
  8
0
 10
86.69046400936351
 20
140.36698220160235
 30
0.0
 11
73.48553599063649
 21
143.1740177983976
 31
0.0
  0
ARC
  5
4A
  8
0
 10
73.43355378903412
 20
142.92948180776114
 30
0.0
 40
0.25
 50
77.99899743863601
 51
167.99899743863602
  0
LINE
  5
4B
  8
0
 10
73.18901779839763
 20
142.9814640093635
 30
0.0
 11
70.38198220160237
 21
129.77653599063646
 31
0.0
  0
ARC
  5
4C
  8
0
 10
70.62651819223886
 20
129.7245537890341
 30
0.0
 40
0.25
 50
167.99899743863602
 51
257.998997438636
  0
LINE
  5
4D
  8
0
 10
47.71153599063649
 20
112.10301779839763
 30
0.0
 11
60.91646400936351
 21
109.29598220160237
 31
0.0
  0
ARC
  5
4E
  8
0
 10
60.96844621096588
 20
109.54051819223886
 30
0.0
 40
0.25
 50
257.998997438636
 51
347.998997438636
  0
LINE
  5
4F
  8
0
 10
61.21298220160237
 20
109.48853599063649
 30
0.0
 11
64.02001779839763
 21
122.69346400936351
 31
0.0
  0
ARC
  5
50
  8
0
 10
63.77548180776114
 20
122.74544621096588
 30
0.0
 40
0.25
 50
347.998997438636
 51
77.99899743863601
  0
LINE
  5
51
  8
0
 10
63.82746400936351
 20
122.98998220160237
 30
0.0
 11
50.62253599063649
 21
125.79701779839763
 31
0.0
  0
ARC
  5
52
  8
0
 10
50.57055378903412
 20
125.55248180776114
 30
0.0
 40
0.25
 50
77.99899743863601
 51
167.998997438636
  0
LINE
  5
53
  8
0
 10
50.32601779839763
 20
125.60446400936351
 30
0.0
 11
47.51898220160237
 21
112.3995359906365
 31
0.0
  0
ARC
  5
54
  8
0
 10
47.76351819223886
 20
112.34755378903412
 30
0.0
 40
0.25
 50
167.998997438636
 51
257.998997438636
  0
LINE
  5
55
  8
0
 10
66.67553599063649
 20
111.13901779839763
 30
0.0
 11
79.88046400936351
 21
108.33198220160237
 31
0.0
  0
ARC
  5
56
  8
0
 10
79.93244621096588
 20
108.57651819223886
 30
0.0
 40
0.25
 50
257.998997438636
 51
347.998997438636
  0
LINE
  5
57
  8
0
 10
80.17698220160237
 20
108.5245359906365
 30
0.0
 11
82.98401779839763
 21
121.72946400936351
 31
0.0
  0
ARC
  5
58
  8
0
 10
82.73948180776114
 20
121.78144621096588
 30
0.0
 40
0.25
 50
347.998997438636
 51
77.99899743863601
  0
LINE
  5
59
  8
0
 10
82.79146400936351
 20
122.02598220160237
 30
0.0
 11
69.58653599063649
 21
124.83301779839763
 31
0.0
  0
ARC
  5
5A
  8
0
 10
69.53455378903412
 20
124.58848180776114
 30
0.0
 40
0.25
 50
77.99899743863601
 51
167.998997438636
  0
LINE
  5
5B
  8
0
 10
69.29001779839763
 20
124.64046400936351
 30
0.0
 11
66.48298220160237
 21
111.4355359906365
 31
0.0
  0
ARC
  5
5C
  8
0
 10
66.72751819223886
 20
111.38355378903412
 30
0.0
 40
0.25
 50
167.998997438636
 51
257.998997438636
  0
LINE
  5
5D
  8
0
 10
43.813535990636495
 20
93.76301779839763
 30
0.0
 11
57.01846400936351
 21
90.95598220160237
 31
0.0
  0
ARC
  5
5E
  8
0
 10
57.07044621096588
 20
91.20051819223886
 30
0.0
 40
0.25
 50
257.998997438636
 51
347.998997438636
  0
LINE
  5
5F
  8
0
 10
57.314982201602376
 20
91.14853599063649
 30
0.0
 11
60.122017798397636
 21
104.3534640093635
 31
0.0
  0
ARC
  5
60
  8
0
 10
59.87748180776114
 20
104.40544621096588
 30
0.0
 40
0.25
 50
347.998997438636
 51
77.99899743863601
  0
LINE
  5
61
  8
0
 10
59.929464009363514
 20
104.64998220160237
 30
0.0
 11
46.7245359906365
 21
107.45701779839763
 31
0.0
  0
ARC
  5
62
  8
0
 10
46.672553789034126
 20
107.21248180776114
 30
0.0
 40
0.25
 50
77.99899743863601
 51
167.998997438636
  0
LINE
  5
63
  8
0
 10
46.42801779839763
 20
107.26446400936351
 30
0.0
 11
43.620982201602374
 21
94.05953599063649
 31
0.0
  0
ARC
  5
64
  8
0
 10
43.865518192238866
 20
94.00755378903412
 30
0.0
 40
0.25
 50
167.998997438636
 51
257.998997438636
  0
LINE
  5
65
  8
0
 10
62.777535990636494
 20
92.79901779839763
 30
0.0
 11
75.98246400936351
 21
89.99198220160237
 31
0.0
  0
ARC
  5
66
  8
0
 10
76.03444621096588
 20
90.23651819223886
 30
0.0
 40
0.25
 50
257.998997438636
 51
347.998997438636
  0
LINE
  5
67
  8
0
 10
76.27898220160237
 20
90.18453599063649
 30
0.0
 11
79.08601779839763
 21
103.38946400936351
 31
0.0
  0
ARC
  5
68
  8
0
 10
78.84148180776114
 20
103.44144621096588
 30
0.0
 40
0.25
 50
347.998997438636
 51
77.99899743863601
  0
LINE
  5
69
  8
0
 10
78.89346400936351
 20
103.68598220160237
 30
0.0
 11
65.6885359906365
 21
106.49301779839763
 31
0.0
  0
ARC
  5
6A
  8
0
 10
65.63655378903412
 20
106.24848180776114
 30
0.0
 40
0.25
 50
77.99899743863601
 51
167.998997438636
  0
LINE
  5
6B
  8
0
 10
65.39201779839763
 20
106.30046400936351
 30
0.0
 11
62.58498220160237
 21
93.09553599063649
 31
0.0
  0
ARC
  5
6C
  8
0
 10
62.829518192238865
 20
93.04355378903412
 30
0.0
 40
0.25
 50
167.998997438636
 51
257.998997438636
  0
LINE
  5
6D
  8
0
 10
39.91553599063649
 20
75.42301779839762
 30
0.0
 11
53.12046400936351
 21
72.61598220160236
 31
0.0
  0
ARC
  5
6E
  8
0
 10
53.17244621096588
 20
72.86051819223886
 30
0.0
 40
0.25
 50
257.998997438636
 51
347.998997438636
  0
LINE
  5
6F
  8
0
 10
53.41698220160237
 20
72.80853599063649
 30
0.0
 11
56.22401779839763
 21
86.0134640093635
 31
0.0
  0
ARC
  5
70
  8
0
 10
55.97948180776114
 20
86.06544621096587
 30
0.0
 40
0.25
 50
347.998997438636
 51
77.99899743863601
  0
LINE
  5
71
  8
0
 10
56.03146400936351
 20
86.30998220160237
 30
0.0
 11
42.82653599063649
 21
89.11701779839763
 31
0.0
  0
ARC
  5
72
  8
0
 10
42.77455378903412
 20
88.87248180776113
 30
0.0
 40
0.25
 50
77.99899743863601
 51
167.998997438636
  0
LINE
  5
73
  8
0
 10
42.53001779839763
 20
88.9244640093635
 30
0.0
 11
39.72298220160237
 21
75.71953599063649
 31
0.0
  0
ARC
  5
74
  8
0
 10
39.96751819223886
 20
75.66755378903412
 30
0.0
 40
0.25
 50
167.998997438636
 51
257.998997438636
  0
LINE
  5
75
  8
0
 10
58.87953599063649
 20
74.45901779839762
 30
0.0
 11
72.0844640093635
 21
71.65198220160237
 31
0.0
  0
ARC
  5
76
  8
0
 10
72.13644621096587
 20
71.89651819223886
 30
0.0
 40
0.25
 50
257.998997438636
 51
347.998997438636
  0
LINE
  5
77
  8
0
 10
72.38098220160236
 20
71.84453599063649
 30
0.0
 11
75.18801779839762
 21
85.0494640093635
 31
0.0
  0
ARC
  5
78
  8
0
 10
74.94348180776113
 20
85.10144621096588
 30
0.0
 40
0.25
 50
347.998997438636
 51
77.99899743863601
  0
LINE
  5
79
  8
0
 10
74.9954640093635
 20
85.34598220160237
 30
0.0
 11
61.790535990636485
 21
88.15301779839763
 31
0.0
  0
ARC
  5
7A
  8
0
 10
61.738553789034114
 20
87.90848180776113
 30
0.0
 40
0.25
 50
77.99899743863601
 51
167.99899743863602
  0
LINE
  5
7B
  8
0
 10
61.49401779839762
 20
87.9604640093635
 30
0.0
 11
58.68698220160237
 21
74.75553599063649
 31
0.0
  0
ARC
  5
7C
  8
0
 10
58.93151819223886
 20
74.70355378903412
 30
0.0
 40
0.25
 50
167.99899743863602
 51
257.998997438636
  0
LINE
  5
7D
  8
0
 10
94.81253599063649
 20
52.25401779839764
 30
0.0
 11
108.01746400936351
 21
49.44698220160238
 31
0.0
  0
ARC
  5
7E
  8
0
 10
108.06944621096588
 20
49.691518192238874
 30
0.0
 40
0.25
 50
257.998997438636
 51
347.998997438636
  0
LINE
  5
7F
  8
0
 10
108.31398220160237
 20
49.6395359906365
 30
0.0
 11
111.12101779839763
 21
62.844464009363506
 31
0.0
  0
ARC
  5
80
  8
0
 10
110.87648180776114
 20
62.89644621096588
 30
0.0
 40
0.25
 50
347.998997438636
 51
77.99899743863601
  0
LINE
  5
81
  8
0
 10
110.92846400936351
 20
63.14098220160237
 30
0.0
 11
97.72353599063649
 21
65.94801779839763
 31
0.0
  0
ARC
  5
82
  8
0
 10
97.67155378903412
 20
65.70348180776114
 30
0.0
 40
0.25
 50
77.99899743863601
 51
167.998997438636
  0
LINE
  5
83
  8
0
 10
97.42701779839763
 20
65.75546400936351
 30
0.0
 11
94.61998220160237
 21
52.550535990636504
 31
0.0
  0
ARC
  5
84
  8
0
 10
94.86451819223886
 20
52.49855378903413
 30
0.0
 40
0.25
 50
167.998997438636
 51
257.998997438636
  0
LINE
  5
85
  8
0
 10
117.72003027768092
 20
45.27839659368956
 30
0.0
 11
128.84596972231907
 21
37.63160340631042
 31
0.0
  0
ARC
  5
86
  8
0
 10
128.9875731286295
 20
37.83763368399135
 30
0.0
 40
0.25
 50
235.4994863399727
 51
325.49948633997275
  0
LINE
  5
87
  8
0
 10
129.19360340631042
 20
37.69603027768091
 30
0.0
 11
136.84039659368955
 21
48.821969722319054
 31
0.0
  0
ARC
  5
88
  8
0
 10
136.63436631600862
 20
48.96357312862949
 30
0.0
 40
0.25
 50
325.49948633997275
 51
55.49948633997272
  0
LINE
  5
89
  8
0
 10
136.77596972231905
 20
49.16960340631042
 30
0.0
 11
125.65003027768094
 21
56.81639659368956
 31
0.0
  0
ARC
  5
8A
  8
0
 10
125.5084268713705
 20
56.61036631600863
 30
0.0
 40
0.25
 50
55.49948633997272
 51
145.49948633997275
  0
LINE
  5
8B
  8
0
 10
125.30239659368956
 20
56.75196972231907
 30
0.0
 11
117.65560340631042
 21
45.626030277680925
 31
0.0
  0
ARC
  5
8C
  8
0
 10
117.86163368399136
 20
45.48442687137049
 30
0.0
 40
0.25
 50
145.49948633997275
 51
235.4994863399727
  0
LINE
  5
8D
  8
0
 10
136.21416359528777
 20
30.067334849537858
 30
0.0
 11
143.5668364047122
 21
18.74566515046213
 31
0.0
  0
ARC
  5
8E
  8
0
 10
143.77650155517435
 20
18.881828745749903
 30
0.0
 40
0.25
 50
213.0010484141047
 51
303.0010484141046
  0
LINE
  5
8F
  8
0
 10
143.91266515046212
 20
18.672163595287774
 30
0.0
 11
155.23433484953787
 21
26.02483640471223
 31
0.0
  0
ARC
  5
90
  8
0
 10
155.0981712542501
 20
26.234501555174358
 30
0.0
 40
0.25
 50
303.0010484141046
 51
33.001048414104694
  0
LINE
  5
91
  8
0
 10
155.30783640471225
 20
26.37066515046213
 30
0.0
 11
147.95516359528781
 21
37.69233484953786
 31
0.0
  0
ARC
  5
92
  8
0
 10
147.74549844482567
 20
37.55617125425008
 30
0.0
 40
0.25
 50
33.001048414104694
 51
123.00104841410463
  0
LINE
  5
93
  8
0
 10
147.6093348495379
 20
37.76583640471221
 30
0.0
 11
136.28766515046215
 21
30.41316359528776
 31
0.0
  0
ARC
  5
94
  8
0
 10
136.42382874574992
 20
30.20349844482563
 30
0.0
 40
0.25
 50
123.00104841410463
 51
213.0010484141047
  0
LINE
  5
95
  8
0
 10
166.91877669529663
 20
38.43477669529665
 30
0.0
 11
176.46522330470336
 21
47.98122330470338
 31
0.0
  0
ARC
  5
96
  8
0
 10
176.28844660940672
 20
48.158000000000015
 30
0.0
 40
0.25
 50
315.0
 51
45.0
  0
LINE
  5
97
  8
0
 10
176.46522330470336
 20
48.334776695296654
 30
0.0
 11
166.91877669529663
 21
57.88122330470338
 31
0.0
  0
ARC
  5
98
  8
0
 10
166.742
 20
57.704446609406745
 30
0.0
 40
0.25
 50
45.0
 51
135.0
  0
LINE
  5
99
  8
0
 10
166.56522330470335
 20
57.88122330470338
 30
0.0
 11
157.01877669529662
 21
48.334776695296654
 31
0.0
  0
ARC
  5
9A
  8
0
 10
157.19555339059326
 20
48.158000000000015
 30
0.0
 40
0.25
 50
135.0
 51
225.0
  0
LINE
  5
9B
  8
0
 10
157.01877669529662
 20
47.98122330470338
 30
0.0
 11
166.56522330470335
 21
38.43477669529665
 31
0.0
  0
ARC
  5
9C
  8
0
 10
166.742
 20
38.611553390593286
 30
0.0
 40
0.25
 50
225.0
 51
315.0
  0
LINE
  5
9D
  8
0
 10
180.17677669529664
 20
25.176776695296635
 30
0.0
 11
189.72322330470337
 21
34.72322330470337
 31
0.0
  0
ARC
  5
9E
  8
0
 10
189.54644660940673
 20
34.900000000000006
 30
0.0
 40
0.25
 50
315.0
 51
45.0
  0
LINE
  5
9F
  8
0
 10
189.72322330470337
 20
35.076776695296644
 30
0.0
 11
180.17677669529664
 21
44.62322330470337
 31
0.0
  0
ARC
  5
A0
  8
0
 10
180.0
 20
44.446446609406735
 30
0.0
 40
0.25
 50
45.0
 51
135.0
  0
LINE
  5
A1
  8
0
 10
179.82322330470336
 20
44.62322330470337
 30
0.0
 11
170.27677669529663
 21
35.076776695296644
 31
0.0
  0
ARC
  5
A2
  8
0
 10
170.45355339059327
 20
34.900000000000006
 30
0.0
 40
0.25
 50
135.0
 51
225.0
  0
LINE
  5
A3
  8
0
 10
170.27677669529663
 20
34.72322330470337
 30
0.0
 11
179.82322330470336
 21
25.176776695296635
 31
0.0
  0
ARC
  5
A4
  8
0
 10
180.0
 20
25.353553390593273
 30
0.0
 40
0.25
 50
225.0
 51
315.0
  0
LINE
  5
A5
  8
0
 10
193.43477669529665
 20
38.43477669529665
 30
0.0
 11
202.98122330470338
 21
47.98122330470338
 31
0.0
  0
ARC
  5
A6
  8
0
 10
202.80444660940674
 20
48.158000000000015
 30
0.0
 40
0.25
 50
315.0
 51
45.0
  0
LINE
  5
A7
  8
0
 10
202.98122330470338
 20
48.334776695296654
 30
0.0
 11
193.43477669529665
 21
57.88122330470338
 31
0.0
  0
ARC
  5
A8
  8
0
 10
193.258
 20
57.704446609406745
 30
0.0
 40
0.25
 50
45.0
 51
135.0
  0
LINE
  5
A9
  8
0
 10
193.08122330470337
 20
57.88122330470338
 30
0.0
 11
183.53477669529664
 21
48.334776695296654
 31
0.0
  0
ARC
  5
AA
  8
0
 10
183.71155339059328
 20
48.158000000000015
 30
0.0
 40
0.25
 50
135.0
 51
225.0
  0
LINE
  5
AB
  8
0
 10
183.53477669529664
 20
47.98122330470338
 30
0.0
 11
193.08122330470337
 21
38.43477669529665
 31
0.0
  0
ARC
  5
AC
  8
0
 10
193.258
 20
38.611553390593286
 30
0.0
 40
0.25
 50
225.0
 51
315.0
  0
LINE
  5
AD
  8
0
 10
180.17677669529664
 20
51.693776695296634
 30
0.0
 11
189.72322330470337
 21
61.24022330470336
 31
0.0
  0
ARC
  5
AE
  8
0
 10
189.54644660940673
 20
61.417
 30
0.0
 40
0.25
 50
315.0
 51
45.0
  0
LINE
  5
AF
  8
0
 10
189.72322330470337
 20
61.59377669529664
 30
0.0
 11
180.17677669529664
 21
71.14022330470337
 31
0.0
  0
ARC
  5
B0
  8
0
 10
180.0
 20
70.96344660940673
 30
0.0
 40
0.25
 50
45.0
 51
135.0
  0
LINE
  5
B1
  8
0
 10
179.82322330470336
 20
71.14022330470337
 30
0.0
 11
170.27677669529663
 21
61.59377669529664
 31
0.0
  0
ARC
  5
B2
  8
0
 10
170.45355339059327
 20
61.417
 30
0.0
 40
0.25
 50
135.0
 51
225.0
  0
LINE
  5
B3
  8
0
 10
170.27677669529663
 20
61.24022330470336
 30
0.0
 11
179.82322330470336
 21
51.693776695296634
 31
0.0
  0
ARC
  5
B4
  8
0
 10
180.0
 20
51.87055339059327
 30
0.0
 40
0.25
 50
225.0
 51
315.0
  0
LINE
  5
B5
  8
0
 10
216.4331635952878
 20
18.74566515046213
 30
0.0
 11
223.78583640471223
 21
30.067334849537858
 31
0.0
  0
ARC
  5
B6
  8
0
 10
223.57617125425008
 20
30.20349844482563
 30
0.0
 40
0.25
 50
326.9989515858953
 51
56.99895158589538
  0
LINE
  5
B7
  8
0
 10
223.71233484953785
 20
30.41316359528776
 30
0.0
 11
212.3906651504621
 21
37.76583640471221
 31
0.0
  0
ARC
  5
B8
  8
0
 10
212.25450155517433
 20
37.55617125425008
 30
0.0
 40
0.25
 50
56.99895158589538
 51
146.9989515858953
  0
LINE
  5
B9
  8
0
 10
212.04483640471219
 20
37.69233484953786
 30
0.0
 11
204.69216359528775
 21
26.37066515046213
 31
0.0
  0
ARC
  5
BA
  8
0
 10
204.9018287457499
 20
26.234501555174358
 30
0.0
 40
0.25
 50
146.9989515858953
 51
236.99895158589538
  0
LINE
  5
BB
  8
0
 10
204.76566515046213
 20
26.02483640471223
 30
0.0
 11
216.08733484953788
 21
18.672163595287774
 31
0.0
  0
ARC
  5
BC
  8
0
 10
216.22349844482565
 20
18.881828745749903
 30
0.0
 40
0.25
 50
236.99895158589538
 51
326.9989515858953
  0
LINE
  5
BD
  8
0
 10
231.15403027768093
 20
37.63260340631045
 30
0.0
 11
242.27996972231907
 21
45.27939659368959
 31
0.0
  0
ARC
  5
BE
  8
0
 10
242.13836631600864
 20
45.48542687137052
 30
0.0
 40
0.25
 50
304.50051366002725
 51
34.500513660027245
  0
LINE
  5
BF
  8
0
 10
242.34439659368957
 20
45.62703027768096
 30
0.0
 11
234.69760340631044
 21
56.7529697223191
 31
0.0
  0
ARC
  5
C0
  8
0
 10
234.4915731286295
 20
56.61136631600866
 30
0.0
 40
0.25
 50
34.500513660027245
 51
124.50051366002724
  0
LINE
  5
C1
  8
0
 10
234.3499697223191
 20
56.817396593689594
 30
0.0
 11
223.22403027768095
 21
49.170603406310455
 31
0.0
  0
ARC
  5
C2
  8
0
 10
223.36563368399138
 20
48.964573128629524
 30
0.0
 40
0.25
 50
124.50051366002724
 51
214.50051366002725
  0
LINE
  5
C3
  8
0
 10
223.15960340631045
 20
48.82296972231909
 30
0.0
 11
230.80639659368958
 21
37.697030277680945
 31
0.0
  0
ARC
  5
C4
  8
0
 10
231.0124268713705
 20
37.83863368399138
 30
0.0
 40
0.25
 50
214.50051366002725
 51
304.50051366002725
  0
LINE
  5
C5
  8
0
 10
251.98253599063648
 20
49.44698220160238
 30
0.0
 11
265.1874640093635
 21
52.25401779839764
 31
0.0
  0
ARC
  5
C6
  8
0
 10
265.13548180776115
 20
52.49855378903413
 30
0.0
 40
0.25
 50
282.001002561364
 51
12.001002561364002
  0
LINE
  5
C7
  8
0
 10
265.38001779839766
 20
52.550535990636504
 30
0.0
 11
262.5729822016024
 21
65.75546400936351
 31
0.0
  0
ARC
  5
C8
  8
0
 10
262.32844621096586
 20
65.70348180776114
 30
0.0
 40
0.25
 50
12.001002561364002
 51
102.001002561364
  0
LINE
  5
C9
  8
0
 10
262.2764640093635
 20
65.94801779839763
 30
0.0
 11
249.07153599063653
 21
63.14098220160237
 31
0.0
  0
ARC
  5
CA
  8
0
 10
249.1235181922389
 20
62.89644621096588
 30
0.0
 40
0.25
 50
102.001002561364
 51
192.0010025613639
  0
LINE
  5
CB
  8
0
 10
248.8789822016024
 20
62.844464009363506
 30
0.0
 11
251.68601779839764
 21
49.6395359906365
 31
0.0
  0
ARC
  5
CC
  8
0
 10
251.93055378903412
 20
49.691518192238874
 30
0.0
 40
0.25
 50
192.0010025613639
 51
282.001002561364
  0
LINE
  5
CD
  8
0
 10
269.2035359906365
 20
159.6849822016024
 30
0.0
 11
282.4084640093635
 21
162.49201779839765
 31
0.0
  0
ARC
  5
CE
  8
0
 10
282.35648180776116
 20
162.73655378903413
 30
0.0
 40
0.25
 50
282.001002561364
 51
12.001002561364002
  0
LINE
  5
CF
  8
0
 10
282.60101779839766
 20
162.7885359906365
 30
0.0
 11
279.7939822016024
 21
175.9934640093635
 31
0.0
  0
ARC
  5
D0
  8
0
 10
279.54944621096587
 20
175.94148180776114
 30
0.0
 40
0.25
 50
12.001002561364002
 51
102.00100256136398
  0
LINE
  5
D1
  8
0
 10
279.4974640093635
 20
176.18601779839761
 30
0.0
 11
266.2925359906365
 21
173.37898220160235
 31
0.0
  0
ARC
  5
D2
  8
0
 10
266.34451819223887
 20
173.13444621096588
 30
0.0
 40
0.25
 50
102.00100256136398
 51
192.001002561364
  0
LINE
  5
D3
  8
0
 10
266.09998220160236
 20
173.08246400936352
 30
0.0
 11
268.90701779839765
 21
159.87753599063652
 31
0.0
  0
ARC
  5
D4
  8
0
 10
269.15155378903415
 20
159.92951819223887
 30
0.0
 40
0.25
 50
192.001002561364
 51
282.001002561364
  0
LINE
  5
D5
  8
0
 10
287.5435359906365
 20
163.58398220160237
 30
0.0
 11
300.7484640093635
 21
166.39101779839763
 31
0.0
  0
ARC
  5
D6
  8
0
 10
300.69648180776113
 20
166.6355537890341
 30
0.0
 40
0.25
 50
282.001002561364
 51
12.001002561363979
  0
LINE
  5
D7
  8
0
 10
300.94101779839764
 20
166.68753599063646
 30
0.0
 11
298.13398220160235
 21
179.8924640093635
 31
0.0
  0
ARC
  5
D8
  8
0
 10
297.88944621096584
 20
179.84048180776114
 30
0.0
 40
0.25
 50
12.001002561363979
 51
102.00100256136398
  0
LINE
  5
D9
  8
0
 10
297.8374640093635
 20
180.08501779839762
 30
0.0
 11
284.6325359906365
 21
177.27798220160236
 31
0.0
  0
ARC
  5
DA
  8
0
 10
284.68451819223884
 20
177.03344621096588
 30
0.0
 40
0.25
 50
102.00100256136398
 51
192.00100256136398
  0
LINE
  5
DB
  8
0
 10
284.43998220160233
 20
176.98146400936352
 30
0.0
 11
287.2470177983976
 21
163.7765359906365
 31
0.0
  0
ARC
  5
DC
  8
0
 10
287.4915537890341
 20
163.82851819223885
 30
0.0
 40
0.25
 50
192.00100256136398
 51
282.001002561364
  0
LINE
  5
DD
  8
0
 10
305.8845359906365
 20
167.4819822016024
 30
0.0
 11
319.0894640093635
 21
170.28901779839765
 31
0.0
  0
ARC
  5
DE
  8
0
 10
319.03748180776114
 20
170.53355378903413
 30
0.0
 40
0.25
 50
282.001002561364
 51
12.001002561364002
  0
LINE
  5
DF
  8
0
 10
319.28201779839765
 20
170.5855359906365
 30
0.0
 11
316.47498220160236
 21
183.7904640093635
 31
0.0
  0
ARC
  5
E0
  8
0
 10
316.23044621096585
 20
183.73848180776113
 30
0.0
 40
0.25
 50
12.001002561364002
 51
102.00100256136398
  0
LINE
  5
E1
  8
0
 10
316.1784640093635
 20
183.9830177983976
 30
0.0
 11
302.9735359906365
 21
181.17598220160235
 31
0.0
  0
ARC
  5
E2
  8
0
 10
303.02551819223885
 20
180.93144621096587
 30
0.0
 40
0.25
 50
102.00100256136398
 51
192.001002561364
  0
LINE
  5
E3
  8
0
 10
302.78098220160234
 20
180.87946400936352
 30
0.0
 11
305.58801779839763
 21
167.6745359906365
 31
0.0
  0
ARC
  5
E4
  8
0
 10
305.83255378903414
 20
167.72651819223887
 30
0.0
 40
0.25
 50
192.001002561364
 51
282.001002561364
  0
LINE
  5
E5
  8
0
 10
276.2205359906365
 20
126.67298220160237
 30
0.0
 11
289.4254640093635
 21
129.48001779839763
 31
0.0
  0
ARC
  5
E6
  8
0
 10
289.37348180776115
 20
129.7245537890341
 30
0.0
 40
0.25
 50
282.0010025613639
 51
12.001002561363979
  0
LINE
  5
E7
  8
0
 10
289.61801779839766
 20
129.77653599063646
 30
0.0
 11
286.81098220160237
 21
142.9814640093635
 31
0.0
  0
ARC
  5
E8
  8
0
 10
286.56644621096586
 20
142.92948180776114
 30
0.0
 40
0.25
 50
12.001002561363979
 51
102.00100256136398
  0
LINE
  5
E9
  8
0
 10
286.5144640093635
 20
143.1740177983976
 30
0.0
 11
273.3095359906365
 21
140.36698220160235
 31
0.0
  0
ARC
  5
EA
  8
0
 10
273.36151819223886
 20
140.12244621096588
 30
0.0
 40
0.25
 50
102.00100256136398
 51
192.001002561364
  0
LINE
  5
EB
  8
0
 10
273.11698220160235
 20
140.07046400936352
 30
0.0
 11
275.92401779839764
 21
126.86553599063649
 31
0.0
  0
ARC
  5
EC
  8
0
 10
276.16855378903415
 20
126.91751819223886
 30
0.0
 40
0.25
 50
192.001002561364
 51
282.0010025613639
  0
LINE
  5
ED
  8
0
 10
295.1845359906365
 20
127.63698220160236
 30
0.0
 11
308.3894640093635
 21
130.44401779839762
 31
0.0
  0
ARC
  5
EE
  8
0
 10
308.33748180776115
 20
130.6885537890341
 30
0.0
 40
0.25
 50
282.0010025613639
 51
12.001002561363979
  0
LINE
  5
EF
  8
0
 10
308.58201779839766
 20
130.74053599063646
 30
0.0
 11
305.77498220160237
 21
143.9454640093635
 31
0.0
  0
ARC
  5
F0
  8
0
 10
305.53044621096586
 20
143.89348180776113
 30
0.0
 40
0.25
 50
12.001002561363979
 51
102.00100256136398
  0
LINE
  5
F1
  8
0
 10
305.4784640093635
 20
144.1380177983976
 30
0.0
 11
292.2735359906365
 21
141.33098220160235
 31
0.0
  0
ARC
  5
F2
  8
0
 10
292.32551819223886
 20
141.08644621096587
 30
0.0
 40
0.25
 50
102.00100256136398
 51
192.001002561364
  0
LINE
  5
F3
  8
0
 10
292.08098220160235
 20
141.03446400936352
 30
0.0
 11
294.88801779839764
 21
127.82953599063649
 31
0.0
  0
ARC
  5
F4
  8
0
 10
295.13255378903415
 20
127.88151819223886
 30
0.0
 40
0.25
 50
192.001002561364
 51
282.0010025613639
  0
LINE
  5
F5
  8
0
 10
314.1485359906365
 20
128.6009822016024
 30
0.0
 11
327.3534640093635
 21
131.40801779839765
 31
0.0
  0
ARC
  5
F6
  8
0
 10
327.30148180776115
 20
131.65255378903413
 30
0.0
 40
0.25
 50
282.001002561364
 51
12.001002561364002
  0
LINE
  5
F7
  8
0
 10
327.54601779839766
 20
131.7045359906365
 30
0.0
 11
324.73898220160237
 21
144.9094640093635
 31
0.0
  0
ARC
  5
F8
  8
0
 10
324.49444621096586
 20
144.85748180776113
 30
0.0
 40
0.25
 50
12.001002561364002
 51
102.00100256136398
  0
LINE
  5
F9
  8
0
 10
324.4424640093635
 20
145.1020177983976
 30
0.0
 11
311.2375359906365
 21
142.29498220160235
 31
0.0
  0
ARC
  5
FA
  8
0
 10
311.28951819223886
 20
142.05044621096587
 30
0.0
 40
0.25
 50
102.00100256136398
 51
192.001002561364
  0
LINE
  5
FB
  8
0
 10
311.04498220160235
 20
141.99846400936352
 30
0.0
 11
313.85201779839764
 21
128.7935359906365
 31
0.0
  0
ARC
  5
FC
  8
0
 10
314.09655378903415
 20
128.84551819223887
 30
0.0
 40
0.25
 50
192.001002561364
 51
282.001002561364
  0
LINE
  5
FD
  8
0
 10
280.11853599063653
 20
108.33298220160238
 30
0.0
 11
293.32346400936353
 21
111.14001779839764
 31
0.0
  0
ARC
  5
FE
  8
0
 10
293.2714818077612
 20
111.38455378903413
 30
0.0
 40
0.25
 50
282.001002561364
 51
12.001002561363991
  0
LINE
  5
FF
  8
0
 10
293.5160177983977
 20
111.4365359906365
 30
0.0
 11
290.7089822016024
 21
124.64146400936352
 31
0.0
  0
ARC
  5
100
  8
0
 10
290.4644462109659
 20
124.58948180776115
 30
0.0
 40
0.25
 50
12.001002561363991
 51
102.00100256136398
  0
LINE
  5
101
  8
0
 10
290.41246400936353
 20
124.83401779839764
 30
0.0
 11
277.20753599063653
 21
122.02698220160238
 31
0.0
  0
ARC
  5
102
  8
0
 10
277.2595181922389
 20
121.78244621096589
 30
0.0
 40
0.25
 50
102.00100256136398
 51
192.001002561364
  0
LINE
  5
103
  8
0
 10
277.0149822016024
 20
121.73046400936352
 30
0.0
 11
279.82201779839767
 21
108.5255359906365
 31
0.0
  0
ARC
  5
104
  8
0
 10
280.0665537890342
 20
108.57751819223887
 30
0.0
 40
0.25
 50
192.001002561364
 51
282.001002561364
  0
LINE
  5
105
  8
0
 10
299.08253599063653
 20
109.29698220160238
 30
0.0
 11
312.28746400936353
 21
112.10401779839763
 31
0.0
  0
ARC
  5
106
  8
0
 10
312.2354818077612
 20
112.34855378903413
 30
0.0
 40
0.25
 50
282.001002561364
 51
12.001002561363991
  0
LINE
  5
107
  8
0
 10
312.4800177983977
 20
112.4005359906365
 30
0.0
 11
309.6729822016024
 21
125.60546400936352
 31
0.0
  0
ARC
  5
108
  8
0
 10
309.4284462109659
 20
125.55348180776114
 30
0.0
 40
0.25
 50
12.001002561363991
 51
102.00100256136398
  0
LINE
  5
109
  8
0
 10
309.37646400936353
 20
125.79801779839764
 30
0.0
 11
296.1715359906365
 21
122.99098220160238
 31
0.0
  0
ARC
  5
10A
  8
0
 10
296.2235181922389
 20
122.74644621096589
 30
0.0
 40
0.25
 50
102.00100256136398
 51
192.001002561364
  0
LINE
  5
10B
  8
0
 10
295.9789822016024
 20
122.69446400936351
 30
0.0
 11
298.78601779839767
 21
109.4895359906365
 31
0.0
  0
ARC
  5
10C
  8
0
 10
299.0305537890342
 20
109.54151819223887
 30
0.0
 40
0.25
 50
192.001002561364
 51
282.001002561364
  0
LINE
  5
10D
  8
0
 10
318.0465359906365
 20
110.25998220160237
 30
0.0
 11
331.25146400936353
 21
113.06701779839763
 31
0.0
  0
ARC
  5
10E
  8
0
 10
331.1994818077612
 20
113.31155378903412
 30
0.0
 40
0.25
 50
282.001002561364
 51
12.001002561363991
  0
LINE
  5
10F
  8
0
 10
331.4440177983977
 20
113.36353599063649
 30
0.0
 11
328.6369822016024
 21
126.56846400936351
 31
0.0
  0
ARC
  5
110
  8
0
 10
328.3924462109659
 20
126.51648180776114
 30
0.0
 40
0.25
 50
12.001002561363991
 51
102.00100256136398
  0
LINE
  5
111
  8
0
 10
328.34046400936353
 20
126.76101779839763
 30
0.0
 11
315.1355359906365
 21
123.95398220160237
 31
0.0
  0
ARC
  5
112
  8
0
 10
315.1875181922389
 20
123.70944621096588
 30
0.0
 40
0.25
 50
102.00100256136398
 51
192.001002561364
  0
LINE
  5
113
  8
0
 10
314.9429822016024
 20
123.65746400936351
 30
0.0
 11
317.75001779839766
 21
110.45253599063649
 31
0.0
  0
ARC
  5
114
  8
0
 10
317.99455378903417
 20
110.50451819223886
 30
0.0
 40
0.25
 50
192.001002561364
 51
282.001002561364
  0
LINE
  5
115
  8
0
 10
284.01753599063653
 20
89.99198220160237
 30
0.0
 11
297.22246400936353
 21
92.79901779839763
 31
0.0
  0
ARC
  5
116
  8
0
 10
297.1704818077612
 20
93.04355378903412
 30
0.0
 40
0.25
 50
282.001002561364
 51
12.001002561363991
  0
LINE
  5
117
  8
0
 10
297.4150177983977
 20
93.09553599063649
 30
0.0
 11
294.6079822016024
 21
106.30046400936351
 31
0.0
  0
ARC
  5
118
  8
0
 10
294.3634462109659
 20
106.24848180776114
 30
0.0
 40
0.25
 50
12.001002561363991
 51
102.00100256136398
  0
LINE
  5
119
  8
0
 10
294.31146400936353
 20
106.49301779839763
 30
0.0
 11
281.10653599063653
 21
103.68598220160237
 31
0.0
  0
ARC
  5
11A
  8
0
 10
281.1585181922389
 20
103.44144621096588
 30
0.0
 40
0.25
 50
102.00100256136398
 51
192.001002561364
  0
LINE
  5
11B
  8
0
 10
280.9139822016024
 20
103.38946400936351
 30
0.0
 11
283.72101779839767
 21
90.18453599063649
 31
0.0
  0
ARC
  5
11C
  8
0
 10
283.9655537890342
 20
90.23651819223886
 30
0.0
 40
0.25
 50
192.001002561364
 51
282.001002561364
  0
LINE
  5
11D
  8
0
 10
302.98153599063653
 20
90.95598220160237
 30
0.0
 11
316.18646400936353
 21
93.76301779839763
 31
0.0
  0
ARC
  5
11E
  8
0
 10
316.1344818077612
 20
94.00755378903412
 30
0.0
 40
0.25
 50
282.001002561364
 51
12.001002561363991
  0
LINE
  5
11F
  8
0
 10
316.3790177983977
 20
94.05953599063649
 30
0.0
 11
313.5719822016024
 21
107.26446400936351
 31
0.0
  0
ARC
  5
120
  8
0
 10
313.3274462109659
 20
107.21248180776114
 30
0.0
 40
0.25
 50
12.001002561363991
 51
102.00100256136398
  0
LINE
  5
121
  8
0
 10
313.27546400936353
 20
107.45701779839763
 30
0.0
 11
300.07053599063653
 21
104.64998220160237
 31
0.0
  0
ARC
  5
122
  8
0
 10
300.1225181922389
 20
104.40544621096588
 30
0.0
 40
0.25
 50
102.00100256136398
 51
192.001002561364
  0
LINE
  5
123
  8
0
 10
299.8779822016024
 20
104.3534640093635
 30
0.0
 11
302.68501779839767
 21
91.14853599063649
 31
0.0
  0
ARC
  5
124
  8
0
 10
302.9295537890342
 20
91.20051819223886
 30
0.0
 40
0.25
 50
192.001002561364
 51
282.001002561364
  0
LINE
  5
125
  8
0
 10
321.94553599063653
 20
91.91998220160237
 30
0.0
 11
335.15046400936353
 21
94.72701779839763
 31
0.0
  0
ARC
  5
126
  8
0
 10
335.0984818077612
 20
94.97155378903412
 30
0.0
 40
0.25
 50
282.001002561364
 51
12.001002561363991
  0
LINE
  5
127
  8
0
 10
335.3430177983977
 20
95.02353599063649
 30
0.0
 11
332.5359822016024
 21
108.2284640093635
 31
0.0
  0
ARC
  5
128
  8
0
 10
332.2914462109659
 20
108.17648180776114
 30
0.0
 40
0.25
 50
12.001002561363991
 51
102.00100256136398
  0
LINE
  5
129
  8
0
 10
332.23946400936353
 20
108.42101779839763
 30
0.0
 11
319.0345359906365
 21
105.61398220160237
 31
0.0
  0
ARC
  5
12A
  8
0
 10
319.0865181922389
 20
105.36944621096588
 30
0.0
 40
0.25
 50
102.00100256136398
 51
192.001002561364
  0
LINE
  5
12B
  8
0
 10
318.8419822016024
 20
105.3174640093635
 30
0.0
 11
321.64901779839767
 21
92.11253599063649
 31
0.0
  0
ARC
  5
12C
  8
0
 10
321.8935537890342
 20
92.16451819223886
 30
0.0
 40
0.25
 50
192.001002561364
 51
282.001002561364
  0
LINE
  5
12D
  8
0
 10
287.9155359906365
 20
71.65198220160237
 30
0.0
 11
301.1204640093635
 21
74.45901779839762
 31
0.0
  0
ARC
  5
12E
  8
0
 10
301.06848180776115
 20
74.70355378903412
 30
0.0
 40
0.25
 50
282.001002561364
 51
12.001002561363991
  0
LINE
  5
12F
  8
0
 10
301.31301779839765
 20
74.75553599063649
 30
0.0
 11
298.50598220160236
 21
87.9604640093635
 31
0.0
  0
ARC
  5
130
  8
0
 10
298.26144621096586
 20
87.90848180776113
 30
0.0
 40
0.25
 50
12.001002561363991
 51
102.00100256136398
  0
LINE
  5
131
  8
0
 10
298.2094640093635
 20
88.15301779839763
 30
0.0
 11
285.0045359906365
 21
85.34598220160237
 31
0.0
  0
ARC
  5
132
  8
0
 10
285.05651819223885
 20
85.10144621096588
 30
0.0
 40
0.25
 50
102.00100256136398
 51
192.001002561364
  0
LINE
  5
133
  8
0
 10
284.81198220160235
 20
85.0494640093635
 30
0.0
 11
287.61901779839764
 21
71.84453599063649
 31
0.0
  0
ARC
  5
134
  8
0
 10
287.86355378903414
 20
71.89651819223886
 30
0.0
 40
0.25
 50
192.001002561364
 51
282.001002561364
  0
LINE
  5
135
  8
0
 10
306.8795359906365
 20
72.61598220160236
 30
0.0
 11
320.0844640093635
 21
75.42301779839762
 31
0.0
  0
ARC
  5
136
  8
0
 10
320.03248180776114
 20
75.66755378903412
 30
0.0
 40
0.25
 50
282.001002561364
 51
12.001002561363991
  0
LINE
  5
137
  8
0
 10
320.27701779839765
 20
75.71953599063649
 30
0.0
 11
317.46998220160236
 21
88.9244640093635
 31
0.0
  0
ARC
  5
138
  8
0
 10
317.22544621096586
 20
88.87248180776113
 30
0.0
 40
0.25
 50
12.001002561363991
 51
102.00100256136398
  0
LINE
  5
139
  8
0
 10
317.1734640093635
 20
89.11701779839763
 30
0.0
 11
303.9685359906365
 21
86.30998220160237
 31
0.0
  0
ARC
  5
13A
  8
0
 10
304.02051819223885
 20
86.06544621096587
 30
0.0
 40
0.25
 50
102.00100256136398
 51
192.001002561364
  0
LINE
  5
13B
  8
0
 10
303.77598220160235
 20
86.0134640093635
 30
0.0
 11
306.58301779839763
 21
72.80853599063649
 31
0.0
  0
ARC
  5
13C
  8
0
 10
306.82755378903414
 20
72.86051819223886
 30
0.0
 40
0.25
 50
192.001002561364
 51
282.001002561364
  0
LINE
  5
13D
  8
0
 10
33.57192395372422
 20
70.287230313392
 30
0.0
 11
142.31694348489202
 21
9.382558512138901
 31
0.0
  0
ARC
  5
13E
  8
0
 10
143.78289029757775
 20
12.0
 30
0.0
 40
3.0
 50
240.74818121604693
 51
270.0
  0
LINE
  5
13F
  8
0
 10
143.78289029757775
 20
9.0
 30
0.0
 11
216.21712009992524
 21
9.0
 31
0.0
  0
ARC
  5
140
  8
0
 10
216.21712009992524
 20
12.0
 30
0.0
 40
3.0
 50
270.0
 51
299.2514469508055
  0
LINE
  5
141
  8
0
 10
217.68304992613685
 20
9.382548998620383
 30
0.0
 11
343.56006044726985
 21
79.88123801324626
 31
0.0
  0
ARC
  5
142
  8
0
 10
342.09413062105824
 20
82.49868901462588
 30
0.0
 40
3.0
 50
299.2514469508055
 51
12.00004322978333
  0
LINE
  5
143
  8
0
 10
345.0285729526494
 20
83.1224263011221
 30
0.0
 11
322.43772987614915
 21
189.40359253122148
 31
0.0
  0
ARC
  5
144
  8
0
 10
319.50328754455796
 20
188.77985524472527
 30
0.0
 40
3.0
 50
12.00004322978333
 51
101.9993625199008
  0
LINE
  5
145
  8
0
 10
318.87958512112556
 20
191.71430498650048
 30
0.0
 11
261.6570865637692
 21
179.55195287087332
 31
0.0
  0
ARC
  5
146
  8
0
 10
261.7610369676746
 20
179.0628779139108
 30
0.0
 40
0.5
 50
101.9993625199008
 51
192.00072225655362
  0
LINE
  5
147
  8
0
 10
261.27196447778846
 20
178.95891590336572
 30
0.0
 11
283.46803650643324
 21
74.54107946652228
 31
0.0
  0
ARC
  5
148
  8
0
 10
282.9789640165471
 20
74.4371174559772
 30
0.0
 40
0.5
 50
281.99990493608675
 51
12.00072225655361
  0
LINE
  5
149
  8
0
 10
283.0829190504952
 20
73.9480434831297
 30
0.0
 11
211.2972378760224
 21
58.689650401952505
 31
0.0
  0
ARC
  5
14A
  8
0
 10
210.67350767233376
 20
61.624094239037575
 30
0.0
 40
3.0
 50
225.00096446175547
 51
281.99990493608675
  0
LINE
  5
14B
  8
0
 10
208.5522230373303
 20
59.50273818752282
 30
0.0
 11
180.3535593421195
 21
87.7004525606324
 31
0.0
  0
ARC
  5
14C
  8
0
 10
180.00001190295225
 20
87.34689321871328
 30
0.0
 40
0.5
 50
45.00096446175549
 51
135.0009644942262
  0
LINE
  5
14D
  8
0
 10
179.64645256083276
 20
87.70044065768015
 30
0.0
 11
151.44977686024626
 21
59.50281563800065
 31
0.0
  0
ARC
  5
14E
  8
0
 10
149.32842080752934
 20
61.624100271801886
 30
0.0
 40
3.0
 50
258.00041053902635
 51
315.0009644942262
  0
LINE
  5
14F
  8
0
 10
148.704706761131
 20
58.689653000453255
 30
0.0
 11
76.91708421481937
 21
73.94804560367024
 31
0.0
  0
ARC
  5
150
  8
0
 10
77.02103655588576
 20
74.437120148895
 30
0.0
 40
0.5
 50
167.99927774344638
 51
258.00041053902635
  0
LINE
  5
151
  8
0
 10
76.53196406599962
 20
74.54108215944008
 30
0.0
 11
98.72803719568591
 21
178.9589237759557
 31
0.0
  0
ARC
  5
152
  8
0
 10
98.23896470579977
 20
179.06288578650077
 30
0.0
 40
0.5
 50
347.9992777434464
 51
77.99971520555853
  0
LINE
  5
153
  8
0
 10
98.34292298219795
 20
179.55195907013862
 30
0.0
 11
59.46344551877873
 21
187.81624910514955
 31
0.0
  0
ARC
  5
154
  8
0
 10
58.839695860389725
 20
184.88180940332236
 30
0.0
 40
3.0
 50
77.99971520555853
 51
167.99982878309876
  0
LINE
  5
155
  8
0
 10
55.90525492210809
 20
185.50555324476434
 30
0.0
 11
32.10342982812833
 21
73.5284156426951
 31
0.0
  0
ARC
  5
156
  8
0
 10
35.03787076640996
 20
72.9046718012531
 30
0.0
 40
3.0
 50
167.99982878309876
 51
240.74818121604693
  0
ENDSEC
  0
EOF
