  0
SECTION
  2
HEADER
  9
$ACADVER
  1
AC1009
  9
$DWGCODEPAGE
  3
ANSI_1252
  9
$INSBASE
 10
0.0
 20
0.0
 30
0.0
  9
$EXTMIN
 10
-100
 20
-100
 30
-100
  9
$EXTMAX
 10
100
 20
100
 30
100
  9
$LIMMIN
 10
0.0
 20
0.0
  9
$LIMMAX
 10
420.0
 20
297.0
  9
$ORTHOMODE
 70
0
  9
$REGENMODE
 70
1
  9
$DRAGMODE
 70
2
  9
$FILLMODE
 70
1
  9
$QTEXTMODE
 70
0
  9
$MIRRTEXT
 70
1
  9
$OSMODE
 70
20583
  9
$LTSCALE
 40
1.0
  9
$ATTMODE
 70
1
  9
$TEXTSIZE
 40
2.5
  9
$TRACEWID
 40
1.0
  9
$TEXTSTYLE
  7
Standard
  9
$CLAYER
  8
0
  9
$CELTYPE
  6
ByLayer
  9
$CECOLOR
 62
256
  9
$DIMSCALE
 40
1.0
  9
$DIMASZ
 40
2.5
  9
$DIMEXO
 40
0.625
  9
$DIMDLI
 40
3.75
  9
$DIMRND
 40
0.0
  9
$DIMDLE
 40
0.0
  9
$DIMEXE
 40
1.25
  9
$DIMTP
 40
0.0
  9
$DIMTM
 40
0.0
  9
$DIMTXT
 40
2.5
  9
$DIMCEN
 40
2.5
  9
$DIMTSZ
 40
0.0
  9
$DIMTOL
 70
0
  9
$DIMLIM
 70
0
  9
$DIMTIH
 70
0
  9
$DIMTOH
 70
0
  9
$DIMSE1
 70
0
  9
$DIMSE2
 70
0
  9
$DIMTAD
 70
1
  9
$DIMZIN
 70
8
  9
$DIMBLK
  1

  9
$DIMASO
 70
1
  9
$DIMSHO
 70
1
  9
$DIMPOST
  1

  9
$DIMAPOST
  1

  9
$DIMALT
 70
0
  9
$DIMALTD
 70
3
  9
$DIMALTF
 40
0.03937007874
  9
$DIMLFAC
 40
1.0
  9
$DIMTOFL
 70
1
  9
$DIMTVP
 40
0.0
  9
$DIMTIX
 70
0
  9
$DIMSOXD
 70
0
  9
$DIMSAH
 70
0
  9
$DIMBLK1
  1

  9
$DIMBLK2
  1

  9
$DIMSTYLE
  2
ISO-25
  9
$DIMCLRD
 70
0
  9
$DIMCLRE
 70
0
  9
$DIMCLRT
 70
0
  9
$DIMTFAC
 40
1.0
  9
$DIMGAP
 40
0.625
  9
$COORDS
 70
1
  9
$ATTDIA
 70
0
  9
$ATTREQ
 70
1
  9
$HANDLING
 70
1
  9
$LUNITS
 70
2
  9
$LUPREC
 70
4
  9
$SKETCHINC
 40
1.0
  9
$FILLETRAD
 40
10.0
  9
$AUNITS
 70
0
  9
$AUPREC
 70
2
  9
$MENU
  1
.
  9
$ELEVATION
 40
0.0
  9
$PELEVATION
 40
0.0
  9
$THICKNESS
 40
0.0
  9
$LIMCHECK
 70
0
  9
$CHAMFERA
 40
0.0
  9
$CHAMFERB
 40
0.0
  9
$SKPOLY
 70
0
  9
$TDCREATE
 40
2458875.870173611
  9
$TDUPDATE
 40
2458875.870173611
  9
$TDINDWG
 40
0.0
  9
$TDUSRTIMER
 40
0.0
  9
$USRTIMER
 70
1
  9
$ANGBASE
 50
0.0
  9
$ANGDIR
 70
0
  9
$PDMODE
 70
0
  9
$PDSIZE
 40
0.0
  9
$PLINEWID
 40
0.0
  9
$SPLFRAME
 70
0
  9
$SPLINETYPE
 70
6
  9
$SPLINESEGS
 70
8
  9
$HANDSEED
  5
B9
  9
$SURFTAB1
 70
6
  9
$SURFTAB2
 70
6
  9
$SURFTYPE
 70
6
  9
$SURFU
 70
6
  9
$SURFV
 70
6
  9
$UCSNAME
  2

  9
$UCSORG
 10
0.0
 20
0.0
 30
0.0
  9
$UCSXDIR
 10
1.0
 20
0.0
 30
0.0
  9
$UCSYDIR
 10
0.0
 20
1.0
 30
0.0
  9
$PUCSNAME
  2

  9
$PUCSORG
 10
0.0
 20
0.0
 30
0.0
  9
$PUCSXDIR
 10
1.0
 20
0.0
 30
0.0
  9
$PUCSYDIR
 10
0.0
 20
1.0
 30
0.0
  9
$USERI1
 70
0
  9
$USERI2
 70
0
  9
$USERI3
 70
0
  9
$USERI4
 70
0
  9
$USERI5
 70
0
  9
$USERR1
 40
0.0
  9
$USERR2
 40
0.0
  9
$USERR3
 40
0.0
  9
$USERR4
 40
0.0
  9
$USERR5
 40
0.0
  9
$WORLDVIEW
 70
1
  9
$SHADEDGE
 70
3
  9
$SHADEDIF
 70
70
  9
$TILEMODE
 70
1
  9
$MAXACTVP
 70
64
  9
$PLIMCHECK
 70
0
  9
$PEXTMIN
 10
1e+20
 20
1e+20
 30
1e+20
  9
$PEXTMAX
 10
-1e+20
 20
-1e+20
 30
-1e+20
  9
$PLIMMIN
 10
0.0
 20
0.0
  9
$PLIMMAX
 10
420.0
 20
297.0
  9
$UNITMODE
 70
0
  9
$VISRETAIN
 70
1
  9
$PLINEGEN
 70
0
  9
$PSLTSCALE
 70
1
  0
ENDSEC
  0
SECTION
  2
TABLES
  0
TABLE
  2
VPORT
 70
1
  0
VPORT
  5
23
  2
*Active
 70
0
 10
0.0
 20
0.0
 11
1.0
 21
1.0
 12
70.0
 22
50.0
 13
0.0
 23
0.0
 14
0.5
 24
0.5
 15
0.5
 25
0.5
 16
0.0
 26
0.0
 36
1.0
 17
0.0
 27
0.0
 37
0.0
 40
1.0
 41
1.34
 42
50.0
 43
0.0
 44
0.0
 50
0.0
 51
0.0
 71
0
 72
1000
 73
1
 74
3
 75
0
 76
0
 77
0
 78
0
  0
ENDTAB
  0
TABLE
  2
LTYPE
 70
3
  0
LTYPE
  5
24
  2
ByBlock
 70
0
  3

 72
65
 73
0
 40
0.0
  0
LTYPE
  5
25
  2
ByLayer
 70
0
  3

 72
65
 73
0
 40
0.0
  0
LTYPE
  5
26
  2
Continuous
 70
0
  3

 72
65
 73
0
 40
0.0
  0
ENDTAB
  0
TABLE
  2
LAYER
 70
2
  0
LAYER
  5
27
  2
0
 70
0
 62
7
  6
Continuous
  0
LAYER
  5
28
  2
Defpoints
 70
0
 62
7
  6
Continuous
  0
ENDTAB
  0
TABLE
  2
STYLE
 70
1
  0
STYLE
  5
29
  2
Standard
 70
0
 40
0.0
 41
1.0
 50
0.0
 71
0
 42
2.5
  3
txt
  4

  0
ENDTAB
  0
TABLE
  2
VIEW
 70
0
  0
ENDTAB
  0
TABLE
  2
UCS
 70
0
  0
ENDTAB
  0
TABLE
  2
APPID
 70
1
  0
APPID
  5
2A
  2
ACAD
 70
0
  0
ENDTAB
  0
TABLE
  2
DIMSTYLE
 70
1
  0
DIMSTYLE
105
2B
  2
Standard
 70
0
  3

  4

  5

  6

  7

 40
1.0
 41
2.5
 42
0.625
 43
3.75
 44
1.25
 45
0.0
 46
0.0
 47
0.0
 48
0.0
140
2.5
141
2.5
142
0.0
143
0.03937007874
144
1.0
145
0.0
146
1.0
147
0.625
 71
0
 72
0
 73
0
 74
0
 75
0
 76
0
 77
1
 78
8
170
0
171
3
172
1
173
0
174
0
175
0
176
0
177
0
178
0
  0
ENDTAB
  0
ENDSEC
  0
SECTION
  2
BLOCKS
  0
BLOCK
  5
18
  8
0
  2
$Model_Space
 70
0
 10
0.0
 20
0.0
 30
0.0
  3
$Model_Space
  1

  0
ENDBLK
  5
19
  8
0
  0
BLOCK
  5
1C
  8
0
  2
$Paper_Space
 70
0
 10
0.0
 20
0.0
 30
0.0
  3
$Paper_Space
  1

  0
ENDBLK
  5
1D
  8
0
  0
ENDSEC
  0
SECTION
  2
ENTITIES
  0
LINE
  5
2D
  8
0
 10
13.738305237447207
 20
57.674753353124565
 30
0.0
 11
26.303694762552794
 21
53.01824664687542
 31
0.0
  0
ARC
  5
2E
  8
0
 10
26.407941409428226
 20
53.299551884322625
 30
0.0
 40
0.3
 50
249.66620298811722
 51
339.6662029881172
  0
LINE
  5
2F
  8
0
 10
26.689246646875432
 20
53.195305237447194
 30
0.0
 11
31.34575335312457
 21
65.76069476255276
 31
0.0
  0
ARC
  5
30
  8
0
 10
31.064448115677365
 20
65.8649414094282
 30
0.0
 40
0.3
 50
339.6662029881172
 51
69.66620298811722
  0
LINE
  5
31
  8
0
 10
31.168694762552796
 20
66.1462466468754
 30
0.0
 11
18.60330523744721
 21
70.80275335312454
 31
0.0
  0
ARC
  5
32
  8
0
 10
18.499058590571778
 20
70.52144811567734
 30
0.0
 40
0.3
 50
69.66620298811722
 51
159.66620298811725
  0
LINE
  5
33
  8
0
 10
18.21775335312457
 20
70.62569476255277
 30
0.0
 11
13.561246646875432
 21
58.0603052374472
 31
0.0
  0
ARC
  5
34
  8
0
 10
13.842551884322639
 20
57.95605859057177
 30
0.0
 40
0.3
 50
159.66620298811725
 51
249.66620298811722
  0
LINE
  5
35
  8
0
 10
31.40773530847495
 20
50.324493144845306
 30
0.0
 11
42.33926469152505
 21
42.574506855154674
 31
0.0
  0
ARC
  5
36
  8
0
 10
42.51277154667974
 20
42.819242163629625
 30
0.0
 40
0.3
 50
234.66499176656208
 51
324.6649917665621
  0
LINE
  5
37
  8
0
 10
42.75750685515469
 20
42.64573530847494
 30
0.0
 11
50.50749314484531
 21
53.57726469152502
 31
0.0
  0
ARC
  5
38
  8
0
 10
50.26275783637036
 20
53.75077154667971
 30
0.0
 40
0.3
 50
324.6649917665621
 51
54.664991766562075
  0
LINE
  5
39
  8
0
 10
50.43626469152505
 20
53.99550685515466
 30
0.0
 11
39.504735308474956
 21
61.74549314484529
 31
0.0
  0
ARC
  5
3A
  8
0
 10
39.33122845332027
 20
61.50075783637034
 30
0.0
 40
0.3
 50
54.664991766562075
 51
144.66499176656208
  0
LINE
  5
3B
  8
0
 10
39.08649314484532
 20
61.674264691525025
 30
0.0
 11
31.33650685515469
 21
50.74273530847494
 31
0.0
  0
ARC
  5
3C
  8
0
 10
31.58124216362964
 20
50.56922845332026
 30
0.0
 40
0.3
 50
144.66499176656208
 51
234.66499176656208
  0
LINE
  5
3D
  8
0
 10
46.57148775373885
 20
38.65106182609182
 30
0.0
 11
55.12451224626115
 21
28.335938173908207
 31
0.0
  0
ARC
  5
3E
  8
0
 10
55.35545042016934
 20
28.52742592764706
 30
0.0
 40
0.3
 50
219.66461397062315
 51
309.6646139706231
  0
LINE
  5
3F
  8
0
 10
55.54693817390819
 20
28.29648775373887
 30
0.0
 11
65.86206182609182
 21
36.84951224626117
 31
0.0
  0
ARC
  5
40
  8
0
 10
65.67057407235296
 20
37.08045042016936
 30
0.0
 40
0.3
 50
309.6646139706231
 51
39.66461397062315
  0
LINE
  5
41
  8
0
 10
65.90151224626115
 20
37.27193817390821
 30
0.0
 11
57.34848775373886
 21
47.58706182609182
 31
0.0
  0
ARC
  5
42
  8
0
 10
57.117549579830666
 20
47.39557407235297
 30
0.0
 40
0.3
 50
39.66461397062315
 51
129.66461397062315
  0
LINE
  5
43
  8
0
 10
56.92606182609182
 20
47.626512246261164
 30
0.0
 11
46.610938173908195
 21
39.07348775373886
 31
0.0
  0
ARC
  5
44
  8
0
 10
46.80242592764704
 20
38.84254957983067
 30
0.0
 40
0.3
 50
129.66461397062315
 51
219.66461397062315
  0
LINE
  5
45
  8
0
 10
58.19720223132105
 20
23.45037498047277
 30
0.0
 11
63.78979776867896
 21
11.272625019527245
 31
0.0
  0
ARC
  5
46
  8
0
 10
64.0624227882062
 20
11.397827250848293
 30
0.0
 40
0.3
 50
204.666812725151
 51
294.666812725151
  0
LINE
  5
47
  8
0
 10
64.18762501952726
 20
11.125202231321047
 30
0.0
 11
76.36537498047277
 21
16.717797768678942
 31
0.0
  0
ARC
  5
48
  8
0
 10
76.24017274915171
 20
16.990422788206185
 30
0.0
 40
0.3
 50
294.666812725151
 51
24.66681272515102
  0
LINE
  5
49
  8
0
 10
76.51279776867895
 20
17.115625019527233
 30
0.0
 11
70.92020223132104
 21
29.293374980472755
 31
0.0
  0
ARC
  5
4A
  8
0
 10
70.6475772117938
 20
29.168172749151708
 30
0.0
 40
0.3
 50
24.66681272515102
 51
114.666812725151
  0
LINE
  5
4B
  8
0
 10
70.52237498047275
 20
29.44079776867895
 30
0.0
 11
58.34462501952725
 21
23.84820223132106
 31
0.0
  0
ARC
  5
4C
  8
0
 10
58.4698272508483
 20
23.575577211793817
 30
0.0
 40
0.3
 50
114.666812725151
 51
204.666812725151
  0
LINE
  5
4D
  8
0
 10
93.3
 20
123.0
 30
0.0
 11
106.7
 21
123.0
 31
0.0
  0
ARC
  5
4E
  8
0
 10
106.7
 20
123.3
 30
0.0
 40
0.3
 50
270.0
 51
0.0
  0
LINE
  5
4F
  8
0
 10
107.0
 20
123.3
 30
0.0
 11
107.0
 21
136.7
 31
0.0
  0
ARC
  5
50
  8
0
 10
106.7
 20
136.7
 30
0.0
 40
0.3
 50
0.0
 51
90.0
  0
LINE
  5
51
  8
0
 10
106.7
 20
137.0
 30
0.0
 11
93.3
 21
137.0
 31
0.0
  0
ARC
  5
52
  8
0
 10
93.3
 20
136.7
 30
0.0
 40
0.3
 50
90.0
 51
180.0
  0
LINE
  5
53
  8
0
 10
93.0
 20
136.7
 30
0.0
 11
93.0
 21
123.3
 31
0.0
  0
ARC
  5
54
  8
0
 10
93.3
 20
123.3
 30
0.0
 40
0.3
 50
180.0
 51
270.0
  0
LINE
  5
55
  8
0
 10
93.3
 20
104.0
 30
0.0
 11
106.7
 21
104.0
 31
0.0
  0
ARC
  5
56
  8
0
 10
106.7
 20
104.3
 30
0.0
 40
0.3
 50
270.0
 51
0.0
  0
LINE
  5
57
  8
0
 10
107.0
 20
104.3
 30
0.0
 11
107.0
 21
117.7
 31
0.0
  0
ARC
  5
58
  8
0
 10
106.7
 20
117.7
 30
0.0
 40
0.3
 50
0.0
 51
90.0
  0
LINE
  5
59
  8
0
 10
106.7
 20
118.0
 30
0.0
 11
93.3
 21
118.0
 31
0.0
  0
ARC
  5
5A
  8
0
 10
93.3
 20
117.7
 30
0.0
 40
0.3
 50
90.0
 51
180.0
  0
LINE
  5
5B
  8
0
 10
93.0
 20
117.7
 30
0.0
 11
93.0
 21
104.3
 31
0.0
  0
ARC
  5
5C
  8
0
 10
93.3
 20
104.3
 30
0.0
 40
0.3
 50
180.0
 51
270.0
  0
LINE
  5
5D
  8
0
 10
93.3
 20
85.0
 30
0.0
 11
106.7
 21
85.0
 31
0.0
  0
ARC
  5
5E
  8
0
 10
106.7
 20
85.3
 30
0.0
 40
0.3
 50
270.0
 51
0.0
  0
LINE
  5
5F
  8
0
 10
107.0
 20
85.3
 30
0.0
 11
107.0
 21
98.7
 31
0.0
  0
ARC
  5
60
  8
0
 10
106.7
 20
98.7
 30
0.0
 40
0.3
 50
0.0
 51
90.0
  0
LINE
  5
61
  8
0
 10
106.7
 20
99.0
 30
0.0
 11
93.3
 21
99.0
 31
0.0
  0
ARC
  5
62
  8
0
 10
93.3
 20
98.7
 30
0.0
 40
0.3
 50
90.0
 51
180.0
  0
LINE
  5
63
  8
0
 10
93.0
 20
98.7
 30
0.0
 11
93.0
 21
85.3
 31
0.0
  0
ARC
  5
64
  8
0
 10
93.3
 20
85.3
 30
0.0
 40
0.3
 50
180.0
 51
270.0
  0
LINE
  5
65
  8
0
 10
93.3
 20
59.0
 30
0.0
 11
106.7
 21
59.0
 31
0.0
  0
ARC
  5
66
  8
0
 10
106.7
 20
59.3
 30
0.0
 40
0.3
 50
270.0
 51
0.0
  0
LINE
  5
67
  8
0
 10
107.0
 20
59.3
 30
0.0
 11
107.0
 21
72.7
 31
0.0
  0
ARC
  5
68
  8
0
 10
106.7
 20
72.7
 30
0.0
 40
0.3
 50
0.0
 51
90.0
  0
LINE
  5
69
  8
0
 10
106.7
 20
73.0
 30
0.0
 11
93.3
 21
73.0
 31
0.0
  0
ARC
  5
6A
  8
0
 10
93.3
 20
72.7
 30
0.0
 40
0.3
 50
90.0
 51
180.0
  0
LINE
  5
6B
  8
0
 10
93.0
 20
72.7
 30
0.0
 11
93.0
 21
59.3
 31
0.0
  0
ARC
  5
6C
  8
0
 10
93.3
 20
59.3
 30
0.0
 40
0.3
 50
180.0
 51
270.0
  0
LINE
  5
6D
  8
0
 10
74.3
 20
40.0
 30
0.0
 11
87.7
 21
40.0
 31
0.0
  0
ARC
  5
6E
  8
0
 10
87.7
 20
40.3
 30
0.0
 40
0.3
 50
270.0
 51
0.0
  0
LINE
  5
6F
  8
0
 10
88.0
 20
40.3
 30
0.0
 11
88.0
 21
53.7
 31
0.0
  0
ARC
  5
70
  8
0
 10
87.7
 20
53.7
 30
0.0
 40
0.3
 50
0.0
 51
90.0
  0
LINE
  5
71
  8
0
 10
87.7
 20
54.0
 30
0.0
 11
74.3
 21
54.0
 31
0.0
  0
ARC
  5
72
  8
0
 10
74.3
 20
53.7
 30
0.0
 40
0.3
 50
90.0
 51
180.0
  0
LINE
  5
73
  8
0
 10
74.0
 20
53.7
 30
0.0
 11
74.0
 21
40.3
 31
0.0
  0
ARC
  5
74
  8
0
 10
74.3
 20
40.3
 30
0.0
 40
0.3
 50
180.0
 51
270.0
  0
LINE
  5
75
  8
0
 10
93.3
 20
40.0
 30
0.0
 11
106.7
 21
40.0
 31
0.0
  0
ARC
  5
76
  8
0
 10
106.7
 20
40.3
 30
0.0
 40
0.3
 50
270.0
 51
0.0
  0
LINE
  5
77
  8
0
 10
107.0
 20
40.3
 30
0.0
 11
107.0
 21
53.7
 31
0.0
  0
ARC
  5
78
  8
0
 10
106.7
 20
53.7
 30
0.0
 40
0.3
 50
0.0
 51
90.0
  0
LINE
  5
79
  8
0
 10
106.7
 20
54.0
 30
0.0
 11
93.3
 21
54.0
 31
0.0
  0
ARC
  5
7A
  8
0
 10
93.3
 20
53.7
 30
0.0
 40
0.3
 50
90.0
 51
180.0
  0
LINE
  5
7B
  8
0
 10
93.0
 20
53.7
 30
0.0
 11
93.0
 21
40.3
 31
0.0
  0
ARC
  5
7C
  8
0
 10
93.3
 20
40.3
 30
0.0
 40
0.3
 50
180.0
 51
270.0
  0
LINE
  5
7D
  8
0
 10
112.3
 20
40.0
 30
0.0
 11
125.7
 21
40.0
 31
0.0
  0
ARC
  5
7E
  8
0
 10
125.7
 20
40.3
 30
0.0
 40
0.3
 50
270.0
 51
0.0
  0
LINE
  5
7F
  8
0
 10
126.0
 20
40.3
 30
0.0
 11
126.0
 21
53.7
 31
0.0
  0
ARC
  5
80
  8
0
 10
125.7
 20
53.7
 30
0.0
 40
0.3
 50
0.0
 51
90.0
  0
LINE
  5
81
  8
0
 10
125.7
 20
54.0
 30
0.0
 11
112.3
 21
54.0
 31
0.0
  0
ARC
  5
82
  8
0
 10
112.3
 20
53.7
 30
0.0
 40
0.3
 50
90.0
 51
180.0
  0
LINE
  5
83
  8
0
 10
112.0
 20
53.7
 30
0.0
 11
112.0
 21
40.3
 31
0.0
  0
ARC
  5
84
  8
0
 10
112.3
 20
40.3
 30
0.0
 40
0.3
 50
180.0
 51
270.0
  0
LINE
  5
85
  8
0
 10
136.20978868696974
 20
11.269547058756777
 30
0.0
 11
141.80379776867898
 21
23.45037498047277
 31
0.0
  0
ARC
  5
86
  8
0
 10
141.53117274915172
 20
23.575577211793817
 30
0.0
 40
0.3
 50
335.333187274849
 51
65.33318727484904
  0
LINE
  5
87
  8
0
 10
141.65637498047278
 20
23.84820223132106
 30
0.0
 11
129.47187881094166
 21
29.443895944955422
 31
0.0
  0
ARC
  5
88
  8
0
 10
129.3466765796206
 20
29.17127092542818
 30
0.0
 40
0.3
 50
65.33318727484904
 51
153.8976949396707
  0
LINE
  5
89
  8
0
 10
129.07727361685403
 20
29.30326351481332
 30
0.0
 11
123.10931974703738
 21
17.122394409416415
 31
0.0
  0
ARC
  5
8A
  8
0
 10
123.37872270980394
 20
16.990401820031273
 30
0.0
 40
0.3
 50
153.8976949396707
 51
245.9837271095626
  0
LINE
  5
8B
  8
0
 10
123.25662388347803
 20
16.71637284964706
 30
0.0
 11
135.81506484111657
 21
11.120720319693607
 31
0.0
  0
ARC
  5
8C
  8
0
 10
135.9371636674425
 20
11.394749290077824
 30
0.0
 40
0.3
 50
245.9837271095626
 51
335.333187274849
  0
LINE
  5
8D
  8
0
 10
144.87648775373884
 20
28.334938173908203
 30
0.0
 11
153.42951224626117
 21
38.650061826091815
 31
0.0
  0
ARC
  5
8E
  8
0
 10
153.19857407235298
 20
38.84154957983066
 30
0.0
 40
0.3
 50
320.3353860293768
 51
50.33538602937683
  0
LINE
  5
8F
  8
0
 10
153.39006182609182
 20
39.072487753738855
 30
0.0
 11
143.0749381739082
 21
47.62551224626116
 31
0.0
  0
ARC
  5
90
  8
0
 10
142.88345042016937
 20
47.39457407235297
 30
0.0
 40
0.3
 50
50.33538602937683
 51
140.33538602937682
  0
LINE
  5
91
  8
0
 10
142.65251224626118
 20
47.586061826091814
 30
0.0
 11
134.09948775373886
 21
37.270938173908206
 31
0.0
  0
ARC
  5
92
  8
0
 10
134.33042592764704
 20
37.07945042016936
 30
0.0
 40
0.3
 50
140.33538602937682
 51
230.33538602937682
  0
LINE
  5
93
  8
0
 10
134.1389381739082
 20
36.848512246261166
 30
0.0
 11
144.45406182609182
 21
28.295487753738865
 31
0.0
  0
ARC
  5
94
  8
0
 10
144.64554957983066
 20
28.526425927647054
 30
0.0
 40
0.3
 50
230.33538602937682
 51
320.3353860293768
  0
LINE
  5
95
  8
0
 10
157.66173530847496
 20
42.5745068551547
 30
0.0
 11
168.59326469152506
 21
50.324493144845334
 31
0.0
  0
ARC
  5
96
  8
0
 10
168.41975783637037
 20
50.569228453320285
 30
0.0
 40
0.3
 50
305.3350082334379
 51
35.33500823343795
  0
LINE
  5
97
  8
0
 10
168.66449314484532
 20
50.74273530847497
 30
0.0
 11
160.91450685515468
 21
61.67426469152505
 31
0.0
  0
ARC
  5
98
  8
0
 10
160.66977154667973
 20
61.50075783637037
 30
0.0
 40
0.3
 50
35.33500823343795
 51
125.33500823343795
  0
LINE
  5
99
  8
0
 10
160.49626469152503
 20
61.74549314484532
 30
0.0
 11
149.56473530847492
 21
53.99550685515469
 31
0.0
  0
ARC
  5
9A
  8
0
 10
149.73824216362962
 20
53.750771546679736
 30
0.0
 40
0.3
 50
125.33500823343795
 51
215.33500823343792
  0
LINE
  5
9B
  8
0
 10
149.49350685515466
 20
53.57726469152505
 30
0.0
 11
157.2434931448453
 21
42.64573530847497
 31
0.0
  0
ARC
  5
9C
  8
0
 10
157.48822845332026
 20
42.81924216362965
 30
0.0
 40
0.3
 50
215.33500823343792
 51
305.3350082334379
  0
LINE
  5
9D
  8
0
 10
173.69730523744718
 20
53.01824664687542
 30
0.0
 11
186.26269476255277
 21
57.674753353124565
 31
0.0
  0
ARC
  5
9E
  8
0
 10
186.15844811567734
 20
57.95605859057177
 30
0.0
 40
0.3
 50
290.3337970118828
 51
20.3337970118828
  0
LINE
  5
9F
  8
0
 10
186.43975335312456
 20
58.0603052374472
 30
0.0
 11
181.78324664687543
 21
70.62569476255278
 31
0.0
  0
ARC
  5
A0
  8
0
 10
181.5019414094282
 20
70.52144811567734
 30
0.0
 40
0.3
 50
20.3337970118828
 51
110.33379701188281
  0
LINE
  5
A1
  8
0
 10
181.3976947625528
 20
70.80275335312454
 30
0.0
 11
168.8323052374472
 21
66.1462466468754
 31
0.0
  0
ARC
  5
A2
  8
0
 10
168.93655188432263
 20
65.8649414094282
 30
0.0
 40
0.3
 50
110.33379701188281
 51
200.33379701188278
  0
LINE
  5
A3
  8
0
 10
168.6552466468754
 20
65.76069476255277
 30
0.0
 11
173.31175335312454
 21
53.195305237447194
 31
0.0
  0
ARC
  5
A4
  8
0
 10
173.59305859057176
 20
53.299551884322625
 30
0.0
 40
0.3
 50
200.33379701188278
 51
290.3337970118828
  0
LINE
  5
A5
  8
0
 10
183.69326465680228
 20
76.99596643045766
 30
0.0
 11
134.688292893101
 21
58.97227436955215
 31
0.0
  0
ARC
  5
A6
  8
0
 10
133.65273365486897
 20
61.78787680315536
 30
0.0
 40
3.0
 50
191.90823719284523
 51
290.19317550571884
  0
LINE
  5
A7
  8
0
 10
130.71729566543715
 20
61.168842223991604
 30
0.0
 11
106.90010562532649
 21
174.10903457916376
 31
0.0
  0
ARC
  5
A8
  8
0
 10
103.96466763589467
 20
173.49
 30
0.0
 40
3.0
 50
11.90823719284523
 51
90.0
  0
LINE
  5
A9
  8
0
 10
103.96466763589467
 20
176.49
 30
0.0
 11
96.03833236410532
 21
176.49
 31
0.0
  0
ARC
  5
AA
  8
0
 10
96.03833236410532
 20
173.49
 30
0.0
 40
3.0
 50
90.0
 51
168.09176280715477
  0
LINE
  5
AB
  8
0
 10
93.1028943746735
 20
174.10903457916376
 30
0.0
 11
69.28569582514953
 21
61.16880187268334
 31
0.0
  0
ARC
  5
AC
  8
0
 10
66.35025783571771
 20
61.7878364518471
 30
0.0
 40
3.0
 50
249.80749861133572
 51
348.0917628071548
  0
LINE
  5
AD
  8
0
 10
65.31473172470277
 20
58.9722218345022
 30
0.0
 11
16.307714450826143
 21
76.99601163067618
 31
0.0
  0
ARC
  5
AE
  8
0
 10
15.272188339811205
 20
74.18039701333127
 30
0.0
 40
3.0
 50
69.80749861133573
 51
159.6669128752177
  0
LINE
  5
AF
  8
0
 10
12.459123049533925
 20
75.22282862866017
 30
0.0
 11
1.054225035369205
 21
44.4460157701239
 31
0.0
  0
ARC
  5
B0
  8
0
 10
3.867290325646484
 20
43.403584154795006
 30
0.0
 40
3.0
 50
159.6669128752177
 51
236.60207998763929
  0
LINE
  5
B1
  8
0
 10
2.2159390280057156
 20
40.89898061495479
 30
0.0
 11
60.462632480857856
 21
2.4953964601597822
 31
0.0
  0
ARC
  5
B2
  8
0
 10
62.11398377849862
 20
5.0
 30
0.0
 40
3.0
 50
236.60207998763929
 51
270.0
  0
LINE
  5
B3
  8
0
 10
62.11398377849862
 20
2.0
 30
0.0
 11
137.88701622150134
 21
2.0
 31
0.0
  0
ARC
  5
B4
  8
0
 10
137.88701622150134
 20
5.0
 30
0.0
 40
3.0
 50
270.0
 51
303.3979200123607
  0
LINE
  5
B5
  8
0
 10
139.5383675191421
 20
2.4953964601597813
 30
0.0
 11
197.78506097199426
 21
40.89898061495479
 31
0.0
  0
ARC
  5
B6
  8
0
 10
196.1337096743535
 20
43.403584154795006
 30
0.0
 40
3.0
 50
303.3979200123607
 51
20.333087124782253
  0
LINE
  5
B7
  8
0
 10
198.94677496463078
 20
44.4460157701239
 30
0.0
 11
187.5418891853116
 21
75.22279561218335
 31
0.0
  0
ARC
  5
B8
  8
0
 10
184.7288238950343
 20
74.18036399685445
 30
0.0
 40
3.0
 50
20.333087124782253
 51
110.19317550571886
  0
ENDSEC
  0
EOF
