  0
SECTION
  2
HEADER
  9
$ACADVER
  1
AC1009
  9
$DWGCODEPAGE
  3
ANSI_1252
  9
$INSBASE
 10
0.0
 20
0.0
 30
0.0
  9
$EXTMIN
 10
-100
 20
-100
 30
-100
  9
$EXTMAX
 10
100
 20
100
 30
100
  9
$LIMMIN
 10
0.0
 20
0.0
  9
$LIMMAX
 10
420.0
 20
297.0
  9
$ORTHOMODE
 70
0
  9
$REGENMODE
 70
1
  9
$DRAGMODE
 70
2
  9
$FILLMODE
 70
1
  9
$QTEXTMODE
 70
0
  9
$MIRRTEXT
 70
1
  9
$OSMODE
 70
20583
  9
$LTSCALE
 40
1.0
  9
$ATTMODE
 70
1
  9
$TEXTSIZE
 40
2.5
  9
$TRACEWID
 40
1.0
  9
$TEXTSTYLE
  7
Standard
  9
$CLAYER
  8
0
  9
$CELTYPE
  6
ByLayer
  9
$CECOLOR
 62
256
  9
$DIMSCALE
 40
1.0
  9
$DIMASZ
 40
2.5
  9
$DIMEXO
 40
0.625
  9
$DIMDLI
 40
3.75
  9
$DIMRND
 40
0.0
  9
$DIMDLE
 40
0.0
  9
$DIMEXE
 40
1.25
  9
$DIMTP
 40
0.0
  9
$DIMTM
 40
0.0
  9
$DIMTXT
 40
2.5
  9
$DIMCEN
 40
2.5
  9
$DIMTSZ
 40
0.0
  9
$DIMTOL
 70
0
  9
$DIMLIM
 70
0
  9
$DIMTIH
 70
0
  9
$DIMTOH
 70
0
  9
$DIMSE1
 70
0
  9
$DIMSE2
 70
0
  9
$DIMTAD
 70
1
  9
$DIMZIN
 70
8
  9
$DIMBLK
  1

  9
$DIMASO
 70
1
  9
$DIMSHO
 70
1
  9
$DIMPOST
  1

  9
$DIMAPOST
  1

  9
$DIMALT
 70
0
  9
$DIMALTD
 70
3
  9
$DIMALTF
 40
0.03937007874
  9
$DIMLFAC
 40
1.0
  9
$DIMTOFL
 70
1
  9
$DIMTVP
 40
0.0
  9
$DIMTIX
 70
0
  9
$DIMSOXD
 70
0
  9
$DIMSAH
 70
0
  9
$DIMBLK1
  1

  9
$DIMBLK2
  1

  9
$DIMSTYLE
  2
ISO-25
  9
$DIMCLRD
 70
0
  9
$DIMCLRE
 70
0
  9
$DIMCLRT
 70
0
  9
$DIMTFAC
 40
1.0
  9
$DIMGAP
 40
0.625
  9
$COORDS
 70
1
  9
$ATTDIA
 70
0
  9
$ATTREQ
 70
1
  9
$HANDLING
 70
1
  9
$LUNITS
 70
2
  9
$LUPREC
 70
4
  9
$SKETCHINC
 40
1.0
  9
$FILLETRAD
 40
10.0
  9
$AUNITS
 70
0
  9
$AUPREC
 70
2
  9
$MENU
  1
.
  9
$ELEVATION
 40
0.0
  9
$PELEVATION
 40
0.0
  9
$THICKNESS
 40
0.0
  9
$LIMCHECK
 70
0
  9
$CHAMFERA
 40
0.0
  9
$CHAMFERB
 40
0.0
  9
$SKPOLY
 70
0
  9
$TDCREATE
 40
2458875.870162037
  9
$TDUPDATE
 40
2458875.870162037
  9
$TDINDWG
 40
0.0
  9
$TDUSRTIMER
 40
0.0
  9
$USRTIMER
 70
1
  9
$ANGBASE
 50
0.0
  9
$ANGDIR
 70
0
  9
$PDMODE
 70
0
  9
$PDSIZE
 40
0.0
  9
$PLINEWID
 40
0.0
  9
$SPLFRAME
 70
0
  9
$SPLINETYPE
 70
6
  9
$SPLINESEGS
 70
8
  9
$HANDSEED
  5
51
  9
$SURFTAB1
 70
6
  9
$SURFTAB2
 70
6
  9
$SURFTYPE
 70
6
  9
$SURFU
 70
6
  9
$SURFV
 70
6
  9
$UCSNAME
  2

  9
$UCSORG
 10
0.0
 20
0.0
 30
0.0
  9
$UCSXDIR
 10
1.0
 20
0.0
 30
0.0
  9
$UCSYDIR
 10
0.0
 20
1.0
 30
0.0
  9
$PUCSNAME
  2

  9
$PUCSORG
 10
0.0
 20
0.0
 30
0.0
  9
$PUCSXDIR
 10
1.0
 20
0.0
 30
0.0
  9
$PUCSYDIR
 10
0.0
 20
1.0
 30
0.0
  9
$USERI1
 70
0
  9
$USERI2
 70
0
  9
$USERI3
 70
0
  9
$USERI4
 70
0
  9
$USERI5
 70
0
  9
$USERR1
 40
0.0
  9
$USERR2
 40
0.0
  9
$USERR3
 40
0.0
  9
$USERR4
 40
0.0
  9
$USERR5
 40
0.0
  9
$WORLDVIEW
 70
1
  9
$SHADEDGE
 70
3
  9
$SHADEDIF
 70
70
  9
$TILEMODE
 70
1
  9
$MAXACTVP
 70
64
  9
$PLIMCHECK
 70
0
  9
$PEXTMIN
 10
1e+20
 20
1e+20
 30
1e+20
  9
$PEXTMAX
 10
-1e+20
 20
-1e+20
 30
-1e+20
  9
$PLIMMIN
 10
0.0
 20
0.0
  9
$PLIMMAX
 10
420.0
 20
297.0
  9
$UNITMODE
 70
0
  9
$VISRETAIN
 70
1
  9
$PLINEGEN
 70
0
  9
$PSLTSCALE
 70
1
  0
ENDSEC
  0
SECTION
  2
TABLES
  0
TABLE
  2
VPORT
 70
1
  0
VPORT
  5
23
  2
*Active
 70
0
 10
0.0
 20
0.0
 11
1.0
 21
1.0
 12
70.0
 22
50.0
 13
0.0
 23
0.0
 14
0.5
 24
0.5
 15
0.5
 25
0.5
 16
0.0
 26
0.0
 36
1.0
 17
0.0
 27
0.0
 37
0.0
 40
1.0
 41
1.34
 42
50.0
 43
0.0
 44
0.0
 50
0.0
 51
0.0
 71
0
 72
1000
 73
1
 74
3
 75
0
 76
0
 77
0
 78
0
  0
ENDTAB
  0
TABLE
  2
LTYPE
 70
3
  0
LTYPE
  5
24
  2
ByBlock
 70
0
  3

 72
65
 73
0
 40
0.0
  0
LTYPE
  5
25
  2
ByLayer
 70
0
  3

 72
65
 73
0
 40
0.0
  0
LTYPE
  5
26
  2
Continuous
 70
0
  3

 72
65
 73
0
 40
0.0
  0
ENDTAB
  0
TABLE
  2
LAYER
 70
2
  0
LAYER
  5
27
  2
0
 70
0
 62
7
  6
Continuous
  0
LAYER
  5
28
  2
Defpoints
 70
0
 62
7
  6
Continuous
  0
ENDTAB
  0
TABLE
  2
STYLE
 70
1
  0
STYLE
  5
29
  2
Standard
 70
0
 40
0.0
 41
1.0
 50
0.0
 71
0
 42
2.5
  3
txt
  4

  0
ENDTAB
  0
TABLE
  2
VIEW
 70
0
  0
ENDTAB
  0
TABLE
  2
UCS
 70
0
  0
ENDTAB
  0
TABLE
  2
APPID
 70
1
  0
APPID
  5
2A
  2
ACAD
 70
0
  0
ENDTAB
  0
TABLE
  2
DIMSTYLE
 70
1
  0
DIMSTYLE
105
2B
  2
Standard
 70
0
  3

  4

  5

  6

  7

 40
1.0
 41
2.5
 42
0.625
 43
3.75
 44
1.25
 45
0.0
 46
0.0
 47
0.0
 48
0.0
140
2.5
141
2.5
142
0.0
143
0.03937007874
144
1.0
145
0.0
146
1.0
147
0.625
 71
0
 72
0
 73
0
 74
0
 75
0
 76
0
 77
1
 78
8
170
0
171
3
172
1
173
0
174
0
175
0
176
0
177
0
178
0
  0
ENDTAB
  0
ENDSEC
  0
SECTION
  2
BLOCKS
  0
BLOCK
  5
18
  8
0
  2
$Model_Space
 70
0
 10
0.0
 20
0.0
 30
0.0
  3
$Model_Space
  1

  0
ENDBLK
  5
19
  8
0
  0
BLOCK
  5
1C
  8
0
  2
$Paper_Space
 70
0
 10
0.0
 20
0.0
 30
0.0
  3
$Paper_Space
  1

  0
ENDBLK
  5
1D
  8
0
  0
ENDSEC
  0
SECTION
  2
ENTITIES
  0
CIRCLE
  5
2D
  8
0
 10
319.265
 20
20.894000000000005
 30
0.0
 40
2.0
  0
CIRCLE
  5
2E
  8
0
 10
300.17
 20
72.01599999999999
 30
0.0
 40
2.0
  0
CIRCLE
  5
2F
  8
0
 10
285.23
 20
112.00999999999999
 30
0.0
 40
2.0
  0
CIRCLE
  5
30
  8
0
 10
316.883
 20
212.46
 30
0.0
 40
2.0
  0
CIRCLE
  5
31
  8
0
 10
201.352
 20
125.099
 30
0.0
 40
2.0
  0
CIRCLE
  5
32
  8
0
 10
180.0
 20
66.5
 30
0.0
 40
2.0
  0
CIRCLE
  5
33
  8
0
 10
158.649
 20
125.099
 30
0.0
 40
2.0
  0
CIRCLE
  5
34
  8
0
 10
180.0
 20
218.614
 30
0.0
 40
2.0
  0
CIRCLE
  5
35
  8
0
 10
53.667
 20
213.037
 30
0.0
 40
2.0
  0
CIRCLE
  5
36
  8
0
 10
74.771
 20
112.00999999999999
 30
0.0
 40
2.0
  0
CIRCLE
  5
37
  8
0
 10
59.83
 20
72.01599999999999
 30
0.0
 40
2.0
  0
CIRCLE
  5
38
  8
0
 10
40.735
 20
20.894000000000005
 30
0.0
 40
2.0
  0
LINE
  5
39
  8
0
 10
5.738324960822373
 20
28.848309663722
 30
0.0
 11
43.74733522097023
 21
3.984850163527798
 31
0.0
  0
ARC
  5
3A
  8
0
 10
45.38961142015758
 20
6.4954136233078446
 30
0.0
 40
3.0
 50
236.80943670081055
 51
298.91555505933235
  0
LINE
  5
3B
  8
0
 10
46.84017154819914
 20
3.869413753746528
 30
0.0
 11
140.53693444803704
 21
55.62599986956132
 31
0.0
  0
ARC
  5
3C
  8
0
 10
141.9874945760786
 20
53.0
 30
0.0
 40
3.0
 50
90.0
 51
118.91555505933235
  0
LINE
  5
3D
  8
0
 10
141.9874945760786
 20
56.0
 30
0.0
 11
218.0135040856042
 21
56.0
 31
0.0
  0
ARC
  5
3E
  8
0
 10
218.0135040856042
 20
53.0
 30
0.0
 40
3.0
 50
61.08439700720118
 51
90.0
  0
LINE
  5
3F
  8
0
 10
219.46406641054838
 20
55.62599865602642
 30
0.0
 11
313.1588276858011
 21
3.8704159033014673
 31
0.0
  0
ARC
  5
40
  8
0
 10
314.6093900107453
 20
6.496414559327885
 30
0.0
 40
3.0
 50
241.08439700720118
 51
303.1905632991894
  0
LINE
  5
41
  8
0
 10
316.25166620993264
 20
3.9858510995478387
 30
0.0
 11
354.2606708804288
 21
28.849306943291175
 31
0.0
  0
ARC
  5
42
  8
0
 10
352.61839468124145
 20
31.359870403071223
 30
0.0
 40
3.0
 50
303.1905632991894
 51
12.000209671885285
  0
LINE
  5
43
  8
0
 10
355.5528352008867
 20
31.98361621401031
 30
0.0
 11
334.80316721059654
 21
129.60137244105744
 31
0.0
  0
ARC
  5
44
  8
0
 10
337.7376077302418
 20
130.22511825199652
 30
0.0
 40
3.0
 50
123.19026171695344
 51
192.00020967188527
  0
LINE
  5
45
  8
0
 10
336.09534474568653
 20
132.73569035603168
 30
0.0
 11
349.33965849990136
 21
141.3993117670337
 31
0.0
  0
ARC
  5
46
  8
0
 10
347.6973955153461
 20
143.90988387106887
 30
0.0
 40
3.0
 50
303.19026171695344
 51
12.00010882806213
  0
LINE
  5
47
  8
0
 10
350.63183713281484
 20
144.53362451722518
 30
0.0
 11
329.30657136308616
 21
244.8601749254739
 31
0.0
  0
ARC
  5
48
  8
0
 10
326.3721297456174
 20
244.2364342793176
 30
0.0
 40
3.0
 50
12.00010882806213
 51
97.40011485000835
  0
LINE
  5
49
  8
0
 10
325.9857369924389
 20
247.2114469919444
 30
0.0
 11
186.8453884363198
 21
229.1399872873732
 31
0.0
  0
ARC
  5
4A
  8
0
 10
186.45899568314127
 20
232.115
 30
0.0
 40
3.0
 50
270.0
 51
277.4001148500083
  0
LINE
  5
4B
  8
0
 10
186.45899568314127
 20
229.115
 30
0.0
 11
173.5419979573063
 21
229.115
 31
0.0
  0
ARC
  5
4C
  8
0
 10
173.5419979573063
 20
232.115
 30
0.0
 40
3.0
 50
262.6001270553976
 51
270.0
  0
LINE
  5
4D
  8
0
 10
173.15561776477116
 20
229.13998565603183
 30
0.0
 11
52.50525424874265
 21
244.80945991563445
 31
0.0
  0
ARC
  5
4E
  8
0
 10
52.11887405620751
 20
241.83444557166627
 30
0.0
 40
3.0
 50
82.60012705539759
 51
167.99991954574327
  0
LINE
  5
4F
  8
0
 10
49.18443212985258
 20
242.4581847646391
 30
0.0
 11
4.446159233654796
 21
31.98261231647487
 31
0.0
  0
ARC
  5
50
  8
0
 10
7.380601160009722
 20
31.358873123502047
 30
0.0
 40
3.0
 50
167.99991954574327
 51
236.80943670081055
  0
ENDSEC
  0
EOF
