  0
SECTION
  2
HEADER
  9
$ACADVER
  1
AC1009
  9
$DWGCODEPAGE
  3
ANSI_1252
  9
$INSBASE
 10
0.0
 20
0.0
 30
0.0
  9
$EXTMIN
 10
-100
 20
-100
 30
-100
  9
$EXTMAX
 10
100
 20
100
 30
100
  9
$LIMMIN
 10
0.0
 20
0.0
  9
$LIMMAX
 10
420.0
 20
297.0
  9
$ORTHOMODE
 70
0
  9
$REGENMODE
 70
1
  9
$DRAGMODE
 70
2
  9
$FILLMODE
 70
1
  9
$QTEXTMODE
 70
0
  9
$MIRRTEXT
 70
1
  9
$OSMODE
 70
20583
  9
$LTSCALE
 40
1.0
  9
$ATTMODE
 70
1
  9
$TEXTSIZE
 40
2.5
  9
$TRACEWID
 40
1.0
  9
$TEXTSTYLE
  7
Standard
  9
$CLAYER
  8
0
  9
$CELTYPE
  6
ByLayer
  9
$CECOLOR
 62
256
  9
$DIMSCALE
 40
1.0
  9
$DIMASZ
 40
2.5
  9
$DIMEXO
 40
0.625
  9
$DIMDLI
 40
3.75
  9
$DIMRND
 40
0.0
  9
$DIMDLE
 40
0.0
  9
$DIMEXE
 40
1.25
  9
$DIMTP
 40
0.0
  9
$DIMTM
 40
0.0
  9
$DIMTXT
 40
2.5
  9
$DIMCEN
 40
2.5
  9
$DIMTSZ
 40
0.0
  9
$DIMTOL
 70
0
  9
$DIMLIM
 70
0
  9
$DIMTIH
 70
0
  9
$DIMTOH
 70
0
  9
$DIMSE1
 70
0
  9
$DIMSE2
 70
0
  9
$DIMTAD
 70
1
  9
$DIMZIN
 70
8
  9
$DIMBLK
  1

  9
$DIMASO
 70
1
  9
$DIMSHO
 70
1
  9
$DIMPOST
  1

  9
$DIMAPOST
  1

  9
$DIMALT
 70
0
  9
$DIMALTD
 70
3
  9
$DIMALTF
 40
0.03937007874
  9
$DIMLFAC
 40
1.0
  9
$DIMTOFL
 70
1
  9
$DIMTVP
 40
0.0
  9
$DIMTIX
 70
0
  9
$DIMSOXD
 70
0
  9
$DIMSAH
 70
0
  9
$DIMBLK1
  1

  9
$DIMBLK2
  1

  9
$DIMSTYLE
  2
ISO-25
  9
$DIMCLRD
 70
0
  9
$DIMCLRE
 70
0
  9
$DIMCLRT
 70
0
  9
$DIMTFAC
 40
1.0
  9
$DIMGAP
 40
0.625
  9
$COORDS
 70
1
  9
$ATTDIA
 70
0
  9
$ATTREQ
 70
1
  9
$HANDLING
 70
1
  9
$LUNITS
 70
2
  9
$LUPREC
 70
4
  9
$SKETCHINC
 40
1.0
  9
$FILLETRAD
 40
10.0
  9
$AUNITS
 70
0
  9
$AUPREC
 70
2
  9
$MENU
  1
.
  9
$ELEVATION
 40
0.0
  9
$PELEVATION
 40
0.0
  9
$THICKNESS
 40
0.0
  9
$LIMCHECK
 70
0
  9
$CHAMFERA
 40
0.0
  9
$CHAMFERB
 40
0.0
  9
$SKPOLY
 70
0
  9
$TDCREATE
 40
2458875.870173611
  9
$TDUPDATE
 40
2458875.870173611
  9
$TDINDWG
 40
0.0
  9
$TDUSRTIMER
 40
0.0
  9
$USRTIMER
 70
1
  9
$ANGBASE
 50
0.0
  9
$ANGDIR
 70
0
  9
$PDMODE
 70
0
  9
$PDSIZE
 40
0.0
  9
$PLINEWID
 40
0.0
  9
$SPLFRAME
 70
0
  9
$SPLINETYPE
 70
6
  9
$SPLINESEGS
 70
8
  9
$HANDSEED
  5
129
  9
$SURFTAB1
 70
6
  9
$SURFTAB2
 70
6
  9
$SURFTYPE
 70
6
  9
$SURFU
 70
6
  9
$SURFV
 70
6
  9
$UCSNAME
  2

  9
$UCSORG
 10
0.0
 20
0.0
 30
0.0
  9
$UCSXDIR
 10
1.0
 20
0.0
 30
0.0
  9
$UCSYDIR
 10
0.0
 20
1.0
 30
0.0
  9
$PUCSNAME
  2

  9
$PUCSORG
 10
0.0
 20
0.0
 30
0.0
  9
$PUCSXDIR
 10
1.0
 20
0.0
 30
0.0
  9
$PUCSYDIR
 10
0.0
 20
1.0
 30
0.0
  9
$USERI1
 70
0
  9
$USERI2
 70
0
  9
$USERI3
 70
0
  9
$USERI4
 70
0
  9
$USERI5
 70
0
  9
$USERR1
 40
0.0
  9
$USERR2
 40
0.0
  9
$USERR3
 40
0.0
  9
$USERR4
 40
0.0
  9
$USERR5
 40
0.0
  9
$WORLDVIEW
 70
1
  9
$SHADEDGE
 70
3
  9
$SHADEDIF
 70
70
  9
$TILEMODE
 70
1
  9
$MAXACTVP
 70
64
  9
$PLIMCHECK
 70
0
  9
$PEXTMIN
 10
1e+20
 20
1e+20
 30
1e+20
  9
$PEXTMAX
 10
-1e+20
 20
-1e+20
 30
-1e+20
  9
$PLIMMIN
 10
0.0
 20
0.0
  9
$PLIMMAX
 10
420.0
 20
297.0
  9
$UNITMODE
 70
0
  9
$VISRETAIN
 70
1
  9
$PLINEGEN
 70
0
  9
$PSLTSCALE
 70
1
  0
ENDSEC
  0
SECTION
  2
TABLES
  0
TABLE
  2
VPORT
 70
1
  0
VPORT
  5
23
  2
*Active
 70
0
 10
0.0
 20
0.0
 11
1.0
 21
1.0
 12
70.0
 22
50.0
 13
0.0
 23
0.0
 14
0.5
 24
0.5
 15
0.5
 25
0.5
 16
0.0
 26
0.0
 36
1.0
 17
0.0
 27
0.0
 37
0.0
 40
1.0
 41
1.34
 42
50.0
 43
0.0
 44
0.0
 50
0.0
 51
0.0
 71
0
 72
1000
 73
1
 74
3
 75
0
 76
0
 77
0
 78
0
  0
ENDTAB
  0
TABLE
  2
LTYPE
 70
3
  0
LTYPE
  5
24
  2
ByBlock
 70
0
  3

 72
65
 73
0
 40
0.0
  0
LTYPE
  5
25
  2
ByLayer
 70
0
  3

 72
65
 73
0
 40
0.0
  0
LTYPE
  5
26
  2
Continuous
 70
0
  3

 72
65
 73
0
 40
0.0
  0
ENDTAB
  0
TABLE
  2
LAYER
 70
2
  0
LAYER
  5
27
  2
0
 70
0
 62
7
  6
Continuous
  0
LAYER
  5
28
  2
Defpoints
 70
0
 62
7
  6
Continuous
  0
ENDTAB
  0
TABLE
  2
STYLE
 70
1
  0
STYLE
  5
29
  2
Standard
 70
0
 40
0.0
 41
1.0
 50
0.0
 71
0
 42
2.5
  3
txt
  4

  0
ENDTAB
  0
TABLE
  2
VIEW
 70
0
  0
ENDTAB
  0
TABLE
  2
UCS
 70
0
  0
ENDTAB
  0
TABLE
  2
APPID
 70
1
  0
APPID
  5
2A
  2
ACAD
 70
0
  0
ENDTAB
  0
TABLE
  2
DIMSTYLE
 70
1
  0
DIMSTYLE
105
2B
  2
Standard
 70
0
  3

  4

  5

  6

  7

 40
1.0
 41
2.5
 42
0.625
 43
3.75
 44
1.25
 45
0.0
 46
0.0
 47
0.0
 48
0.0
140
2.5
141
2.5
142
0.0
143
0.03937007874
144
1.0
145
0.0
146
1.0
147
0.625
 71
0
 72
0
 73
0
 74
0
 75
0
 76
0
 77
1
 78
8
170
0
171
3
172
1
173
0
174
0
175
0
176
0
177
0
178
0
  0
ENDTAB
  0
ENDSEC
  0
SECTION
  2
BLOCKS
  0
BLOCK
  5
18
  8
0
  2
$Model_Space
 70
0
 10
0.0
 20
0.0
 30
0.0
  3
$Model_Space
  1

  0
ENDBLK
  5
19
  8
0
  0
BLOCK
  5
1C
  8
0
  2
$Paper_Space
 70
0
 10
0.0
 20
0.0
 30
0.0
  3
$Paper_Space
  1

  0
ENDBLK
  5
1D
  8
0
  0
ENDSEC
  0
SECTION
  2
ENTITIES
  0
LINE
  5
2D
  8
0
 10
35.47507593697791
 20
122.55152836417581
 30
0.0
 11
48.8339240630221
 21
123.6024716358242
 31
0.0
  0
ARC
  5
2E
  8
0
 10
48.81039569884629
 20
123.9015475728021
 30
0.0
 40
0.3
 50
274.4982059759427
 51
4.498205975942644
  0
LINE
  5
2F
  8
0
 10
49.10947163582419
 20
123.9250759369779
 30
0.0
 11
48.05852836417581
 21
137.28392406302208
 31
0.0
  0
ARC
  5
30
  8
0
 10
47.75945242719791
 20
137.26039569884628
 30
0.0
 40
0.3
 50
4.498205975942644
 51
94.49820597594258
  0
LINE
  5
31
  8
0
 10
47.735924063022104
 20
137.5594716358242
 30
0.0
 11
34.37707593697791
 21
136.50852836417585
 31
0.0
  0
ARC
  5
32
  8
0
 10
34.40060430115371
 20
136.20945242719793
 30
0.0
 40
0.3
 50
94.49820597594258
 51
184.49820597594262
  0
LINE
  5
33
  8
0
 10
34.10152836417581
 20
136.18592406302213
 30
0.0
 11
35.1524716358242
 21
122.8270759369779
 31
0.0
  0
ARC
  5
34
  8
0
 10
35.4515475728021
 20
122.85060430115371
 30
0.0
 40
0.3
 50
184.49820597594262
 51
274.4982059759427
  0
LINE
  5
35
  8
0
 10
54.416075936977904
 20
124.04252836417581
 30
0.0
 11
67.7749240630221
 21
125.09347163582419
 31
0.0
  0
ARC
  5
36
  8
0
 10
67.7513956988463
 20
125.39254757280209
 30
0.0
 40
0.3
 50
274.4982059759426
 51
4.498205975942635
  0
LINE
  5
37
  8
0
 10
68.0504716358242
 20
125.41607593697789
 30
0.0
 11
66.9995283641758
 21
138.7749240630221
 31
0.0
  0
ARC
  5
38
  8
0
 10
66.7004524271979
 20
138.7513956988463
 30
0.0
 40
0.3
 50
4.498205975942635
 51
94.4982059759427
  0
LINE
  5
39
  8
0
 10
66.6769240630221
 20
139.0504716358242
 30
0.0
 11
53.3180759369779
 21
137.99952836417583
 31
0.0
  0
ARC
  5
3A
  8
0
 10
53.34160430115371
 20
137.70045242719792
 30
0.0
 40
0.3
 50
94.4982059759427
 51
184.49820597594265
  0
LINE
  5
3B
  8
0
 10
53.04252836417581
 20
137.6769240630221
 30
0.0
 11
54.093471635824194
 21
124.3180759369779
 31
0.0
  0
ARC
  5
3C
  8
0
 10
54.392547572802094
 20
124.34160430115371
 30
0.0
 40
0.3
 50
184.49820597594265
 51
274.4982059759426
  0
LINE
  5
3D
  8
0
 10
73.3580759369779
 20
125.5325283641758
 30
0.0
 11
86.71692406302209
 21
126.5834716358242
 31
0.0
  0
ARC
  5
3E
  8
0
 10
86.69339569884629
 20
126.8825475728021
 30
0.0
 40
0.3
 50
274.49820597594265
 51
4.498205975942644
  0
LINE
  5
3F
  8
0
 10
86.99247163582419
 20
126.9060759369779
 30
0.0
 11
85.9415283641758
 21
140.26492406302208
 31
0.0
  0
ARC
  5
40
  8
0
 10
85.6424524271979
 20
140.24139569884628
 30
0.0
 40
0.3
 50
4.498205975942644
 51
94.49820597594258
  0
LINE
  5
41
  8
0
 10
85.61892406302209
 20
140.5404716358242
 30
0.0
 11
72.2600759369779
 21
139.48952836417584
 31
0.0
  0
ARC
  5
42
  8
0
 10
72.2836043011537
 20
139.19045242719793
 30
0.0
 40
0.3
 50
94.49820597594258
 51
184.4982059759427
  0
LINE
  5
43
  8
0
 10
71.9845283641758
 20
139.16692406302212
 30
0.0
 11
73.0354716358242
 21
125.8080759369779
 31
0.0
  0
ARC
  5
44
  8
0
 10
73.3345475728021
 20
125.8316043011537
 30
0.0
 40
0.3
 50
184.4982059759427
 51
274.49820597594265
  0
LINE
  5
45
  8
0
 10
92.2990759369779
 20
127.02352836417582
 30
0.0
 11
105.6579240630221
 21
128.07447163582418
 31
0.0
  0
ARC
  5
46
  8
0
 10
105.63439569884629
 20
128.3735475728021
 30
0.0
 40
0.3
 50
274.4982059759427
 51
4.498205975942644
  0
LINE
  5
47
  8
0
 10
105.93347163582419
 20
128.3970759369779
 30
0.0
 11
104.8825283641758
 21
141.7559240630221
 31
0.0
  0
ARC
  5
48
  8
0
 10
104.5834524271979
 20
141.7323956988463
 30
0.0
 40
0.3
 50
4.498205975942644
 51
94.4982059759427
  0
LINE
  5
49
  8
0
 10
104.5599240630221
 20
142.0314716358242
 30
0.0
 11
91.2010759369779
 21
140.98052836417583
 31
0.0
  0
ARC
  5
4A
  8
0
 10
91.2246043011537
 20
140.6814524271979
 30
0.0
 40
0.3
 50
94.4982059759427
 51
184.4982059759427
  0
LINE
  5
4B
  8
0
 10
90.9255283641758
 20
140.6579240630221
 30
0.0
 11
91.9764716358242
 21
127.29907593697791
 31
0.0
  0
ARC
  5
4C
  8
0
 10
92.2755475728021
 20
127.32260430115372
 30
0.0
 40
0.3
 50
184.4982059759427
 51
274.4982059759427
  0
LINE
  5
4D
  8
0
 10
111.2400759369779
 20
128.5145283641758
 30
0.0
 11
124.5989240630221
 21
129.56547163582417
 31
0.0
  0
ARC
  5
4E
  8
0
 10
124.5753956988463
 20
129.86454757280208
 30
0.0
 40
0.3
 50
274.4982059759427
 51
4.498205975942644
  0
LINE
  5
4F
  8
0
 10
124.8744716358242
 20
129.88807593697788
 30
0.0
 11
123.8235283641758
 21
143.24692406302208
 31
0.0
  0
ARC
  5
50
  8
0
 10
123.5244524271979
 20
143.22339569884628
 30
0.0
 40
0.3
 50
4.498205975942644
 51
94.49820597594258
  0
LINE
  5
51
  8
0
 10
123.5009240630221
 20
143.5224716358242
 30
0.0
 11
110.1420759369779
 21
142.47152836417584
 31
0.0
  0
ARC
  5
52
  8
0
 10
110.1656043011537
 20
142.17245242719792
 30
0.0
 40
0.3
 50
94.49820597594258
 51
184.4982059759427
  0
LINE
  5
53
  8
0
 10
109.8665283641758
 20
142.14892406302212
 30
0.0
 11
110.9174716358242
 21
128.7900759369779
 31
0.0
  0
ARC
  5
54
  8
0
 10
111.2165475728021
 20
128.8136043011537
 30
0.0
 40
0.3
 50
184.4982059759427
 51
274.4982059759427
  0
LINE
  5
55
  8
0
 10
130.1820759369779
 20
130.0045283641758
 30
0.0
 11
143.5409240630221
 21
131.05547163582418
 31
0.0
  0
ARC
  5
56
  8
0
 10
143.5173956988463
 20
131.3545475728021
 30
0.0
 40
0.3
 50
274.4982059759427
 51
4.498205975942701
  0
LINE
  5
57
  8
0
 10
143.8164716358242
 20
131.3780759369779
 30
0.0
 11
142.76552836417582
 21
144.7369240630221
 31
0.0
  0
ARC
  5
58
  8
0
 10
142.4664524271979
 20
144.71339569884628
 30
0.0
 40
0.3
 50
4.498205975942701
 51
94.49820597594271
  0
LINE
  5
59
  8
0
 10
142.4429240630221
 20
145.0124716358242
 30
0.0
 11
129.0840759369779
 21
143.96152836417582
 31
0.0
  0
ARC
  5
5A
  8
0
 10
129.1076043011537
 20
143.6624524271979
 30
0.0
 40
0.3
 50
94.49820597594271
 51
184.4982059759427
  0
LINE
  5
5B
  8
0
 10
128.8085283641758
 20
143.6389240630221
 30
0.0
 11
129.85947163582418
 21
130.2800759369779
 31
0.0
  0
ARC
  5
5C
  8
0
 10
130.1585475728021
 20
130.3036043011537
 30
0.0
 40
0.3
 50
184.4982059759427
 51
274.4982059759427
  0
LINE
  5
5D
  8
0
 10
35.3
 20
92.0
 30
0.0
 11
48.7
 21
92.0
 31
0.0
  0
ARC
  5
5E
  8
0
 10
48.7
 20
92.3
 30
0.0
 40
0.3
 50
270.0
 51
0.0
  0
LINE
  5
5F
  8
0
 10
49.0
 20
92.3
 30
0.0
 11
49.0
 21
105.7
 31
0.0
  0
ARC
  5
60
  8
0
 10
48.7
 20
105.7
 30
0.0
 40
0.3
 50
0.0
 51
90.0
  0
LINE
  5
61
  8
0
 10
48.7
 20
106.0
 30
0.0
 11
35.3
 21
106.0
 31
0.0
  0
ARC
  5
62
  8
0
 10
35.3
 20
105.7
 30
0.0
 40
0.3
 50
90.0
 51
180.0
  0
LINE
  5
63
  8
0
 10
35.0
 20
105.7
 30
0.0
 11
35.0
 21
92.3
 31
0.0
  0
ARC
  5
64
  8
0
 10
35.3
 20
92.3
 30
0.0
 40
0.3
 50
180.0
 51
270.0
  0
LINE
  5
65
  8
0
 10
54.3
 20
95.0
 30
0.0
 11
67.7
 21
95.0
 31
0.0
  0
ARC
  5
66
  8
0
 10
67.7
 20
95.3
 30
0.0
 40
0.3
 50
270.0
 51
0.0
  0
LINE
  5
67
  8
0
 10
68.0
 20
95.3
 30
0.0
 11
68.0
 21
108.7
 31
0.0
  0
ARC
  5
68
  8
0
 10
67.7
 20
108.7
 30
0.0
 40
0.3
 50
0.0
 51
90.0
  0
LINE
  5
69
  8
0
 10
67.7
 20
109.0
 30
0.0
 11
54.3
 21
109.0
 31
0.0
  0
ARC
  5
6A
  8
0
 10
54.3
 20
108.7
 30
0.0
 40
0.3
 50
90.0
 51
180.0
  0
LINE
  5
6B
  8
0
 10
54.0
 20
108.7
 30
0.0
 11
54.0
 21
95.3
 31
0.0
  0
ARC
  5
6C
  8
0
 10
54.3
 20
95.3
 30
0.0
 40
0.3
 50
180.0
 51
270.0
  0
LINE
  5
6D
  8
0
 10
73.3
 20
102.0
 30
0.0
 11
86.7
 21
102.0
 31
0.0
  0
ARC
  5
6E
  8
0
 10
86.7
 20
102.3
 30
0.0
 40
0.3
 50
270.0
 51
0.0
  0
LINE
  5
6F
  8
0
 10
87.0
 20
102.3
 30
0.0
 11
87.0
 21
115.7
 31
0.0
  0
ARC
  5
70
  8
0
 10
86.7
 20
115.7
 30
0.0
 40
0.3
 50
0.0
 51
90.0
  0
LINE
  5
71
  8
0
 10
86.7
 20
116.0
 30
0.0
 11
73.3
 21
116.0
 31
0.0
  0
ARC
  5
72
  8
0
 10
73.3
 20
115.7
 30
0.0
 40
0.3
 50
90.0
 51
180.0
  0
LINE
  5
73
  8
0
 10
73.0
 20
115.7
 30
0.0
 11
73.0
 21
102.3
 31
0.0
  0
ARC
  5
74
  8
0
 10
73.3
 20
102.3
 30
0.0
 40
0.3
 50
180.0
 51
270.0
  0
LINE
  5
75
  8
0
 10
92.3
 20
105.0
 30
0.0
 11
105.7
 21
105.0
 31
0.0
  0
ARC
  5
76
  8
0
 10
105.7
 20
105.3
 30
0.0
 40
0.3
 50
270.0
 51
0.0
  0
LINE
  5
77
  8
0
 10
106.0
 20
105.3
 30
0.0
 11
106.0
 21
118.7
 31
0.0
  0
ARC
  5
78
  8
0
 10
105.7
 20
118.7
 30
0.0
 40
0.3
 50
0.0
 51
90.0
  0
LINE
  5
79
  8
0
 10
105.7
 20
119.0
 30
0.0
 11
92.3
 21
119.0
 31
0.0
  0
ARC
  5
7A
  8
0
 10
92.3
 20
118.7
 30
0.0
 40
0.3
 50
90.0
 51
180.0
  0
LINE
  5
7B
  8
0
 10
92.0
 20
118.7
 30
0.0
 11
92.0
 21
105.3
 31
0.0
  0
ARC
  5
7C
  8
0
 10
92.3
 20
105.3
 30
0.0
 40
0.3
 50
180.0
 51
270.0
  0
LINE
  5
7D
  8
0
 10
111.3
 20
103.0
 30
0.0
 11
124.7
 21
103.0
 31
0.0
  0
ARC
  5
7E
  8
0
 10
124.7
 20
103.3
 30
0.0
 40
0.3
 50
270.0
 51
0.0
  0
LINE
  5
7F
  8
0
 10
125.0
 20
103.3
 30
0.0
 11
125.0
 21
116.7
 31
0.0
  0
ARC
  5
80
  8
0
 10
124.7
 20
116.7
 30
0.0
 40
0.3
 50
0.0
 51
90.0
  0
LINE
  5
81
  8
0
 10
124.7
 20
117.0
 30
0.0
 11
111.3
 21
117.0
 31
0.0
  0
ARC
  5
82
  8
0
 10
111.3
 20
116.7
 30
0.0
 40
0.3
 50
90.0
 51
180.0
  0
LINE
  5
83
  8
0
 10
111.0
 20
116.7
 30
0.0
 11
111.0
 21
103.3
 31
0.0
  0
ARC
  5
84
  8
0
 10
111.3
 20
103.3
 30
0.0
 40
0.3
 50
180.0
 51
270.0
  0
LINE
  5
85
  8
0
 10
130.3
 20
100.0
 30
0.0
 11
143.7
 21
100.0
 31
0.0
  0
ARC
  5
86
  8
0
 10
143.7
 20
100.3
 30
0.0
 40
0.3
 50
270.0
 51
0.0
  0
LINE
  5
87
  8
0
 10
144.0
 20
100.3
 30
0.0
 11
144.0
 21
113.7
 31
0.0
  0
ARC
  5
88
  8
0
 10
143.7
 20
113.7
 30
0.0
 40
0.3
 50
0.0
 51
90.0
  0
LINE
  5
89
  8
0
 10
143.7
 20
114.0
 30
0.0
 11
130.3
 21
114.0
 31
0.0
  0
ARC
  5
8A
  8
0
 10
130.3
 20
113.7
 30
0.0
 40
0.3
 50
90.0
 51
180.0
  0
LINE
  5
8B
  8
0
 10
130.0
 20
113.7
 30
0.0
 11
130.0
 21
100.3
 31
0.0
  0
ARC
  5
8C
  8
0
 10
130.3
 20
100.3
 30
0.0
 40
0.3
 50
180.0
 51
270.0
  0
LINE
  5
8D
  8
0
 10
35.3
 20
73.0
 30
0.0
 11
48.7
 21
73.0
 31
0.0
  0
ARC
  5
8E
  8
0
 10
48.7
 20
73.3
 30
0.0
 40
0.3
 50
270.0
 51
0.0
  0
LINE
  5
8F
  8
0
 10
49.0
 20
73.3
 30
0.0
 11
49.0
 21
86.7
 31
0.0
  0
ARC
  5
90
  8
0
 10
48.7
 20
86.7
 30
0.0
 40
0.3
 50
0.0
 51
90.0
  0
LINE
  5
91
  8
0
 10
48.7
 20
87.0
 30
0.0
 11
35.3
 21
87.0
 31
0.0
  0
ARC
  5
92
  8
0
 10
35.3
 20
86.7
 30
0.0
 40
0.3
 50
90.0
 51
180.0
  0
LINE
  5
93
  8
0
 10
35.0
 20
86.7
 30
0.0
 11
35.0
 21
73.3
 31
0.0
  0
ARC
  5
94
  8
0
 10
35.3
 20
73.3
 30
0.0
 40
0.3
 50
180.0
 51
270.0
  0
LINE
  5
95
  8
0
 10
54.3
 20
76.0
 30
0.0
 11
67.7
 21
76.0
 31
0.0
  0
ARC
  5
96
  8
0
 10
67.7
 20
76.3
 30
0.0
 40
0.3
 50
270.0
 51
0.0
  0
LINE
  5
97
  8
0
 10
68.0
 20
76.3
 30
0.0
 11
68.0
 21
89.7
 31
0.0
  0
ARC
  5
98
  8
0
 10
67.7
 20
89.7
 30
0.0
 40
0.3
 50
0.0
 51
90.0
  0
LINE
  5
99
  8
0
 10
67.7
 20
90.0
 30
0.0
 11
54.3
 21
90.0
 31
0.0
  0
ARC
  5
9A
  8
0
 10
54.3
 20
89.7
 30
0.0
 40
0.3
 50
90.0
 51
180.0
  0
LINE
  5
9B
  8
0
 10
54.0
 20
89.7
 30
0.0
 11
54.0
 21
76.3
 31
0.0
  0
ARC
  5
9C
  8
0
 10
54.3
 20
76.3
 30
0.0
 40
0.3
 50
180.0
 51
270.0
  0
LINE
  5
9D
  8
0
 10
73.3
 20
83.0
 30
0.0
 11
86.7
 21
83.0
 31
0.0
  0
ARC
  5
9E
  8
0
 10
86.7
 20
83.3
 30
0.0
 40
0.3
 50
270.0
 51
0.0
  0
LINE
  5
9F
  8
0
 10
87.0
 20
83.3
 30
0.0
 11
87.0
 21
96.7
 31
0.0
  0
ARC
  5
A0
  8
0
 10
86.7
 20
96.7
 30
0.0
 40
0.3
 50
0.0
 51
90.0
  0
LINE
  5
A1
  8
0
 10
86.7
 20
97.0
 30
0.0
 11
73.3
 21
97.0
 31
0.0
  0
ARC
  5
A2
  8
0
 10
73.3
 20
96.7
 30
0.0
 40
0.3
 50
90.0
 51
180.0
  0
LINE
  5
A3
  8
0
 10
73.0
 20
96.7
 30
0.0
 11
73.0
 21
83.3
 31
0.0
  0
ARC
  5
A4
  8
0
 10
73.3
 20
83.3
 30
0.0
 40
0.3
 50
180.0
 51
270.0
  0
LINE
  5
A5
  8
0
 10
92.3
 20
86.0
 30
0.0
 11
105.7
 21
86.0
 31
0.0
  0
ARC
  5
A6
  8
0
 10
105.7
 20
86.3
 30
0.0
 40
0.3
 50
270.0
 51
0.0
  0
LINE
  5
A7
  8
0
 10
106.0
 20
86.3
 30
0.0
 11
106.0
 21
99.7
 31
0.0
  0
ARC
  5
A8
  8
0
 10
105.7
 20
99.7
 30
0.0
 40
0.3
 50
0.0
 51
90.0
  0
LINE
  5
A9
  8
0
 10
105.7
 20
100.0
 30
0.0
 11
92.3
 21
100.0
 31
0.0
  0
ARC
  5
AA
  8
0
 10
92.3
 20
99.7
 30
0.0
 40
0.3
 50
90.0
 51
180.0
  0
LINE
  5
AB
  8
0
 10
92.0
 20
99.7
 30
0.0
 11
92.0
 21
86.3
 31
0.0
  0
ARC
  5
AC
  8
0
 10
92.3
 20
86.3
 30
0.0
 40
0.3
 50
180.0
 51
270.0
  0
LINE
  5
AD
  8
0
 10
111.3
 20
84.0
 30
0.0
 11
124.7
 21
84.0
 31
0.0
  0
ARC
  5
AE
  8
0
 10
124.7
 20
84.3
 30
0.0
 40
0.3
 50
270.0
 51
0.0
  0
LINE
  5
AF
  8
0
 10
125.0
 20
84.3
 30
0.0
 11
125.0
 21
97.7
 31
0.0
  0
ARC
  5
B0
  8
0
 10
124.7
 20
97.7
 30
0.0
 40
0.3
 50
0.0
 51
90.0
  0
LINE
  5
B1
  8
0
 10
124.7
 20
98.0
 30
0.0
 11
111.3
 21
98.0
 31
0.0
  0
ARC
  5
B2
  8
0
 10
111.3
 20
97.7
 30
0.0
 40
0.3
 50
90.0
 51
180.0
  0
LINE
  5
B3
  8
0
 10
111.0
 20
97.7
 30
0.0
 11
111.0
 21
84.3
 31
0.0
  0
ARC
  5
B4
  8
0
 10
111.3
 20
84.3
 30
0.0
 40
0.3
 50
180.0
 51
270.0
  0
LINE
  5
B5
  8
0
 10
130.3
 20
81.0
 30
0.0
 11
143.7
 21
81.0
 31
0.0
  0
ARC
  5
B6
  8
0
 10
143.7
 20
81.3
 30
0.0
 40
0.3
 50
270.0
 51
0.0
  0
LINE
  5
B7
  8
0
 10
144.0
 20
81.3
 30
0.0
 11
144.0
 21
94.7
 31
0.0
  0
ARC
  5
B8
  8
0
 10
143.7
 20
94.7
 30
0.0
 40
0.3
 50
0.0
 51
90.0
  0
LINE
  5
B9
  8
0
 10
143.7
 20
95.0
 30
0.0
 11
130.3
 21
95.0
 31
0.0
  0
ARC
  5
BA
  8
0
 10
130.3
 20
94.7
 30
0.0
 40
0.3
 50
90.0
 51
180.0
  0
LINE
  5
BB
  8
0
 10
130.0
 20
94.7
 30
0.0
 11
130.0
 21
81.3
 31
0.0
  0
ARC
  5
BC
  8
0
 10
130.3
 20
81.3
 30
0.0
 40
0.3
 50
180.0
 51
270.0
  0
LINE
  5
BD
  8
0
 10
35.3
 20
54.0
 30
0.0
 11
48.7
 21
54.0
 31
0.0
  0
ARC
  5
BE
  8
0
 10
48.7
 20
54.3
 30
0.0
 40
0.3
 50
270.0
 51
0.0
  0
LINE
  5
BF
  8
0
 10
49.0
 20
54.3
 30
0.0
 11
49.0
 21
67.7
 31
0.0
  0
ARC
  5
C0
  8
0
 10
48.7
 20
67.7
 30
0.0
 40
0.3
 50
0.0
 51
90.0
  0
LINE
  5
C1
  8
0
 10
48.7
 20
68.0
 30
0.0
 11
35.3
 21
68.0
 31
0.0
  0
ARC
  5
C2
  8
0
 10
35.3
 20
67.7
 30
0.0
 40
0.3
 50
90.0
 51
180.0
  0
LINE
  5
C3
  8
0
 10
35.0
 20
67.7
 30
0.0
 11
35.0
 21
54.3
 31
0.0
  0
ARC
  5
C4
  8
0
 10
35.3
 20
54.3
 30
0.0
 40
0.3
 50
180.0
 51
270.0
  0
LINE
  5
C5
  8
0
 10
54.3
 20
57.0
 30
0.0
 11
67.7
 21
57.0
 31
0.0
  0
ARC
  5
C6
  8
0
 10
67.7
 20
57.3
 30
0.0
 40
0.3
 50
270.0
 51
0.0
  0
LINE
  5
C7
  8
0
 10
68.0
 20
57.3
 30
0.0
 11
68.0
 21
70.7
 31
0.0
  0
ARC
  5
C8
  8
0
 10
67.7
 20
70.7
 30
0.0
 40
0.3
 50
0.0
 51
90.0
  0
LINE
  5
C9
  8
0
 10
67.7
 20
71.0
 30
0.0
 11
54.3
 21
71.0
 31
0.0
  0
ARC
  5
CA
  8
0
 10
54.3
 20
70.7
 30
0.0
 40
0.3
 50
90.0
 51
180.0
  0
LINE
  5
CB
  8
0
 10
54.0
 20
70.7
 30
0.0
 11
54.0
 21
57.3
 31
0.0
  0
ARC
  5
CC
  8
0
 10
54.3
 20
57.3
 30
0.0
 40
0.3
 50
180.0
 51
270.0
  0
LINE
  5
CD
  8
0
 10
73.3
 20
64.0
 30
0.0
 11
86.7
 21
64.0
 31
0.0
  0
ARC
  5
CE
  8
0
 10
86.7
 20
64.3
 30
0.0
 40
0.3
 50
270.0
 51
0.0
  0
LINE
  5
CF
  8
0
 10
87.0
 20
64.3
 30
0.0
 11
87.0
 21
77.7
 31
0.0
  0
ARC
  5
D0
  8
0
 10
86.7
 20
77.7
 30
0.0
 40
0.3
 50
0.0
 51
90.0
  0
LINE
  5
D1
  8
0
 10
86.7
 20
78.0
 30
0.0
 11
73.3
 21
78.0
 31
0.0
  0
ARC
  5
D2
  8
0
 10
73.3
 20
77.7
 30
0.0
 40
0.3
 50
90.0
 51
180.0
  0
LINE
  5
D3
  8
0
 10
73.0
 20
77.7
 30
0.0
 11
73.0
 21
64.3
 31
0.0
  0
ARC
  5
D4
  8
0
 10
73.3
 20
64.3
 30
0.0
 40
0.3
 50
180.0
 51
270.0
  0
LINE
  5
D5
  8
0
 10
92.3
 20
67.0
 30
0.0
 11
105.7
 21
67.0
 31
0.0
  0
ARC
  5
D6
  8
0
 10
105.7
 20
67.3
 30
0.0
 40
0.3
 50
270.0
 51
0.0
  0
LINE
  5
D7
  8
0
 10
106.0
 20
67.3
 30
0.0
 11
106.0
 21
80.7
 31
0.0
  0
ARC
  5
D8
  8
0
 10
105.7
 20
80.7
 30
0.0
 40
0.3
 50
0.0
 51
90.0
  0
LINE
  5
D9
  8
0
 10
105.7
 20
81.0
 30
0.0
 11
92.3
 21
81.0
 31
0.0
  0
ARC
  5
DA
  8
0
 10
92.3
 20
80.7
 30
0.0
 40
0.3
 50
90.0
 51
180.0
  0
LINE
  5
DB
  8
0
 10
92.0
 20
80.7
 30
0.0
 11
92.0
 21
67.3
 31
0.0
  0
ARC
  5
DC
  8
0
 10
92.3
 20
67.3
 30
0.0
 40
0.3
 50
180.0
 51
270.0
  0
LINE
  5
DD
  8
0
 10
111.3
 20
65.0
 30
0.0
 11
124.7
 21
65.0
 31
0.0
  0
ARC
  5
DE
  8
0
 10
124.7
 20
65.3
 30
0.0
 40
0.3
 50
270.0
 51
0.0
  0
LINE
  5
DF
  8
0
 10
125.0
 20
65.3
 30
0.0
 11
125.0
 21
78.7
 31
0.0
  0
ARC
  5
E0
  8
0
 10
124.7
 20
78.7
 30
0.0
 40
0.3
 50
0.0
 51
90.0
  0
LINE
  5
E1
  8
0
 10
124.7
 20
79.0
 30
0.0
 11
111.3
 21
79.0
 31
0.0
  0
ARC
  5
E2
  8
0
 10
111.3
 20
78.7
 30
0.0
 40
0.3
 50
90.0
 51
180.0
  0
LINE
  5
E3
  8
0
 10
111.0
 20
78.7
 30
0.0
 11
111.0
 21
65.3
 31
0.0
  0
ARC
  5
E4
  8
0
 10
111.3
 20
65.3
 30
0.0
 40
0.3
 50
180.0
 51
270.0
  0
LINE
  5
E5
  8
0
 10
130.3
 20
62.0
 30
0.0
 11
143.7
 21
62.0
 31
0.0
  0
ARC
  5
E6
  8
0
 10
143.7
 20
62.3
 30
0.0
 40
0.3
 50
270.0
 51
0.0
  0
LINE
  5
E7
  8
0
 10
144.0
 20
62.3
 30
0.0
 11
144.0
 21
75.7
 31
0.0
  0
ARC
  5
E8
  8
0
 10
143.7
 20
75.7
 30
0.0
 40
0.3
 50
0.0
 51
90.0
  0
LINE
  5
E9
  8
0
 10
143.7
 20
76.0
 30
0.0
 11
130.3
 21
76.0
 31
0.0
  0
ARC
  5
EA
  8
0
 10
130.3
 20
75.7
 30
0.0
 40
0.3
 50
90.0
 51
180.0
  0
LINE
  5
EB
  8
0
 10
130.0
 20
75.7
 30
0.0
 11
130.0
 21
62.3
 31
0.0
  0
ARC
  5
EC
  8
0
 10
130.3
 20
62.3
 30
0.0
 40
0.3
 50
180.0
 51
270.0
  0
LINE
  5
ED
  8
0
 10
35.3
 20
35.0
 30
0.0
 11
48.7
 21
35.0
 31
0.0
  0
ARC
  5
EE
  8
0
 10
48.7
 20
35.3
 30
0.0
 40
0.3
 50
270.0
 51
0.0
  0
LINE
  5
EF
  8
0
 10
49.0
 20
35.3
 30
0.0
 11
49.0
 21
48.7
 31
0.0
  0
ARC
  5
F0
  8
0
 10
48.7
 20
48.7
 30
0.0
 40
0.3
 50
0.0
 51
90.0
  0
LINE
  5
F1
  8
0
 10
48.7
 20
49.0
 30
0.0
 11
35.3
 21
49.0
 31
0.0
  0
ARC
  5
F2
  8
0
 10
35.3
 20
48.7
 30
0.0
 40
0.3
 50
90.0
 51
180.0
  0
LINE
  5
F3
  8
0
 10
35.0
 20
48.7
 30
0.0
 11
35.0
 21
35.3
 31
0.0
  0
ARC
  5
F4
  8
0
 10
35.3
 20
35.3
 30
0.0
 40
0.3
 50
180.0
 51
270.0
  0
LINE
  5
F5
  8
0
 10
54.3
 20
38.0
 30
0.0
 11
67.7
 21
38.0
 31
0.0
  0
ARC
  5
F6
  8
0
 10
67.7
 20
38.3
 30
0.0
 40
0.3
 50
270.0
 51
0.0
  0
LINE
  5
F7
  8
0
 10
68.0
 20
38.3
 30
0.0
 11
68.0
 21
51.7
 31
0.0
  0
ARC
  5
F8
  8
0
 10
67.7
 20
51.7
 30
0.0
 40
0.3
 50
0.0
 51
90.0
  0
LINE
  5
F9
  8
0
 10
67.7
 20
52.0
 30
0.0
 11
54.3
 21
52.0
 31
0.0
  0
ARC
  5
FA
  8
0
 10
54.3
 20
51.7
 30
0.0
 40
0.3
 50
90.0
 51
180.0
  0
LINE
  5
FB
  8
0
 10
54.0
 20
51.7
 30
0.0
 11
54.0
 21
38.3
 31
0.0
  0
ARC
  5
FC
  8
0
 10
54.3
 20
38.3
 30
0.0
 40
0.3
 50
180.0
 51
270.0
  0
LINE
  5
FD
  8
0
 10
73.3
 20
45.0
 30
0.0
 11
86.7
 21
45.0
 31
0.0
  0
ARC
  5
FE
  8
0
 10
86.7
 20
45.3
 30
0.0
 40
0.3
 50
270.0
 51
0.0
  0
LINE
  5
FF
  8
0
 10
87.0
 20
45.3
 30
0.0
 11
87.0
 21
58.7
 31
0.0
  0
ARC
  5
100
  8
0
 10
86.7
 20
58.7
 30
0.0
 40
0.3
 50
0.0
 51
90.0
  0
LINE
  5
101
  8
0
 10
86.7
 20
59.0
 30
0.0
 11
73.3
 21
59.0
 31
0.0
  0
ARC
  5
102
  8
0
 10
73.3
 20
58.7
 30
0.0
 40
0.3
 50
90.0
 51
180.0
  0
LINE
  5
103
  8
0
 10
73.0
 20
58.7
 30
0.0
 11
73.0
 21
45.3
 31
0.0
  0
ARC
  5
104
  8
0
 10
73.3
 20
45.3
 30
0.0
 40
0.3
 50
180.0
 51
270.0
  0
LINE
  5
105
  8
0
 10
92.3
 20
48.0
 30
0.0
 11
105.7
 21
48.0
 31
0.0
  0
ARC
  5
106
  8
0
 10
105.7
 20
48.3
 30
0.0
 40
0.3
 50
270.0
 51
0.0
  0
LINE
  5
107
  8
0
 10
106.0
 20
48.3
 30
0.0
 11
106.0
 21
61.7
 31
0.0
  0
ARC
  5
108
  8
0
 10
105.7
 20
61.7
 30
0.0
 40
0.3
 50
0.0
 51
90.0
  0
LINE
  5
109
  8
0
 10
105.7
 20
62.0
 30
0.0
 11
92.3
 21
62.0
 31
0.0
  0
ARC
  5
10A
  8
0
 10
92.3
 20
61.7
 30
0.0
 40
0.3
 50
90.0
 51
180.0
  0
LINE
  5
10B
  8
0
 10
92.0
 20
61.7
 30
0.0
 11
92.0
 21
48.3
 31
0.0
  0
ARC
  5
10C
  8
0
 10
92.3
 20
48.3
 30
0.0
 40
0.3
 50
180.0
 51
270.0
  0
LINE
  5
10D
  8
0
 10
111.3
 20
46.0
 30
0.0
 11
124.7
 21
46.0
 31
0.0
  0
ARC
  5
10E
  8
0
 10
124.7
 20
46.3
 30
0.0
 40
0.3
 50
270.0
 51
0.0
  0
LINE
  5
10F
  8
0
 10
125.0
 20
46.3
 30
0.0
 11
125.0
 21
59.7
 31
0.0
  0
ARC
  5
110
  8
0
 10
124.7
 20
59.7
 30
0.0
 40
0.3
 50
0.0
 51
90.0
  0
LINE
  5
111
  8
0
 10
124.7
 20
60.0
 30
0.0
 11
111.3
 21
60.0
 31
0.0
  0
ARC
  5
112
  8
0
 10
111.3
 20
59.7
 30
0.0
 40
0.3
 50
90.0
 51
180.0
  0
LINE
  5
113
  8
0
 10
111.0
 20
59.7
 30
0.0
 11
111.0
 21
46.3
 31
0.0
  0
ARC
  5
114
  8
0
 10
111.3
 20
46.3
 30
0.0
 40
0.3
 50
180.0
 51
270.0
  0
LINE
  5
115
  8
0
 10
130.3
 20
43.0
 30
0.0
 11
143.7
 21
43.0
 31
0.0
  0
ARC
  5
116
  8
0
 10
143.7
 20
43.3
 30
0.0
 40
0.3
 50
270.0
 51
0.0
  0
LINE
  5
117
  8
0
 10
144.0
 20
43.3
 30
0.0
 11
144.0
 21
56.7
 31
0.0
  0
ARC
  5
118
  8
0
 10
143.7
 20
56.7
 30
0.0
 40
0.3
 50
0.0
 51
90.0
  0
LINE
  5
119
  8
0
 10
143.7
 20
57.0
 30
0.0
 11
130.3
 21
57.0
 31
0.0
  0
ARC
  5
11A
  8
0
 10
130.3
 20
56.7
 30
0.0
 40
0.3
 50
90.0
 51
180.0
  0
LINE
  5
11B
  8
0
 10
130.0
 20
56.7
 30
0.0
 11
130.0
 21
43.3
 31
0.0
  0
ARC
  5
11C
  8
0
 10
130.3
 20
43.3
 30
0.0
 40
0.3
 50
180.0
 51
270.0
  0
LINE
  5
11D
  8
0
 10
96.63071415529062
 20
42.594741044293706
 30
0.0
 11
149.58907036161264
 21
35.271663120316624
 31
0.0
  0
ARC
  5
11E
  8
0
 10
150.0
 20
38.24338599304464
 30
0.0
 40
3.0
 50
262.1270704547324
 51
0.0
  0
LINE
  5
11F
  8
0
 10
153.0
 20
38.24338599304464
 30
0.0
 11
153.0
 21
151.62562125875684
 31
0.0
  0
ARC
  5
120
  8
0
 10
150.0
 20
151.62562125875684
 30
0.0
 40
3.0
 50
0.0
 51
94.49994764521955
  0
LINE
  5
121
  8
0
 10
149.76462544565598
 20
154.6163734750341
 30
0.0
 11
28.764625445655977
 21
145.09357819944356
 31
0.0
  0
ARC
  5
122
  8
0
 10
29.0
 20
142.1028259831663
 30
0.0
 40
3.0
 50
94.49994764521955
 51
180.0
  0
LINE
  5
123
  8
0
 10
26.0
 20
142.1028259831663
 30
0.0
 11
26.0
 21
30.856841599638944
 31
0.0
  0
ARC
  5
124
  8
0
 10
29.0
 20
30.856841599638944
 30
0.0
 40
3.0
 50
180.0
 51
249.23312640498256
  0
LINE
  5
125
  8
0
 10
27.936300740742567
 20
28.051749108141525
 30
0.0
 11
84.48094783472777
 21
6.609853908194792
 31
0.0
  0
ARC
  5
126
  8
0
 10
85.5446470939852
 20
9.414946399692209
 30
0.0
 40
3.0
 50
249.23312640498256
 51
351.33092858459156
  0
LINE
  5
127
  8
0
 10
88.5103732766723
 20
8.962764788694802
 30
0.0
 11
93.25405833421618
 21
40.0751997825631
 31
0.0
  0
ARC
  5
128
  8
0
 10
96.21978451690327
 20
39.62301817156569
 30
0.0
 40
3.0
 50
82.12707045473239
 51
171.33092858459162
  0
ENDSEC
  0
EOF
