  0
SECTION
  2
HEADER
  9
$ACADVER
  1
AC1009
  9
$DWGCODEPAGE
  3
ANSI_1252
  9
$INSBASE
 10
0.0
 20
0.0
 30
0.0
  9
$EXTMIN
 10
-100
 20
-100
 30
-100
  9
$EXTMAX
 10
100
 20
100
 30
100
  9
$LIMMIN
 10
0.0
 20
0.0
  9
$LIMMAX
 10
420.0
 20
297.0
  9
$ORTHOMODE
 70
0
  9
$REGENMODE
 70
1
  9
$DRAGMODE
 70
2
  9
$FILLMODE
 70
1
  9
$QTEXTMODE
 70
0
  9
$MIRRTEXT
 70
1
  9
$OSMODE
 70
20583
  9
$LTSCALE
 40
1.0
  9
$ATTMODE
 70
1
  9
$TEXTSIZE
 40
2.5
  9
$TRACEWID
 40
1.0
  9
$TEXTSTYLE
  7
Standard
  9
$CLAYER
  8
0
  9
$CELTYPE
  6
ByLayer
  9
$CECOLOR
 62
256
  9
$DIMSCALE
 40
1.0
  9
$DIMASZ
 40
2.5
  9
$DIMEXO
 40
0.625
  9
$DIMDLI
 40
3.75
  9
$DIMRND
 40
0.0
  9
$DIMDLE
 40
0.0
  9
$DIMEXE
 40
1.25
  9
$DIMTP
 40
0.0
  9
$DIMTM
 40
0.0
  9
$DIMTXT
 40
2.5
  9
$DIMCEN
 40
2.5
  9
$DIMTSZ
 40
0.0
  9
$DIMTOL
 70
0
  9
$DIMLIM
 70
0
  9
$DIMTIH
 70
0
  9
$DIMTOH
 70
0
  9
$DIMSE1
 70
0
  9
$DIMSE2
 70
0
  9
$DIMTAD
 70
1
  9
$DIMZIN
 70
8
  9
$DIMBLK
  1

  9
$DIMASO
 70
1
  9
$DIMSHO
 70
1
  9
$DIMPOST
  1

  9
$DIMAPOST
  1

  9
$DIMALT
 70
0
  9
$DIMALTD
 70
3
  9
$DIMALTF
 40
0.03937007874
  9
$DIMLFAC
 40
1.0
  9
$DIMTOFL
 70
1
  9
$DIMTVP
 40
0.0
  9
$DIMTIX
 70
0
  9
$DIMSOXD
 70
0
  9
$DIMSAH
 70
0
  9
$DIMBLK1
  1

  9
$DIMBLK2
  1

  9
$DIMSTYLE
  2
ISO-25
  9
$DIMCLRD
 70
0
  9
$DIMCLRE
 70
0
  9
$DIMCLRT
 70
0
  9
$DIMTFAC
 40
1.0
  9
$DIMGAP
 40
0.625
  9
$COORDS
 70
1
  9
$ATTDIA
 70
0
  9
$ATTREQ
 70
1
  9
$HANDLING
 70
1
  9
$LUNITS
 70
2
  9
$LUPREC
 70
4
  9
$SKETCHINC
 40
1.0
  9
$FILLETRAD
 40
10.0
  9
$AUNITS
 70
0
  9
$AUPREC
 70
2
  9
$MENU
  1
.
  9
$ELEVATION
 40
0.0
  9
$PELEVATION
 40
0.0
  9
$THICKNESS
 40
0.0
  9
$LIMCHECK
 70
0
  9
$CHAMFERA
 40
0.0
  9
$CHAMFERB
 40
0.0
  9
$SKPOLY
 70
0
  9
$TDCREATE
 40
2459085.6291203704
  9
$TDUPDATE
 40
2459085.6291203704
  9
$TDINDWG
 40
0.0
  9
$TDUSRTIMER
 40
0.0
  9
$USRTIMER
 70
1
  9
$ANGBASE
 50
0.0
  9
$ANGDIR
 70
0
  9
$PDMODE
 70
0
  9
$PDSIZE
 40
0.0
  9
$PLINEWID
 40
0.0
  9
$SPLFRAME
 70
0
  9
$SPLINETYPE
 70
6
  9
$SPLINESEGS
 70
8
  9
$HANDSEED
  5
97
  9
$SURFTAB1
 70
6
  9
$SURFTAB2
 70
6
  9
$SURFTYPE
 70
6
  9
$SURFU
 70
6
  9
$SURFV
 70
6
  9
$UCSNAME
  2

  9
$UCSORG
 10
0.0
 20
0.0
 30
0.0
  9
$UCSXDIR
 10
1.0
 20
0.0
 30
0.0
  9
$UCSYDIR
 10
0.0
 20
1.0
 30
0.0
  9
$PUCSNAME
  2

  9
$PUCSORG
 10
0.0
 20
0.0
 30
0.0
  9
$PUCSXDIR
 10
1.0
 20
0.0
 30
0.0
  9
$PUCSYDIR
 10
0.0
 20
1.0
 30
0.0
  9
$USERI1
 70
0
  9
$USERI2
 70
0
  9
$USERI3
 70
0
  9
$USERI4
 70
0
  9
$USERI5
 70
0
  9
$USERR1
 40
0.0
  9
$USERR2
 40
0.0
  9
$USERR3
 40
0.0
  9
$USERR4
 40
0.0
  9
$USERR5
 40
0.0
  9
$WORLDVIEW
 70
1
  9
$SHADEDGE
 70
3
  9
$SHADEDIF
 70
70
  9
$TILEMODE
 70
1
  9
$MAXACTVP
 70
64
  9
$PLIMCHECK
 70
0
  9
$PEXTMIN
 10
1e+20
 20
1e+20
 30
1e+20
  9
$PEXTMAX
 10
-1e+20
 20
-1e+20
 30
-1e+20
  9
$PLIMMIN
 10
0.0
 20
0.0
  9
$PLIMMAX
 10
420.0
 20
297.0
  9
$UNITMODE
 70
0
  9
$VISRETAIN
 70
1
  9
$PLINEGEN
 70
0
  9
$PSLTSCALE
 70
1
  0
ENDSEC
  0
SECTION
  2
TABLES
  0
TABLE
  2
VPORT
 70
1
  0
VPORT
  5
23
  2
*Active
 70
0
 10
0.0
 20
0.0
 11
1.0
 21
1.0
 12
70.0
 22
50.0
 13
0.0
 23
0.0
 14
0.5
 24
0.5
 15
0.5
 25
0.5
 16
0.0
 26
0.0
 36
1.0
 17
0.0
 27
0.0
 37
0.0
 40
1.0
 41
1.34
 42
50.0
 43
0.0
 44
0.0
 50
0.0
 51
0.0
 71
0
 72
1000
 73
1
 74
3
 75
0
 76
0
 77
0
 78
0
  0
ENDTAB
  0
TABLE
  2
LTYPE
 70
3
  0
LTYPE
  5
24
  2
ByBlock
 70
0
  3

 72
65
 73
0
 40
0.0
  0
LTYPE
  5
25
  2
ByLayer
 70
0
  3

 72
65
 73
0
 40
0.0
  0
LTYPE
  5
26
  2
Continuous
 70
0
  3

 72
65
 73
0
 40
0.0
  0
ENDTAB
  0
TABLE
  2
LAYER
 70
2
  0
LAYER
  5
27
  2
0
 70
0
 62
7
  6
Continuous
  0
LAYER
  5
28
  2
Defpoints
 70
0
 62
7
  6
Continuous
  0
ENDTAB
  0
TABLE
  2
STYLE
 70
1
  0
STYLE
  5
29
  2
Standard
 70
0
 40
0.0
 41
1.0
 50
0.0
 71
0
 42
2.5
  3
txt
  4

  0
ENDTAB
  0
TABLE
  2
VIEW
 70
0
  0
ENDTAB
  0
TABLE
  2
UCS
 70
0
  0
ENDTAB
  0
TABLE
  2
APPID
 70
1
  0
APPID
  5
2A
  2
ACAD
 70
0
  0
ENDTAB
  0
TABLE
  2
DIMSTYLE
 70
1
  0
DIMSTYLE
105
2B
  2
Standard
 70
0
  3

  4

  5

  6

  7

 40
1.0
 41
2.5
 42
0.625
 43
3.75
 44
1.25
 45
0.0
 46
0.0
 47
0.0
 48
0.0
140
2.5
141
2.5
142
0.0
143
0.03937007874
144
1.0
145
0.0
146
1.0
147
0.625
 71
0
 72
0
 73
0
 74
0
 75
0
 76
0
 77
1
 78
8
170
0
171
3
172
1
173
0
174
0
175
0
176
0
177
0
178
0
  0
ENDTAB
  0
ENDSEC
  0
SECTION
  2
BLOCKS
  0
BLOCK
  5
18
  8
0
  2
$Model_Space
 70
0
 10
0.0
 20
0.0
 30
0.0
  3
$Model_Space
  1

  0
ENDBLK
  5
19
  8
0
  0
BLOCK
  5
1C
  8
0
  2
$Paper_Space
 70
0
 10
0.0
 20
0.0
 30
0.0
  3
$Paper_Space
  1

  0
ENDBLK
  5
1D
  8
0
  0
ENDSEC
  0
SECTION
  2
ENTITIES
  0
LINE
  5
2D
  8
0
 10
58.66417855412243
 20
233.42511448000664
 30
0.0
 11
89.71780624973455
 21
226.82388875031387
 31
0.0
  0
ARC
  5
2E
  8
0
 10
90.02969970666777
 20
228.291104641559
 30
0.0
 40
1.5
 50
257.9989877806606
 51
347.9981231538052
  0
LINE
  5
2F
  8
0
 10
91.49691089109099
 20
227.97918904351457
 30
0.0
 11
94.82406904786451
 21
243.6297165918911
 31
0.0
  0
ARC
  5
30
  8
0
 10
93.35685786344129
 20
243.94163218993558
 30
0.0
 40
1.5
 50
347.9981231538052
 51
78.00094347753581
  0
LINE
  5
31
  8
0
 10
93.6687012391998
 20
245.4088587262944
 30
0.0
 11
62.61421379292647
 21
252.0091593327223
 31
0.0
  0
ARC
  5
32
  8
0
 10
62.30237041716796
 20
250.54193279636348
 30
0.0
 40
1.5
 50
78.00094347753581
 51
168.00044583927536
  0
LINE
  5
33
  8
0
 10
60.83514658935707
 20
250.85378891559793
 30
0.0
 11
57.50884818324476
 21
235.20418649048622
 31
0.0
  0
ARC
  5
34
  8
0
 10
58.97607201105564
 20
234.89233037125177
 30
0.0
 40
1.5
 50
168.00044583927536
 51
257.9989877806606
  0
LINE
  5
35
  8
0
 10
39.95018691320996
 20
145.3930878895306
 30
0.0
 11
71.0057611701701
 21
138.7909231475243
 31
0.0
  0
ARC
  5
36
  8
0
 10
71.31767836819246
 20
140.258133991806
 30
0.0
 40
1.5
 50
257.9980606733711
 51
347.99915352141784
  0
LINE
  5
37
  8
0
 10
72.7848951616525
 20
139.94624477912166
 30
0.0
 11
87.8081079570267
 21
210.6197698920445
 31
0.0
  0
ARC
  5
38
  8
0
 10
86.34089116356667
 20
210.93165910472885
 30
0.0
 40
1.5
 50
347.99915352141784
 51
77.99967345885166
  0
LINE
  5
39
  8
0
 10
86.65276706180313
 20
212.3988787284046
 30
0.0
 11
55.59720225527922
 21
219.00012779363365
 31
0.0
  0
ARC
  5
3A
  8
0
 10
55.28532635704276
 20
217.5329081699579
 30
0.0
 40
1.5
 50
77.99967345885166
 51
167.99899520885302
  0
LINE
  5
3B
  8
0
 10
53.81811042536177
 20
217.84480143667182
 30
0.0
 11
38.79488817955132
 21
147.17219200052622
 31
0.0
  0
ARC
  5
3C
  8
0
 10
40.26210411123231
 20
146.8602987338123
 30
0.0
 40
1.5
 50
167.99899520885302
 51
257.9980606733711
  0
LINE
  5
3D
  8
0
 10
81.94925719481243
 20
149.7561619750916
 30
0.0
 11
148.18578434582403
 21
135.67882919622446
 31
0.0
  0
ARC
  5
3E
  8
0
 10
148.4976163677114
 20
137.14605814568176
 30
0.0
 40
1.5
 50
258.00138685035256
 51
348.0008676628329
  0
LINE
  5
3F
  8
0
 10
149.96484249143273
 20
136.8342128284656
 30
0.0
 11
169.2991527737452
 21
227.80176489428902
 31
0.0
  0
ARC
  5
40
  8
0
 10
167.83192665002386
 20
228.11361021150518
 30
0.0
 40
1.5
 50
348.0008676628329
 51
78.00121841212402
  0
LINE
  5
41
  8
0
 10
168.14376298527202
 20
229.58083824423184
 30
0.0
 11
101.9082041012157
 21
243.65816875101962
 31
0.0
  0
ARC
  5
42
  8
0
 10
101.59636776596754
 20
242.19094071829295
 30
0.0
 40
1.5
 50
78.00121841212402
 51
168.00028387043767
  0
LINE
  5
43
  8
0
 10
100.1291448197453
 20
242.5028009852058
 30
0.0
 11
80.79386627047758
 21
151.53525119146175
 31
0.0
  0
ARC
  5
44
  8
0
 10
82.26108921669982
 20
151.2233909245489
 30
0.0
 40
1.5
 50
168.00028387043767
 51
258.00138685035256
  0
LINE
  5
45
  8
0
 10
211.81118532868842
 20
135.67878250288462
 30
0.0
 11
242.48489672497453
 21
142.19706368038533
 31
0.0
  0
ARC
  5
46
  8
0
 10
242.38096555443474
 20
142.686142724907
 30
0.0
 40
0.5
 50
281.99710931503984
 51
11.999947856638522
  0
LINE
  5
47
  8
0
 10
242.8700394494089
 20
142.7900981252228
 30
0.0
 11
233.61794313511717
 21
186.31798380850677
 31
0.0
  0
ARC
  5
48
  8
0
 10
234.10701703009133
 20
186.42193920882258
 30
0.0
 40
0.5
 50
102.00670830940736
 51
191.99994785663853
  0
LINE
  5
49
  8
0
 10
234.00300392361416
 20
186.91100083447006
 30
0.0
 11
236.9368806655104
 21
187.53497462006763
 31
0.0
  0
ARC
  5
4A
  8
0
 10
237.04089377198756
 20
187.04591299442015
 30
0.0
 40
0.5
 50
11.999947856638522
 51
102.00670830940736
  0
LINE
  5
4B
  8
0
 10
237.5299676669617
 20
187.14986839473596
 30
0.0
 11
246.78204605374285
 21
143.6220670541353
 31
0.0
  0
ARC
  5
4C
  8
0
 10
247.271119948717
 20
143.7260224544511
 30
0.0
 40
0.5
 50
191.99994785663853
 51
281.99914643595594
  0
LINE
  5
4D
  8
0
 10
247.37506850813597
 20
143.23694710545595
 30
0.0
 11
278.04775936427063
 21
149.756151221037
 31
0.0
  0
ARC
  5
4E
  8
0
 10
277.73591368601376
 20
151.22337726802243
 30
0.0
 40
1.5
 50
281.99914643595594
 51
11.99971612956233
  0
LINE
  5
4F
  8
0
 10
279.203136632236
 20
151.53523753493528
 30
0.0
 11
259.8678526059405
 21
242.5028130966968
 31
0.0
  0
ARC
  5
50
  8
0
 10
258.4006296597183
 20
242.19095282978395
 30
0.0
 40
1.5
 50
11.99971612956233
 51
101.99830861851345
  0
LINE
  5
51
  8
0
 10
258.0888054362613
 20
243.65818343662988
 30
0.0
 11
209.47712313872478
 21
233.3269512413359
 31
0.0
  0
ARC
  5
52
  8
0
 10
209.5810645465438
 20
232.83787437238726
 30
0.0
 40
0.5
 50
101.99830861851345
 51
192.00372890652986
  0
LINE
  5
53
  8
0
 10
209.09199751283543
 20
232.73388669744594
 30
0.0
 11
210.5479868951698
 21
225.88618663365438
 31
0.0
  0
ARC
  5
54
  8
0
 10
210.05891986146145
 20
225.78219895871305
 30
0.0
 40
0.5
 50
281.989719100422
 51
12.003728906529872
  0
LINE
  5
55
  8
0
 10
210.16278794797202
 20
225.29310651284558
 30
0.0
 11
207.22808344942408
 21
224.66986617594463
 31
0.0
  0
ARC
  5
56
  8
0
 10
207.1242153629135
 20
225.1589586218121
 30
0.0
 40
0.5
 50
191.99077301769444
 51
281.989719100422
  0
LINE
  5
57
  8
0
 10
206.63512482771225
 20
225.055081538793
 30
0.0
 11
205.17992456408052
 21
231.90668590694486
 31
0.0
  0
ARC
  5
58
  8
0
 10
204.69083402887927
 20
231.80280882392574
 30
0.0
 40
0.5
 50
11.990773017694451
 51
102.01695629792758
  0
LINE
  5
59
  8
0
 10
204.58673344994574
 20
232.29185183784753
 30
0.0
 11
191.85267270826103
 21
229.58120459896065
 31
0.0
  0
ARC
  5
5A
  8
0
 10
192.1649744450616
 20
228.1140755571953
 30
0.0
 40
1.5
 50
102.01695629792758
 51
191.99913233716714
  0
LINE
  5
5B
  8
0
 10
190.69774832134027
 20
227.80223023997914
 30
0.0
 11
210.03216569334774
 21
136.83417431923348
 31
0.0
  0
ARC
  5
5C
  8
0
 10
211.49939181706907
 20
137.14601963644964
 30
0.0
 40
1.5
 50
191.99913233716714
 51
281.99710931503984
  0
LINE
  5
5D
  8
0
 10
270.28018818005063
 20
226.82388017264878
 30
0.0
 11
319.67681286826
 21
237.3241200501906
 31
0.0
  0
ARC
  5
5E
  8
0
 10
319.3649264853905
 20
238.7913374451872
 30
0.0
 40
1.5
 50
282.00073597247524
 51
11.999554160724589
  0
LINE
  5
5F
  8
0
 10
320.8321503132014
 20
239.10319356442164
 30
0.0
 11
317.50585563816935
 21
254.752778435509
 31
0.0
  0
ARC
  5
60
  8
0
 10
316.0386318103585
 20
254.44092231627454
 30
0.0
 40
1.5
 50
11.999554160724589
 51
101.99946577695349
  0
LINE
  5
61
  8
0
 10
315.726777954446
 20
255.90814662514913
 30
0.0
 11
266.32928605258184
 21
245.4088669793409
 31
0.0
  0
ARC
  5
62
  8
0
 10
266.6411399084943
 20
243.9416426704663
 30
0.0
 40
1.5
 50
101.99946577695349
 51
192.00187684619473
  0
LINE
  5
63
  8
0
 10
265.1739287240711
 20
243.62972707242187
 30
0.0
 11
268.50109061275793
 21
227.97918196960094
 31
0.0
  0
ARC
  5
64
  8
0
 10
269.96830179718114
 20
228.29109756764538
 30
0.0
 40
1.5
 50
192.00187684619473
 51
282.00073597247524
  0
LINE
  5
65
  8
0
 10
288.99225356402945
 20
138.7909458382002
 30
0.0
 11
320.35761362378054
 21
145.45938664090568
 31
0.0
  0
ARC
  5
66
  8
0
 10
320.0456777137967
 20
146.9265935070505
 30
0.0
 40
1.5
 50
282.00267004497005
 51
322.02796113014915
  0
LINE
  5
67
  8
0
 10
321.228144380365
 20
146.00367824417157
 30
0.0
 11
336.03989152972724
 21
164.98093215058583
 31
0.0
  0
ARC
  5
68
  8
0
 10
334.85742486315894
 20
165.90384741346477
 30
0.0
 40
1.5
 50
322.02796113014915
 51
12.002055423621892
  0
LINE
  5
69
  8
0
 10
336.3246350754077
 20
166.2157675844588
 30
0.0
 11
324.5199084973922
 21
221.74284469804363
 31
0.0
  0
ARC
  5
6A
  8
0
 10
323.05269828514344
 20
221.4309245270496
 30
0.0
 40
1.5
 50
12.002055423621892
 51
101.99991109089282
  0
LINE
  5
6B
  8
0
 10
322.7408330256877
 20
222.89814641209105
 30
0.0
 11
273.3452458385072
 21
212.39887035088316
 31
0.0
  0
ARC
  5
6C
  8
0
 10
273.6571110979629
 20
210.9316484658417
 30
0.0
 40
1.5
 50
101.99991109089282
 51
192.00084647858216
  0
LINE
  5
6D
  8
0
 10
272.1898943045029
 20
210.61975925315735
 30
0.0
 11
287.2131008605856
 21
139.9462634916607
 31
0.0
  0
ARC
  5
6E
  8
0
 10
288.6803176540456
 20
140.25815270434504
 30
0.0
 40
1.5
 50
192.00084647858216
 51
282.00267004497005
  0
LINE
  5
6F
  8
0
 10
94.2769424576096
 20
122.29133134159294
 30
0.0
 11
142.28014821445757
 21
89.29882059200187
 31
0.0
  0
ARC
  5
70
  8
0
 10
143.12977193778534
 20
90.53500000000003
 30
0.0
 40
1.5
 50
235.49933406182092
 51
270.0
  0
LINE
  5
71
  8
0
 10
143.12977193778534
 20
89.03500000000003
 30
0.0
 11
216.86823586190016
 21
89.03500000000003
 31
0.0
  0
ARC
  5
72
  8
0
 10
216.86823586190016
 20
90.53500000000003
 30
0.0
 40
1.5
 50
270.0
 51
304.50012248464685
  0
LINE
  5
73
  8
0
 10
217.71784785996192
 20
89.29881253333103
 30
0.0
 11
265.7219878646245
 21
122.29129498787054
 31
0.0
  0
ARC
  5
74
  8
0
 10
264.8723758665627
 20
123.52748245453954
 30
0.0
 40
1.5
 50
304.50012248464685
 51
12.001280997629946
  0
LINE
  5
75
  8
0
 10
266.3395902946789
 20
123.83938279427609
 30
0.0
 11
263.6018957444459
 21
136.71780718865017
 31
0.0
  0
ARC
  5
76
  8
0
 10
262.13468131632976
 20
136.40590684891362
 30
0.0
 40
1.5
 50
12.001280997629946
 51
102.00043684112735
  0
LINE
  5
77
  8
0
 10
261.82280259355264
 20
137.87312587219503
 30
0.0
 11
199.96964217349552
 21
124.72533786955991
 31
0.0
  0
ARC
  5
78
  8
0
 10
199.65776345071836
 20
126.19255689284134
 30
0.0
 40
1.5
 50
225.0
 51
282.00043684112734
  0
LINE
  5
79
  8
0
 10
198.59710327893853
 20
125.13189672106152
 30
0.0
 11
181.05966017177983
 21
142.66933982822025
 31
0.0
  0
ARC
  5
7A
  8
0
 10
179.999
 20
141.60867965644042
 30
0.0
 40
1.5
 50
45.0
 51
135.0
  0
LINE
  5
7B
  8
0
 10
178.93833982822017
 20
142.66933982822025
 30
0.0
 11
161.40089672106146
 21
125.13189672106152
 31
0.0
  0
ARC
  5
7C
  8
0
 10
160.34023654928163
 20
126.19255689284134
 30
0.0
 40
1.5
 50
257.99956315887266
 51
315.0
  0
LINE
  5
7D
  8
0
 10
160.02835782650448
 20
124.72533786955991
 30
0.0
 11
98.175289003966
 21
137.87310640181153
 31
0.0
  0
ARC
  5
7E
  8
0
 10
97.86341028118885
 20
136.4058873785301
 30
0.0
 40
1.5
 50
77.99956315887265
 51
168.00229588124813
  0
LINE
  5
7F
  8
0
 10
96.39617638451963
 20
136.71769612193685
 30
0.0
 11
93.65933228426815
 21
123.83931949299782
 31
0.0
  0
ARC
  5
80
  8
0
 10
95.12656618093736
 20
123.52751074959109
 30
0.0
 40
1.5
 50
168.00229588124813
 51
235.49933406182092
  0
LINE
  5
81
  8
0
 10
11.948892775453807
 20
39.56022271725052
 30
0.0
 11
51.984684002875035
 21
17.136912450892947
 31
0.0
  0
ARC
  5
82
  8
0
 10
53.45065671261088
 20
19.754339434460924
 30
0.0
 40
3.0
 50
240.74761432819452
 51
305.52408866140075
  0
LINE
  5
83
  8
0
 10
55.19379225284846
 20
17.31272552387624
 30
0.0
 11
142.21786733623273
 21
79.44161391058469
 31
0.0
  0
ARC
  5
84
  8
0
 10
143.9610028764703
 20
77.0
 30
0.0
 40
3.0
 50
90.0
 51
125.52408866140075
  0
LINE
  5
85
  8
0
 10
143.9610028764703
 20
80.0
 30
0.0
 11
216.0389971235297
 21
80.0
 31
0.0
  0
ARC
  5
86
  8
0
 10
216.0389971235297
 20
77.0
 30
0.0
 40
3.0
 50
54.47591133859927
 51
90.0
  0
LINE
  5
87
  8
0
 10
217.78213266376727
 20
79.44161391058469
 30
0.0
 11
304.8062077471516
 21
17.31272552387624
 31
0.0
  0
ARC
  5
88
  8
0
 10
306.54934328738915
 20
19.754339434460924
 30
0.0
 40
3.0
 50
234.47591133859925
 51
299.2523856718054
  0
LINE
  5
89
  8
0
 10
308.015315997125
 20
17.136912450892947
 30
0.0
 11
348.05110378886997
 21
39.56022079299143
 31
0.0
  0
ARC
  5
8A
  8
0
 10
346.5851310791341
 20
42.177647776559404
 30
0.0
 40
3.0
 50
299.2523856718054
 51
12.000253928407355
  0
LINE
  5
8B
  8
0
 10
349.51957111698346
 20
42.8013958541248
 30
0.0
 11
328.8154356821561
 21
140.2045721591359
 31
0.0
  0
ARC
  5
8C
  8
0
 10
331.74987572000543
 20
140.82832023670127
 30
0.0
 40
3.0
 50
119.25157589850716
 51
192.00025392840735
  0
LINE
  5
8D
  8
0
 10
330.2839400030619
 20
143.44576793890838
 30
0.0
 11
343.56006742067666
 21
150.88123621885313
 31
0.0
  0
ARC
  5
8E
  8
0
 10
342.0941317037331
 20
153.49868392106023
 30
0.0
 40
3.0
 50
299.25157589850716
 51
12.00004322978333
  0
LINE
  5
8F
  8
0
 10
345.0285740353243
 20
154.12242120755644
 30
0.0
 11
322.4377305195175
 21
260.40358950442277
 31
0.0
  0
ARC
  5
90
  8
0
 10
319.50328818792633
 20
259.77985221792653
 30
0.0
 40
3.0
 50
12.00004322978333
 51
101.99942161963583
  0
LINE
  5
91
  8
0
 10
318.87958273765344
 20
262.7143013163605
 30
0.0
 11
180.6237141425463
 21
233.32856795298508
 31
0.0
  0
ARC
  5
92
  8
0
 10
180.00000869227344
 20
236.26301705141904
 30
0.0
 40
3.0
 50
258.0002536149199
 51
281.9994216196358
  0
LINE
  5
93
  8
0
 10
179.37628660888905
 20
233.32857148833585
 30
0.0
 11
59.46342456311166
 21
258.8162823802002
 31
0.0
  0
ARC
  5
94
  8
0
 10
58.83970247972726
 20
255.881836817117
 30
0.0
 40
3.0
 50
78.00025361491994
 51
167.99984358378362
  0
LINE
  5
95
  8
0
 10
55.905261380319786
 20
256.5055799005322
 30
0.0
 11
10.480424385782179
 21
42.80139278423368
 31
0.0
  0
ARC
  5
96
  8
0
 10
13.41486548518965
 20
42.17764970081849
 30
0.0
 40
3.0
 50
167.99984358378362
 51
240.74761432819452
  0
ENDSEC
  0
EOF
