  0
SECTION
  2
HEADER
  9
$ACADVER
  1
AC1009
  9
$DWGCODEPAGE
  3
ANSI_1252
  9
$INSBASE
 10
0.0
 20
0.0
 30
0.0
  9
$EXTMIN
 10
-100
 20
-100
 30
-100
  9
$EXTMAX
 10
100
 20
100
 30
100
  9
$LIMMIN
 10
0.0
 20
0.0
  9
$LIMMAX
 10
420.0
 20
297.0
  9
$ORTHOMODE
 70
0
  9
$REGENMODE
 70
1
  9
$DRAGMODE
 70
2
  9
$FILLMODE
 70
1
  9
$QTEXTMODE
 70
0
  9
$MIRRTEXT
 70
1
  9
$OSMODE
 70
20583
  9
$LTSCALE
 40
1.0
  9
$ATTMODE
 70
1
  9
$TEXTSIZE
 40
2.5
  9
$TRACEWID
 40
1.0
  9
$TEXTSTYLE
  7
Standard
  9
$CLAYER
  8
0
  9
$CELTYPE
  6
ByLayer
  9
$CECOLOR
 62
256
  9
$DIMSCALE
 40
1.0
  9
$DIMASZ
 40
2.5
  9
$DIMEXO
 40
0.625
  9
$DIMDLI
 40
3.75
  9
$DIMRND
 40
0.0
  9
$DIMDLE
 40
0.0
  9
$DIMEXE
 40
1.25
  9
$DIMTP
 40
0.0
  9
$DIMTM
 40
0.0
  9
$DIMTXT
 40
2.5
  9
$DIMCEN
 40
2.5
  9
$DIMTSZ
 40
0.0
  9
$DIMTOL
 70
0
  9
$DIMLIM
 70
0
  9
$DIMTIH
 70
0
  9
$DIMTOH
 70
0
  9
$DIMSE1
 70
0
  9
$DIMSE2
 70
0
  9
$DIMTAD
 70
1
  9
$DIMZIN
 70
8
  9
$DIMBLK
  1

  9
$DIMASO
 70
1
  9
$DIMSHO
 70
1
  9
$DIMPOST
  1

  9
$DIMAPOST
  1

  9
$DIMALT
 70
0
  9
$DIMALTD
 70
3
  9
$DIMALTF
 40
0.03937007874
  9
$DIMLFAC
 40
1.0
  9
$DIMTOFL
 70
1
  9
$DIMTVP
 40
0.0
  9
$DIMTIX
 70
0
  9
$DIMSOXD
 70
0
  9
$DIMSAH
 70
0
  9
$DIMBLK1
  1

  9
$DIMBLK2
  1

  9
$DIMSTYLE
  2
ISO-25
  9
$DIMCLRD
 70
0
  9
$DIMCLRE
 70
0
  9
$DIMCLRT
 70
0
  9
$DIMTFAC
 40
1.0
  9
$DIMGAP
 40
0.625
  9
$COORDS
 70
1
  9
$ATTDIA
 70
0
  9
$ATTREQ
 70
1
  9
$HANDLING
 70
1
  9
$LUNITS
 70
2
  9
$LUPREC
 70
4
  9
$SKETCHINC
 40
1.0
  9
$FILLETRAD
 40
10.0
  9
$AUNITS
 70
0
  9
$AUPREC
 70
2
  9
$MENU
  1
.
  9
$ELEVATION
 40
0.0
  9
$PELEVATION
 40
0.0
  9
$THICKNESS
 40
0.0
  9
$LIMCHECK
 70
0
  9
$CHAMFERA
 40
0.0
  9
$CHAMFERB
 40
0.0
  9
$SKPOLY
 70
0
  9
$TDCREATE
 40
2458875.870162037
  9
$TDUPDATE
 40
2458875.870162037
  9
$TDINDWG
 40
0.0
  9
$TDUSRTIMER
 40
0.0
  9
$USRTIMER
 70
1
  9
$ANGBASE
 50
0.0
  9
$ANGDIR
 70
0
  9
$PDMODE
 70
0
  9
$PDSIZE
 40
0.0
  9
$PLINEWID
 40
0.0
  9
$SPLFRAME
 70
0
  9
$SPLINETYPE
 70
6
  9
$SPLINESEGS
 70
8
  9
$HANDSEED
  5
2F1
  9
$SURFTAB1
 70
6
  9
$SURFTAB2
 70
6
  9
$SURFTYPE
 70
6
  9
$SURFU
 70
6
  9
$SURFV
 70
6
  9
$UCSNAME
  2

  9
$UCSORG
 10
0.0
 20
0.0
 30
0.0
  9
$UCSXDIR
 10
1.0
 20
0.0
 30
0.0
  9
$UCSYDIR
 10
0.0
 20
1.0
 30
0.0
  9
$PUCSNAME
  2

  9
$PUCSORG
 10
0.0
 20
0.0
 30
0.0
  9
$PUCSXDIR
 10
1.0
 20
0.0
 30
0.0
  9
$PUCSYDIR
 10
0.0
 20
1.0
 30
0.0
  9
$USERI1
 70
0
  9
$USERI2
 70
0
  9
$USERI3
 70
0
  9
$USERI4
 70
0
  9
$USERI5
 70
0
  9
$USERR1
 40
0.0
  9
$USERR2
 40
0.0
  9
$USERR3
 40
0.0
  9
$USERR4
 40
0.0
  9
$USERR5
 40
0.0
  9
$WORLDVIEW
 70
1
  9
$SHADEDGE
 70
3
  9
$SHADEDIF
 70
70
  9
$TILEMODE
 70
1
  9
$MAXACTVP
 70
64
  9
$PLIMCHECK
 70
0
  9
$PEXTMIN
 10
1e+20
 20
1e+20
 30
1e+20
  9
$PEXTMAX
 10
-1e+20
 20
-1e+20
 30
-1e+20
  9
$PLIMMIN
 10
0.0
 20
0.0
  9
$PLIMMAX
 10
420.0
 20
297.0
  9
$UNITMODE
 70
0
  9
$VISRETAIN
 70
1
  9
$PLINEGEN
 70
0
  9
$PSLTSCALE
 70
1
  0
ENDSEC
  0
SECTION
  2
TABLES
  0
TABLE
  2
VPORT
 70
1
  0
VPORT
  5
23
  2
*Active
 70
0
 10
0.0
 20
0.0
 11
1.0
 21
1.0
 12
70.0
 22
50.0
 13
0.0
 23
0.0
 14
0.5
 24
0.5
 15
0.5
 25
0.5
 16
0.0
 26
0.0
 36
1.0
 17
0.0
 27
0.0
 37
0.0
 40
1.0
 41
1.34
 42
50.0
 43
0.0
 44
0.0
 50
0.0
 51
0.0
 71
0
 72
1000
 73
1
 74
3
 75
0
 76
0
 77
0
 78
0
  0
ENDTAB
  0
TABLE
  2
LTYPE
 70
3
  0
LTYPE
  5
24
  2
ByBlock
 70
0
  3

 72
65
 73
0
 40
0.0
  0
LTYPE
  5
25
  2
ByLayer
 70
0
  3

 72
65
 73
0
 40
0.0
  0
LTYPE
  5
26
  2
Continuous
 70
0
  3

 72
65
 73
0
 40
0.0
  0
ENDTAB
  0
TABLE
  2
LAYER
 70
2
  0
LAYER
  5
27
  2
0
 70
0
 62
7
  6
Continuous
  0
LAYER
  5
28
  2
Defpoints
 70
0
 62
7
  6
Continuous
  0
ENDTAB
  0
TABLE
  2
STYLE
 70
1
  0
STYLE
  5
29
  2
Standard
 70
0
 40
0.0
 41
1.0
 50
0.0
 71
0
 42
2.5
  3
txt
  4

  0
ENDTAB
  0
TABLE
  2
VIEW
 70
0
  0
ENDTAB
  0
TABLE
  2
UCS
 70
0
  0
ENDTAB
  0
TABLE
  2
APPID
 70
1
  0
APPID
  5
2A
  2
ACAD
 70
0
  0
ENDTAB
  0
TABLE
  2
DIMSTYLE
 70
1
  0
DIMSTYLE
105
2B
  2
Standard
 70
0
  3

  4

  5

  6

  7

 40
1.0
 41
2.5
 42
0.625
 43
3.75
 44
1.25
 45
0.0
 46
0.0
 47
0.0
 48
0.0
140
2.5
141
2.5
142
0.0
143
0.03937007874
144
1.0
145
0.0
146
1.0
147
0.625
 71
0
 72
0
 73
0
 74
0
 75
0
 76
0
 77
1
 78
8
170
0
171
3
172
1
173
0
174
0
175
0
176
0
177
0
178
0
  0
ENDTAB
  0
ENDSEC
  0
SECTION
  2
BLOCKS
  0
BLOCK
  5
18
  8
0
  2
$Model_Space
 70
0
 10
0.0
 20
0.0
 30
0.0
  3
$Model_Space
  1

  0
ENDBLK
  5
19
  8
0
  0
BLOCK
  5
1C
  8
0
  2
$Paper_Space
 70
0
 10
0.0
 20
0.0
 30
0.0
  3
$Paper_Space
  1

  0
ENDBLK
  5
1D
  8
0
  0
ENDSEC
  0
SECTION
  2
ENTITIES
  0
LINE
  5
2D
  8
0
 10
49.637431618600765
 20
172.05582817011512
 30
0.0
 11
62.922568381399245
 21
170.30617182988487
 31
0.0
  0
ARC
  5
2E
  8
0
 10
62.96174021128413
 20
170.60360344848564
 30
0.0
 40
0.3
 50
262.49730846807984
 51
352.4973084680799
  0
LINE
  5
2F
  8
0
 10
63.25917182988489
 20
170.56443161860076
 30
0.0
 11
65.00882817011512
 21
183.84956838139922
 31
0.0
  0
ARC
  5
30
  8
0
 10
64.71139655151435
 20
183.8887402112841
 30
0.0
 40
0.3
 50
352.4973084680799
 51
82.49730846807988
  0
LINE
  5
31
  8
0
 10
64.75056838139923
 20
184.18617182988487
 30
0.0
 11
51.46543161860076
 21
185.93582817011512
 31
0.0
  0
ARC
  5
32
  8
0
 10
51.426259788715875
 20
185.63839655151435
 30
0.0
 40
0.3
 50
82.49730846807988
 51
172.49730846807992
  0
LINE
  5
33
  8
0
 10
51.12882817011511
 20
185.67756838139923
 30
0.0
 11
49.37917182988489
 21
172.39243161860077
 31
0.0
  0
ARC
  5
34
  8
0
 10
49.67660344848565
 20
172.3532597887159
 30
0.0
 40
0.3
 50
172.49730846807992
 51
262.49730846807984
  0
LINE
  5
35
  8
0
 10
68.47443161860078
 20
169.57582817011513
 30
0.0
 11
81.75956838139925
 21
167.82617182988488
 31
0.0
  0
ARC
  5
36
  8
0
 10
81.79874021128413
 20
168.12360344848565
 30
0.0
 40
0.3
 50
262.49730846807984
 51
352.4973084680799
  0
LINE
  5
37
  8
0
 10
82.0961718298849
 20
168.08443161860077
 30
0.0
 11
83.84582817011513
 21
181.36956838139923
 31
0.0
  0
ARC
  5
38
  8
0
 10
83.54839655151436
 20
181.4087402112841
 30
0.0
 40
0.3
 50
352.4973084680799
 51
82.49730846807986
  0
LINE
  5
39
  8
0
 10
83.58756838139924
 20
181.70617182988488
 30
0.0
 11
70.30243161860076
 21
183.45582817011513
 31
0.0
  0
ARC
  5
3A
  8
0
 10
70.26325978871589
 20
183.15839655151436
 30
0.0
 40
0.3
 50
82.49730846807986
 51
172.49730846807986
  0
LINE
  5
3B
  8
0
 10
69.96582817011512
 20
183.19756838139924
 30
0.0
 11
68.21617182988489
 21
169.91243161860078
 31
0.0
  0
ARC
  5
3C
  8
0
 10
68.51360344848565
 20
169.8732597887159
 30
0.0
 40
0.3
 50
172.49730846807986
 51
262.49730846807984
  0
LINE
  5
3D
  8
0
 10
87.31243161860077
 20
167.0958281701151
 30
0.0
 11
100.59756838139924
 21
165.34617182988487
 31
0.0
  0
ARC
  5
3E
  8
0
 10
100.63674021128412
 20
165.64360344848563
 30
0.0
 40
0.3
 50
262.49730846807984
 51
352.4973084680799
  0
LINE
  5
3F
  8
0
 10
100.93417182988489
 20
165.60443161860076
 30
0.0
 11
102.68382817011512
 21
178.88956838139924
 31
0.0
  0
ARC
  5
40
  8
0
 10
102.38639655151435
 20
178.92874021128412
 30
0.0
 40
0.3
 50
352.4973084680799
 51
82.49730846807999
  0
LINE
  5
41
  8
0
 10
102.42556838139923
 20
179.2261718298849
 30
0.0
 11
89.14043161860076
 21
180.9758281701151
 31
0.0
  0
ARC
  5
42
  8
0
 10
89.10125978871588
 20
180.67839655151434
 30
0.0
 40
0.3
 50
82.49730846807999
 51
172.49730846807986
  0
LINE
  5
43
  8
0
 10
88.80382817011511
 20
180.71756838139922
 30
0.0
 11
87.05417182988488
 21
167.43243161860076
 31
0.0
  0
ARC
  5
44
  8
0
 10
87.35160344848565
 20
167.39325978871588
 30
0.0
 40
0.3
 50
172.49730846807986
 51
262.49730846807984
  0
LINE
  5
45
  8
0
 10
106.14943161860077
 20
164.61582817011512
 30
0.0
 11
119.43456838139925
 21
162.86617182988488
 31
0.0
  0
ARC
  5
46
  8
0
 10
119.47374021128412
 20
163.16360344848565
 30
0.0
 40
0.3
 50
262.49730846807984
 51
352.4973084680799
  0
LINE
  5
47
  8
0
 10
119.77117182988489
 20
163.12443161860077
 30
0.0
 11
121.52082817011512
 21
176.40956838139923
 31
0.0
  0
ARC
  5
48
  8
0
 10
121.22339655151436
 20
176.4487402112841
 30
0.0
 40
0.3
 50
352.4973084680799
 51
82.49730846807986
  0
LINE
  5
49
  8
0
 10
121.26256838139923
 20
176.74617182988487
 30
0.0
 11
107.97743161860076
 21
178.49582817011512
 31
0.0
  0
ARC
  5
4A
  8
0
 10
107.93825978871588
 20
178.19839655151435
 30
0.0
 40
0.3
 50
82.49730846807986
 51
172.49730846807986
  0
LINE
  5
4B
  8
0
 10
107.64082817011511
 20
178.23756838139923
 30
0.0
 11
105.89117182988488
 21
164.95243161860077
 31
0.0
  0
ARC
  5
4C
  8
0
 10
106.18860344848565
 20
164.9132597887159
 30
0.0
 40
0.3
 50
172.49730846807986
 51
262.49730846807984
  0
LINE
  5
4D
  8
0
 10
124.98643161860076
 20
162.13582817011513
 30
0.0
 11
138.27156838139922
 21
160.38617182988486
 31
0.0
  0
ARC
  5
4E
  8
0
 10
138.3107402112841
 20
160.68360344848563
 30
0.0
 40
0.3
 50
262.4973084680797
 51
352.4973084680799
  0
LINE
  5
4F
  8
0
 10
138.60817182988487
 20
160.64443161860075
 30
0.0
 11
140.3578281701151
 21
173.92956838139924
 31
0.0
  0
ARC
  5
50
  8
0
 10
140.06039655151434
 20
173.9687402112841
 30
0.0
 40
0.3
 50
352.4973084680799
 51
82.49730846807986
  0
LINE
  5
51
  8
0
 10
140.09956838139922
 20
174.26617182988488
 30
0.0
 11
126.81443161860075
 21
176.01582817011513
 31
0.0
  0
ARC
  5
52
  8
0
 10
126.77525978871587
 20
175.71839655151436
 30
0.0
 40
0.3
 50
82.49730846807986
 51
172.49730846807986
  0
LINE
  5
53
  8
0
 10
126.4778281701151
 20
175.75756838139924
 30
0.0
 11
124.72817182988487
 21
162.47243161860078
 31
0.0
  0
ARC
  5
54
  8
0
 10
125.02560344848564
 20
162.4332597887159
 30
0.0
 40
0.3
 50
172.49730846807986
 51
262.4973084680797
  0
LINE
  5
55
  8
0
 10
143.82443161860076
 20
159.65482817011514
 30
0.0
 11
157.1095683813992
 21
157.90517182988486
 31
0.0
  0
ARC
  5
56
  8
0
 10
157.1487402112841
 20
158.20260344848563
 30
0.0
 40
0.3
 50
262.4973084680797
 51
352.4973084680799
  0
LINE
  5
57
  8
0
 10
157.44617182988486
 20
158.16343161860075
 30
0.0
 11
159.1958281701151
 21
171.44856838139924
 31
0.0
  0
ARC
  5
58
  8
0
 10
158.89839655151434
 20
171.48774021128412
 30
0.0
 40
0.3
 50
352.4973084680799
 51
82.49730846807986
  0
LINE
  5
59
  8
0
 10
158.93756838139922
 20
171.7851718298849
 30
0.0
 11
145.65243161860076
 21
173.53482817011513
 31
0.0
  0
ARC
  5
5A
  8
0
 10
145.61325978871588
 20
173.23739655151437
 30
0.0
 40
0.3
 50
82.49730846807986
 51
172.49730846807986
  0
LINE
  5
5B
  8
0
 10
145.3158281701151
 20
173.27656838139924
 30
0.0
 11
143.56617182988487
 21
159.99143161860079
 31
0.0
  0
ARC
  5
5C
  8
0
 10
143.86360344848563
 20
159.9522597887159
 30
0.0
 40
0.3
 50
172.49730846807986
 51
262.4973084680797
  0
LINE
  5
5D
  8
0
 10
43.11444318876379
 20
142.20862135807715
 30
0.0
 11
56.22155681123621
 21
139.42237864192285
 31
0.0
  0
ARC
  5
5E
  8
0
 10
56.28393545315905
 20
139.71582183068665
 30
0.0
 40
0.3
 50
257.998997438636
 51
347.998997438636
  0
LINE
  5
5F
  8
0
 10
56.57737864192284
 20
139.65344318876382
 30
0.0
 11
59.36362135807716
 21
152.76055681123623
 31
0.0
  0
ARC
  5
60
  8
0
 10
59.07017816931337
 20
152.82293545315906
 30
0.0
 40
0.3
 50
347.998997438636
 51
77.99899743863601
  0
LINE
  5
61
  8
0
 10
59.13255681123621
 20
153.11637864192286
 30
0.0
 11
46.02544318876379
 21
155.90262135807717
 31
0.0
  0
ARC
  5
62
  8
0
 10
45.96306454684095
 20
155.60917816931337
 30
0.0
 40
0.3
 50
77.99899743863601
 51
167.998997438636
  0
LINE
  5
63
  8
0
 10
45.66962135807716
 20
155.6715568112362
 30
0.0
 11
42.88337864192284
 21
142.5644431887638
 31
0.0
  0
ARC
  5
64
  8
0
 10
43.17682183068663
 20
142.50206454684096
 30
0.0
 40
0.3
 50
167.998997438636
 51
257.998997438636
  0
LINE
  5
65
  8
0
 10
62.32244318876379
 20
141.19262135807713
 30
0.0
 11
75.4295568112362
 21
138.40637864192283
 31
0.0
  0
ARC
  5
66
  8
0
 10
75.49193545315904
 20
138.69982183068663
 30
0.0
 40
0.3
 50
257.998997438636
 51
347.998997438636
  0
LINE
  5
67
  8
0
 10
75.78537864192283
 20
138.6374431887638
 30
0.0
 11
78.57162135807715
 21
151.74455681123624
 31
0.0
  0
ARC
  5
68
  8
0
 10
78.27817816931336
 20
151.80693545315907
 30
0.0
 40
0.3
 50
347.998997438636
 51
77.99899743863601
  0
LINE
  5
69
  8
0
 10
78.34055681123621
 20
152.10037864192287
 30
0.0
 11
65.2334431887638
 21
154.88662135807718
 31
0.0
  0
ARC
  5
6A
  8
0
 10
65.17106454684095
 20
154.59317816931338
 30
0.0
 40
0.3
 50
77.99899743863601
 51
167.99899743863605
  0
LINE
  5
6B
  8
0
 10
64.87762135807716
 20
154.6555568112362
 30
0.0
 11
62.091378641922844
 21
141.54844318876377
 31
0.0
  0
ARC
  5
6C
  8
0
 10
62.38482183068663
 20
141.48606454684094
 30
0.0
 40
0.3
 50
167.99899743863605
 51
257.998997438636
  0
LINE
  5
6D
  8
0
 10
82.36244318876379
 20
144.08962135807712
 30
0.0
 11
95.4695568112362
 21
141.30337864192282
 31
0.0
  0
ARC
  5
6E
  8
0
 10
95.53193545315905
 20
141.59682183068662
 30
0.0
 40
0.3
 50
257.998997438636
 51
347.998997438636
  0
LINE
  5
6F
  8
0
 10
95.82537864192284
 20
141.5344431887638
 30
0.0
 11
98.61162135807716
 21
154.64155681123623
 31
0.0
  0
ARC
  5
70
  8
0
 10
98.31817816931337
 20
154.70393545315906
 30
0.0
 40
0.3
 50
347.998997438636
 51
77.99899743863601
  0
LINE
  5
71
  8
0
 10
98.38055681123622
 20
154.99737864192286
 30
0.0
 11
85.2734431887638
 21
157.78362135807717
 31
0.0
  0
ARC
  5
72
  8
0
 10
85.21106454684096
 20
157.49017816931337
 30
0.0
 40
0.3
 50
77.99899743863601
 51
167.99899743863602
  0
LINE
  5
73
  8
0
 10
84.91762135807717
 20
157.5525568112362
 30
0.0
 11
82.13137864192285
 21
144.44544318876376
 31
0.0
  0
ARC
  5
74
  8
0
 10
82.42482183068664
 20
144.38306454684093
 30
0.0
 40
0.3
 50
167.99899743863602
 51
257.998997438636
  0
LINE
  5
75
  8
0
 10
101.5714431887638
 20
143.07362135807713
 30
0.0
 11
114.6785568112362
 21
140.28737864192283
 31
0.0
  0
ARC
  5
76
  8
0
 10
114.74093545315905
 20
140.58082183068663
 30
0.0
 40
0.3
 50
257.998997438636
 51
347.998997438636
  0
LINE
  5
77
  8
0
 10
115.03437864192284
 20
140.5184431887638
 30
0.0
 11
117.82062135807716
 21
153.62555681123624
 31
0.0
  0
ARC
  5
78
  8
0
 10
117.52717816931337
 20
153.68793545315907
 30
0.0
 40
0.3
 50
347.998997438636
 51
77.99899743863601
  0
LINE
  5
79
  8
0
 10
117.58955681123622
 20
153.98137864192287
 30
0.0
 11
104.48244318876381
 21
156.76762135807718
 31
0.0
  0
ARC
  5
7A
  8
0
 10
104.42006454684096
 20
156.47417816931338
 30
0.0
 40
0.3
 50
77.99899743863601
 51
167.99899743863602
  0
LINE
  5
7B
  8
0
 10
104.12662135807717
 20
156.5365568112362
 30
0.0
 11
101.34037864192285
 21
143.42944318876377
 31
0.0
  0
ARC
  5
7C
  8
0
 10
101.63382183068664
 20
143.36706454684094
 30
0.0
 40
0.3
 50
167.99899743863602
 51
257.998997438636
  0
LINE
  5
7D
  8
0
 10
119.74044318876379
 20
137.16662135807712
 30
0.0
 11
132.84755681123622
 21
134.38037864192282
 31
0.0
  0
ARC
  5
7E
  8
0
 10
132.90993545315905
 20
134.67382183068662
 30
0.0
 40
0.3
 50
257.998997438636
 51
347.998997438636
  0
LINE
  5
7F
  8
0
 10
133.20337864192285
 20
134.6114431887638
 30
0.0
 11
135.98962135807716
 21
147.71855681123623
 31
0.0
  0
ARC
  5
80
  8
0
 10
135.69617816931336
 20
147.78093545315906
 30
0.0
 40
0.3
 50
347.998997438636
 51
77.99899743863601
  0
LINE
  5
81
  8
0
 10
135.7585568112362
 20
148.07437864192286
 30
0.0
 11
122.65144318876379
 21
150.86062135807717
 31
0.0
  0
ARC
  5
82
  8
0
 10
122.58906454684094
 20
150.56717816931337
 30
0.0
 40
0.3
 50
77.99899743863601
 51
167.99899743863608
  0
LINE
  5
83
  8
0
 10
122.29562135807716
 20
150.6295568112362
 30
0.0
 11
119.50937864192285
 21
137.52244318876376
 31
0.0
  0
ARC
  5
84
  8
0
 10
119.80282183068664
 20
137.46006454684093
 30
0.0
 40
0.3
 50
167.99899743863608
 51
257.998997438636
  0
LINE
  5
85
  8
0
 10
137.7014431887638
 20
130.28162135807713
 30
0.0
 11
150.8085568112362
 21
127.49537864192284
 31
0.0
  0
ARC
  5
86
  8
0
 10
150.87093545315903
 20
127.78882183068663
 30
0.0
 40
0.3
 50
257.998997438636
 51
347.998997438636
  0
LINE
  5
87
  8
0
 10
151.16437864192284
 20
127.72644318876378
 30
0.0
 11
153.95062135807714
 21
140.83355681123624
 31
0.0
  0
ARC
  5
88
  8
0
 10
153.65717816931334
 20
140.89593545315907
 30
0.0
 40
0.3
 50
347.998997438636
 51
77.99899743863601
  0
LINE
  5
89
  8
0
 10
153.71955681123617
 20
141.18937864192287
 30
0.0
 11
140.61244318876376
 21
143.97562135807718
 31
0.0
  0
ARC
  5
8A
  8
0
 10
140.55006454684093
 20
143.68217816931337
 30
0.0
 40
0.3
 50
77.99899743863601
 51
167.99899743863602
  0
LINE
  5
8B
  8
0
 10
140.25662135807713
 20
143.7445568112362
 30
0.0
 11
137.47037864192282
 21
130.63744318876377
 31
0.0
  0
ARC
  5
8C
  8
0
 10
137.76382183068662
 20
130.57506454684093
 30
0.0
 40
0.3
 50
167.99899743863602
 51
257.998997438636
  0
LINE
  5
8D
  8
0
 10
39.163443188763786
 20
123.62362135807717
 30
0.0
 11
52.27055681123621
 21
120.83737864192285
 31
0.0
  0
ARC
  5
8E
  8
0
 10
52.33293545315905
 20
121.13082183068664
 30
0.0
 40
0.3
 50
257.998997438636
 51
347.998997438636
  0
LINE
  5
8F
  8
0
 10
52.62637864192284
 20
121.0684431887638
 30
0.0
 11
55.41262135807716
 21
134.17555681123622
 31
0.0
  0
ARC
  5
90
  8
0
 10
55.11917816931337
 20
134.23793545315905
 30
0.0
 40
0.3
 50
347.998997438636
 51
77.99899743863601
  0
LINE
  5
91
  8
0
 10
55.18155681123621
 20
134.53137864192286
 30
0.0
 11
42.07444318876379
 21
137.31762135807716
 31
0.0
  0
ARC
  5
92
  8
0
 10
42.012064546840946
 20
137.02417816931336
 30
0.0
 40
0.3
 50
77.99899743863601
 51
167.998997438636
  0
LINE
  5
93
  8
0
 10
41.71862135807716
 20
137.0865568112362
 30
0.0
 11
38.93237864192284
 21
123.97944318876381
 31
0.0
  0
ARC
  5
94
  8
0
 10
39.22582183068663
 20
123.91706454684096
 30
0.0
 40
0.3
 50
167.998997438636
 51
257.998997438636
  0
LINE
  5
95
  8
0
 10
58.37244318876379
 20
122.60762135807717
 30
0.0
 11
71.4795568112362
 21
119.82137864192285
 31
0.0
  0
ARC
  5
96
  8
0
 10
71.54193545315904
 20
120.11482183068664
 30
0.0
 40
0.3
 50
257.998997438636
 51
347.998997438636
  0
LINE
  5
97
  8
0
 10
71.83537864192283
 20
120.05244318876379
 30
0.0
 11
74.62162135807715
 21
133.15955681123623
 31
0.0
  0
ARC
  5
98
  8
0
 10
74.32817816931336
 20
133.22193545315906
 30
0.0
 40
0.3
 50
347.998997438636
 51
77.99899743863601
  0
LINE
  5
99
  8
0
 10
74.39055681123621
 20
133.51537864192287
 30
0.0
 11
61.28344318876378
 21
136.30162135807717
 31
0.0
  0
ARC
  5
9A
  8
0
 10
61.22106454684094
 20
136.00817816931337
 30
0.0
 40
0.3
 50
77.99899743863601
 51
167.99899743863602
  0
LINE
  5
9B
  8
0
 10
60.927621358077154
 20
136.0705568112362
 30
0.0
 11
58.14137864192284
 21
122.9634431887638
 31
0.0
  0
ARC
  5
9C
  8
0
 10
58.43482183068663
 20
122.90106454684096
 30
0.0
 40
0.3
 50
167.99899743863602
 51
257.998997438636
  0
LINE
  5
9D
  8
0
 10
78.41244318876379
 20
125.50462135807716
 30
0.0
 11
91.5195568112362
 21
122.71837864192284
 31
0.0
  0
ARC
  5
9E
  8
0
 10
91.58193545315905
 20
123.01182183068663
 30
0.0
 40
0.3
 50
257.998997438636
 51
347.998997438636
  0
LINE
  5
9F
  8
0
 10
91.87537864192284
 20
122.94944318876378
 30
0.0
 11
94.66162135807716
 21
136.05655681123622
 31
0.0
  0
ARC
  5
A0
  8
0
 10
94.36817816931337
 20
136.11893545315905
 30
0.0
 40
0.3
 50
347.998997438636
 51
77.99899743863601
  0
LINE
  5
A1
  8
0
 10
94.43055681123622
 20
136.41237864192286
 30
0.0
 11
81.3234431887638
 21
139.19862135807716
 31
0.0
  0
ARC
  5
A2
  8
0
 10
81.26106454684096
 20
138.90517816931336
 30
0.0
 40
0.3
 50
77.99899743863601
 51
167.998997438636
  0
LINE
  5
A3
  8
0
 10
80.96762135807717
 20
138.9675568112362
 30
0.0
 11
78.18137864192285
 21
125.8604431887638
 31
0.0
  0
ARC
  5
A4
  8
0
 10
78.47482183068664
 20
125.79806454684095
 30
0.0
 40
0.3
 50
167.998997438636
 51
257.998997438636
  0
LINE
  5
A5
  8
0
 10
97.62144318876379
 20
124.48862135807717
 30
0.0
 11
110.7285568112362
 21
121.70237864192285
 31
0.0
  0
ARC
  5
A6
  8
0
 10
110.79093545315905
 20
121.99582183068664
 30
0.0
 40
0.3
 50
257.998997438636
 51
347.998997438636
  0
LINE
  5
A7
  8
0
 10
111.08437864192284
 20
121.93344318876379
 30
0.0
 11
113.87062135807716
 21
135.04055681123623
 31
0.0
  0
ARC
  5
A8
  8
0
 10
113.57717816931337
 20
135.10293545315906
 30
0.0
 40
0.3
 50
347.998997438636
 51
77.99899743863601
  0
LINE
  5
A9
  8
0
 10
113.63955681123622
 20
135.39637864192287
 30
0.0
 11
100.5324431887638
 21
138.18262135807717
 31
0.0
  0
ARC
  5
AA
  8
0
 10
100.47006454684096
 20
137.88917816931337
 30
0.0
 40
0.3
 50
77.99899743863601
 51
167.998997438636
  0
LINE
  5
AB
  8
0
 10
100.17662135807717
 20
137.9515568112362
 30
0.0
 11
97.39037864192285
 21
124.8444431887638
 31
0.0
  0
ARC
  5
AC
  8
0
 10
97.68382183068664
 20
124.78206454684096
 30
0.0
 40
0.3
 50
167.998997438636
 51
257.998997438636
  0
LINE
  5
AD
  8
0
 10
115.79044318876379
 20
118.58162135807717
 30
0.0
 11
128.89755681123623
 21
115.79537864192285
 31
0.0
  0
ARC
  5
AE
  8
0
 10
128.95993545315906
 20
116.08882183068664
 30
0.0
 40
0.3
 50
257.998997438636
 51
347.998997438636
  0
LINE
  5
AF
  8
0
 10
129.25337864192286
 20
116.02644318876379
 30
0.0
 11
132.03962135807717
 21
129.13355681123625
 31
0.0
  0
ARC
  5
B0
  8
0
 10
131.74617816931337
 20
129.19593545315908
 30
0.0
 40
0.3
 50
347.998997438636
 51
77.99899743863601
  0
LINE
  5
B1
  8
0
 10
131.8085568112362
 20
129.48937864192288
 30
0.0
 11
118.7014431887638
 21
132.2756213580772
 31
0.0
  0
ARC
  5
B2
  8
0
 10
118.63906454684096
 20
131.98217816931339
 30
0.0
 40
0.3
 50
77.99899743863601
 51
167.99899743863602
  0
LINE
  5
B3
  8
0
 10
118.34562135807717
 20
132.04455681123622
 30
0.0
 11
115.55937864192285
 21
118.93744318876381
 31
0.0
  0
ARC
  5
B4
  8
0
 10
115.85282183068664
 20
118.87506454684096
 30
0.0
 40
0.3
 50
167.99899743863602
 51
257.998997438636
  0
LINE
  5
B5
  8
0
 10
133.7514431887638
 20
111.69662135807717
 30
0.0
 11
146.8585568112362
 21
108.91037864192285
 31
0.0
  0
ARC
  5
B6
  8
0
 10
146.92093545315905
 20
109.20382183068664
 30
0.0
 40
0.3
 50
257.998997438636
 51
347.998997438636
  0
LINE
  5
B7
  8
0
 10
147.21437864192285
 20
109.14144318876379
 30
0.0
 11
150.00062135807715
 21
122.2485568112362
 31
0.0
  0
ARC
  5
B8
  8
0
 10
149.70717816931335
 20
122.31093545315905
 30
0.0
 40
0.3
 50
347.998997438636
 51
77.99899743863601
  0
LINE
  5
B9
  8
0
 10
149.76955681123619
 20
122.60437864192284
 30
0.0
 11
136.66244318876377
 21
125.39062135807715
 31
0.0
  0
ARC
  5
BA
  8
0
 10
136.60006454684094
 20
125.09717816931337
 30
0.0
 40
0.3
 50
77.99899743863601
 51
167.998997438636
  0
LINE
  5
BB
  8
0
 10
136.30662135807714
 20
125.15955681123621
 30
0.0
 11
133.52037864192283
 21
112.0524431887638
 31
0.0
  0
ARC
  5
BC
  8
0
 10
133.81382183068663
 20
111.99006454684096
 30
0.0
 40
0.3
 50
167.998997438636
 51
257.998997438636
  0
LINE
  5
BD
  8
0
 10
35.21344318876379
 20
105.03862135807717
 30
0.0
 11
48.320556811236216
 21
102.25237864192285
 31
0.0
  0
ARC
  5
BE
  8
0
 10
48.38293545315906
 20
102.54582183068663
 30
0.0
 40
0.3
 50
257.998997438636
 51
347.998997438636
  0
LINE
  5
BF
  8
0
 10
48.676378641922845
 20
102.48344318876379
 30
0.0
 11
51.462621358077165
 21
115.5905568112362
 31
0.0
  0
ARC
  5
C0
  8
0
 10
51.169178169313376
 20
115.65293545315905
 30
0.0
 40
0.3
 50
347.998997438636
 51
77.99899743863601
  0
LINE
  5
C1
  8
0
 10
51.23155681123622
 20
115.94637864192283
 30
0.0
 11
38.12444318876379
 21
118.73262135807715
 31
0.0
  0
ARC
  5
C2
  8
0
 10
38.06206454684095
 20
118.43917816931337
 30
0.0
 40
0.3
 50
77.99899743863601
 51
167.998997438636
  0
LINE
  5
C3
  8
0
 10
37.76862135807716
 20
118.50155681123621
 30
0.0
 11
34.98237864192284
 21
105.3944431887638
 31
0.0
  0
ARC
  5
C4
  8
0
 10
35.27582183068663
 20
105.33206454684095
 30
0.0
 40
0.3
 50
167.998997438636
 51
257.998997438636
  0
LINE
  5
C5
  8
0
 10
54.422443188763786
 20
104.02262135807716
 30
0.0
 11
67.52955681123619
 21
101.23637864192284
 31
0.0
  0
ARC
  5
C6
  8
0
 10
67.59193545315904
 20
101.52982183068663
 30
0.0
 40
0.3
 50
257.998997438636
 51
347.998997438636
  0
LINE
  5
C7
  8
0
 10
67.88537864192283
 20
101.46744318876378
 30
0.0
 11
70.67162135807715
 21
114.57455681123619
 31
0.0
  0
ARC
  5
C8
  8
0
 10
70.37817816931336
 20
114.63693545315904
 30
0.0
 40
0.3
 50
347.998997438636
 51
77.99899743863601
  0
LINE
  5
C9
  8
0
 10
70.4405568112362
 20
114.93037864192283
 30
0.0
 11
57.33344318876378
 21
117.71662135807715
 31
0.0
  0
ARC
  5
CA
  8
0
 10
57.27106454684094
 20
117.42317816931336
 30
0.0
 40
0.3
 50
77.99899743863601
 51
167.99899743863602
  0
LINE
  5
CB
  8
0
 10
56.97762135807715
 20
117.48555681123621
 30
0.0
 11
54.19137864192284
 21
104.3784431887638
 31
0.0
  0
ARC
  5
CC
  8
0
 10
54.48482183068663
 20
104.31606454684095
 30
0.0
 40
0.3
 50
167.99899743863602
 51
257.998997438636
  0
LINE
  5
CD
  8
0
 10
74.46244318876379
 20
106.91962135807717
 30
0.0
 11
87.5695568112362
 21
104.13337864192285
 31
0.0
  0
ARC
  5
CE
  8
0
 10
87.63193545315904
 20
104.42682183068663
 30
0.0
 40
0.3
 50
257.998997438636
 51
347.998997438636
  0
LINE
  5
CF
  8
0
 10
87.92537864192283
 20
104.36444318876379
 30
0.0
 11
90.71162135807715
 21
117.4715568112362
 31
0.0
  0
ARC
  5
D0
  8
0
 10
90.41817816931336
 20
117.53393545315905
 30
0.0
 40
0.3
 50
347.998997438636
 51
77.99899743863601
  0
LINE
  5
D1
  8
0
 10
90.48055681123621
 20
117.82737864192283
 30
0.0
 11
77.3734431887638
 21
120.61362135807715
 31
0.0
  0
ARC
  5
D2
  8
0
 10
77.31106454684095
 20
120.32017816931337
 30
0.0
 40
0.3
 50
77.99899743863601
 51
167.998997438636
  0
LINE
  5
D3
  8
0
 10
77.01762135807716
 20
120.38255681123621
 30
0.0
 11
74.23137864192284
 21
107.2754431887638
 31
0.0
  0
ARC
  5
D4
  8
0
 10
74.52482183068663
 20
107.21306454684095
 30
0.0
 40
0.3
 50
167.998997438636
 51
257.998997438636
  0
LINE
  5
D5
  8
0
 10
93.67044318876378
 20
105.90362135807716
 30
0.0
 11
106.7775568112362
 21
103.11737864192284
 31
0.0
  0
ARC
  5
D6
  8
0
 10
106.83993545315904
 20
103.41082183068663
 30
0.0
 40
0.3
 50
257.998997438636
 51
347.998997438636
  0
LINE
  5
D7
  8
0
 10
107.13337864192283
 20
103.34844318876378
 30
0.0
 11
109.91962135807715
 21
116.45555681123619
 31
0.0
  0
ARC
  5
D8
  8
0
 10
109.62617816931336
 20
116.51793545315904
 30
0.0
 40
0.3
 50
347.998997438636
 51
77.99899743863601
  0
LINE
  5
D9
  8
0
 10
109.68855681123621
 20
116.81137864192283
 30
0.0
 11
96.5814431887638
 21
119.59762135807715
 31
0.0
  0
ARC
  5
DA
  8
0
 10
96.51906454684095
 20
119.30417816931336
 30
0.0
 40
0.3
 50
77.99899743863601
 51
167.998997438636
  0
LINE
  5
DB
  8
0
 10
96.22562135807716
 20
119.36655681123621
 30
0.0
 11
93.43937864192284
 21
106.2594431887638
 31
0.0
  0
ARC
  5
DC
  8
0
 10
93.73282183068663
 20
106.19706454684095
 30
0.0
 40
0.3
 50
167.998997438636
 51
257.998997438636
  0
LINE
  5
DD
  8
0
 10
111.8394431887638
 20
99.99662135807716
 30
0.0
 11
124.9465568112362
 21
97.21037864192284
 31
0.0
  0
ARC
  5
DE
  8
0
 10
125.00893545315905
 20
97.50382183068663
 30
0.0
 40
0.3
 50
257.998997438636
 51
347.998997438636
  0
LINE
  5
DF
  8
0
 10
125.30237864192284
 20
97.44144318876378
 30
0.0
 11
128.08862135807718
 21
110.5485568112362
 31
0.0
  0
ARC
  5
E0
  8
0
 10
127.79517816931337
 20
110.61093545315904
 30
0.0
 40
0.3
 50
347.998997438636
 51
77.99899743863601
  0
LINE
  5
E1
  8
0
 10
127.85755681123622
 20
110.90437864192283
 30
0.0
 11
114.75044318876381
 21
113.69062135807715
 31
0.0
  0
ARC
  5
E2
  8
0
 10
114.68806454684096
 20
113.39717816931336
 30
0.0
 40
0.3
 50
77.99899743863601
 51
167.998997438636
  0
LINE
  5
E3
  8
0
 10
114.39462135807717
 20
113.45955681123621
 30
0.0
 11
111.60837864192285
 21
100.3524431887638
 31
0.0
  0
ARC
  5
E4
  8
0
 10
111.90182183068664
 20
100.29006454684095
 30
0.0
 40
0.3
 50
167.998997438636
 51
257.998997438636
  0
LINE
  5
E5
  8
0
 10
129.8004431887638
 20
93.11262135807716
 30
0.0
 11
142.90755681123622
 21
90.32637864192284
 31
0.0
  0
ARC
  5
E6
  8
0
 10
142.96993545315905
 20
90.61982183068663
 30
0.0
 40
0.3
 50
257.998997438636
 51
347.998997438636
  0
LINE
  5
E7
  8
0
 10
143.26337864192286
 20
90.55744318876378
 30
0.0
 11
146.04962135807716
 21
103.6645568112362
 31
0.0
  0
ARC
  5
E8
  8
0
 10
145.75617816931336
 20
103.72693545315904
 30
0.0
 40
0.3
 50
347.998997438636
 51
77.99899743863601
  0
LINE
  5
E9
  8
0
 10
145.8185568112362
 20
104.02037864192283
 30
0.0
 11
132.71144318876378
 21
106.80662135807715
 31
0.0
  0
ARC
  5
EA
  8
0
 10
132.64906454684095
 20
106.51317816931336
 30
0.0
 40
0.3
 50
77.99899743863601
 51
167.998997438636
  0
LINE
  5
EB
  8
0
 10
132.35562135807714
 20
106.57555681123621
 30
0.0
 11
129.56937864192284
 21
93.4684431887638
 31
0.0
  0
ARC
  5
EC
  8
0
 10
129.86282183068664
 20
93.40606454684095
 30
0.0
 40
0.3
 50
167.998997438636
 51
257.998997438636
  0
LINE
  5
ED
  8
0
 10
31.26344318876379
 20
86.45362135807717
 30
0.0
 11
44.37055681123621
 21
83.66737864192285
 31
0.0
  0
ARC
  5
EE
  8
0
 10
44.432935453159054
 20
83.96082183068664
 30
0.0
 40
0.3
 50
257.998997438636
 51
347.998997438636
  0
LINE
  5
EF
  8
0
 10
44.72637864192284
 20
83.89844318876379
 30
0.0
 11
47.51262135807716
 21
97.0055568112362
 31
0.0
  0
ARC
  5
F0
  8
0
 10
47.21917816931337
 20
97.06793545315905
 30
0.0
 40
0.3
 50
347.998997438636
 51
77.99899743863601
  0
LINE
  5
F1
  8
0
 10
47.281556811236214
 20
97.36137864192284
 30
0.0
 11
34.17444318876379
 21
100.14762135807716
 31
0.0
  0
ARC
  5
F2
  8
0
 10
34.11206454684095
 20
99.85417816931337
 30
0.0
 40
0.3
 50
77.99899743863601
 51
167.998997438636
  0
LINE
  5
F3
  8
0
 10
33.81862135807716
 20
99.91655681123622
 30
0.0
 11
31.03237864192284
 21
86.80944318876381
 31
0.0
  0
ARC
  5
F4
  8
0
 10
31.325821830686632
 20
86.74706454684096
 30
0.0
 40
0.3
 50
167.998997438636
 51
257.998997438636
  0
LINE
  5
F5
  8
0
 10
50.471443188763786
 20
85.43762135807717
 30
0.0
 11
63.57855681123621
 21
82.65137864192285
 31
0.0
  0
ARC
  5
F6
  8
0
 10
63.64093545315905
 20
82.94482183068664
 30
0.0
 40
0.3
 50
257.998997438636
 51
347.998997438636
  0
LINE
  5
F7
  8
0
 10
63.93437864192284
 20
82.88244318876379
 30
0.0
 11
66.72062135807715
 21
95.9895568112362
 31
0.0
  0
ARC
  5
F8
  8
0
 10
66.42717816931336
 20
96.05193545315905
 30
0.0
 40
0.3
 50
347.998997438636
 51
77.99899743863601
  0
LINE
  5
F9
  8
0
 10
66.48955681123621
 20
96.34537864192284
 30
0.0
 11
53.38244318876379
 21
99.13162135807715
 31
0.0
  0
ARC
  5
FA
  8
0
 10
53.320064546840946
 20
98.83817816931337
 30
0.0
 40
0.3
 50
77.99899743863601
 51
167.998997438636
  0
LINE
  5
FB
  8
0
 10
53.02662135807716
 20
98.90055681123621
 30
0.0
 11
50.24037864192284
 21
85.7934431887638
 31
0.0
  0
ARC
  5
FC
  8
0
 10
50.53382183068663
 20
85.73106454684095
 30
0.0
 40
0.3
 50
167.998997438636
 51
257.998997438636
  0
LINE
  5
FD
  8
0
 10
70.51244318876378
 20
88.33462135807717
 30
0.0
 11
83.6195568112362
 21
85.54837864192285
 31
0.0
  0
ARC
  5
FE
  8
0
 10
83.68193545315904
 20
85.84182183068664
 30
0.0
 40
0.3
 50
257.998997438636
 51
347.998997438636
  0
LINE
  5
FF
  8
0
 10
83.97537864192283
 20
85.77944318876379
 30
0.0
 11
86.76162135807715
 21
98.8865568112362
 31
0.0
  0
ARC
  5
100
  8
0
 10
86.46817816931336
 20
98.94893545315905
 30
0.0
 40
0.3
 50
347.998997438636
 51
77.99899743863601
  0
LINE
  5
101
  8
0
 10
86.53055681123621
 20
99.24237864192284
 30
0.0
 11
73.4234431887638
 21
102.02862135807716
 31
0.0
  0
ARC
  5
102
  8
0
 10
73.36106454684095
 20
101.73517816931337
 30
0.0
 40
0.3
 50
77.99899743863601
 51
167.998997438636
  0
LINE
  5
103
  8
0
 10
73.06762135807716
 20
101.79755681123622
 30
0.0
 11
70.28137864192284
 21
88.69044318876381
 31
0.0
  0
ARC
  5
104
  8
0
 10
70.57482183068663
 20
88.62806454684096
 30
0.0
 40
0.3
 50
167.998997438636
 51
257.998997438636
  0
LINE
  5
105
  8
0
 10
89.7204431887638
 20
87.31862135807717
 30
0.0
 11
102.8275568112362
 21
84.53237864192285
 31
0.0
  0
ARC
  5
106
  8
0
 10
102.88993545315905
 20
84.82582183068664
 30
0.0
 40
0.3
 50
257.998997438636
 51
347.998997438636
  0
LINE
  5
107
  8
0
 10
103.18337864192284
 20
84.76344318876379
 30
0.0
 11
105.96962135807716
 21
97.8705568112362
 31
0.0
  0
ARC
  5
108
  8
0
 10
105.67617816931337
 20
97.93293545315905
 30
0.0
 40
0.3
 50
347.998997438636
 51
77.99899743863601
  0
LINE
  5
109
  8
0
 10
105.73855681123622
 20
98.22637864192284
 30
0.0
 11
92.63144318876381
 21
101.01262135807715
 31
0.0
  0
ARC
  5
10A
  8
0
 10
92.56906454684096
 20
100.71917816931337
 30
0.0
 40
0.3
 50
77.99899743863601
 51
167.998997438636
  0
LINE
  5
10B
  8
0
 10
92.27562135807717
 20
100.78155681123621
 30
0.0
 11
89.48937864192285
 21
87.6744431887638
 31
0.0
  0
ARC
  5
10C
  8
0
 10
89.78282183068664
 20
87.61206454684095
 30
0.0
 40
0.3
 50
167.998997438636
 51
257.998997438636
  0
LINE
  5
10D
  8
0
 10
107.88944318876379
 20
81.41262135807716
 30
0.0
 11
120.9965568112362
 21
78.62637864192284
 31
0.0
  0
ARC
  5
10E
  8
0
 10
121.05893545315905
 20
78.91982183068663
 30
0.0
 40
0.3
 50
257.998997438636
 51
347.998997438636
  0
LINE
  5
10F
  8
0
 10
121.35237864192284
 20
78.85744318876378
 30
0.0
 11
124.13862135807716
 21
91.96455681123619
 31
0.0
  0
ARC
  5
110
  8
0
 10
123.84517816931337
 20
92.02693545315904
 30
0.0
 40
0.3
 50
347.998997438636
 51
77.99899743863601
  0
LINE
  5
111
  8
0
 10
123.90755681123622
 20
92.32037864192283
 30
0.0
 11
110.80044318876381
 21
95.10662135807715
 31
0.0
  0
ARC
  5
112
  8
0
 10
110.73806454684096
 20
94.81317816931336
 30
0.0
 40
0.3
 50
77.99899743863601
 51
167.998997438636
  0
LINE
  5
113
  8
0
 10
110.44462135807717
 20
94.87555681123621
 30
0.0
 11
107.65837864192285
 21
81.7684431887638
 31
0.0
  0
ARC
  5
114
  8
0
 10
107.95182183068664
 20
81.70606454684095
 30
0.0
 40
0.3
 50
167.998997438636
 51
257.998997438636
  0
LINE
  5
115
  8
0
 10
125.85044318876379
 20
74.52762135807717
 30
0.0
 11
138.95755681123623
 21
71.74137864192285
 31
0.0
  0
ARC
  5
116
  8
0
 10
139.01993545315906
 20
72.03482183068664
 30
0.0
 40
0.3
 50
257.998997438636
 51
347.998997438636
  0
LINE
  5
117
  8
0
 10
139.31337864192287
 20
71.97244318876379
 30
0.0
 11
142.09962135807717
 21
85.0795568112362
 31
0.0
  0
ARC
  5
118
  8
0
 10
141.80617816931337
 20
85.14193545315905
 30
0.0
 40
0.3
 50
347.998997438636
 51
77.99899743863601
  0
LINE
  5
119
  8
0
 10
141.8685568112362
 20
85.43537864192284
 30
0.0
 11
128.7614431887638
 21
88.22162135807716
 31
0.0
  0
ARC
  5
11A
  8
0
 10
128.69906454684096
 20
87.92817816931337
 30
0.0
 40
0.3
 50
77.99899743863601
 51
167.99899743863597
  0
LINE
  5
11B
  8
0
 10
128.40562135807716
 20
87.99055681123622
 30
0.0
 11
125.61937864192285
 21
74.8834431887638
 31
0.0
  0
ARC
  5
11C
  8
0
 10
125.91282183068664
 20
74.82106454684096
 30
0.0
 40
0.3
 50
167.99899743863597
 51
257.998997438636
  0
LINE
  5
11D
  8
0
 10
93.7383052374472
 20
57.674753353124565
 30
0.0
 11
106.30369476255278
 21
53.01824664687542
 31
0.0
  0
ARC
  5
11E
  8
0
 10
106.40794140942822
 20
53.299551884322625
 30
0.0
 40
0.3
 50
249.66620298811722
 51
339.6662029881173
  0
LINE
  5
11F
  8
0
 10
106.68924664687542
 20
53.195305237447194
 30
0.0
 11
111.34575335312455
 21
65.76069476255277
 31
0.0
  0
ARC
  5
120
  8
0
 10
111.06444811567735
 20
65.8649414094282
 30
0.0
 40
0.3
 50
339.6662029881173
 51
69.66620298811722
  0
LINE
  5
121
  8
0
 10
111.16869476255278
 20
66.1462466468754
 30
0.0
 11
98.60330523744719
 21
70.80275335312454
 31
0.0
  0
ARC
  5
122
  8
0
 10
98.49905859057176
 20
70.52144811567734
 30
0.0
 40
0.3
 50
69.66620298811722
 51
159.66620298811725
  0
LINE
  5
123
  8
0
 10
98.21775335312456
 20
70.62569476255277
 30
0.0
 11
93.56124664687543
 21
58.0603052374472
 31
0.0
  0
ARC
  5
124
  8
0
 10
93.84255188432263
 20
57.95605859057177
 30
0.0
 40
0.3
 50
159.66620298811725
 51
249.66620298811722
  0
LINE
  5
125
  8
0
 10
111.40773530847495
 20
50.324493144845306
 30
0.0
 11
122.33926469152506
 21
42.574506855154674
 31
0.0
  0
ARC
  5
126
  8
0
 10
122.51277154667974
 20
42.819242163629625
 30
0.0
 40
0.3
 50
234.66499176656208
 51
324.664991766562
  0
LINE
  5
127
  8
0
 10
122.7575068551547
 20
42.64573530847493
 30
0.0
 11
130.50749314484534
 21
53.577264691525016
 31
0.0
  0
ARC
  5
128
  8
0
 10
130.26275783637038
 20
53.75077154667971
 30
0.0
 40
0.3
 50
324.664991766562
 51
54.66499176656206
  0
LINE
  5
129
  8
0
 10
130.43626469152508
 20
53.99550685515466
 30
0.0
 11
119.50473530847496
 21
61.74549314484529
 31
0.0
  0
ARC
  5
12A
  8
0
 10
119.33122845332028
 20
61.50075783637034
 30
0.0
 40
0.3
 50
54.66499176656206
 51
144.66499176656203
  0
LINE
  5
12B
  8
0
 10
119.08649314484532
 20
61.67426469152503
 30
0.0
 11
111.33650685515468
 21
50.74273530847495
 31
0.0
  0
ARC
  5
12C
  8
0
 10
111.58124216362964
 20
50.56922845332026
 30
0.0
 40
0.3
 50
144.66499176656203
 51
234.66499176656208
  0
LINE
  5
12D
  8
0
 10
126.57148775373885
 20
38.65106182609182
 30
0.0
 11
135.12451224626116
 21
28.335938173908207
 31
0.0
  0
ARC
  5
12E
  8
0
 10
135.35545042016935
 20
28.52742592764706
 30
0.0
 40
0.3
 50
219.66461397062318
 51
309.6646139706232
  0
LINE
  5
12F
  8
0
 10
135.5469381739082
 20
28.29648775373887
 30
0.0
 11
145.8620618260918
 21
36.84951224626117
 31
0.0
  0
ARC
  5
130
  8
0
 10
145.67057407235296
 20
37.08045042016936
 30
0.0
 40
0.3
 50
309.6646139706232
 51
39.66461397062317
  0
LINE
  5
131
  8
0
 10
145.90151224626115
 20
37.27193817390821
 30
0.0
 11
137.34848775373882
 21
47.58706182609182
 31
0.0
  0
ARC
  5
132
  8
0
 10
137.11754957983064
 20
47.39557407235297
 30
0.0
 40
0.3
 50
39.66461397062317
 51
129.66461397062318
  0
LINE
  5
133
  8
0
 10
136.9260618260918
 20
47.626512246261164
 30
0.0
 11
126.61093817390818
 21
39.07348775373886
 31
0.0
  0
ARC
  5
134
  8
0
 10
126.80242592764704
 20
38.84254957983067
 30
0.0
 40
0.3
 50
129.66461397062318
 51
219.66461397062318
  0
LINE
  5
135
  8
0
 10
138.19720223132103
 20
23.45037498047277
 30
0.0
 11
143.78979776867894
 21
11.272625019527245
 31
0.0
  0
ARC
  5
136
  8
0
 10
144.0624227882062
 20
11.397827250848293
 30
0.0
 40
0.3
 50
204.66681272515095
 51
294.666812725151
  0
LINE
  5
137
  8
0
 10
144.18762501952725
 20
11.125202231321047
 30
0.0
 11
156.36537498047278
 21
16.717797768678942
 31
0.0
  0
ARC
  5
138
  8
0
 10
156.24017274915172
 20
16.990422788206185
 30
0.0
 40
0.3
 50
294.666812725151
 51
24.66681272515097
  0
LINE
  5
139
  8
0
 10
156.51279776867898
 20
17.115625019527233
 30
0.0
 11
150.92020223132107
 21
29.293374980472755
 31
0.0
  0
ARC
  5
13A
  8
0
 10
150.64757721179382
 20
29.168172749151708
 30
0.0
 40
0.3
 50
24.66681272515097
 51
114.66681272515098
  0
LINE
  5
13B
  8
0
 10
150.52237498047276
 20
29.440797768678955
 30
0.0
 11
138.34462501952723
 21
23.84820223132106
 31
0.0
  0
ARC
  5
13C
  8
0
 10
138.46982725084828
 20
23.575577211793817
 30
0.0
 40
0.3
 50
114.66681272515098
 51
204.66681272515095
  0
LINE
  5
13D
  8
0
 10
173.3
 20
123.0
 30
0.0
 11
186.7
 21
123.0
 31
0.0
  0
ARC
  5
13E
  8
0
 10
186.7
 20
123.3
 30
0.0
 40
0.3
 50
270.0
 51
0.0
  0
LINE
  5
13F
  8
0
 10
187.0
 20
123.3
 30
0.0
 11
187.0
 21
136.7
 31
0.0
  0
ARC
  5
140
  8
0
 10
186.7
 20
136.7
 30
0.0
 40
0.3
 50
0.0
 51
90.0
  0
LINE
  5
141
  8
0
 10
186.7
 20
137.0
 30
0.0
 11
173.3
 21
137.0
 31
0.0
  0
ARC
  5
142
  8
0
 10
173.3
 20
136.7
 30
0.0
 40
0.3
 50
90.0
 51
180.0
  0
LINE
  5
143
  8
0
 10
173.0
 20
136.7
 30
0.0
 11
173.0
 21
123.3
 31
0.0
  0
ARC
  5
144
  8
0
 10
173.3
 20
123.3
 30
0.0
 40
0.3
 50
180.0
 51
270.0
  0
LINE
  5
145
  8
0
 10
173.3
 20
104.0
 30
0.0
 11
186.7
 21
104.0
 31
0.0
  0
ARC
  5
146
  8
0
 10
186.7
 20
104.3
 30
0.0
 40
0.3
 50
270.0
 51
0.0
  0
LINE
  5
147
  8
0
 10
187.0
 20
104.3
 30
0.0
 11
187.0
 21
117.7
 31
0.0
  0
ARC
  5
148
  8
0
 10
186.7
 20
117.7
 30
0.0
 40
0.3
 50
0.0
 51
90.0
  0
LINE
  5
149
  8
0
 10
186.7
 20
118.0
 30
0.0
 11
173.3
 21
118.0
 31
0.0
  0
ARC
  5
14A
  8
0
 10
173.3
 20
117.7
 30
0.0
 40
0.3
 50
90.0
 51
180.0
  0
LINE
  5
14B
  8
0
 10
173.0
 20
117.7
 30
0.0
 11
173.0
 21
104.3
 31
0.0
  0
ARC
  5
14C
  8
0
 10
173.3
 20
104.3
 30
0.0
 40
0.3
 50
180.0
 51
270.0
  0
LINE
  5
14D
  8
0
 10
173.3
 20
85.0
 30
0.0
 11
186.7
 21
85.0
 31
0.0
  0
ARC
  5
14E
  8
0
 10
186.7
 20
85.3
 30
0.0
 40
0.3
 50
270.0
 51
0.0
  0
LINE
  5
14F
  8
0
 10
187.0
 20
85.3
 30
0.0
 11
187.0
 21
98.7
 31
0.0
  0
ARC
  5
150
  8
0
 10
186.7
 20
98.7
 30
0.0
 40
0.3
 50
0.0
 51
90.0
  0
LINE
  5
151
  8
0
 10
186.7
 20
99.0
 30
0.0
 11
173.3
 21
99.0
 31
0.0
  0
ARC
  5
152
  8
0
 10
173.3
 20
98.7
 30
0.0
 40
0.3
 50
90.0
 51
180.0
  0
LINE
  5
153
  8
0
 10
173.0
 20
98.7
 30
0.0
 11
173.0
 21
85.3
 31
0.0
  0
ARC
  5
154
  8
0
 10
173.3
 20
85.3
 30
0.0
 40
0.3
 50
180.0
 51
270.0
  0
LINE
  5
155
  8
0
 10
173.3
 20
59.0
 30
0.0
 11
186.7
 21
59.0
 31
0.0
  0
ARC
  5
156
  8
0
 10
186.7
 20
59.3
 30
0.0
 40
0.3
 50
270.0
 51
0.0
  0
LINE
  5
157
  8
0
 10
187.0
 20
59.3
 30
0.0
 11
187.0
 21
72.7
 31
0.0
  0
ARC
  5
158
  8
0
 10
186.7
 20
72.7
 30
0.0
 40
0.3
 50
0.0
 51
90.0
  0
LINE
  5
159
  8
0
 10
186.7
 20
73.0
 30
0.0
 11
173.3
 21
73.0
 31
0.0
  0
ARC
  5
15A
  8
0
 10
173.3
 20
72.7
 30
0.0
 40
0.3
 50
90.0
 51
180.0
  0
LINE
  5
15B
  8
0
 10
173.0
 20
72.7
 30
0.0
 11
173.0
 21
59.3
 31
0.0
  0
ARC
  5
15C
  8
0
 10
173.3
 20
59.3
 30
0.0
 40
0.3
 50
180.0
 51
270.0
  0
LINE
  5
15D
  8
0
 10
154.3
 20
40.0
 30
0.0
 11
167.7
 21
40.0
 31
0.0
  0
ARC
  5
15E
  8
0
 10
167.7
 20
40.3
 30
0.0
 40
0.3
 50
270.0
 51
0.0
  0
LINE
  5
15F
  8
0
 10
168.0
 20
40.3
 30
0.0
 11
168.0
 21
53.7
 31
0.0
  0
ARC
  5
160
  8
0
 10
167.7
 20
53.7
 30
0.0
 40
0.3
 50
0.0
 51
90.0
  0
LINE
  5
161
  8
0
 10
167.7
 20
54.0
 30
0.0
 11
154.3
 21
54.0
 31
0.0
  0
ARC
  5
162
  8
0
 10
154.3
 20
53.7
 30
0.0
 40
0.3
 50
90.0
 51
180.0
  0
LINE
  5
163
  8
0
 10
154.0
 20
53.7
 30
0.0
 11
154.0
 21
40.3
 31
0.0
  0
ARC
  5
164
  8
0
 10
154.3
 20
40.3
 30
0.0
 40
0.3
 50
180.0
 51
270.0
  0
LINE
  5
165
  8
0
 10
173.3
 20
40.0
 30
0.0
 11
186.7
 21
40.0
 31
0.0
  0
ARC
  5
166
  8
0
 10
186.7
 20
40.3
 30
0.0
 40
0.3
 50
270.0
 51
0.0
  0
LINE
  5
167
  8
0
 10
187.0
 20
40.3
 30
0.0
 11
187.0
 21
53.7
 31
0.0
  0
ARC
  5
168
  8
0
 10
186.7
 20
53.7
 30
0.0
 40
0.3
 50
0.0
 51
90.0
  0
LINE
  5
169
  8
0
 10
186.7
 20
54.0
 30
0.0
 11
173.3
 21
54.0
 31
0.0
  0
ARC
  5
16A
  8
0
 10
173.3
 20
53.7
 30
0.0
 40
0.3
 50
90.0
 51
180.0
  0
LINE
  5
16B
  8
0
 10
173.0
 20
53.7
 30
0.0
 11
173.0
 21
40.3
 31
0.0
  0
ARC
  5
16C
  8
0
 10
173.3
 20
40.3
 30
0.0
 40
0.3
 50
180.0
 51
270.0
  0
LINE
  5
16D
  8
0
 10
192.3
 20
40.0
 30
0.0
 11
205.7
 21
40.0
 31
0.0
  0
ARC
  5
16E
  8
0
 10
205.7
 20
40.3
 30
0.0
 40
0.3
 50
270.0
 51
0.0
  0
LINE
  5
16F
  8
0
 10
206.0
 20
40.3
 30
0.0
 11
206.0
 21
53.7
 31
0.0
  0
ARC
  5
170
  8
0
 10
205.7
 20
53.7
 30
0.0
 40
0.3
 50
0.0
 51
90.0
  0
LINE
  5
171
  8
0
 10
205.7
 20
54.0
 30
0.0
 11
192.3
 21
54.0
 31
0.0
  0
ARC
  5
172
  8
0
 10
192.3
 20
53.7
 30
0.0
 40
0.3
 50
90.0
 51
180.0
  0
LINE
  5
173
  8
0
 10
192.0
 20
53.7
 30
0.0
 11
192.0
 21
40.3
 31
0.0
  0
ARC
  5
174
  8
0
 10
192.3
 20
40.3
 30
0.0
 40
0.3
 50
180.0
 51
270.0
  0
LINE
  5
175
  8
0
 10
216.20978717123862
 20
11.26954375828658
 30
0.0
 11
221.80379776867898
 21
23.45037498047277
 31
0.0
  0
ARC
  5
176
  8
0
 10
221.53117274915172
 20
23.575577211793817
 30
0.0
 40
0.3
 50
335.333187274849
 51
65.33318727484904
  0
LINE
  5
177
  8
0
 10
221.65637498047278
 20
23.84820223132106
 30
0.0
 11
209.47187153038934
 21
29.443899288527476
 31
0.0
  0
ARC
  5
178
  8
0
 10
209.34666929906828
 20
29.17127426900023
 30
0.0
 40
0.3
 50
65.33318727484904
 51
153.89612648233395
  0
LINE
  5
179
  8
0
 10
209.0772699496661
 20
29.30327423317324
 30
0.0
 11
203.10890092264367
 21
17.12240173865826
 31
0.0
  0
ARC
  5
17A
  8
0
 10
203.37830027204586
 20
16.99040177448525
 30
0.0
 40
0.3
 50
153.89612648233395
 51
245.9844286270235
  0
LINE
  5
17B
  8
0
 10
203.2562048008821
 20
16.71637130916925
 30
0.0
 11
215.8150666805476
 21
11.12071552429163
 31
0.0
  0
ARC
  5
17C
  8
0
 10
215.93716215171136
 20
11.394745989607628
 30
0.0
 40
0.3
 50
245.9844286270235
 51
335.333187274849
  0
LINE
  5
17D
  8
0
 10
224.87648775373884
 20
28.334938173908203
 30
0.0
 11
233.42951224626117
 21
38.650061826091815
 31
0.0
  0
ARC
  5
17E
  8
0
 10
233.19857407235298
 20
38.84154957983066
 30
0.0
 40
0.3
 50
320.3353860293768
 51
50.33538602937683
  0
LINE
  5
17F
  8
0
 10
233.39006182609182
 20
39.072487753738855
 30
0.0
 11
223.0749381739082
 21
47.62551224626116
 31
0.0
  0
ARC
  5
180
  8
0
 10
222.88345042016937
 20
47.39457407235297
 30
0.0
 40
0.3
 50
50.33538602937683
 51
140.33538602937682
  0
LINE
  5
181
  8
0
 10
222.65251224626118
 20
47.586061826091814
 30
0.0
 11
214.09948775373886
 21
37.270938173908206
 31
0.0
  0
ARC
  5
182
  8
0
 10
214.33042592764704
 20
37.07945042016936
 30
0.0
 40
0.3
 50
140.33538602937682
 51
230.33538602937682
  0
LINE
  5
183
  8
0
 10
214.1389381739082
 20
36.848512246261166
 30
0.0
 11
224.45406182609182
 21
28.295487753738865
 31
0.0
  0
ARC
  5
184
  8
0
 10
224.64554957983066
 20
28.526425927647054
 30
0.0
 40
0.3
 50
230.33538602937682
 51
320.3353860293768
  0
LINE
  5
185
  8
0
 10
237.66173530847496
 20
42.5745068551547
 30
0.0
 11
248.59326469152506
 21
50.324493144845334
 31
0.0
  0
ARC
  5
186
  8
0
 10
248.41975783637037
 20
50.569228453320285
 30
0.0
 40
0.3
 50
305.3350082334379
 51
35.33500823343795
  0
LINE
  5
187
  8
0
 10
248.66449314484532
 20
50.74273530847497
 30
0.0
 11
240.91450685515468
 21
61.67426469152505
 31
0.0
  0
ARC
  5
188
  8
0
 10
240.66977154667973
 20
61.50075783637037
 30
0.0
 40
0.3
 50
35.33500823343795
 51
125.33500823343795
  0
LINE
  5
189
  8
0
 10
240.49626469152503
 20
61.74549314484532
 30
0.0
 11
229.56473530847492
 21
53.99550685515469
 31
0.0
  0
ARC
  5
18A
  8
0
 10
229.73824216362962
 20
53.750771546679736
 30
0.0
 40
0.3
 50
125.33500823343795
 51
215.33500823343792
  0
LINE
  5
18B
  8
0
 10
229.49350685515466
 20
53.57726469152505
 30
0.0
 11
237.2434931448453
 21
42.64573530847497
 31
0.0
  0
ARC
  5
18C
  8
0
 10
237.48822845332026
 20
42.81924216362965
 30
0.0
 40
0.3
 50
215.33500823343792
 51
305.3350082334379
  0
LINE
  5
18D
  8
0
 10
253.69730523744718
 20
53.01824664687542
 30
0.0
 11
266.26269476255277
 21
57.674753353124565
 31
0.0
  0
ARC
  5
18E
  8
0
 10
266.15844811567734
 20
57.95605859057177
 30
0.0
 40
0.3
 50
290.3337970118828
 51
20.3337970118828
  0
LINE
  5
18F
  8
0
 10
266.43975335312456
 20
58.0603052374472
 30
0.0
 11
261.7832466468754
 21
70.62569476255278
 31
0.0
  0
ARC
  5
190
  8
0
 10
261.5019414094282
 20
70.52144811567734
 30
0.0
 40
0.3
 50
20.3337970118828
 51
110.33379701188281
  0
LINE
  5
191
  8
0
 10
261.39769476255276
 20
70.80275335312454
 30
0.0
 11
248.8323052374472
 21
66.1462466468754
 31
0.0
  0
ARC
  5
192
  8
0
 10
248.93655188432263
 20
65.8649414094282
 30
0.0
 40
0.3
 50
110.33379701188281
 51
200.33379701188278
  0
LINE
  5
193
  8
0
 10
248.6552466468754
 20
65.76069476255277
 30
0.0
 11
253.31175335312454
 21
53.195305237447194
 31
0.0
  0
ARC
  5
194
  8
0
 10
253.59305859057176
 20
53.299551884322625
 30
0.0
 40
0.3
 50
200.33379701188278
 51
290.3337970118828
  0
LINE
  5
195
  8
0
 10
202.89343161860077
 20
157.90717182988487
 30
0.0
 11
216.17856838139923
 21
159.65682817011512
 31
0.0
  0
ARC
  5
196
  8
0
 10
216.13939655151435
 20
159.9542597887159
 30
0.0
 40
0.3
 50
277.50269153192016
 51
7.502691531920115
  0
LINE
  5
197
  8
0
 10
216.43682817011512
 20
159.99343161860077
 30
0.0
 11
214.68717182988487
 21
173.27856838139925
 31
0.0
  0
ARC
  5
198
  8
0
 10
214.3897402112841
 20
173.23939655151437
 30
0.0
 40
0.3
 50
7.502691531920115
 51
97.50269153192014
  0
LINE
  5
199
  8
0
 10
214.35056838139923
 20
173.53682817011514
 30
0.0
 11
201.06543161860077
 21
171.7871718298849
 31
0.0
  0
ARC
  5
19A
  8
0
 10
201.10460344848565
 20
171.48974021128413
 30
0.0
 40
0.3
 50
97.50269153192014
 51
187.5026915319201
  0
LINE
  5
19B
  8
0
 10
200.80717182988488
 20
171.45056838139925
 30
0.0
 11
202.55682817011512
 21
158.16543161860076
 31
0.0
  0
ARC
  5
19C
  8
0
 10
202.8542597887159
 20
158.20460344848564
 30
0.0
 40
0.3
 50
187.5026915319201
 51
277.50269153192016
  0
LINE
  5
19D
  8
0
 10
221.73143161860077
 20
160.3861718298849
 30
0.0
 11
235.01656838139922
 21
162.13582817011513
 31
0.0
  0
ARC
  5
19E
  8
0
 10
234.97739655151435
 20
162.4332597887159
 30
0.0
 40
0.3
 50
277.50269153192016
 51
7.502691531920132
  0
LINE
  5
19F
  8
0
 10
235.27482817011511
 20
162.47243161860078
 30
0.0
 11
233.52517182988487
 21
175.75756838139924
 31
0.0
  0
ARC
  5
1A0
  8
0
 10
233.2277402112841
 20
175.71839655151436
 30
0.0
 40
0.3
 50
7.502691531920132
 51
97.50269153192014
  0
LINE
  5
1A1
  8
0
 10
233.18856838139922
 20
176.01582817011513
 30
0.0
 11
219.90343161860076
 21
174.26617182988488
 31
0.0
  0
ARC
  5
1A2
  8
0
 10
219.94260344848564
 20
173.9687402112841
 30
0.0
 40
0.3
 50
97.50269153192014
 51
187.50269153192014
  0
LINE
  5
1A3
  8
0
 10
219.64517182988487
 20
173.92956838139924
 30
0.0
 11
221.39482817011512
 21
160.64443161860078
 31
0.0
  0
ARC
  5
1A4
  8
0
 10
221.6922597887159
 20
160.68360344848566
 30
0.0
 40
0.3
 50
187.50269153192014
 51
277.50269153192016
  0
LINE
  5
1A5
  8
0
 10
240.56943161860076
 20
162.86617182988488
 30
0.0
 11
253.85456838139922
 21
164.61582817011512
 31
0.0
  0
ARC
  5
1A6
  8
0
 10
253.81539655151434
 20
164.9132597887159
 30
0.0
 40
0.3
 50
277.50269153192016
 51
7.502691531920132
  0
LINE
  5
1A7
  8
0
 10
254.1128281701151
 20
164.95243161860077
 30
0.0
 11
252.36317182988486
 21
178.23756838139923
 31
0.0
  0
ARC
  5
1A8
  8
0
 10
252.0657402112841
 20
178.19839655151435
 30
0.0
 40
0.3
 50
7.502691531920132
 51
97.50269153192014
  0
LINE
  5
1A9
  8
0
 10
252.02656838139922
 20
178.49582817011512
 30
0.0
 11
238.74143161860076
 21
176.74617182988487
 31
0.0
  0
ARC
  5
1AA
  8
0
 10
238.78060344848564
 20
176.4487402112841
 30
0.0
 40
0.3
 50
97.50269153192014
 51
187.50269153192014
  0
LINE
  5
1AB
  8
0
 10
238.48317182988487
 20
176.40956838139923
 30
0.0
 11
240.2328281701151
 21
163.12443161860077
 31
0.0
  0
ARC
  5
1AC
  8
0
 10
240.53025978871588
 20
163.16360344848565
 30
0.0
 40
0.3
 50
187.50269153192014
 51
277.50269153192016
  0
LINE
  5
1AD
  8
0
 10
259.4064316186007
 20
165.34717182988487
 30
0.0
 11
272.69156838139924
 21
167.09682817011512
 31
0.0
  0
ARC
  5
1AE
  8
0
 10
272.65239655151436
 20
167.39425978871589
 30
0.0
 40
0.3
 50
277.50269153192016
 51
7.50269153192
  0
LINE
  5
1AF
  8
0
 10
272.9498281701151
 20
167.43343161860076
 30
0.0
 11
271.2001718298849
 21
180.71856838139925
 31
0.0
  0
ARC
  5
1B0
  8
0
 10
270.90274021128414
 20
180.67939655151437
 30
0.0
 40
0.3
 50
7.50269153192
 51
97.50269153192014
  0
LINE
  5
1B1
  8
0
 10
270.86356838139926
 20
180.97682817011514
 30
0.0
 11
257.57843161860075
 21
179.2271718298849
 31
0.0
  0
ARC
  5
1B2
  8
0
 10
257.6176034484856
 20
178.92974021128413
 30
0.0
 40
0.3
 50
97.50269153192014
 51
187.50269153192
  0
LINE
  5
1B3
  8
0
 10
257.3201718298849
 20
178.89056838139925
 30
0.0
 11
259.0698281701151
 21
165.60543161860076
 31
0.0
  0
ARC
  5
1B4
  8
0
 10
259.36725978871584
 20
165.64460344848564
 30
0.0
 40
0.3
 50
187.50269153192
 51
277.50269153192016
  0
LINE
  5
1B5
  8
0
 10
278.24343161860077
 20
167.8271718298849
 30
0.0
 11
291.5285683813993
 21
169.5768281701151
 31
0.0
  0
ARC
  5
1B6
  8
0
 10
291.4893965515144
 20
169.87425978871588
 30
0.0
 40
0.3
 50
277.50269153192
 51
7.502691531920016
  0
LINE
  5
1B7
  8
0
 10
291.78682817011514
 20
169.91343161860075
 30
0.0
 11
290.0371718298849
 21
183.1985683813992
 31
0.0
  0
ARC
  5
1B8
  8
0
 10
289.7397402112842
 20
183.15939655151433
 30
0.0
 40
0.3
 50
7.502691531920016
 51
97.50269153192002
  0
LINE
  5
1B9
  8
0
 10
289.7005683813993
 20
183.4568281701151
 30
0.0
 11
276.4154316186008
 21
181.70717182988489
 31
0.0
  0
ARC
  5
1BA
  8
0
 10
276.45460344848567
 20
181.40974021128412
 30
0.0
 40
0.3
 50
97.50269153192002
 51
187.50269153192002
  0
LINE
  5
1BB
  8
0
 10
276.15717182988493
 20
181.37056838139924
 30
0.0
 11
277.90682817011515
 21
168.08543161860078
 31
0.0
  0
ARC
  5
1BC
  8
0
 10
278.2042597887159
 20
168.12460344848566
 30
0.0
 40
0.3
 50
187.50269153192002
 51
277.50269153192
  0
LINE
  5
1BD
  8
0
 10
297.08143161860073
 20
170.30617182988487
 30
0.0
 11
310.36656838139925
 21
172.05582817011512
 31
0.0
  0
ARC
  5
1BE
  8
0
 10
310.32739655151437
 20
172.3532597887159
 30
0.0
 40
0.3
 50
277.50269153192016
 51
7.502691531920016
  0
LINE
  5
1BF
  8
0
 10
310.6248281701151
 20
172.39243161860077
 30
0.0
 11
308.8751718298849
 21
185.67756838139923
 31
0.0
  0
ARC
  5
1C0
  8
0
 10
308.57774021128415
 20
185.63839655151435
 30
0.0
 40
0.3
 50
7.502691531920016
 51
97.50269153192014
  0
LINE
  5
1C1
  8
0
 10
308.5385683813993
 20
185.93582817011512
 30
0.0
 11
295.25343161860076
 21
184.18617182988487
 31
0.0
  0
ARC
  5
1C2
  8
0
 10
295.29260344848564
 20
183.8887402112841
 30
0.0
 40
0.3
 50
97.50269153192014
 51
187.50269153192002
  0
LINE
  5
1C3
  8
0
 10
294.9951718298849
 20
183.84956838139922
 30
0.0
 11
296.7448281701151
 21
170.56443161860076
 31
0.0
  0
ARC
  5
1C4
  8
0
 10
297.04225978871585
 20
170.60360344848564
 30
0.0
 40
0.3
 50
187.50269153192002
 51
277.50269153192016
  0
LINE
  5
1C5
  8
0
 10
315.9184316186007
 20
172.78717182988487
 30
0.0
 11
329.20356838139924
 21
174.53682817011511
 31
0.0
  0
ARC
  5
1C6
  8
0
 10
329.16439655151436
 20
174.83425978871588
 30
0.0
 40
0.3
 50
277.50269153192016
 51
7.502691531920016
  0
LINE
  5
1C7
  8
0
 10
329.4618281701151
 20
174.87343161860076
 30
0.0
 11
327.7121718298849
 21
188.15856838139922
 31
0.0
  0
ARC
  5
1C8
  8
0
 10
327.41474021128414
 20
188.11939655151434
 30
0.0
 40
0.3
 50
7.502691531920016
 51
97.50269153192002
  0
LINE
  5
1C9
  8
0
 10
327.37556838139926
 20
188.4168281701151
 30
0.0
 11
314.09043161860075
 21
186.6671718298849
 31
0.0
  0
ARC
  5
1CA
  8
0
 10
314.1296034484856
 20
186.36974021128412
 30
0.0
 40
0.3
 50
97.50269153192002
 51
187.50269153192
  0
LINE
  5
1CB
  8
0
 10
313.8321718298849
 20
186.33056838139925
 30
0.0
 11
315.5818281701151
 21
173.04543161860076
 31
0.0
  0
ARC
  5
1CC
  8
0
 10
315.87925978871584
 20
173.08460344848564
 30
0.0
 40
0.3
 50
187.50269153192
 51
277.50269153192016
  0
LINE
  5
1CD
  8
0
 10
209.19544318876376
 20
127.49637864192285
 30
0.0
 11
222.30255681123617
 21
130.28262135807714
 31
0.0
  0
ARC
  5
1CE
  8
0
 10
222.24017816931334
 20
130.57606454684094
 30
0.0
 40
0.3
 50
282.001002561364
 51
12.001002561364002
  0
LINE
  5
1CF
  8
0
 10
222.53362135807714
 20
130.63844318876377
 30
0.0
 11
219.74737864192284
 21
143.74555681123618
 31
0.0
  0
ARC
  5
1D0
  8
0
 10
219.45393545315903
 20
143.68317816931335
 30
0.0
 40
0.3
 50
12.001002561364002
 51
102.001002561364
  0
LINE
  5
1D1
  8
0
 10
219.3915568112362
 20
143.97662135807715
 30
0.0
 11
206.2844431887638
 21
141.19037864192285
 31
0.0
  0
ARC
  5
1D2
  8
0
 10
206.34682183068662
 20
140.89693545315905
 30
0.0
 40
0.3
 50
102.001002561364
 51
192.001002561364
  0
LINE
  5
1D3
  8
0
 10
206.05337864192282
 20
140.8345568112362
 30
0.0
 11
208.83962135807712
 21
127.72744318876379
 31
0.0
  0
ARC
  5
1D4
  8
0
 10
209.13306454684093
 20
127.78982183068663
 30
0.0
 40
0.3
 50
192.001002561364
 51
282.001002561364
  0
LINE
  5
1D5
  8
0
 10
227.15644318876377
 20
134.38037864192282
 30
0.0
 11
240.26355681123619
 21
137.16662135807712
 31
0.0
  0
ARC
  5
1D6
  8
0
 10
240.20117816931335
 20
137.46006454684093
 30
0.0
 40
0.3
 50
282.001002561364
 51
12.001002561363979
  0
LINE
  5
1D7
  8
0
 10
240.49462135807715
 20
137.52244318876376
 30
0.0
 11
237.70837864192285
 21
150.6295568112362
 31
0.0
  0
ARC
  5
1D8
  8
0
 10
237.41493545315905
 20
150.56717816931337
 30
0.0
 40
0.3
 50
12.001002561363979
 51
102.001002561364
  0
LINE
  5
1D9
  8
0
 10
237.3525568112362
 20
150.86062135807717
 30
0.0
 11
224.2454431887638
 21
148.07437864192286
 31
0.0
  0
ARC
  5
1DA
  8
0
 10
224.30782183068663
 20
147.78093545315906
 30
0.0
 40
0.3
 50
102.001002561364
 51
192.00100256136398
  0
LINE
  5
1DB
  8
0
 10
224.01437864192283
 20
147.71855681123623
 30
0.0
 11
226.80062135807714
 21
134.6114431887638
 31
0.0
  0
ARC
  5
1DC
  8
0
 10
227.09406454684094
 20
134.67382183068662
 30
0.0
 40
0.3
 50
192.00100256136398
 51
282.001002561364
  0
LINE
  5
1DD
  8
0
 10
245.32544318876378
 20
140.28737864192283
 30
0.0
 11
258.4325568112362
 21
143.07362135807713
 31
0.0
  0
ARC
  5
1DE
  8
0
 10
258.37017816931336
 20
143.36706454684094
 30
0.0
 40
0.3
 50
282.001002561364
 51
12.001002561363979
  0
LINE
  5
1DF
  8
0
 10
258.66362135807714
 20
143.42944318876377
 30
0.0
 11
255.87737864192286
 21
156.5365568112362
 31
0.0
  0
ARC
  5
1E0
  8
0
 10
255.58393545315906
 20
156.47417816931338
 30
0.0
 40
0.3
 50
12.001002561363979
 51
102.001002561364
  0
LINE
  5
1E1
  8
0
 10
255.52155681123622
 20
156.76762135807718
 30
0.0
 11
242.4144431887638
 21
153.98137864192287
 31
0.0
  0
ARC
  5
1E2
  8
0
 10
242.47682183068665
 20
153.68793545315907
 30
0.0
 40
0.3
 50
102.001002561364
 51
192.00100256136398
  0
LINE
  5
1E3
  8
0
 10
242.18337864192284
 20
153.62555681123624
 30
0.0
 11
244.96962135807715
 21
140.5184431887638
 31
0.0
  0
ARC
  5
1E4
  8
0
 10
245.26306454684095
 20
140.58082183068663
 30
0.0
 40
0.3
 50
192.00100256136398
 51
282.001002561364
  0
LINE
  5
1E5
  8
0
 10
264.53344318876384
 20
141.30337864192282
 30
0.0
 11
277.64055681123625
 21
144.08962135807712
 31
0.0
  0
ARC
  5
1E6
  8
0
 10
277.5781781693134
 20
144.38306454684093
 30
0.0
 40
0.3
 50
282.001002561364
 51
12.001002561363979
  0
LINE
  5
1E7
  8
0
 10
277.87162135807716
 20
144.44544318876376
 30
0.0
 11
275.08537864192283
 21
157.5525568112362
 31
0.0
  0
ARC
  5
1E8
  8
0
 10
274.79193545315906
 20
157.49017816931337
 30
0.0
 40
0.3
 50
12.001002561363979
 51
102.00100256136398
  0
LINE
  5
1E9
  8
0
 10
274.7295568112362
 20
157.78362135807717
 30
0.0
 11
261.6224431887638
 21
154.99737864192286
 31
0.0
  0
ARC
  5
1EA
  8
0
 10
261.68482183068664
 20
154.70393545315906
 30
0.0
 40
0.3
 50
102.00100256136398
 51
192.00100256136398
  0
LINE
  5
1EB
  8
0
 10
261.39137864192287
 20
154.64155681123623
 30
0.0
 11
264.1776213580772
 21
141.5344431887638
 31
0.0
  0
ARC
  5
1EC
  8
0
 10
264.471064546841
 20
141.59682183068662
 30
0.0
 40
0.3
 50
192.00100256136398
 51
282.001002561364
  0
LINE
  5
1ED
  8
0
 10
284.57444318876384
 20
138.40637864192283
 30
0.0
 11
297.68155681123625
 21
141.19262135807713
 31
0.0
  0
ARC
  5
1EE
  8
0
 10
297.6191781693134
 20
141.48606454684094
 30
0.0
 40
0.3
 50
282.001002561364
 51
12.001002561363979
  0
LINE
  5
1EF
  8
0
 10
297.91262135807716
 20
141.54844318876377
 30
0.0
 11
295.1263786419228
 21
154.6555568112362
 31
0.0
  0
ARC
  5
1F0
  8
0
 10
294.83293545315905
 20
154.59317816931338
 30
0.0
 40
0.3
 50
12.001002561363979
 51
102.00100256136398
  0
LINE
  5
1F1
  8
0
 10
294.7705568112362
 20
154.88662135807718
 30
0.0
 11
281.6634431887638
 21
152.10037864192287
 31
0.0
  0
ARC
  5
1F2
  8
0
 10
281.72582183068664
 20
151.80693545315907
 30
0.0
 40
0.3
 50
102.00100256136398
 51
192.00100256136398
  0
LINE
  5
1F3
  8
0
 10
281.43237864192287
 20
151.74455681123624
 30
0.0
 11
284.2186213580772
 21
138.6374431887638
 31
0.0
  0
ARC
  5
1F4
  8
0
 10
284.512064546841
 20
138.69982183068663
 30
0.0
 40
0.3
 50
192.00100256136398
 51
282.001002561364
  0
LINE
  5
1F5
  8
0
 10
303.7824431887638
 20
139.42237864192285
 30
0.0
 11
316.8895568112362
 21
142.20862135807715
 31
0.0
  0
ARC
  5
1F6
  8
0
 10
316.82717816931336
 20
142.50206454684096
 30
0.0
 40
0.3
 50
282.001002561364
 51
12.001002561364002
  0
LINE
  5
1F7
  8
0
 10
317.12062135807713
 20
142.5644431887638
 30
0.0
 11
314.3343786419228
 21
155.6715568112362
 31
0.0
  0
ARC
  5
1F8
  8
0
 10
314.040935453159
 20
155.60917816931337
 30
0.0
 40
0.3
 50
12.001002561364002
 51
102.00100256136398
  0
LINE
  5
1F9
  8
0
 10
313.97855681123616
 20
155.90262135807717
 30
0.0
 11
300.87144318876375
 21
153.11637864192286
 31
0.0
  0
ARC
  5
1FA
  8
0
 10
300.9338218306866
 20
152.82293545315906
 30
0.0
 40
0.3
 50
102.00100256136398
 51
192.001002561364
  0
LINE
  5
1FB
  8
0
 10
300.64037864192284
 20
152.76055681123623
 30
0.0
 11
303.42662135807717
 21
139.65344318876382
 31
0.0
  0
ARC
  5
1FC
  8
0
 10
303.72006454684094
 20
139.71582183068665
 30
0.0
 40
0.3
 50
192.001002561364
 51
282.001002561364
  0
LINE
  5
1FD
  8
0
 10
323.19944318876384
 20
139.46037864192283
 30
0.0
 11
336.30655681123625
 21
142.24662135807714
 31
0.0
  0
ARC
  5
1FE
  8
0
 10
336.2441781693134
 20
142.54006454684094
 30
0.0
 40
0.3
 50
282.001002561364
 51
12.001002561363979
  0
LINE
  5
1FF
  8
0
 10
336.53762135807716
 20
142.60244318876377
 30
0.0
 11
333.7513786419228
 21
155.7095568112362
 31
0.0
  0
ARC
  5
200
  8
0
 10
333.45793545315905
 20
155.64717816931338
 30
0.0
 40
0.3
 50
12.001002561363979
 51
102.00100256136398
  0
LINE
  5
201
  8
0
 10
333.3955568112362
 20
155.94062135807718
 30
0.0
 11
320.2884431887638
 21
153.15437864192288
 31
0.0
  0
ARC
  5
202
  8
0
 10
320.35082183068664
 20
152.86093545315907
 30
0.0
 40
0.3
 50
102.00100256136398
 51
192.00100256136398
  0
LINE
  5
203
  8
0
 10
320.05737864192287
 20
152.79855681123624
 30
0.0
 11
322.8436213580772
 21
139.6914431887638
 31
0.0
  0
ARC
  5
204
  8
0
 10
323.137064546841
 20
139.75382183068663
 30
0.0
 40
0.3
 50
192.00100256136398
 51
282.001002561364
  0
LINE
  5
205
  8
0
 10
213.14544318876378
 20
108.91137864192285
 30
0.0
 11
226.2525568112362
 21
111.69762135807717
 31
0.0
  0
ARC
  5
206
  8
0
 10
226.19017816931336
 20
111.99106454684096
 30
0.0
 40
0.3
 50
282.001002561364
 51
12.001002561363991
  0
LINE
  5
207
  8
0
 10
226.48362135807716
 20
112.05344318876381
 30
0.0
 11
223.69737864192285
 21
125.16055681123622
 31
0.0
  0
ARC
  5
208
  8
0
 10
223.40393545315905
 20
125.09817816931337
 30
0.0
 40
0.3
 50
12.001002561363991
 51
102.001002561364
  0
LINE
  5
209
  8
0
 10
223.34155681123622
 20
125.39162135807716
 30
0.0
 11
210.2344431887638
 21
122.60537864192284
 31
0.0
  0
ARC
  5
20A
  8
0
 10
210.29682183068664
 20
122.31193545315905
 30
0.0
 40
0.3
 50
102.001002561364
 51
192.001002561364
  0
LINE
  5
20B
  8
0
 10
210.00337864192284
 20
122.2495568112362
 30
0.0
 11
212.78962135807714
 21
109.14244318876379
 31
0.0
  0
ARC
  5
20C
  8
0
 10
213.08306454684094
 20
109.20482183068664
 30
0.0
 40
0.3
 50
192.001002561364
 51
282.001002561364
  0
LINE
  5
20D
  8
0
 10
231.10644318876376
 20
115.79537864192285
 30
0.0
 11
244.21355681123617
 21
118.58162135807717
 31
0.0
  0
ARC
  5
20E
  8
0
 10
244.15117816931334
 20
118.87506454684096
 30
0.0
 40
0.3
 50
282.001002561364
 51
12.001002561363979
  0
LINE
  5
20F
  8
0
 10
244.44462135807714
 20
118.93744318876381
 30
0.0
 11
241.65837864192284
 21
132.04455681123622
 31
0.0
  0
ARC
  5
210
  8
0
 10
241.36493545315903
 20
131.98217816931339
 30
0.0
 40
0.3
 50
12.001002561363979
 51
102.001002561364
  0
LINE
  5
211
  8
0
 10
241.3025568112362
 20
132.2756213580772
 30
0.0
 11
228.1954431887638
 21
129.48937864192288
 31
0.0
  0
ARC
  5
212
  8
0
 10
228.25782183068662
 20
129.19593545315908
 30
0.0
 40
0.3
 50
102.001002561364
 51
192.00100256136398
  0
LINE
  5
213
  8
0
 10
227.96437864192282
 20
129.13355681123625
 30
0.0
 11
230.75062135807713
 21
116.02644318876379
 31
0.0
  0
ARC
  5
214
  8
0
 10
231.04406454684093
 20
116.08882183068664
 30
0.0
 40
0.3
 50
192.00100256136398
 51
282.001002561364
  0
LINE
  5
215
  8
0
 10
249.27544318876377
 20
121.70237864192285
 30
0.0
 11
262.3825568112362
 21
124.48862135807717
 31
0.0
  0
ARC
  5
216
  8
0
 10
262.32017816931335
 20
124.78206454684096
 30
0.0
 40
0.3
 50
282.001002561364
 51
12.001002561363991
  0
LINE
  5
217
  8
0
 10
262.6136213580771
 20
124.8444431887638
 30
0.0
 11
259.8273786419228
 21
137.9515568112362
 31
0.0
  0
ARC
  5
218
  8
0
 10
259.533935453159
 20
137.88917816931337
 30
0.0
 40
0.3
 50
12.001002561363991
 51
102.001002561364
  0
LINE
  5
219
  8
0
 10
259.47155681123616
 20
138.18262135807717
 30
0.0
 11
246.3644431887638
 21
135.39637864192287
 31
0.0
  0
ARC
  5
21A
  8
0
 10
246.42682183068663
 20
135.10293545315906
 30
0.0
 40
0.3
 50
102.001002561364
 51
192.001002561364
  0
LINE
  5
21B
  8
0
 10
246.13337864192283
 20
135.04055681123623
 30
0.0
 11
248.91962135807714
 21
121.93344318876379
 31
0.0
  0
ARC
  5
21C
  8
0
 10
249.21306454684094
 20
121.99582183068664
 30
0.0
 40
0.3
 50
192.001002561364
 51
282.001002561364
  0
LINE
  5
21D
  8
0
 10
268.4844431887638
 20
122.71837864192285
 30
0.0
 11
281.5915568112362
 21
125.50462135807717
 31
0.0
  0
ARC
  5
21E
  8
0
 10
281.52917816931335
 20
125.79806454684096
 30
0.0
 40
0.3
 50
282.001002561364
 51
12.001002561363979
  0
LINE
  5
21F
  8
0
 10
281.82262135807713
 20
125.86044318876381
 30
0.0
 11
279.0363786419228
 21
138.96755681123622
 31
0.0
  0
ARC
  5
220
  8
0
 10
278.742935453159
 20
138.9051781693134
 30
0.0
 40
0.3
 50
12.001002561363979
 51
102.00100256136398
  0
LINE
  5
221
  8
0
 10
278.68055681123616
 20
139.1986213580772
 30
0.0
 11
265.57344318876375
 21
136.41237864192288
 31
0.0
  0
ARC
  5
222
  8
0
 10
265.6358218306866
 20
136.11893545315908
 30
0.0
 40
0.3
 50
102.00100256136398
 51
192.00100256136398
  0
LINE
  5
223
  8
0
 10
265.34237864192283
 20
136.05655681123625
 30
0.0
 11
268.12862135807717
 21
122.9494431887638
 31
0.0
  0
ARC
  5
224
  8
0
 10
268.42206454684094
 20
123.01182183068664
 30
0.0
 40
0.3
 50
192.00100256136398
 51
282.001002561364
  0
LINE
  5
225
  8
0
 10
288.5244431887638
 20
119.82137864192285
 30
0.0
 11
301.63155681123624
 21
122.60762135807717
 31
0.0
  0
ARC
  5
226
  8
0
 10
301.5691781693134
 20
122.90106454684096
 30
0.0
 40
0.3
 50
282.001002561364
 51
12.001002561363991
  0
LINE
  5
227
  8
0
 10
301.86262135807715
 20
122.9634431887638
 30
0.0
 11
299.0763786419228
 21
136.0705568112362
 31
0.0
  0
ARC
  5
228
  8
0
 10
298.78293545315904
 20
136.00817816931337
 30
0.0
 40
0.3
 50
12.001002561363991
 51
102.00100256136398
  0
LINE
  5
229
  8
0
 10
298.7205568112362
 20
136.30162135807717
 30
0.0
 11
285.61344318876377
 21
133.51537864192287
 31
0.0
  0
ARC
  5
22A
  8
0
 10
285.67582183068663
 20
133.22193545315906
 30
0.0
 40
0.3
 50
102.00100256136398
 51
192.001002561364
  0
LINE
  5
22B
  8
0
 10
285.38237864192286
 20
133.15955681123623
 30
0.0
 11
288.1686213580772
 21
120.05244318876379
 31
0.0
  0
ARC
  5
22C
  8
0
 10
288.46206454684096
 20
120.11482183068664
 30
0.0
 40
0.3
 50
192.001002561364
 51
282.001002561364
  0
LINE
  5
22D
  8
0
 10
307.73244318876385
 20
120.83737864192285
 30
0.0
 11
320.83955681123626
 21
123.62362135807717
 31
0.0
  0
ARC
  5
22E
  8
0
 10
320.7771781693134
 20
123.91706454684096
 30
0.0
 40
0.3
 50
282.001002561364
 51
12.001002561364002
  0
LINE
  5
22F
  8
0
 10
321.0706213580772
 20
123.97944318876381
 30
0.0
 11
318.28437864192284
 21
137.0865568112362
 31
0.0
  0
ARC
  5
230
  8
0
 10
317.99093545315907
 20
137.02417816931336
 30
0.0
 40
0.3
 50
12.001002561364002
 51
102.00100256136398
  0
LINE
  5
231
  8
0
 10
317.9285568112362
 20
137.31762135807716
 30
0.0
 11
304.8214431887638
 21
134.53137864192286
 31
0.0
  0
ARC
  5
232
  8
0
 10
304.88382183068666
 20
134.23793545315905
 30
0.0
 40
0.3
 50
102.00100256136398
 51
192.001002561364
  0
LINE
  5
233
  8
0
 10
304.5903786419229
 20
134.17555681123622
 30
0.0
 11
307.3766213580772
 21
121.0684431887638
 31
0.0
  0
ARC
  5
234
  8
0
 10
307.670064546841
 20
121.13082183068664
 30
0.0
 40
0.3
 50
192.001002561364
 51
282.001002561364
  0
LINE
  5
235
  8
0
 10
327.1494431887638
 20
120.87537864192285
 30
0.0
 11
340.25655681123624
 21
123.66162135807717
 31
0.0
  0
ARC
  5
236
  8
0
 10
340.1941781693134
 20
123.95506454684096
 30
0.0
 40
0.3
 50
282.001002561364
 51
12.001002561363991
  0
LINE
  5
237
  8
0
 10
340.48762135807715
 20
124.0174431887638
 30
0.0
 11
337.7013786419228
 21
137.1245568112362
 31
0.0
  0
ARC
  5
238
  8
0
 10
337.40793545315904
 20
137.06217816931337
 30
0.0
 40
0.3
 50
12.001002561363991
 51
102.00100256136398
  0
LINE
  5
239
  8
0
 10
337.3455568112362
 20
137.35562135807717
 30
0.0
 11
324.23844318876377
 21
134.56937864192287
 31
0.0
  0
ARC
  5
23A
  8
0
 10
324.30082183068663
 20
134.27593545315906
 30
0.0
 40
0.3
 50
102.00100256136398
 51
192.001002561364
  0
LINE
  5
23B
  8
0
 10
324.00737864192286
 20
134.21355681123623
 30
0.0
 11
326.7936213580772
 21
121.10644318876379
 31
0.0
  0
ARC
  5
23C
  8
0
 10
327.08706454684096
 20
121.16882183068664
 30
0.0
 40
0.3
 50
192.001002561364
 51
282.001002561364
  0
LINE
  5
23D
  8
0
 10
217.09544318876377
 20
90.32637864192284
 30
0.0
 11
230.20255681123618
 21
93.11262135807716
 31
0.0
  0
ARC
  5
23E
  8
0
 10
230.14017816931334
 20
93.40606454684095
 30
0.0
 40
0.3
 50
282.001002561364
 51
12.001002561363991
  0
LINE
  5
23F
  8
0
 10
230.43362135807715
 20
93.4684431887638
 30
0.0
 11
227.64737864192284
 21
106.57555681123621
 31
0.0
  0
ARC
  5
240
  8
0
 10
227.35393545315904
 20
106.51317816931336
 30
0.0
 40
0.3
 50
12.001002561363991
 51
102.001002561364
  0
LINE
  5
241
  8
0
 10
227.2915568112362
 20
106.80662135807715
 30
0.0
 11
214.1844431887638
 21
104.02037864192283
 31
0.0
  0
ARC
  5
242
  8
0
 10
214.24682183068663
 20
103.72693545315904
 30
0.0
 40
0.3
 50
102.001002561364
 51
192.001002561364
  0
LINE
  5
243
  8
0
 10
213.95337864192282
 20
103.6645568112362
 30
0.0
 11
216.73962135807713
 21
90.55744318876378
 31
0.0
  0
ARC
  5
244
  8
0
 10
217.03306454684093
 20
90.61982183068663
 30
0.0
 40
0.3
 50
192.001002561364
 51
282.001002561364
  0
LINE
  5
245
  8
0
 10
235.05744318876378
 20
97.21137864192285
 30
0.0
 11
248.1645568112362
 21
99.99762135807717
 31
0.0
  0
ARC
  5
246
  8
0
 10
248.10217816931336
 20
100.29106454684096
 30
0.0
 40
0.3
 50
282.001002561364
 51
12.001002561363991
  0
LINE
  5
247
  8
0
 10
248.39562135807716
 20
100.3534431887638
 30
0.0
 11
245.60937864192286
 21
113.46055681123622
 31
0.0
  0
ARC
  5
248
  8
0
 10
245.31593545315906
 20
113.39817816931337
 30
0.0
 40
0.3
 50
12.001002561363991
 51
102.001002561364
  0
LINE
  5
249
  8
0
 10
245.25355681123622
 20
113.69162135807716
 30
0.0
 11
232.1464431887638
 21
110.90537864192284
 31
0.0
  0
ARC
  5
24A
  8
0
 10
232.20882183068665
 20
110.61193545315905
 30
0.0
 40
0.3
 50
102.001002561364
 51
192.001002561364
  0
LINE
  5
24B
  8
0
 10
231.91537864192284
 20
110.5495568112362
 30
0.0
 11
234.70162135807715
 21
97.44244318876379
 31
0.0
  0
ARC
  5
24C
  8
0
 10
234.99506454684095
 20
97.50482183068664
 30
0.0
 40
0.3
 50
192.001002561364
 51
282.001002561364
  0
LINE
  5
24D
  8
0
 10
253.22544318876376
 20
103.11737864192285
 30
0.0
 11
266.3325568112362
 21
105.90362135807717
 31
0.0
  0
ARC
  5
24E
  8
0
 10
266.27017816931334
 20
106.19706454684096
 30
0.0
 40
0.3
 50
282.001002561364
 51
12.001002561363991
  0
LINE
  5
24F
  8
0
 10
266.5636213580771
 20
106.25944318876381
 30
0.0
 11
263.7773786419228
 21
119.36655681123622
 31
0.0
  0
ARC
  5
250
  8
0
 10
263.483935453159
 20
119.30417816931337
 30
0.0
 40
0.3
 50
12.001002561363991
 51
102.001002561364
  0
LINE
  5
251
  8
0
 10
263.42155681123614
 20
119.59762135807716
 30
0.0
 11
250.3144431887638
 21
116.81137864192284
 31
0.0
  0
ARC
  5
252
  8
0
 10
250.37682183068662
 20
116.51793545315905
 30
0.0
 40
0.3
 50
102.001002561364
 51
192.001002561364
  0
LINE
  5
253
  8
0
 10
250.08337864192282
 20
116.4555568112362
 30
0.0
 11
252.86962135807713
 21
103.3484431887638
 31
0.0
  0
ARC
  5
254
  8
0
 10
253.16306454684093
 20
103.41082183068664
 30
0.0
 40
0.3
 50
192.001002561364
 51
282.001002561364
  0
LINE
  5
255
  8
0
 10
272.43444318876385
 20
104.13337864192285
 30
0.0
 11
285.54155681123626
 21
106.91962135807717
 31
0.0
  0
ARC
  5
256
  8
0
 10
285.4791781693134
 20
107.21306454684095
 30
0.0
 40
0.3
 50
282.001002561364
 51
12.001002561363991
  0
LINE
  5
257
  8
0
 10
285.7726213580772
 20
107.2754431887638
 30
0.0
 11
282.98637864192284
 21
120.38255681123621
 31
0.0
  0
ARC
  5
258
  8
0
 10
282.69293545315907
 20
120.32017816931337
 30
0.0
 40
0.3
 50
12.001002561363991
 51
102.00100256136398
  0
LINE
  5
259
  8
0
 10
282.6305568112362
 20
120.61362135807715
 30
0.0
 11
269.5234431887638
 21
117.82737864192283
 31
0.0
  0
ARC
  5
25A
  8
0
 10
269.58582183068665
 20
117.53393545315905
 30
0.0
 40
0.3
 50
102.00100256136398
 51
192.001002561364
  0
LINE
  5
25B
  8
0
 10
269.2923786419229
 20
117.4715568112362
 30
0.0
 11
272.0786213580772
 21
104.36444318876379
 31
0.0
  0
ARC
  5
25C
  8
0
 10
272.372064546841
 20
104.42682183068663
 30
0.0
 40
0.3
 50
192.001002561364
 51
282.001002561364
  0
LINE
  5
25D
  8
0
 10
292.4744431887638
 20
101.23637864192285
 30
0.0
 11
305.5815568112362
 21
104.02262135807717
 31
0.0
  0
ARC
  5
25E
  8
0
 10
305.51917816931336
 20
104.31606454684096
 30
0.0
 40
0.3
 50
282.001002561364
 51
12.001002561363991
  0
LINE
  5
25F
  8
0
 10
305.81262135807714
 20
104.37844318876381
 30
0.0
 11
303.0263786419228
 21
117.48555681123622
 31
0.0
  0
ARC
  5
260
  8
0
 10
302.73293545315903
 20
117.42317816931337
 30
0.0
 40
0.3
 50
12.001002561363991
 51
102.00100256136398
  0
LINE
  5
261
  8
0
 10
302.67055681123617
 20
117.71662135807716
 30
0.0
 11
289.56344318876376
 21
114.93037864192284
 31
0.0
  0
ARC
  5
262
  8
0
 10
289.6258218306866
 20
114.63693545315905
 30
0.0
 40
0.3
 50
102.00100256136398
 51
192.001002561364
  0
LINE
  5
263
  8
0
 10
289.33237864192284
 20
114.5745568112362
 30
0.0
 11
292.1186213580772
 21
101.4674431887638
 31
0.0
  0
ARC
  5
264
  8
0
 10
292.41206454684095
 20
101.52982183068664
 30
0.0
 40
0.3
 50
192.001002561364
 51
282.001002561364
  0
LINE
  5
265
  8
0
 10
311.6834431887638
 20
102.25237864192285
 30
0.0
 11
324.79055681123623
 21
105.03862135807717
 31
0.0
  0
ARC
  5
266
  8
0
 10
324.72817816931337
 20
105.33206454684095
 30
0.0
 40
0.3
 50
282.001002561364
 51
12.001002561363991
  0
LINE
  5
267
  8
0
 10
325.02162135807714
 20
105.3944431887638
 30
0.0
 11
322.2353786419228
 21
118.50155681123621
 31
0.0
  0
ARC
  5
268
  8
0
 10
321.94193545315903
 20
118.43917816931337
 30
0.0
 40
0.3
 50
12.001002561363991
 51
102.00100256136398
  0
LINE
  5
269
  8
0
 10
321.87955681123617
 20
118.73262135807715
 30
0.0
 11
308.77244318876376
 21
115.94637864192283
 31
0.0
  0
ARC
  5
26A
  8
0
 10
308.8348218306866
 20
115.65293545315905
 30
0.0
 40
0.3
 50
102.00100256136398
 51
192.001002561364
  0
LINE
  5
26B
  8
0
 10
308.54137864192285
 20
115.5905568112362
 30
0.0
 11
311.3276213580772
 21
102.48344318876379
 31
0.0
  0
ARC
  5
26C
  8
0
 10
311.62106454684096
 20
102.54582183068663
 30
0.0
 40
0.3
 50
192.001002561364
 51
282.001002561364
  0
LINE
  5
26D
  8
0
 10
331.0994431887638
 20
102.29037864192284
 30
0.0
 11
344.2065568112362
 21
105.07662135807716
 31
0.0
  0
ARC
  5
26E
  8
0
 10
344.14417816931336
 20
105.37006454684095
 30
0.0
 40
0.3
 50
282.001002561364
 51
12.001002561363991
  0
LINE
  5
26F
  8
0
 10
344.43762135807714
 20
105.4324431887638
 30
0.0
 11
341.6513786419228
 21
118.53955681123621
 31
0.0
  0
ARC
  5
270
  8
0
 10
341.35793545315903
 20
118.47717816931336
 30
0.0
 40
0.3
 50
12.001002561363991
 51
102.00100256136398
  0
LINE
  5
271
  8
0
 10
341.29555681123617
 20
118.77062135807715
 30
0.0
 11
328.18844318876376
 21
115.98437864192283
 31
0.0
  0
ARC
  5
272
  8
0
 10
328.2508218306866
 20
115.69093545315904
 30
0.0
 40
0.3
 50
102.00100256136398
 51
192.001002561364
  0
LINE
  5
273
  8
0
 10
327.95737864192284
 20
115.6285568112362
 30
0.0
 11
330.7436213580772
 21
102.52144318876378
 31
0.0
  0
ARC
  5
274
  8
0
 10
331.03706454684095
 20
102.58382183068663
 30
0.0
 40
0.3
 50
192.001002561364
 51
282.001002561364
  0
LINE
  5
275
  8
0
 10
221.04644318876376
 20
71.74137864192285
 30
0.0
 11
234.15355681123617
 21
74.52762135807717
 31
0.0
  0
ARC
  5
276
  8
0
 10
234.09117816931334
 20
74.82106454684096
 30
0.0
 40
0.3
 50
282.001002561364
 51
12.001002561363991
  0
LINE
  5
277
  8
0
 10
234.38462135807714
 20
74.8834431887638
 30
0.0
 11
231.59837864192284
 21
87.99055681123622
 31
0.0
  0
ARC
  5
278
  8
0
 10
231.30493545315903
 20
87.92817816931337
 30
0.0
 40
0.3
 50
12.001002561363991
 51
102.001002561364
  0
LINE
  5
279
  8
0
 10
231.2425568112362
 20
88.22162135807716
 30
0.0
 11
218.1354431887638
 21
85.43537864192284
 31
0.0
  0
ARC
  5
27A
  8
0
 10
218.19782183068662
 20
85.14193545315905
 30
0.0
 40
0.3
 50
102.001002561364
 51
192.001002561364
  0
LINE
  5
27B
  8
0
 10
217.90437864192282
 20
85.0795568112362
 30
0.0
 11
220.69062135807712
 21
71.97244318876379
 31
0.0
  0
ARC
  5
27C
  8
0
 10
220.98406454684093
 20
72.03482183068664
 30
0.0
 40
0.3
 50
192.001002561364
 51
282.001002561364
  0
LINE
  5
27D
  8
0
 10
239.00744318876377
 20
78.62637864192284
 30
0.0
 11
252.11455681123618
 21
81.41262135807716
 31
0.0
  0
ARC
  5
27E
  8
0
 10
252.05217816931335
 20
81.70606454684095
 30
0.0
 40
0.3
 50
282.001002561364
 51
12.001002561363991
  0
LINE
  5
27F
  8
0
 10
252.34562135807715
 20
81.7684431887638
 30
0.0
 11
249.55937864192285
 21
94.87555681123621
 31
0.0
  0
ARC
  5
280
  8
0
 10
249.26593545315905
 20
94.81317816931336
 30
0.0
 40
0.3
 50
12.001002561363991
 51
102.001002561364
  0
LINE
  5
281
  8
0
 10
249.2035568112362
 20
95.10662135807715
 30
0.0
 11
236.0964431887638
 21
92.32037864192283
 31
0.0
  0
ARC
  5
282
  8
0
 10
236.15882183068663
 20
92.02693545315904
 30
0.0
 40
0.3
 50
102.001002561364
 51
192.001002561364
  0
LINE
  5
283
  8
0
 10
235.86537864192283
 20
91.96455681123619
 30
0.0
 11
238.65162135807714
 21
78.85744318876378
 31
0.0
  0
ARC
  5
284
  8
0
 10
238.94506454684094
 20
78.91982183068663
 30
0.0
 40
0.3
 50
192.001002561364
 51
282.001002561364
  0
LINE
  5
285
  8
0
 10
257.1764431887638
 20
84.53337864192285
 30
0.0
 11
270.2835568112362
 21
87.31962135807717
 31
0.0
  0
ARC
  5
286
  8
0
 10
270.22117816931336
 20
87.61306454684096
 30
0.0
 40
0.3
 50
282.001002561364
 51
12.001002561363991
  0
LINE
  5
287
  8
0
 10
270.51462135807714
 20
87.67544318876381
 30
0.0
 11
267.7283786419228
 21
100.78255681123622
 31
0.0
  0
ARC
  5
288
  8
0
 10
267.434935453159
 20
100.72017816931337
 30
0.0
 40
0.3
 50
12.001002561363991
 51
102.001002561364
  0
LINE
  5
289
  8
0
 10
267.37255681123617
 20
101.01362135807716
 30
0.0
 11
254.2654431887638
 21
98.22737864192284
 31
0.0
  0
ARC
  5
28A
  8
0
 10
254.32782183068664
 20
97.93393545315905
 30
0.0
 40
0.3
 50
102.001002561364
 51
192.00100256136386
  0
LINE
  5
28B
  8
0
 10
254.03437864192284
 20
97.8715568112362
 30
0.0
 11
256.8206213580772
 21
84.76444318876379
 31
0.0
  0
ARC
  5
28C
  8
0
 10
257.11406454684095
 20
84.82682183068664
 30
0.0
 40
0.3
 50
192.00100256136386
 51
282.001002561364
  0
LINE
  5
28D
  8
0
 10
276.38444318876384
 20
85.54837864192285
 30
0.0
 11
289.49155681123625
 21
88.33462135807717
 31
0.0
  0
ARC
  5
28E
  8
0
 10
289.4291781693134
 20
88.62806454684096
 30
0.0
 40
0.3
 50
282.001002561364
 51
12.001002561363991
  0
LINE
  5
28F
  8
0
 10
289.72262135807716
 20
88.69044318876381
 30
0.0
 11
286.93637864192283
 21
101.79755681123622
 31
0.0
  0
ARC
  5
290
  8
0
 10
286.64293545315905
 20
101.73517816931337
 30
0.0
 40
0.3
 50
12.001002561363991
 51
102.00100256136398
  0
LINE
  5
291
  8
0
 10
286.5805568112362
 20
102.02862135807716
 30
0.0
 11
273.4734431887638
 21
99.24237864192284
 31
0.0
  0
ARC
  5
292
  8
0
 10
273.53582183068664
 20
98.94893545315905
 30
0.0
 40
0.3
 50
102.00100256136398
 51
192.001002561364
  0
LINE
  5
293
  8
0
 10
273.24237864192287
 20
98.8865568112362
 30
0.0
 11
276.0286213580772
 21
85.77944318876379
 31
0.0
  0
ARC
  5
294
  8
0
 10
276.322064546841
 20
85.84182183068664
 30
0.0
 40
0.3
 50
192.001002561364
 51
282.001002561364
  0
LINE
  5
295
  8
0
 10
296.42544318876384
 20
82.65237864192285
 30
0.0
 11
309.53255681123625
 21
85.43862135807717
 31
0.0
  0
ARC
  5
296
  8
0
 10
309.4701781693134
 20
85.73206454684096
 30
0.0
 40
0.3
 50
282.001002561364
 51
12.001002561363991
  0
LINE
  5
297
  8
0
 10
309.76362135807716
 20
85.79444318876381
 30
0.0
 11
306.9773786419228
 21
98.90155681123622
 31
0.0
  0
ARC
  5
298
  8
0
 10
306.68393545315905
 20
98.83917816931337
 30
0.0
 40
0.3
 50
12.001002561363991
 51
102.00100256136398
  0
LINE
  5
299
  8
0
 10
306.6215568112362
 20
99.13262135807716
 30
0.0
 11
293.5144431887638
 21
96.34637864192284
 31
0.0
  0
ARC
  5
29A
  8
0
 10
293.57682183068664
 20
96.05293545315905
 30
0.0
 40
0.3
 50
102.00100256136398
 51
192.001002561364
  0
LINE
  5
29B
  8
0
 10
293.28337864192287
 20
95.9905568112362
 30
0.0
 11
296.0696213580772
 21
82.88344318876379
 31
0.0
  0
ARC
  5
29C
  8
0
 10
296.363064546841
 20
82.94582183068664
 30
0.0
 40
0.3
 50
192.001002561364
 51
282.001002561364
  0
LINE
  5
29D
  8
0
 10
315.6334431887638
 20
83.66837864192284
 30
0.0
 11
328.7405568112362
 21
86.45462135807716
 31
0.0
  0
ARC
  5
29E
  8
0
 10
328.67817816931336
 20
86.74806454684095
 30
0.0
 40
0.3
 50
282.001002561364
 51
12.001002561363991
  0
LINE
  5
29F
  8
0
 10
328.97162135807713
 20
86.8104431887638
 30
0.0
 11
326.1853786419228
 21
99.91755681123621
 31
0.0
  0
ARC
  5
2A0
  8
0
 10
325.891935453159
 20
99.85517816931336
 30
0.0
 40
0.3
 50
12.001002561363991
 51
102.00100256136398
  0
LINE
  5
2A1
  8
0
 10
325.82955681123616
 20
100.14862135807715
 30
0.0
 11
312.72244318876375
 21
97.36237864192283
 31
0.0
  0
ARC
  5
2A2
  8
0
 10
312.7848218306866
 20
97.06893545315904
 30
0.0
 40
0.3
 50
102.00100256136398
 51
192.001002561364
  0
LINE
  5
2A3
  8
0
 10
312.49137864192284
 20
97.0065568112362
 30
0.0
 11
315.27762135807717
 21
83.89944318876378
 31
0.0
  0
ARC
  5
2A4
  8
0
 10
315.57106454684094
 20
83.96182183068663
 30
0.0
 40
0.3
 50
192.001002561364
 51
282.001002561364
  0
LINE
  5
2A5
  8
0
 10
214.6883021321439
 20
58.97227312748282
 30
0.0
 11
237.07640494391293
 21
67.20643167368216
 31
0.0
  0
ARC
  5
2A6
  8
0
 10
236.9728493736067
 20
67.48799204706334
 30
0.0
 40
0.3
 50
290.1931035672077
 51
20.200160846822985
  0
LINE
  5
2A7
  8
0
 10
237.25439698962606
 20
67.5915822971538
 30
0.0
 11
236.47200199110029
 21
69.7180512112461
 31
0.0
  0
ARC
  5
2A8
  8
0
 10
236.19045437508092
 20
69.61446096115564
 30
0.0
 40
0.3
 50
20.200160846822985
 51
109.87386915153346
  0
LINE
  5
2A9
  8
0
 10
236.08846917160858
 20
69.89659394092352
 30
0.0
 11
216.89236441676124
 21
62.957601374687485
 31
0.0
  0
ARC
  5
2AA
  8
0
 10
215.87251238203788
 20
65.77893117236634
 30
0.0
 40
3.0
 50
191.99997132479842
 51
289.8738691515334
  0
LINE
  5
2AB
  8
0
 10
212.93806926767198
 20
65.15519756853334
 30
0.0
 11
201.19926665215658
 21
120.38205771253517
 31
0.0
  0
ARC
  5
2AC
  8
0
 10
200.90582234072
 20
120.31968435215187
 30
0.0
 40
0.3
 50
11.999971324798441
 51
101.90186591848881
  0
LINE
  5
2AD
  8
0
 10
200.84395152517308
 20
120.61323503292702
 30
0.0
 11
198.58858226635027
 21
120.13787747274587
 31
0.0
  0
ARC
  5
2AE
  8
0
 10
198.65045308189718
 20
119.84432679197072
 30
0.0
 40
0.3
 50
101.90186591848881
 51
191.9080305193867
  0
LINE
  5
2AF
  8
0
 10
198.35690905966194
 20
119.78242439290607
 30
0.0
 11
210.717306206729
 21
61.168852870648124
 31
0.0
  0
ARC
  5
2B0
  8
0
 10
213.6527464290814
 20
61.787876861294585
 30
0.0
 40
3.0
 50
191.9080305193867
 51
290.1931035672077
  0
LINE
  5
2B1
  8
0
 10
149.28569379327095
 20
61.16885287064812
 30
0.0
 11
161.64609533765196
 21
119.7824452451709
 31
0.0
  0
ARC
  5
2B2
  8
0
 10
161.35255131541672
 20
119.84434764423555
 30
0.0
 40
0.3
 50
348.0919694806133
 51
78.09406429789398
  0
LINE
  5
2B3
  8
0
 10
161.41444298204232
 20
120.13789392951661
 30
0.0
 11
159.160064902872
 21
120.61320982864474
 31
0.0
  0
ARC
  5
2B4
  8
0
 10
159.0981732362464
 20
120.31966354336369
 30
0.0
 40
0.3
 50
78.09406429789398
 51
168.00002867520158
  0
LINE
  5
2B5
  8
0
 10
158.8047289248098
 20
120.382036903747
 30
0.0
 11
147.0659205604692
 21
65.15514971358243
 31
0.0
  0
ARC
  5
2B6
  8
0
 10
144.1314774461033
 20
65.77888331741543
 30
0.0
 40
3.0
 50
250.12693723171037
 51
348.0000286752016
  0
LINE
  5
2B7
  8
0
 10
143.11166511899683
 20
62.95753916657498
 30
0.0
 11
123.91452830729749
 21
69.89659931628722
 31
0.0
  0
ARC
  5
2B8
  8
0
 10
123.81254707458685
 20
69.61446490120318
 30
0.0
 40
0.3
 50
70.12693723171037
 51
159.79983915317703
  0
LINE
  5
2B9
  8
0
 10
123.53099945856746
 20
69.71805515129364
 30
0.0
 11
122.7486030103739
 21
67.59158229715382
 31
0.0
  0
ARC
  5
2BA
  8
0
 10
123.03015062639328
 20
67.48799204706336
 30
0.0
 40
0.3
 50
159.79983915317703
 51
249.80689643279229
  0
LINE
  5
2BB
  8
0
 10
122.92659505608702
 20
67.20643167368218
 30
0.0
 11
145.3146978678561
 21
58.97227312748282
 31
0.0
  0
ARC
  5
2BC
  8
0
 10
146.3502535709186
 20
61.787876861294585
 30
0.0
 40
3.0
 50
249.80689643279229
 51
348.0919694806133
  0
LINE
  5
2BD
  8
0
 10
142.1139837784986
 20
2.0
 30
0.0
 11
217.88701622150134
 21
2.0
 31
0.0
  0
ARC
  5
2BE
  8
0
 10
217.88701622150134
 20
5.0
 30
0.0
 40
3.0
 50
270.0
 51
303.3979200123607
  0
LINE
  5
2BF
  8
0
 10
219.5383675191421
 20
2.4953964601597813
 30
0.0
 11
277.78506097199426
 21
40.89898061495479
 31
0.0
  0
ARC
  5
2C0
  8
0
 10
276.1337096743535
 20
43.403584154795006
 30
0.0
 40
3.0
 50
303.3979200123607
 51
20.333087124782327
  0
LINE
  5
2C1
  8
0
 10
278.9467749646308
 20
44.4460157701239
 30
0.0
 11
267.54187878366116
 21
75.22282368167134
 31
0.0
  0
ARC
  5
2C2
  8
0
 10
264.7288134933839
 20
74.18039206634245
 30
0.0
 40
3.0
 50
20.333087124782327
 51
110.19260239478312
  0
LINE
  5
2C3
  8
0
 10
263.69328241875354
 20
76.99600485816504
 30
0.0
 11
242.33153027408687
 21
69.13954170435399
 31
0.0
  0
ARC
  5
2C4
  8
0
 10
242.22797716662384
 20
69.42110298353624
 30
0.0
 40
0.3
 50
200.198912065365
 51
290.1926023947831
  0
LINE
  5
2C5
  8
0
 10
241.94642729288577
 20
69.31751886989868
 30
0.0
 11
241.17517535246492
 21
71.41384309202316
 31
0.0
  0
ARC
  5
2C6
  8
0
 10
241.456725226203
 20
71.51742720566072
 30
0.0
 40
0.3
 50
109.87280997543685
 51
200.198912065365
  0
LINE
  5
2C7
  8
0
 10
241.35474523828944
 20
71.79956207069011
 30
0.0
 11
267.17152363439425
 21
81.1312508306989
 31
0.0
  0
ARC
  5
2C8
  8
0
 10
268.19132351352965
 20
78.30990218040498
 30
0.0
 40
3.0
 50
20.667689231661015
 51
109.87280997543685
  0
LINE
  5
2C9
  8
0
 10
270.9982531642125
 20
79.36874397034227
 30
0.0
 11
282.10612076621595
 21
49.92241570465376
 31
0.0
  0
ARC
  5
2CA
  8
0
 10
284.9130504168988
 20
50.98125749459105
 30
0.0
 40
3.0
 50
200.667689231661
 51
302.76695756148933
  0
LINE
  5
2CB
  8
0
 10
286.53672051495516
 20
48.458620895182094
 30
0.0
 11
354.4746856121123
 21
92.18622021602674
 31
0.0
  0
ARC
  5
2CC
  8
0
 10
352.8510155140559
 20
94.7088568154357
 30
0.0
 40
3.0
 50
302.76695756148933
 51
11.999697883830459
  0
LINE
  5
2CD
  8
0
 10
355.78546160512286
 20
95.33257641479264
 30
0.0
 11
334.4655642566696
 21
195.63740810617873
 31
0.0
  0
ARC
  5
2CE
  8
0
 10
331.53111816560266
 20
195.01368850682178
 30
0.0
 40
3.0
 50
11.999697883830459
 51
97.50007331018612
  0
LINE
  5
2CF
  8
0
 10
331.1395357832695
 20
197.98802258991438
 30
0.0
 11
191.9076419550675
 21
179.65761478807065
 31
0.0
  0
ARC
  5
2D0
  8
0
 10
192.29922433740072
 20
176.68328070497805
 30
0.0
 40
3.0
 50
97.50007331018612
 51
192.00052548084957
  0
LINE
  5
2D1
  8
0
 10
189.36478725582845
 20
176.05951871968745
 30
0.0
 11
200.03552633161257
 21
125.85990224710838
 31
0.0
  0
ARC
  5
2D2
  8
0
 10
199.74208262345536
 20
125.79752604857931
 30
0.0
 40
0.3
 50
281.9110642661425
 51
12.000525480849571
  0
LINE
  5
2D3
  8
0
 10
199.80400056525738
 20
125.50398530441761
 30
0.0
 11
197.55655590817517
 21
125.02992114041932
 31
0.0
  0
ARC
  5
2D4
  8
0
 10
197.49463796637315
 20
125.32346188458102
 30
0.0
 40
0.3
 50
191.90810450143331
 51
281.9110642661425
  0
LINE
  5
2D5
  8
0
 10
197.2010940240684
 20
125.26155910648349
 30
0.0
 11
186.90010129963315
 21
174.1090277809753
 31
0.0
  0
ARC
  5
2D6
  8
0
 10
183.96466187658575
 20
173.49
 30
0.0
 40
3.0
 50
11.90810450143332
 51
90.0
  0
LINE
  5
2D7
  8
0
 10
183.96466187658575
 20
176.49
 30
0.0
 11
176.03833812341406
 21
176.49
 31
0.0
  0
ARC
  5
2D8
  8
0
 10
176.03833812341406
 20
173.49
 30
0.0
 40
3.0
 50
90.0
 51
168.09189549856669
  0
LINE
  5
2D9
  8
0
 10
173.10289870036667
 20
174.1090277809753
 30
0.0
 11
162.80191038740892
 21
125.26158002577883
 31
0.0
  0
ARC
  5
2DA
  8
0
 10
162.50836644510417
 20
125.32348280387636
 30
0.0
 40
0.3
 50
258.084852928735
 51
348.09189549856666
  0
LINE
  5
2DB
  8
0
 10
162.44642758621794
 20
125.0299464726329
 30
0.0
 11
160.1999740660385
 21
125.50396877505608
 31
0.0
  0
ARC
  5
2DC
  8
0
 10
160.26191292492473
 20
125.79750510629954
 30
0.0
 40
0.3
 50
167.99947451915043
 51
258.084852928735
  0
LINE
  5
2DD
  8
0
 10
159.96846921676752
 20
125.8598813048286
 30
0.0
 11
170.63921132286274
 21
176.05951203325765
 31
0.0
  0
ARC
  5
2DE
  8
0
 10
167.70477424129047
 20
176.68327401854825
 30
0.0
 40
3.0
 50
347.99947451915045
 51
82.5000470000386
  0
LINE
  5
2DF
  8
0
 10
168.0963503780877
 20
179.65760892388272
 30
0.0
 11
47.76043151953991
 21
195.5000327679714
 31
0.0
  0
ARC
  5
2E0
  8
0
 10
47.36885538274267
 20
192.52569786263692
 30
0.0
 40
3.0
 50
82.5000470000386
 51
167.99972735931001
  0
LINE
  5
2E1
  8
0
 10
44.43441554860392
 20
193.1494468985638
 30
0.0
 11
21.304564043189895
 21
84.3345971660254
 31
0.0
  0
ARC
  5
2E2
  8
0
 10
24.239003877328646
 20
83.71084813009851
 30
0.0
 40
3.0
 50
167.99972735931001
 51
237.23313074719306
  0
LINE
  5
2E3
  8
0
 10
22.615337667356627
 20
81.18820902816675
 30
0.0
 11
73.4663595991537
 21
48.45856252820603
 31
0.0
  0
ARC
  5
2E4
  8
0
 10
75.09002580912572
 20
50.9812016301378
 30
0.0
 40
3.0
 50
237.23313074719306
 51
339.33090527393887
  0
LINE
  5
2E5
  8
0
 10
77.8969294850403
 20
49.92229098511754
 30
0.0
 11
89.00572497121267
 21
79.36889163244977
 31
0.0
  0
ARC
  5
2E6
  8
0
 10
91.81262864712726
 20
78.30998098742951
 30
0.0
 40
3.0
 50
70.12831038744062
 51
159.3309052739389
  0
LINE
  5
2E7
  8
0
 10
92.83237335735689
 20
81.13134957837234
 30
0.0
 11
118.64828174896739
 21
71.80054604329781
 31
0.0
  0
ARC
  5
2E8
  8
0
 10
118.54630727794444
 20
71.51840918420353
 30
0.0
 40
0.3
 50
339.80806286716984
 51
70.12831038744062
  0
LINE
  5
2E9
  8
0
 10
118.82786975946404
 20
71.41485934595872
 30
0.0
 11
118.05654829693341
 21
69.31755829053834
 31
0.0
  0
ARC
  5
2EA
  8
0
 10
117.77498581541381
 20
69.42110812878316
 30
0.0
 40
0.3
 50
249.80891570566422
 51
339.80806286716984
  0
LINE
  5
2EB
  8
0
 10
117.67144016819289
 20
69.139544105972
 30
0.0
 11
96.3076705310175
 21
76.99610664572494
 31
0.0
  0
ARC
  5
2EC
  8
0
 10
95.27221405880817
 20
74.18046641761343
 30
0.0
 40
3.0
 50
69.8089157056642
 51
159.66691287521772
  0
LINE
  5
2ED
  8
0
 10
92.4591487685309
 20
75.22289803294233
 30
0.0
 11
81.0542250353691
 21
44.44601577012385
 31
0.0
  0
ARC
  5
2EE
  8
0
 10
83.86729032564638
 20
43.403584154794956
 30
0.0
 40
3.0
 50
159.66691287521772
 51
236.60207998763937
  0
LINE
  5
2EF
  8
0
 10
82.21593902800562
 20
40.89898061495474
 30
0.0
 11
140.46263248085785
 21
2.495396460159779
 31
0.0
  0
ARC
  5
2F0
  8
0
 10
142.1139837784986
 20
5.0
 30
0.0
 40
3.0
 50
236.60207998763937
 51
270.0
  0
ENDSEC
  0
EOF
