  0
SECTION
  2
HEADER
  9
$ACADVER
  1
AC1009
  9
$DWGCODEPAGE
  3
ANSI_1252
  9
$INSBASE
 10
0.0
 20
0.0
 30
0.0
  9
$EXTMIN
 10
-100
 20
-100
 30
-100
  9
$EXTMAX
 10
100
 20
100
 30
100
  9
$LIMMIN
 10
0.0
 20
0.0
  9
$LIMMAX
 10
420.0
 20
297.0
  9
$ORTHOMODE
 70
0
  9
$REGENMODE
 70
1
  9
$DRAGMODE
 70
2
  9
$FILLMODE
 70
1
  9
$QTEXTMODE
 70
0
  9
$MIRRTEXT
 70
1
  9
$OSMODE
 70
20583
  9
$LTSCALE
 40
1.0
  9
$ATTMODE
 70
1
  9
$TEXTSIZE
 40
2.5
  9
$TRACEWID
 40
1.0
  9
$TEXTSTYLE
  7
Standard
  9
$CLAYER
  8
0
  9
$CELTYPE
  6
ByLayer
  9
$CECOLOR
 62
256
  9
$DIMSCALE
 40
1.0
  9
$DIMASZ
 40
2.5
  9
$DIMEXO
 40
0.625
  9
$DIMDLI
 40
3.75
  9
$DIMRND
 40
0.0
  9
$DIMDLE
 40
0.0
  9
$DIMEXE
 40
1.25
  9
$DIMTP
 40
0.0
  9
$DIMTM
 40
0.0
  9
$DIMTXT
 40
2.5
  9
$DIMCEN
 40
2.5
  9
$DIMTSZ
 40
0.0
  9
$DIMTOL
 70
0
  9
$DIMLIM
 70
0
  9
$DIMTIH
 70
0
  9
$DIMTOH
 70
0
  9
$DIMSE1
 70
0
  9
$DIMSE2
 70
0
  9
$DIMTAD
 70
1
  9
$DIMZIN
 70
8
  9
$DIMBLK
  1

  9
$DIMASO
 70
1
  9
$DIMSHO
 70
1
  9
$DIMPOST
  1

  9
$DIMAPOST
  1

  9
$DIMALT
 70
0
  9
$DIMALTD
 70
3
  9
$DIMALTF
 40
0.03937007874
  9
$DIMLFAC
 40
1.0
  9
$DIMTOFL
 70
1
  9
$DIMTVP
 40
0.0
  9
$DIMTIX
 70
0
  9
$DIMSOXD
 70
0
  9
$DIMSAH
 70
0
  9
$DIMBLK1
  1

  9
$DIMBLK2
  1

  9
$DIMSTYLE
  2
ISO-25
  9
$DIMCLRD
 70
0
  9
$DIMCLRE
 70
0
  9
$DIMCLRT
 70
0
  9
$DIMTFAC
 40
1.0
  9
$DIMGAP
 40
0.625
  9
$COORDS
 70
1
  9
$ATTDIA
 70
0
  9
$ATTREQ
 70
1
  9
$HANDLING
 70
1
  9
$LUNITS
 70
2
  9
$LUPREC
 70
4
  9
$SKETCHINC
 40
1.0
  9
$FILLETRAD
 40
10.0
  9
$AUNITS
 70
0
  9
$AUPREC
 70
2
  9
$MENU
  1
.
  9
$ELEVATION
 40
0.0
  9
$PELEVATION
 40
0.0
  9
$THICKNESS
 40
0.0
  9
$LIMCHECK
 70
0
  9
$CHAMFERA
 40
0.0
  9
$CHAMFERB
 40
0.0
  9
$SKPOLY
 70
0
  9
$TDCREATE
 40
2459085.6291203704
  9
$TDUPDATE
 40
2459085.6291203704
  9
$TDINDWG
 40
0.0
  9
$TDUSRTIMER
 40
0.0
  9
$USRTIMER
 70
1
  9
$ANGBASE
 50
0.0
  9
$ANGDIR
 70
0
  9
$PDMODE
 70
0
  9
$PDSIZE
 40
0.0
  9
$PLINEWID
 40
0.0
  9
$SPLFRAME
 70
0
  9
$SPLINETYPE
 70
6
  9
$SPLINESEGS
 70
8
  9
$HANDSEED
  5
345
  9
$SURFTAB1
 70
6
  9
$SURFTAB2
 70
6
  9
$SURFTYPE
 70
6
  9
$SURFU
 70
6
  9
$SURFV
 70
6
  9
$UCSNAME
  2

  9
$UCSORG
 10
0.0
 20
0.0
 30
0.0
  9
$UCSXDIR
 10
1.0
 20
0.0
 30
0.0
  9
$UCSYDIR
 10
0.0
 20
1.0
 30
0.0
  9
$PUCSNAME
  2

  9
$PUCSORG
 10
0.0
 20
0.0
 30
0.0
  9
$PUCSXDIR
 10
1.0
 20
0.0
 30
0.0
  9
$PUCSYDIR
 10
0.0
 20
1.0
 30
0.0
  9
$USERI1
 70
0
  9
$USERI2
 70
0
  9
$USERI3
 70
0
  9
$USERI4
 70
0
  9
$USERI5
 70
0
  9
$USERR1
 40
0.0
  9
$USERR2
 40
0.0
  9
$USERR3
 40
0.0
  9
$USERR4
 40
0.0
  9
$USERR5
 40
0.0
  9
$WORLDVIEW
 70
1
  9
$SHADEDGE
 70
3
  9
$SHADEDIF
 70
70
  9
$TILEMODE
 70
1
  9
$MAXACTVP
 70
64
  9
$PLIMCHECK
 70
0
  9
$PEXTMIN
 10
1e+20
 20
1e+20
 30
1e+20
  9
$PEXTMAX
 10
-1e+20
 20
-1e+20
 30
-1e+20
  9
$PLIMMIN
 10
0.0
 20
0.0
  9
$PLIMMAX
 10
420.0
 20
297.0
  9
$UNITMODE
 70
0
  9
$VISRETAIN
 70
1
  9
$PLINEGEN
 70
0
  9
$PSLTSCALE
 70
1
  0
ENDSEC
  0
SECTION
  2
TABLES
  0
TABLE
  2
VPORT
 70
1
  0
VPORT
  5
23
  2
*Active
 70
0
 10
0.0
 20
0.0
 11
1.0
 21
1.0
 12
70.0
 22
50.0
 13
0.0
 23
0.0
 14
0.5
 24
0.5
 15
0.5
 25
0.5
 16
0.0
 26
0.0
 36
1.0
 17
0.0
 27
0.0
 37
0.0
 40
1.0
 41
1.34
 42
50.0
 43
0.0
 44
0.0
 50
0.0
 51
0.0
 71
0
 72
1000
 73
1
 74
3
 75
0
 76
0
 77
0
 78
0
  0
ENDTAB
  0
TABLE
  2
LTYPE
 70
3
  0
LTYPE
  5
24
  2
ByBlock
 70
0
  3

 72
65
 73
0
 40
0.0
  0
LTYPE
  5
25
  2
ByLayer
 70
0
  3

 72
65
 73
0
 40
0.0
  0
LTYPE
  5
26
  2
Continuous
 70
0
  3

 72
65
 73
0
 40
0.0
  0
ENDTAB
  0
TABLE
  2
LAYER
 70
2
  0
LAYER
  5
27
  2
0
 70
0
 62
7
  6
Continuous
  0
LAYER
  5
28
  2
Defpoints
 70
0
 62
7
  6
Continuous
  0
ENDTAB
  0
TABLE
  2
STYLE
 70
1
  0
STYLE
  5
29
  2
Standard
 70
0
 40
0.0
 41
1.0
 50
0.0
 71
0
 42
2.5
  3
txt
  4

  0
ENDTAB
  0
TABLE
  2
VIEW
 70
0
  0
ENDTAB
  0
TABLE
  2
UCS
 70
0
  0
ENDTAB
  0
TABLE
  2
APPID
 70
1
  0
APPID
  5
2A
  2
ACAD
 70
0
  0
ENDTAB
  0
TABLE
  2
DIMSTYLE
 70
1
  0
DIMSTYLE
105
2B
  2
Standard
 70
0
  3

  4

  5

  6

  7

 40
1.0
 41
2.5
 42
0.625
 43
3.75
 44
1.25
 45
0.0
 46
0.0
 47
0.0
 48
0.0
140
2.5
141
2.5
142
0.0
143
0.03937007874
144
1.0
145
0.0
146
1.0
147
0.625
 71
0
 72
0
 73
0
 74
0
 75
0
 76
0
 77
1
 78
8
170
0
171
3
172
1
173
0
174
0
175
0
176
0
177
0
178
0
  0
ENDTAB
  0
ENDSEC
  0
SECTION
  2
BLOCKS
  0
BLOCK
  5
18
  8
0
  2
$Model_Space
 70
0
 10
0.0
 20
0.0
 30
0.0
  3
$Model_Space
  1

  0
ENDBLK
  5
19
  8
0
  0
BLOCK
  5
1C
  8
0
  2
$Paper_Space
 70
0
 10
0.0
 20
0.0
 30
0.0
  3
$Paper_Space
  1

  0
ENDBLK
  5
1D
  8
0
  0
ENDSEC
  0
SECTION
  2
ENTITIES
  0
LINE
  5
2D
  8
0
 10
78.25
 20
451.5
 30
0.0
 11
91.75
 21
451.5
 31
0.0
  0
ARC
  5
2E
  8
0
 10
91.75
 20
451.75
 30
0.0
 40
0.25
 50
270.0
 51
0.0
  0
LINE
  5
2F
  8
0
 10
92.0
 20
451.75
 30
0.0
 11
92.0
 21
465.25
 31
0.0
  0
ARC
  5
30
  8
0
 10
91.75
 20
465.25
 30
0.0
 40
0.25
 50
0.0
 51
90.0
  0
LINE
  5
31
  8
0
 10
91.75
 20
465.5
 30
0.0
 11
78.25
 21
465.5
 31
0.0
  0
ARC
  5
32
  8
0
 10
78.25
 20
465.25
 30
0.0
 40
0.25
 50
90.0
 51
180.0
  0
LINE
  5
33
  8
0
 10
78.0
 20
465.25
 30
0.0
 11
78.0
 21
451.75
 31
0.0
  0
ARC
  5
34
  8
0
 10
78.25
 20
451.75
 30
0.0
 40
0.25
 50
180.0
 51
270.0
  0
LINE
  5
35
  8
0
 10
102.0
 20
451.5
 30
0.0
 11
115.5
 21
451.5
 31
0.0
  0
ARC
  5
36
  8
0
 10
115.5
 20
451.75
 30
0.0
 40
0.25
 50
270.0
 51
0.0
  0
LINE
  5
37
  8
0
 10
115.75
 20
451.75
 30
0.0
 11
115.75
 21
465.25
 31
0.0
  0
ARC
  5
38
  8
0
 10
115.5
 20
465.25
 30
0.0
 40
0.25
 50
0.0
 51
90.0
  0
LINE
  5
39
  8
0
 10
115.5
 20
465.5
 30
0.0
 11
102.0
 21
465.5
 31
0.0
  0
ARC
  5
3A
  8
0
 10
102.0
 20
465.25
 30
0.0
 40
0.25
 50
90.0
 51
180.0
  0
LINE
  5
3B
  8
0
 10
101.75
 20
465.25
 30
0.0
 11
101.75
 21
451.75
 31
0.0
  0
ARC
  5
3C
  8
0
 10
102.0
 20
451.75
 30
0.0
 40
0.25
 50
180.0
 51
270.0
  0
LINE
  5
3D
  8
0
 10
120.75
 20
451.5
 30
0.0
 11
134.25
 21
451.5
 31
0.0
  0
ARC
  5
3E
  8
0
 10
134.25
 20
451.75
 30
0.0
 40
0.25
 50
270.0
 51
0.0
  0
LINE
  5
3F
  8
0
 10
134.5
 20
451.75
 30
0.0
 11
134.5
 21
465.25
 31
0.0
  0
ARC
  5
40
  8
0
 10
134.25
 20
465.25
 30
0.0
 40
0.25
 50
0.0
 51
90.0
  0
LINE
  5
41
  8
0
 10
134.25
 20
465.5
 30
0.0
 11
120.75
 21
465.5
 31
0.0
  0
ARC
  5
42
  8
0
 10
120.75
 20
465.25
 30
0.0
 40
0.25
 50
90.0
 51
180.0
  0
LINE
  5
43
  8
0
 10
120.5
 20
465.25
 30
0.0
 11
120.5
 21
451.75
 31
0.0
  0
ARC
  5
44
  8
0
 10
120.75
 20
451.75
 30
0.0
 40
0.25
 50
180.0
 51
270.0
  0
LINE
  5
45
  8
0
 10
139.5
 20
451.5
 30
0.0
 11
153.0
 21
451.5
 31
0.0
  0
ARC
  5
46
  8
0
 10
153.0
 20
451.75
 30
0.0
 40
0.25
 50
270.0
 51
0.0
  0
LINE
  5
47
  8
0
 10
153.25
 20
451.75
 30
0.0
 11
153.25
 21
465.25
 31
0.0
  0
ARC
  5
48
  8
0
 10
153.0
 20
465.25
 30
0.0
 40
0.25
 50
0.0
 51
90.0
  0
LINE
  5
49
  8
0
 10
153.0
 20
465.5
 30
0.0
 11
139.5
 21
465.5
 31
0.0
  0
ARC
  5
4A
  8
0
 10
139.5
 20
465.25
 30
0.0
 40
0.25
 50
90.0
 51
180.0
  0
LINE
  5
4B
  8
0
 10
139.25
 20
465.25
 30
0.0
 11
139.25
 21
451.75
 31
0.0
  0
ARC
  5
4C
  8
0
 10
139.5
 20
451.75
 30
0.0
 40
0.25
 50
180.0
 51
270.0
  0
LINE
  5
4D
  8
0
 10
158.25
 20
451.5
 30
0.0
 11
171.75
 21
451.5
 31
0.0
  0
ARC
  5
4E
  8
0
 10
171.75
 20
451.75
 30
0.0
 40
0.25
 50
270.0
 51
0.0
  0
LINE
  5
4F
  8
0
 10
172.0
 20
451.75
 30
0.0
 11
172.0
 21
465.25
 31
0.0
  0
ARC
  5
50
  8
0
 10
171.75
 20
465.25
 30
0.0
 40
0.25
 50
0.0
 51
90.0
  0
LINE
  5
51
  8
0
 10
171.75
 20
465.5
 30
0.0
 11
158.25
 21
465.5
 31
0.0
  0
ARC
  5
52
  8
0
 10
158.25
 20
465.25
 30
0.0
 40
0.25
 50
90.0
 51
180.0
  0
LINE
  5
53
  8
0
 10
158.0
 20
465.25
 30
0.0
 11
158.0
 21
451.75
 31
0.0
  0
ARC
  5
54
  8
0
 10
158.25
 20
451.75
 30
0.0
 40
0.25
 50
180.0
 51
270.0
  0
LINE
  5
55
  8
0
 10
78.25
 20
432.75
 30
0.0
 11
91.75
 21
432.75
 31
0.0
  0
ARC
  5
56
  8
0
 10
91.75
 20
433.0
 30
0.0
 40
0.25
 50
270.0
 51
0.0
  0
LINE
  5
57
  8
0
 10
92.0
 20
433.0
 30
0.0
 11
92.0
 21
446.5
 31
0.0
  0
ARC
  5
58
  8
0
 10
91.75
 20
446.5
 30
0.0
 40
0.25
 50
0.0
 51
90.0
  0
LINE
  5
59
  8
0
 10
91.75
 20
446.75
 30
0.0
 11
78.25
 21
446.75
 31
0.0
  0
ARC
  5
5A
  8
0
 10
78.25
 20
446.5
 30
0.0
 40
0.25
 50
90.0
 51
180.0
  0
LINE
  5
5B
  8
0
 10
78.0
 20
446.5
 30
0.0
 11
78.0
 21
433.0
 31
0.0
  0
ARC
  5
5C
  8
0
 10
78.25
 20
433.0
 30
0.0
 40
0.25
 50
180.0
 51
270.0
  0
LINE
  5
5D
  8
0
 10
99.0
 20
432.75
 30
0.0
 11
112.5
 21
432.75
 31
0.0
  0
ARC
  5
5E
  8
0
 10
112.5
 20
433.0
 30
0.0
 40
0.25
 50
270.0
 51
0.0
  0
LINE
  5
5F
  8
0
 10
112.75
 20
433.0
 30
0.0
 11
112.75
 21
446.5
 31
0.0
  0
ARC
  5
60
  8
0
 10
112.5
 20
446.5
 30
0.0
 40
0.25
 50
0.0
 51
90.0
  0
LINE
  5
61
  8
0
 10
112.5
 20
446.75
 30
0.0
 11
99.0
 21
446.75
 31
0.0
  0
ARC
  5
62
  8
0
 10
99.0
 20
446.5
 30
0.0
 40
0.25
 50
90.0
 51
180.0
  0
LINE
  5
63
  8
0
 10
98.75
 20
446.5
 30
0.0
 11
98.75
 21
433.0
 31
0.0
  0
ARC
  5
64
  8
0
 10
99.0
 20
433.0
 30
0.0
 40
0.25
 50
180.0
 51
270.0
  0
LINE
  5
65
  8
0
 10
117.75
 20
432.75
 30
0.0
 11
131.25
 21
432.75
 31
0.0
  0
ARC
  5
66
  8
0
 10
131.25
 20
433.0
 30
0.0
 40
0.25
 50
270.0
 51
0.0
  0
LINE
  5
67
  8
0
 10
131.5
 20
433.0
 30
0.0
 11
131.5
 21
446.5
 31
0.0
  0
ARC
  5
68
  8
0
 10
131.25
 20
446.5
 30
0.0
 40
0.25
 50
0.0
 51
90.0
  0
LINE
  5
69
  8
0
 10
131.25
 20
446.75
 30
0.0
 11
117.75
 21
446.75
 31
0.0
  0
ARC
  5
6A
  8
0
 10
117.75
 20
446.5
 30
0.0
 40
0.25
 50
90.0
 51
180.0
  0
LINE
  5
6B
  8
0
 10
117.5
 20
446.5
 30
0.0
 11
117.5
 21
433.0
 31
0.0
  0
ARC
  5
6C
  8
0
 10
117.75
 20
433.0
 30
0.0
 40
0.25
 50
180.0
 51
270.0
  0
LINE
  5
6D
  8
0
 10
136.5
 20
432.75
 30
0.0
 11
150.0
 21
432.75
 31
0.0
  0
ARC
  5
6E
  8
0
 10
150.0
 20
433.0
 30
0.0
 40
0.25
 50
270.0
 51
0.0
  0
LINE
  5
6F
  8
0
 10
150.25
 20
433.0
 30
0.0
 11
150.25
 21
446.5
 31
0.0
  0
ARC
  5
70
  8
0
 10
150.0
 20
446.5
 30
0.0
 40
0.25
 50
0.0
 51
90.0
  0
LINE
  5
71
  8
0
 10
150.0
 20
446.75
 30
0.0
 11
136.5
 21
446.75
 31
0.0
  0
ARC
  5
72
  8
0
 10
136.5
 20
446.5
 30
0.0
 40
0.25
 50
90.0
 51
180.0
  0
LINE
  5
73
  8
0
 10
136.25
 20
446.5
 30
0.0
 11
136.25
 21
433.0
 31
0.0
  0
ARC
  5
74
  8
0
 10
136.5
 20
433.0
 30
0.0
 40
0.25
 50
180.0
 51
270.0
  0
LINE
  5
75
  8
0
 10
155.25
 20
432.75
 30
0.0
 11
168.75
 21
432.75
 31
0.0
  0
ARC
  5
76
  8
0
 10
168.75
 20
433.0
 30
0.0
 40
0.25
 50
270.0
 51
0.0
  0
LINE
  5
77
  8
0
 10
169.0
 20
433.0
 30
0.0
 11
169.0
 21
446.5
 31
0.0
  0
ARC
  5
78
  8
0
 10
168.75
 20
446.5
 30
0.0
 40
0.25
 50
0.0
 51
90.0
  0
LINE
  5
79
  8
0
 10
168.75
 20
446.75
 30
0.0
 11
155.25
 21
446.75
 31
0.0
  0
ARC
  5
7A
  8
0
 10
155.25
 20
446.5
 30
0.0
 40
0.25
 50
90.0
 51
180.0
  0
LINE
  5
7B
  8
0
 10
155.0
 20
446.5
 30
0.0
 11
155.0
 21
433.0
 31
0.0
  0
ARC
  5
7C
  8
0
 10
155.25
 20
433.0
 30
0.0
 40
0.25
 50
180.0
 51
270.0
  0
LINE
  5
7D
  8
0
 10
78.25
 20
414.0
 30
0.0
 11
91.75
 21
414.0
 31
0.0
  0
ARC
  5
7E
  8
0
 10
91.75
 20
414.25
 30
0.0
 40
0.25
 50
270.0
 51
0.0
  0
LINE
  5
7F
  8
0
 10
92.0
 20
414.25
 30
0.0
 11
92.0
 21
427.75
 31
0.0
  0
ARC
  5
80
  8
0
 10
91.75
 20
427.75
 30
0.0
 40
0.25
 50
0.0
 51
90.0
  0
LINE
  5
81
  8
0
 10
91.75
 20
428.0
 30
0.0
 11
78.25
 21
428.0
 31
0.0
  0
ARC
  5
82
  8
0
 10
78.25
 20
427.75
 30
0.0
 40
0.25
 50
90.0
 51
180.0
  0
LINE
  5
83
  8
0
 10
78.0
 20
427.75
 30
0.0
 11
78.0
 21
414.25
 31
0.0
  0
ARC
  5
84
  8
0
 10
78.25
 20
414.25
 30
0.0
 40
0.25
 50
180.0
 51
270.0
  0
LINE
  5
85
  8
0
 10
102.0
 20
414.0
 30
0.0
 11
115.5
 21
414.0
 31
0.0
  0
ARC
  5
86
  8
0
 10
115.5
 20
414.25
 30
0.0
 40
0.25
 50
270.0
 51
0.0
  0
LINE
  5
87
  8
0
 10
115.75
 20
414.25
 30
0.0
 11
115.75
 21
427.75
 31
0.0
  0
ARC
  5
88
  8
0
 10
115.5
 20
427.75
 30
0.0
 40
0.25
 50
0.0
 51
90.0
  0
LINE
  5
89
  8
0
 10
115.5
 20
428.0
 30
0.0
 11
102.0
 21
428.0
 31
0.0
  0
ARC
  5
8A
  8
0
 10
102.0
 20
427.75
 30
0.0
 40
0.25
 50
90.0
 51
180.0
  0
LINE
  5
8B
  8
0
 10
101.75
 20
427.75
 30
0.0
 11
101.75
 21
414.25
 31
0.0
  0
ARC
  5
8C
  8
0
 10
102.0
 20
414.25
 30
0.0
 40
0.25
 50
180.0
 51
270.0
  0
LINE
  5
8D
  8
0
 10
120.75
 20
414.0
 30
0.0
 11
134.25
 21
414.0
 31
0.0
  0
ARC
  5
8E
  8
0
 10
134.25
 20
414.25
 30
0.0
 40
0.25
 50
270.0
 51
0.0
  0
LINE
  5
8F
  8
0
 10
134.5
 20
414.25
 30
0.0
 11
134.5
 21
427.75
 31
0.0
  0
ARC
  5
90
  8
0
 10
134.25
 20
427.75
 30
0.0
 40
0.25
 50
0.0
 51
90.0
  0
LINE
  5
91
  8
0
 10
134.25
 20
428.0
 30
0.0
 11
120.75
 21
428.0
 31
0.0
  0
ARC
  5
92
  8
0
 10
120.75
 20
427.75
 30
0.0
 40
0.25
 50
90.0
 51
180.0
  0
LINE
  5
93
  8
0
 10
120.5
 20
427.75
 30
0.0
 11
120.5
 21
414.25
 31
0.0
  0
ARC
  5
94
  8
0
 10
120.75
 20
414.25
 30
0.0
 40
0.25
 50
180.0
 51
270.0
  0
LINE
  5
95
  8
0
 10
139.5
 20
414.0
 30
0.0
 11
153.0
 21
414.0
 31
0.0
  0
ARC
  5
96
  8
0
 10
153.0
 20
414.25
 30
0.0
 40
0.25
 50
270.0
 51
0.0
  0
LINE
  5
97
  8
0
 10
153.25
 20
414.25
 30
0.0
 11
153.25
 21
427.75
 31
0.0
  0
ARC
  5
98
  8
0
 10
153.0
 20
427.75
 30
0.0
 40
0.25
 50
0.0
 51
90.0
  0
LINE
  5
99
  8
0
 10
153.0
 20
428.0
 30
0.0
 11
139.5
 21
428.0
 31
0.0
  0
ARC
  5
9A
  8
0
 10
139.5
 20
427.75
 30
0.0
 40
0.25
 50
90.0
 51
180.0
  0
LINE
  5
9B
  8
0
 10
139.25
 20
427.75
 30
0.0
 11
139.25
 21
414.25
 31
0.0
  0
ARC
  5
9C
  8
0
 10
139.5
 20
414.25
 30
0.0
 40
0.25
 50
180.0
 51
270.0
  0
LINE
  5
9D
  8
0
 10
158.25
 20
414.0
 30
0.0
 11
171.75
 21
414.0
 31
0.0
  0
ARC
  5
9E
  8
0
 10
171.75
 20
414.25
 30
0.0
 40
0.25
 50
270.0
 51
0.0
  0
LINE
  5
9F
  8
0
 10
172.0
 20
414.25
 30
0.0
 11
172.0
 21
427.75
 31
0.0
  0
ARC
  5
A0
  8
0
 10
171.75
 20
427.75
 30
0.0
 40
0.25
 50
0.0
 51
90.0
  0
LINE
  5
A1
  8
0
 10
171.75
 20
428.0
 30
0.0
 11
158.25
 21
428.0
 31
0.0
  0
ARC
  5
A2
  8
0
 10
158.25
 20
427.75
 30
0.0
 40
0.25
 50
90.0
 51
180.0
  0
LINE
  5
A3
  8
0
 10
158.0
 20
427.75
 30
0.0
 11
158.0
 21
414.25
 31
0.0
  0
ARC
  5
A4
  8
0
 10
158.25
 20
414.25
 30
0.0
 40
0.25
 50
180.0
 51
270.0
  0
LINE
  5
A5
  8
0
 10
78.25
 20
395.25
 30
0.0
 11
91.75
 21
395.25
 31
0.0
  0
ARC
  5
A6
  8
0
 10
91.75
 20
395.5
 30
0.0
 40
0.25
 50
270.0
 51
0.0
  0
LINE
  5
A7
  8
0
 10
92.0
 20
395.5
 30
0.0
 11
92.0
 21
409.0
 31
0.0
  0
ARC
  5
A8
  8
0
 10
91.75
 20
409.0
 30
0.0
 40
0.25
 50
0.0
 51
90.0
  0
LINE
  5
A9
  8
0
 10
91.75
 20
409.25
 30
0.0
 11
78.25
 21
409.25
 31
0.0
  0
ARC
  5
AA
  8
0
 10
78.25
 20
409.0
 30
0.0
 40
0.25
 50
90.0
 51
180.0
  0
LINE
  5
AB
  8
0
 10
78.0
 20
409.0
 30
0.0
 11
78.0
 21
395.5
 31
0.0
  0
ARC
  5
AC
  8
0
 10
78.25
 20
395.5
 30
0.0
 40
0.25
 50
180.0
 51
270.0
  0
LINE
  5
AD
  8
0
 10
105.0
 20
395.25
 30
0.0
 11
118.5
 21
395.25
 31
0.0
  0
ARC
  5
AE
  8
0
 10
118.5
 20
395.5
 30
0.0
 40
0.25
 50
270.0
 51
0.0
  0
LINE
  5
AF
  8
0
 10
118.75
 20
395.5
 30
0.0
 11
118.75
 21
409.0
 31
0.0
  0
ARC
  5
B0
  8
0
 10
118.5
 20
409.0
 30
0.0
 40
0.25
 50
0.0
 51
90.0
  0
LINE
  5
B1
  8
0
 10
118.5
 20
409.25
 30
0.0
 11
105.0
 21
409.25
 31
0.0
  0
ARC
  5
B2
  8
0
 10
105.0
 20
409.0
 30
0.0
 40
0.25
 50
90.0
 51
180.0
  0
LINE
  5
B3
  8
0
 10
104.75
 20
409.0
 30
0.0
 11
104.75
 21
395.5
 31
0.0
  0
ARC
  5
B4
  8
0
 10
105.0
 20
395.5
 30
0.0
 40
0.25
 50
180.0
 51
270.0
  0
LINE
  5
B5
  8
0
 10
123.75
 20
395.25
 30
0.0
 11
137.25
 21
395.25
 31
0.0
  0
ARC
  5
B6
  8
0
 10
137.25
 20
395.5
 30
0.0
 40
0.25
 50
270.0
 51
0.0
  0
LINE
  5
B7
  8
0
 10
137.5
 20
395.5
 30
0.0
 11
137.5
 21
409.0
 31
0.0
  0
ARC
  5
B8
  8
0
 10
137.25
 20
409.0
 30
0.0
 40
0.25
 50
0.0
 51
90.0
  0
LINE
  5
B9
  8
0
 10
137.25
 20
409.25
 30
0.0
 11
123.75
 21
409.25
 31
0.0
  0
ARC
  5
BA
  8
0
 10
123.75
 20
409.0
 30
0.0
 40
0.25
 50
90.0
 51
180.0
  0
LINE
  5
BB
  8
0
 10
123.5
 20
409.0
 30
0.0
 11
123.5
 21
395.5
 31
0.0
  0
ARC
  5
BC
  8
0
 10
123.75
 20
395.5
 30
0.0
 40
0.25
 50
180.0
 51
270.0
  0
LINE
  5
BD
  8
0
 10
142.5
 20
395.25
 30
0.0
 11
156.0
 21
395.25
 31
0.0
  0
ARC
  5
BE
  8
0
 10
156.0
 20
395.5
 30
0.0
 40
0.25
 50
270.0
 51
0.0
  0
LINE
  5
BF
  8
0
 10
156.25
 20
395.5
 30
0.0
 11
156.25
 21
409.0
 31
0.0
  0
ARC
  5
C0
  8
0
 10
156.0
 20
409.0
 30
0.0
 40
0.25
 50
0.0
 51
90.0
  0
LINE
  5
C1
  8
0
 10
156.0
 20
409.25
 30
0.0
 11
142.5
 21
409.25
 31
0.0
  0
ARC
  5
C2
  8
0
 10
142.5
 20
409.0
 30
0.0
 40
0.25
 50
90.0
 51
180.0
  0
LINE
  5
C3
  8
0
 10
142.25
 20
409.0
 30
0.0
 11
142.25
 21
395.5
 31
0.0
  0
ARC
  5
C4
  8
0
 10
142.5
 20
395.5
 30
0.0
 40
0.25
 50
180.0
 51
270.0
  0
LINE
  5
C5
  8
0
 10
161.25
 20
395.25
 30
0.0
 11
174.75
 21
395.25
 31
0.0
  0
ARC
  5
C6
  8
0
 10
174.75
 20
395.5
 30
0.0
 40
0.25
 50
270.0
 51
0.0
  0
LINE
  5
C7
  8
0
 10
175.0
 20
395.5
 30
0.0
 11
175.0
 21
409.0
 31
0.0
  0
ARC
  5
C8
  8
0
 10
174.75
 20
409.0
 30
0.0
 40
0.25
 50
0.0
 51
90.0
  0
LINE
  5
C9
  8
0
 10
174.75
 20
409.25
 30
0.0
 11
161.25
 21
409.25
 31
0.0
  0
ARC
  5
CA
  8
0
 10
161.25
 20
409.0
 30
0.0
 40
0.25
 50
90.0
 51
180.0
  0
LINE
  5
CB
  8
0
 10
161.0
 20
409.0
 30
0.0
 11
161.0
 21
395.5
 31
0.0
  0
ARC
  5
CC
  8
0
 10
161.25
 20
395.5
 30
0.0
 40
0.25
 50
180.0
 51
270.0
  0
LINE
  5
CD
  8
0
 10
188.25
 20
451.5
 30
0.0
 11
201.75
 21
451.5
 31
0.0
  0
ARC
  5
CE
  8
0
 10
201.75
 20
451.75
 30
0.0
 40
0.25
 50
270.0
 51
0.0
  0
LINE
  5
CF
  8
0
 10
202.0
 20
451.75
 30
0.0
 11
202.0
 21
465.25
 31
0.0
  0
ARC
  5
D0
  8
0
 10
201.75
 20
465.25
 30
0.0
 40
0.25
 50
0.0
 51
90.0
  0
LINE
  5
D1
  8
0
 10
201.75
 20
465.5
 30
0.0
 11
188.25
 21
465.5
 31
0.0
  0
ARC
  5
D2
  8
0
 10
188.25
 20
465.25
 30
0.0
 40
0.25
 50
90.0
 51
180.0
  0
LINE
  5
D3
  8
0
 10
188.0
 20
465.25
 30
0.0
 11
188.0
 21
451.75
 31
0.0
  0
ARC
  5
D4
  8
0
 10
188.25
 20
451.75
 30
0.0
 40
0.25
 50
180.0
 51
270.0
  0
LINE
  5
D5
  8
0
 10
207.0
 20
451.5
 30
0.0
 11
220.5
 21
451.5
 31
0.0
  0
ARC
  5
D6
  8
0
 10
220.5
 20
451.75
 30
0.0
 40
0.25
 50
270.0
 51
0.0
  0
LINE
  5
D7
  8
0
 10
220.75
 20
451.75
 30
0.0
 11
220.75
 21
465.25
 31
0.0
  0
ARC
  5
D8
  8
0
 10
220.5
 20
465.25
 30
0.0
 40
0.25
 50
0.0
 51
90.0
  0
LINE
  5
D9
  8
0
 10
220.5
 20
465.5
 30
0.0
 11
207.0
 21
465.5
 31
0.0
  0
ARC
  5
DA
  8
0
 10
207.0
 20
465.25
 30
0.0
 40
0.25
 50
90.0
 51
180.0
  0
LINE
  5
DB
  8
0
 10
206.75
 20
465.25
 30
0.0
 11
206.75
 21
451.75
 31
0.0
  0
ARC
  5
DC
  8
0
 10
207.0
 20
451.75
 30
0.0
 40
0.25
 50
180.0
 51
270.0
  0
LINE
  5
DD
  8
0
 10
225.75
 20
451.5
 30
0.0
 11
239.25
 21
451.5
 31
0.0
  0
ARC
  5
DE
  8
0
 10
239.25
 20
451.75
 30
0.0
 40
0.25
 50
270.0
 51
0.0
  0
LINE
  5
DF
  8
0
 10
239.5
 20
451.75
 30
0.0
 11
239.5
 21
465.25
 31
0.0
  0
ARC
  5
E0
  8
0
 10
239.25
 20
465.25
 30
0.0
 40
0.25
 50
0.0
 51
90.0
  0
LINE
  5
E1
  8
0
 10
239.25
 20
465.5
 30
0.0
 11
225.75
 21
465.5
 31
0.0
  0
ARC
  5
E2
  8
0
 10
225.75
 20
465.25
 30
0.0
 40
0.25
 50
90.0
 51
180.0
  0
LINE
  5
E3
  8
0
 10
225.5
 20
465.25
 30
0.0
 11
225.5
 21
451.75
 31
0.0
  0
ARC
  5
E4
  8
0
 10
225.75
 20
451.75
 30
0.0
 40
0.25
 50
180.0
 51
270.0
  0
LINE
  5
E5
  8
0
 10
244.5
 20
451.5
 30
0.0
 11
258.0
 21
451.5
 31
0.0
  0
ARC
  5
E6
  8
0
 10
258.0
 20
451.75
 30
0.0
 40
0.25
 50
270.0
 51
0.0
  0
LINE
  5
E7
  8
0
 10
258.25
 20
451.75
 30
0.0
 11
258.25
 21
465.25
 31
0.0
  0
ARC
  5
E8
  8
0
 10
258.0
 20
465.25
 30
0.0
 40
0.25
 50
0.0
 51
90.0
  0
LINE
  5
E9
  8
0
 10
258.0
 20
465.5
 30
0.0
 11
244.5
 21
465.5
 31
0.0
  0
ARC
  5
EA
  8
0
 10
244.5
 20
465.25
 30
0.0
 40
0.25
 50
90.0
 51
180.0
  0
LINE
  5
EB
  8
0
 10
244.25
 20
465.25
 30
0.0
 11
244.25
 21
451.75
 31
0.0
  0
ARC
  5
EC
  8
0
 10
244.5
 20
451.75
 30
0.0
 40
0.25
 50
180.0
 51
270.0
  0
LINE
  5
ED
  8
0
 10
268.25
 20
451.5
 30
0.0
 11
281.75
 21
451.5
 31
0.0
  0
ARC
  5
EE
  8
0
 10
281.75
 20
451.75
 30
0.0
 40
0.25
 50
270.0
 51
0.0
  0
LINE
  5
EF
  8
0
 10
282.0
 20
451.75
 30
0.0
 11
282.0
 21
465.25
 31
0.0
  0
ARC
  5
F0
  8
0
 10
281.75
 20
465.25
 30
0.0
 40
0.25
 50
0.0
 51
90.0
  0
LINE
  5
F1
  8
0
 10
281.75
 20
465.5
 30
0.0
 11
268.25
 21
465.5
 31
0.0
  0
ARC
  5
F2
  8
0
 10
268.25
 20
465.25
 30
0.0
 40
0.25
 50
90.0
 51
180.0
  0
LINE
  5
F3
  8
0
 10
268.0
 20
465.25
 30
0.0
 11
268.0
 21
451.75
 31
0.0
  0
ARC
  5
F4
  8
0
 10
268.25
 20
451.75
 30
0.0
 40
0.25
 50
180.0
 51
270.0
  0
LINE
  5
F5
  8
0
 10
191.25
 20
432.75
 30
0.0
 11
204.75
 21
432.75
 31
0.0
  0
ARC
  5
F6
  8
0
 10
204.75
 20
433.0
 30
0.0
 40
0.25
 50
270.0
 51
0.0
  0
LINE
  5
F7
  8
0
 10
205.0
 20
433.0
 30
0.0
 11
205.0
 21
446.5
 31
0.0
  0
ARC
  5
F8
  8
0
 10
204.75
 20
446.5
 30
0.0
 40
0.25
 50
0.0
 51
90.0
  0
LINE
  5
F9
  8
0
 10
204.75
 20
446.75
 30
0.0
 11
191.25
 21
446.75
 31
0.0
  0
ARC
  5
FA
  8
0
 10
191.25
 20
446.5
 30
0.0
 40
0.25
 50
90.0
 51
180.0
  0
LINE
  5
FB
  8
0
 10
191.0
 20
446.5
 30
0.0
 11
191.0
 21
433.0
 31
0.0
  0
ARC
  5
FC
  8
0
 10
191.25
 20
433.0
 30
0.0
 40
0.25
 50
180.0
 51
270.0
  0
LINE
  5
FD
  8
0
 10
210.0
 20
432.75
 30
0.0
 11
223.5
 21
432.75
 31
0.0
  0
ARC
  5
FE
  8
0
 10
223.5
 20
433.0
 30
0.0
 40
0.25
 50
270.0
 51
0.0
  0
LINE
  5
FF
  8
0
 10
223.75
 20
433.0
 30
0.0
 11
223.75
 21
446.5
 31
0.0
  0
ARC
  5
100
  8
0
 10
223.5
 20
446.5
 30
0.0
 40
0.25
 50
0.0
 51
90.0
  0
LINE
  5
101
  8
0
 10
223.5
 20
446.75
 30
0.0
 11
210.0
 21
446.75
 31
0.0
  0
ARC
  5
102
  8
0
 10
210.0
 20
446.5
 30
0.0
 40
0.25
 50
90.0
 51
180.0
  0
LINE
  5
103
  8
0
 10
209.75
 20
446.5
 30
0.0
 11
209.75
 21
433.0
 31
0.0
  0
ARC
  5
104
  8
0
 10
210.0
 20
433.0
 30
0.0
 40
0.25
 50
180.0
 51
270.0
  0
LINE
  5
105
  8
0
 10
228.75
 20
432.75
 30
0.0
 11
242.25
 21
432.75
 31
0.0
  0
ARC
  5
106
  8
0
 10
242.25
 20
433.0
 30
0.0
 40
0.25
 50
270.0
 51
0.0
  0
LINE
  5
107
  8
0
 10
242.5
 20
433.0
 30
0.0
 11
242.5
 21
446.5
 31
0.0
  0
ARC
  5
108
  8
0
 10
242.25
 20
446.5
 30
0.0
 40
0.25
 50
0.0
 51
90.0
  0
LINE
  5
109
  8
0
 10
242.25
 20
446.75
 30
0.0
 11
228.75
 21
446.75
 31
0.0
  0
ARC
  5
10A
  8
0
 10
228.75
 20
446.5
 30
0.0
 40
0.25
 50
90.0
 51
180.0
  0
LINE
  5
10B
  8
0
 10
228.5
 20
446.5
 30
0.0
 11
228.5
 21
433.0
 31
0.0
  0
ARC
  5
10C
  8
0
 10
228.75
 20
433.0
 30
0.0
 40
0.25
 50
180.0
 51
270.0
  0
LINE
  5
10D
  8
0
 10
247.5
 20
432.75
 30
0.0
 11
261.0
 21
432.75
 31
0.0
  0
ARC
  5
10E
  8
0
 10
261.0
 20
433.0
 30
0.0
 40
0.25
 50
270.0
 51
0.0
  0
LINE
  5
10F
  8
0
 10
261.25
 20
433.0
 30
0.0
 11
261.25
 21
446.5
 31
0.0
  0
ARC
  5
110
  8
0
 10
261.0
 20
446.5
 30
0.0
 40
0.25
 50
0.0
 51
90.0
  0
LINE
  5
111
  8
0
 10
261.0
 20
446.75
 30
0.0
 11
247.5
 21
446.75
 31
0.0
  0
ARC
  5
112
  8
0
 10
247.5
 20
446.5
 30
0.0
 40
0.25
 50
90.0
 51
180.0
  0
LINE
  5
113
  8
0
 10
247.25
 20
446.5
 30
0.0
 11
247.25
 21
433.0
 31
0.0
  0
ARC
  5
114
  8
0
 10
247.5
 20
433.0
 30
0.0
 40
0.25
 50
180.0
 51
270.0
  0
LINE
  5
115
  8
0
 10
268.25
 20
432.75
 30
0.0
 11
281.75
 21
432.75
 31
0.0
  0
ARC
  5
116
  8
0
 10
281.75
 20
433.0
 30
0.0
 40
0.25
 50
270.0
 51
0.0
  0
LINE
  5
117
  8
0
 10
282.0
 20
433.0
 30
0.0
 11
282.0
 21
446.5
 31
0.0
  0
ARC
  5
118
  8
0
 10
281.75
 20
446.5
 30
0.0
 40
0.25
 50
0.0
 51
90.0
  0
LINE
  5
119
  8
0
 10
281.75
 20
446.75
 30
0.0
 11
268.25
 21
446.75
 31
0.0
  0
ARC
  5
11A
  8
0
 10
268.25
 20
446.5
 30
0.0
 40
0.25
 50
90.0
 51
180.0
  0
LINE
  5
11B
  8
0
 10
268.0
 20
446.5
 30
0.0
 11
268.0
 21
433.0
 31
0.0
  0
ARC
  5
11C
  8
0
 10
268.25
 20
433.0
 30
0.0
 40
0.25
 50
180.0
 51
270.0
  0
LINE
  5
11D
  8
0
 10
188.25
 20
414.0
 30
0.0
 11
201.75
 21
414.0
 31
0.0
  0
ARC
  5
11E
  8
0
 10
201.75
 20
414.25
 30
0.0
 40
0.25
 50
270.0
 51
0.0
  0
LINE
  5
11F
  8
0
 10
202.0
 20
414.25
 30
0.0
 11
202.0
 21
427.75
 31
0.0
  0
ARC
  5
120
  8
0
 10
201.75
 20
427.75
 30
0.0
 40
0.25
 50
0.0
 51
90.0
  0
LINE
  5
121
  8
0
 10
201.75
 20
428.0
 30
0.0
 11
188.25
 21
428.0
 31
0.0
  0
ARC
  5
122
  8
0
 10
188.25
 20
427.75
 30
0.0
 40
0.25
 50
90.0
 51
180.0
  0
LINE
  5
123
  8
0
 10
188.0
 20
427.75
 30
0.0
 11
188.0
 21
414.25
 31
0.0
  0
ARC
  5
124
  8
0
 10
188.25
 20
414.25
 30
0.0
 40
0.25
 50
180.0
 51
270.0
  0
LINE
  5
125
  8
0
 10
207.0
 20
414.0
 30
0.0
 11
220.5
 21
414.0
 31
0.0
  0
ARC
  5
126
  8
0
 10
220.5
 20
414.25
 30
0.0
 40
0.25
 50
270.0
 51
0.0
  0
LINE
  5
127
  8
0
 10
220.75
 20
414.25
 30
0.0
 11
220.75
 21
427.75
 31
0.0
  0
ARC
  5
128
  8
0
 10
220.5
 20
427.75
 30
0.0
 40
0.25
 50
0.0
 51
90.0
  0
LINE
  5
129
  8
0
 10
220.5
 20
428.0
 30
0.0
 11
207.0
 21
428.0
 31
0.0
  0
ARC
  5
12A
  8
0
 10
207.0
 20
427.75
 30
0.0
 40
0.25
 50
90.0
 51
180.0
  0
LINE
  5
12B
  8
0
 10
206.75
 20
427.75
 30
0.0
 11
206.75
 21
414.25
 31
0.0
  0
ARC
  5
12C
  8
0
 10
207.0
 20
414.25
 30
0.0
 40
0.25
 50
180.0
 51
270.0
  0
LINE
  5
12D
  8
0
 10
225.75
 20
414.0
 30
0.0
 11
239.25
 21
414.0
 31
0.0
  0
ARC
  5
12E
  8
0
 10
239.25
 20
414.25
 30
0.0
 40
0.25
 50
270.0
 51
0.0
  0
LINE
  5
12F
  8
0
 10
239.5
 20
414.25
 30
0.0
 11
239.5
 21
427.75
 31
0.0
  0
ARC
  5
130
  8
0
 10
239.25
 20
427.75
 30
0.0
 40
0.25
 50
0.0
 51
90.0
  0
LINE
  5
131
  8
0
 10
239.25
 20
428.0
 30
0.0
 11
225.75
 21
428.0
 31
0.0
  0
ARC
  5
132
  8
0
 10
225.75
 20
427.75
 30
0.0
 40
0.25
 50
90.0
 51
180.0
  0
LINE
  5
133
  8
0
 10
225.5
 20
427.75
 30
0.0
 11
225.5
 21
414.25
 31
0.0
  0
ARC
  5
134
  8
0
 10
225.75
 20
414.25
 30
0.0
 40
0.25
 50
180.0
 51
270.0
  0
LINE
  5
135
  8
0
 10
244.5
 20
414.0
 30
0.0
 11
258.0
 21
414.0
 31
0.0
  0
ARC
  5
136
  8
0
 10
258.0
 20
414.25
 30
0.0
 40
0.25
 50
270.0
 51
0.0
  0
LINE
  5
137
  8
0
 10
258.25
 20
414.25
 30
0.0
 11
258.25
 21
427.75
 31
0.0
  0
ARC
  5
138
  8
0
 10
258.0
 20
427.75
 30
0.0
 40
0.25
 50
0.0
 51
90.0
  0
LINE
  5
139
  8
0
 10
258.0
 20
428.0
 30
0.0
 11
244.5
 21
428.0
 31
0.0
  0
ARC
  5
13A
  8
0
 10
244.5
 20
427.75
 30
0.0
 40
0.25
 50
90.0
 51
180.0
  0
LINE
  5
13B
  8
0
 10
244.25
 20
427.75
 30
0.0
 11
244.25
 21
414.25
 31
0.0
  0
ARC
  5
13C
  8
0
 10
244.5
 20
414.25
 30
0.0
 40
0.25
 50
180.0
 51
270.0
  0
LINE
  5
13D
  8
0
 10
268.25
 20
414.0
 30
0.0
 11
281.75
 21
414.0
 31
0.0
  0
ARC
  5
13E
  8
0
 10
281.75
 20
414.25
 30
0.0
 40
0.25
 50
270.0
 51
0.0
  0
LINE
  5
13F
  8
0
 10
282.0
 20
414.25
 30
0.0
 11
282.0
 21
427.75
 31
0.0
  0
ARC
  5
140
  8
0
 10
281.75
 20
427.75
 30
0.0
 40
0.25
 50
0.0
 51
90.0
  0
LINE
  5
141
  8
0
 10
281.75
 20
428.0
 30
0.0
 11
268.25
 21
428.0
 31
0.0
  0
ARC
  5
142
  8
0
 10
268.25
 20
427.75
 30
0.0
 40
0.25
 50
90.0
 51
180.0
  0
LINE
  5
143
  8
0
 10
268.0
 20
427.75
 30
0.0
 11
268.0
 21
414.25
 31
0.0
  0
ARC
  5
144
  8
0
 10
268.25
 20
414.25
 30
0.0
 40
0.25
 50
180.0
 51
270.0
  0
LINE
  5
145
  8
0
 10
185.25
 20
395.25
 30
0.0
 11
198.75
 21
395.25
 31
0.0
  0
ARC
  5
146
  8
0
 10
198.75
 20
395.5
 30
0.0
 40
0.25
 50
270.0
 51
0.0
  0
LINE
  5
147
  8
0
 10
199.0
 20
395.5
 30
0.0
 11
199.0
 21
409.0
 31
0.0
  0
ARC
  5
148
  8
0
 10
198.75
 20
409.0
 30
0.0
 40
0.25
 50
0.0
 51
90.0
  0
LINE
  5
149
  8
0
 10
198.75
 20
409.25
 30
0.0
 11
185.25
 21
409.25
 31
0.0
  0
ARC
  5
14A
  8
0
 10
185.25
 20
409.0
 30
0.0
 40
0.25
 50
90.0
 51
180.0
  0
LINE
  5
14B
  8
0
 10
185.0
 20
409.0
 30
0.0
 11
185.0
 21
395.5
 31
0.0
  0
ARC
  5
14C
  8
0
 10
185.25
 20
395.5
 30
0.0
 40
0.25
 50
180.0
 51
270.0
  0
LINE
  5
14D
  8
0
 10
204.0
 20
395.25
 30
0.0
 11
217.5
 21
395.25
 31
0.0
  0
ARC
  5
14E
  8
0
 10
217.5
 20
395.5
 30
0.0
 40
0.25
 50
270.0
 51
0.0
  0
LINE
  5
14F
  8
0
 10
217.75
 20
395.5
 30
0.0
 11
217.75
 21
409.0
 31
0.0
  0
ARC
  5
150
  8
0
 10
217.5
 20
409.0
 30
0.0
 40
0.25
 50
0.0
 51
90.0
  0
LINE
  5
151
  8
0
 10
217.5
 20
409.25
 30
0.0
 11
204.0
 21
409.25
 31
0.0
  0
ARC
  5
152
  8
0
 10
204.0
 20
409.0
 30
0.0
 40
0.25
 50
90.0
 51
180.0
  0
LINE
  5
153
  8
0
 10
203.75
 20
409.0
 30
0.0
 11
203.75
 21
395.5
 31
0.0
  0
ARC
  5
154
  8
0
 10
204.0
 20
395.5
 30
0.0
 40
0.25
 50
180.0
 51
270.0
  0
LINE
  5
155
  8
0
 10
222.75
 20
395.25
 30
0.0
 11
236.25
 21
395.25
 31
0.0
  0
ARC
  5
156
  8
0
 10
236.25
 20
395.5
 30
0.0
 40
0.25
 50
270.0
 51
0.0
  0
LINE
  5
157
  8
0
 10
236.5
 20
395.5
 30
0.0
 11
236.5
 21
409.0
 31
0.0
  0
ARC
  5
158
  8
0
 10
236.25
 20
409.0
 30
0.0
 40
0.25
 50
0.0
 51
90.0
  0
LINE
  5
159
  8
0
 10
236.25
 20
409.25
 30
0.0
 11
222.75
 21
409.25
 31
0.0
  0
ARC
  5
15A
  8
0
 10
222.75
 20
409.0
 30
0.0
 40
0.25
 50
90.0
 51
180.0
  0
LINE
  5
15B
  8
0
 10
222.5
 20
409.0
 30
0.0
 11
222.5
 21
395.5
 31
0.0
  0
ARC
  5
15C
  8
0
 10
222.75
 20
395.5
 30
0.0
 40
0.25
 50
180.0
 51
270.0
  0
LINE
  5
15D
  8
0
 10
241.5
 20
395.25
 30
0.0
 11
255.0
 21
395.25
 31
0.0
  0
ARC
  5
15E
  8
0
 10
255.0
 20
395.5
 30
0.0
 40
0.25
 50
270.0
 51
0.0
  0
LINE
  5
15F
  8
0
 10
255.25
 20
395.5
 30
0.0
 11
255.25
 21
409.0
 31
0.0
  0
ARC
  5
160
  8
0
 10
255.0
 20
409.0
 30
0.0
 40
0.25
 50
0.0
 51
90.0
  0
LINE
  5
161
  8
0
 10
255.0
 20
409.25
 30
0.0
 11
241.5
 21
409.25
 31
0.0
  0
ARC
  5
162
  8
0
 10
241.5
 20
409.0
 30
0.0
 40
0.25
 50
90.0
 51
180.0
  0
LINE
  5
163
  8
0
 10
241.25
 20
409.0
 30
0.0
 11
241.25
 21
395.5
 31
0.0
  0
ARC
  5
164
  8
0
 10
241.5
 20
395.5
 30
0.0
 40
0.25
 50
180.0
 51
270.0
  0
LINE
  5
165
  8
0
 10
268.25
 20
395.25
 30
0.0
 11
281.75
 21
395.25
 31
0.0
  0
ARC
  5
166
  8
0
 10
281.75
 20
395.5
 30
0.0
 40
0.25
 50
270.0
 51
0.0
  0
LINE
  5
167
  8
0
 10
282.0
 20
395.5
 30
0.0
 11
282.0
 21
409.0
 31
0.0
  0
ARC
  5
168
  8
0
 10
281.75
 20
409.0
 30
0.0
 40
0.25
 50
0.0
 51
90.0
  0
LINE
  5
169
  8
0
 10
281.75
 20
409.25
 30
0.0
 11
268.25
 21
409.25
 31
0.0
  0
ARC
  5
16A
  8
0
 10
268.25
 20
409.0
 30
0.0
 40
0.25
 50
90.0
 51
180.0
  0
LINE
  5
16B
  8
0
 10
268.0
 20
409.0
 30
0.0
 11
268.0
 21
395.5
 31
0.0
  0
ARC
  5
16C
  8
0
 10
268.25
 20
395.5
 30
0.0
 40
0.25
 50
180.0
 51
270.0
  0
LINE
  5
16D
  8
0
 10
43.82153599063649
 20
13.016982201602342
 30
0.0
 11
57.02646400936351
 21
15.824017798397609
 31
0.0
  0
ARC
  5
16E
  8
0
 10
56.97448180776114
 20
16.0685537890341
 30
0.0
 40
0.25
 50
282.001002561364
 51
12.001002561363979
  0
LINE
  5
16F
  8
0
 10
57.21901779839763
 20
16.12053599063647
 30
0.0
 11
54.41198220160237
 21
29.3254640093635
 31
0.0
  0
ARC
  5
170
  8
0
 10
54.16744621096588
 20
29.273481807761133
 30
0.0
 40
0.25
 50
12.001002561363979
 51
102.00100256136399
  0
LINE
  5
171
  8
0
 10
54.11546400936351
 20
29.518017798397626
 30
0.0
 11
40.91053599063649
 21
26.71098220160236
 31
0.0
  0
ARC
  5
172
  8
0
 10
40.96251819223886
 20
26.466446210965866
 30
0.0
 40
0.25
 50
102.00100256136399
 51
192.00100256136398
  0
LINE
  5
173
  8
0
 10
40.71798220160237
 20
26.4144640093635
 30
0.0
 11
43.52501779839763
 21
13.209535990636468
 31
0.0
  0
ARC
  5
174
  8
0
 10
43.76955378903412
 20
13.261518192238835
 30
0.0
 40
0.25
 50
192.00100256136398
 51
282.001002561364
  0
LINE
  5
175
  8
0
 10
62.16253599063649
 20
16.914982201602367
 30
0.0
 11
75.3674640093635
 21
19.722017798397633
 31
0.0
  0
ARC
  5
176
  8
0
 10
75.31548180776113
 20
19.966553789034126
 30
0.0
 40
0.25
 50
282.001002561364
 51
12.001002561363979
  0
LINE
  5
177
  8
0
 10
75.56001779839762
 20
20.018535990636494
 30
0.0
 11
72.75298220160236
 21
33.223464009363525
 31
0.0
  0
ARC
  5
178
  8
0
 10
72.50844621096587
 20
33.171481807761154
 30
0.0
 40
0.25
 50
12.001002561363979
 51
102.00100256136399
  0
LINE
  5
179
  8
0
 10
72.4564640093635
 20
33.41601779839765
 30
0.0
 11
59.251535990636484
 21
30.608982201602384
 31
0.0
  0
ARC
  5
17A
  8
0
 10
59.303518192238855
 20
30.36444621096589
 30
0.0
 40
0.25
 50
102.00100256136399
 51
192.001002561364
  0
LINE
  5
17B
  8
0
 10
59.05898220160236
 20
30.312464009363524
 30
0.0
 11
61.86601779839763
 21
17.107535990636492
 31
0.0
  0
ARC
  5
17C
  8
0
 10
62.11055378903412
 20
17.15951819223886
 30
0.0
 40
0.25
 50
192.001002561364
 51
282.001002561364
  0
LINE
  5
17D
  8
0
 10
80.50253599063649
 20
20.813982201602368
 30
0.0
 11
93.7074640093635
 21
23.621017798397634
 31
0.0
  0
ARC
  5
17E
  8
0
 10
93.65548180776113
 20
23.865553789034127
 30
0.0
 40
0.25
 50
282.001002561364
 51
12.001002561363979
  0
LINE
  5
17F
  8
0
 10
93.90001779839763
 20
23.917535990636495
 30
0.0
 11
91.09298220160237
 21
37.122464009363526
 31
0.0
  0
ARC
  5
180
  8
0
 10
90.84844621096588
 20
37.070481807761155
 30
0.0
 40
0.25
 50
12.001002561363979
 51
102.00100256136399
  0
LINE
  5
181
  8
0
 10
90.7964640093635
 20
37.31501779839765
 30
0.0
 11
77.59153599063649
 21
34.50798220160239
 31
0.0
  0
ARC
  5
182
  8
0
 10
77.64351819223886
 20
34.263446210965895
 30
0.0
 40
0.25
 50
102.00100256136399
 51
192.00100256136398
  0
LINE
  5
183
  8
0
 10
77.39898220160237
 20
34.211464009363524
 30
0.0
 11
80.20601779839762
 21
21.006535990636493
 31
0.0
  0
ARC
  5
184
  8
0
 10
80.45055378903412
 20
21.05851819223886
 30
0.0
 40
0.25
 50
192.00100256136398
 51
282.001002561364
  0
LINE
  5
185
  8
0
 10
35.557535990636495
 20
51.897982201602375
 30
0.0
 11
48.76246400936351
 21
54.705017798397634
 31
0.0
  0
ARC
  5
186
  8
0
 10
48.71048180776114
 20
54.94955378903413
 30
0.0
 40
0.25
 50
282.001002561364
 51
12.001002561363979
  0
LINE
  5
187
  8
0
 10
48.955017798397634
 20
55.0015359906365
 30
0.0
 11
46.147982201602375
 21
68.20646400936353
 31
0.0
  0
ARC
  5
188
  8
0
 10
45.90344621096588
 20
68.15448180776116
 30
0.0
 40
0.25
 50
12.001002561363979
 51
102.00100256136399
  0
LINE
  5
189
  8
0
 10
45.85146400936351
 20
68.39901779839765
 30
0.0
 11
32.646535990636494
 21
65.59198220160239
 31
0.0
  0
ARC
  5
18A
  8
0
 10
32.698518192238865
 20
65.3474462109659
 30
0.0
 40
0.25
 50
102.00100256136399
 51
192.00100256136398
  0
LINE
  5
18B
  8
0
 10
32.45398220160237
 20
65.29546400936353
 30
0.0
 11
35.26101779839763
 21
52.090535990636496
 31
0.0
  0
ARC
  5
18C
  8
0
 10
35.505553789034124
 20
52.14251819223887
 30
0.0
 40
0.25
 50
192.00100256136398
 51
282.001002561364
  0
LINE
  5
18D
  8
0
 10
54.521535990636494
 20
52.86198220160237
 30
0.0
 11
67.72646400936351
 21
55.66901779839763
 31
0.0
  0
ARC
  5
18E
  8
0
 10
67.67448180776114
 20
55.913553789034125
 30
0.0
 40
0.25
 50
282.001002561364
 51
12.001002561363979
  0
LINE
  5
18F
  8
0
 10
67.91901779839763
 20
55.965535990636496
 30
0.0
 11
65.11198220160237
 21
69.17046400936353
 31
0.0
  0
ARC
  5
190
  8
0
 10
64.86744621096588
 20
69.11848180776116
 30
0.0
 40
0.25
 50
12.001002561363979
 51
102.00100256136399
  0
LINE
  5
191
  8
0
 10
64.81546400936351
 20
69.36301779839765
 30
0.0
 11
51.61053599063649
 21
66.55598220160239
 31
0.0
  0
ARC
  5
192
  8
0
 10
51.66251819223886
 20
66.3114462109659
 30
0.0
 40
0.25
 50
102.00100256136399
 51
192.00100256136398
  0
LINE
  5
193
  8
0
 10
51.41798220160237
 20
66.25946400936353
 30
0.0
 11
54.22501779839763
 21
53.054535990636495
 31
0.0
  0
ARC
  5
194
  8
0
 10
54.46955378903412
 20
53.106518192238866
 30
0.0
 40
0.25
 50
192.00100256136398
 51
282.001002561364
  0
LINE
  5
195
  8
0
 10
73.48553599063649
 20
53.82598220160237
 30
0.0
 11
86.69046400936351
 21
56.63301779839763
 31
0.0
  0
ARC
  5
196
  8
0
 10
86.63848180776114
 20
56.877553789034124
 30
0.0
 40
0.25
 50
282.001002561364
 51
12.001002561363979
  0
LINE
  5
197
  8
0
 10
86.88301779839763
 20
56.929535990636495
 30
0.0
 11
84.07598220160237
 21
70.13446400936353
 31
0.0
  0
ARC
  5
198
  8
0
 10
83.83144621096588
 20
70.08248180776116
 30
0.0
 40
0.25
 50
12.001002561363979
 51
102.00100256136399
  0
LINE
  5
199
  8
0
 10
83.77946400936351
 20
70.32701779839765
 30
0.0
 11
70.57453599063649
 21
67.51998220160239
 31
0.0
  0
ARC
  5
19A
  8
0
 10
70.62651819223886
 20
67.2754462109659
 30
0.0
 40
0.25
 50
102.00100256136399
 51
192.00100256136398
  0
LINE
  5
19B
  8
0
 10
70.38198220160237
 20
67.22346400936352
 30
0.0
 11
73.18901779839763
 21
54.018535990636494
 31
0.0
  0
ARC
  5
19C
  8
0
 10
73.43355378903412
 20
54.070518192238865
 30
0.0
 40
0.25
 50
192.00100256136398
 51
282.001002561364
  0
LINE
  5
19D
  8
0
 10
31.659535990636492
 20
70.23898220160238
 30
0.0
 11
44.86446400936351
 21
73.04601779839764
 31
0.0
  0
ARC
  5
19E
  8
0
 10
44.81248180776114
 20
73.29055378903413
 30
0.0
 40
0.25
 50
282.001002561364
 51
12.001002561363979
  0
LINE
  5
19F
  8
0
 10
45.05701779839763
 20
73.3425359906365
 30
0.0
 11
42.24998220160237
 21
86.54746400936354
 31
0.0
  0
ARC
  5
1A0
  8
0
 10
42.00544621096588
 20
86.49548180776117
 30
0.0
 40
0.25
 50
12.001002561363979
 51
102.00100256136399
  0
LINE
  5
1A1
  8
0
 10
41.95346400936351
 20
86.74001779839766
 30
0.0
 11
28.74853599063649
 21
83.9329822016024
 31
0.0
  0
ARC
  5
1A2
  8
0
 10
28.800518192238858
 20
83.6884462109659
 30
0.0
 40
0.25
 50
102.00100256136399
 51
192.00100256136398
  0
LINE
  5
1A3
  8
0
 10
28.555982201602365
 20
83.63646400936354
 30
0.0
 11
31.36301779839763
 21
70.4315359906365
 31
0.0
  0
ARC
  5
1A4
  8
0
 10
31.607553789034124
 20
70.48351819223888
 30
0.0
 40
0.25
 50
192.00100256136398
 51
282.001002561364
  0
LINE
  5
1A5
  8
0
 10
50.62353599063649
 20
71.20198220160235
 30
0.0
 11
63.8284640093635
 21
74.00901779839761
 31
0.0
  0
ARC
  5
1A6
  8
0
 10
63.77648180776113
 20
74.2535537890341
 30
0.0
 40
0.25
 50
282.001002561364
 51
12.001002561363979
  0
LINE
  5
1A7
  8
0
 10
64.02101779839762
 20
74.30553599063647
 30
0.0
 11
61.21398220160236
 21
87.5104640093635
 31
0.0
  0
ARC
  5
1A8
  8
0
 10
60.96944621096587
 20
87.45848180776113
 30
0.0
 40
0.25
 50
12.001002561363979
 51
102.00100256136399
  0
LINE
  5
1A9
  8
0
 10
60.9174640093635
 20
87.70301779839762
 30
0.0
 11
47.71253599063648
 21
84.89598220160237
 31
0.0
  0
ARC
  5
1AA
  8
0
 10
47.76451819223885
 20
84.65144621096587
 30
0.0
 40
0.25
 50
102.00100256136399
 51
192.001002561364
  0
LINE
  5
1AB
  8
0
 10
47.51998220160236
 20
84.5994640093635
 30
0.0
 11
50.32701779839763
 21
71.39453599063647
 31
0.0
  0
ARC
  5
1AC
  8
0
 10
50.57155378903412
 20
71.44651819223884
 30
0.0
 40
0.25
 50
192.001002561364
 51
282.001002561364
  0
LINE
  5
1AD
  8
0
 10
69.5875359906365
 20
72.16598220160235
 30
0.0
 11
82.79246400936351
 21
74.9730177983976
 31
0.0
  0
ARC
  5
1AE
  8
0
 10
82.74048180776114
 20
75.2175537890341
 30
0.0
 40
0.25
 50
282.001002561364
 51
12.001002561363979
  0
LINE
  5
1AF
  8
0
 10
82.98501779839764
 20
75.26953599063647
 30
0.0
 11
80.17798220160238
 21
88.4744640093635
 31
0.0
  0
ARC
  5
1B0
  8
0
 10
79.93344621096588
 20
88.42248180776113
 30
0.0
 40
0.25
 50
12.001002561363979
 51
102.00100256136399
  0
LINE
  5
1B1
  8
0
 10
79.88146400936351
 20
88.66701779839762
 30
0.0
 11
66.6765359906365
 21
85.85998220160236
 31
0.0
  0
ARC
  5
1B2
  8
0
 10
66.72851819223887
 20
85.61544621096587
 30
0.0
 40
0.25
 50
102.00100256136399
 51
192.00100256136398
  0
LINE
  5
1B3
  8
0
 10
66.48398220160237
 20
85.5634640093635
 30
0.0
 11
69.29101779839763
 21
72.35853599063647
 31
0.0
  0
ARC
  5
1B4
  8
0
 10
69.53555378903413
 20
72.41051819223884
 30
0.0
 40
0.25
 50
192.00100256136398
 51
282.001002561364
  0
LINE
  5
1B5
  8
0
 10
27.76053599063649
 20
88.57898220160236
 30
0.0
 11
40.96546400936351
 21
91.38601779839762
 31
0.0
  0
ARC
  5
1B6
  8
0
 10
40.91348180776114
 20
91.63055378903411
 30
0.0
 40
0.25
 50
282.001002561364
 51
12.001002561363979
  0
LINE
  5
1B7
  8
0
 10
41.15801779839763
 20
91.68253599063648
 30
0.0
 11
38.35098220160237
 21
104.88746400936351
 31
0.0
  0
ARC
  5
1B8
  8
0
 10
38.10644621096588
 20
104.83548180776114
 30
0.0
 40
0.25
 50
12.001002561363979
 51
102.00100256136399
  0
LINE
  5
1B9
  8
0
 10
38.05446400936351
 20
105.08001779839763
 30
0.0
 11
24.84953599063649
 21
102.27298220160237
 31
0.0
  0
ARC
  5
1BA
  8
0
 10
24.901518192238857
 20
102.02844621096588
 30
0.0
 40
0.25
 50
102.00100256136399
 51
192.00100256136398
  0
LINE
  5
1BB
  8
0
 10
24.656982201602364
 20
101.97646400936351
 30
0.0
 11
27.46401779839763
 21
88.77153599063648
 31
0.0
  0
ARC
  5
1BC
  8
0
 10
27.708553789034124
 20
88.82351819223885
 30
0.0
 40
0.25
 50
192.00100256136398
 51
282.001002561364
  0
LINE
  5
1BD
  8
0
 10
46.72453599063649
 20
89.54298220160236
 30
0.0
 11
59.92946400936351
 21
92.35001779839762
 31
0.0
  0
ARC
  5
1BE
  8
0
 10
59.877481807761136
 20
92.59455378903411
 30
0.0
 40
0.25
 50
282.001002561364
 51
12.001002561363979
  0
LINE
  5
1BF
  8
0
 10
60.12201779839763
 20
92.64653599063648
 30
0.0
 11
57.31498220160237
 21
105.85146400936351
 31
0.0
  0
ARC
  5
1C0
  8
0
 10
57.070446210965876
 20
105.79948180776114
 30
0.0
 40
0.25
 50
12.001002561363979
 51
102.00100256136399
  0
LINE
  5
1C1
  8
0
 10
57.018464009363505
 20
106.04401779839763
 30
0.0
 11
43.81353599063649
 21
103.23698220160237
 31
0.0
  0
ARC
  5
1C2
  8
0
 10
43.86551819223886
 20
102.99244621096588
 30
0.0
 40
0.25
 50
102.00100256136399
 51
192.00100256136398
  0
LINE
  5
1C3
  8
0
 10
43.62098220160237
 20
102.94046400936351
 30
0.0
 11
46.428017798397626
 21
89.73553599063648
 31
0.0
  0
ARC
  5
1C4
  8
0
 10
46.67255378903412
 20
89.78751819223885
 30
0.0
 40
0.25
 50
192.00100256136398
 51
282.001002561364
  0
LINE
  5
1C5
  8
0
 10
65.6885359906365
 20
90.50698220160236
 30
0.0
 11
78.89346400936351
 21
93.31401779839761
 31
0.0
  0
ARC
  5
1C6
  8
0
 10
78.84148180776114
 20
93.55855378903411
 30
0.0
 40
0.25
 50
282.001002561364
 51
12.001002561363979
  0
LINE
  5
1C7
  8
0
 10
79.08601779839763
 20
93.61053599063648
 30
0.0
 11
76.27898220160237
 21
106.81546400936351
 31
0.0
  0
ARC
  5
1C8
  8
0
 10
76.03444621096588
 20
106.76348180776114
 30
0.0
 40
0.25
 50
12.001002561363979
 51
102.00100256136399
  0
LINE
  5
1C9
  8
0
 10
75.98246400936351
 20
107.00801779839763
 30
0.0
 11
62.777535990636494
 21
104.20098220160237
 31
0.0
  0
ARC
  5
1CA
  8
0
 10
62.829518192238865
 20
103.95644621096588
 30
0.0
 40
0.25
 50
102.00100256136399
 51
192.00100256136398
  0
LINE
  5
1CB
  8
0
 10
62.58498220160237
 20
103.90446400936351
 30
0.0
 11
65.39201779839763
 21
90.69953599063648
 31
0.0
  0
ARC
  5
1CC
  8
0
 10
65.63655378903412
 20
90.75151819223885
 30
0.0
 40
0.25
 50
192.00100256136398
 51
282.001002561364
  0
LINE
  5
1CD
  8
0
 10
42.82653599063649
 20
107.88298220160239
 30
0.0
 11
56.03146400936351
 21
110.69001779839765
 31
0.0
  0
ARC
  5
1CE
  8
0
 10
55.97948180776114
 20
110.93455378903414
 30
0.0
 40
0.25
 50
282.001002561364
 51
12.001002561363979
  0
LINE
  5
1CF
  8
0
 10
56.22401779839763
 20
110.98653599063651
 30
0.0
 11
53.41698220160237
 21
124.19146400936354
 31
0.0
  0
ARC
  5
1D0
  8
0
 10
53.17244621096588
 20
124.13948180776117
 30
0.0
 40
0.25
 50
12.001002561363979
 51
102.00100256136399
  0
LINE
  5
1D1
  8
0
 10
53.12046400936351
 20
124.38401779839766
 30
0.0
 11
39.91553599063649
 21
121.5769822016024
 31
0.0
  0
ARC
  5
1D2
  8
0
 10
39.96751819223886
 20
121.33244621096591
 30
0.0
 40
0.25
 50
102.00100256136399
 51
192.00100256136398
  0
LINE
  5
1D3
  8
0
 10
39.72298220160237
 20
121.28046400936354
 30
0.0
 11
42.53001779839763
 21
108.07553599063651
 31
0.0
  0
ARC
  5
1D4
  8
0
 10
42.77455378903412
 20
108.12751819223888
 30
0.0
 40
0.25
 50
192.00100256136398
 51
282.001002561364
  0
LINE
  5
1D5
  8
0
 10
61.79053599063649
 20
108.84698220160239
 30
0.0
 11
74.9954640093635
 21
111.65401779839765
 31
0.0
  0
ARC
  5
1D6
  8
0
 10
74.94348180776113
 20
111.89855378903414
 30
0.0
 40
0.25
 50
282.001002561364
 51
12.001002561363979
  0
LINE
  5
1D7
  8
0
 10
75.18801779839762
 20
111.95053599063651
 30
0.0
 11
72.38098220160236
 21
125.15546400936354
 31
0.0
  0
ARC
  5
1D8
  8
0
 10
72.13644621096587
 20
125.10348180776117
 30
0.0
 40
0.25
 50
12.001002561363979
 51
102.00100256136399
  0
LINE
  5
1D9
  8
0
 10
72.0844640093635
 20
125.34801779839766
 30
0.0
 11
58.879535990636484
 21
122.5409822016024
 31
0.0
  0
ARC
  5
1DA
  8
0
 10
58.931518192238855
 20
122.29644621096591
 30
0.0
 40
0.25
 50
102.00100256136399
 51
192.001002561364
  0
LINE
  5
1DB
  8
0
 10
58.68698220160236
 20
122.24446400936354
 30
0.0
 11
61.49401779839763
 21
109.03953599063651
 31
0.0
  0
ARC
  5
1DC
  8
0
 10
61.73855378903412
 20
109.09151819223888
 30
0.0
 40
0.25
 50
192.001002561364
 51
282.001002561364
  0
LINE
  5
1DD
  8
0
 10
97.72353599063649
 20
131.05198220160239
 30
0.0
 11
110.92846400936351
 21
133.85901779839764
 31
0.0
  0
ARC
  5
1DE
  8
0
 10
110.87648180776114
 20
134.10355378903412
 30
0.0
 40
0.25
 50
282.001002561364
 51
12.001002561363979
  0
LINE
  5
1DF
  8
0
 10
111.12101779839763
 20
134.15553599063648
 30
0.0
 11
108.31398220160237
 21
147.3604640093635
 31
0.0
  0
ARC
  5
1E0
  8
0
 10
108.06944621096588
 20
147.30848180776115
 30
0.0
 40
0.25
 50
12.001002561363979
 51
102.00100256136399
  0
LINE
  5
1E1
  8
0
 10
108.01746400936351
 20
147.55301779839763
 30
0.0
 11
94.81253599063649
 21
144.74598220160237
 31
0.0
  0
ARC
  5
1E2
  8
0
 10
94.86451819223886
 20
144.5014462109659
 30
0.0
 40
0.25
 50
102.00100256136399
 51
192.00100256136398
  0
LINE
  5
1E3
  8
0
 10
94.61998220160237
 20
144.44946400936354
 30
0.0
 11
97.42701779839763
 21
131.2445359906365
 31
0.0
  0
ARC
  5
1E4
  8
0
 10
97.67155378903412
 20
131.29651819223886
 30
0.0
 40
0.25
 50
192.00100256136398
 51
282.001002561364
  0
LINE
  5
1E5
  8
0
 10
125.65003027768094
 20
140.18260340631045
 30
0.0
 11
136.77596972231905
 21
147.82939659368958
 31
0.0
  0
ARC
  5
1E6
  8
0
 10
136.63436631600862
 20
148.0354268713705
 30
0.0
 40
0.25
 50
304.5005136600273
 51
34.500513660027245
  0
LINE
  5
1E7
  8
0
 10
136.84039659368955
 20
148.17703027768093
 30
0.0
 11
129.19360340631042
 21
159.30296972231906
 31
0.0
  0
ARC
  5
1E8
  8
0
 10
128.9875731286295
 20
159.16136631600864
 30
0.0
 40
0.25
 50
34.500513660027245
 51
124.5005136600273
  0
LINE
  5
1E9
  8
0
 10
128.84596972231907
 20
159.36739659368956
 30
0.0
 11
117.72003027768092
 21
151.72060340631043
 31
0.0
  0
ARC
  5
1EA
  8
0
 10
117.86163368399136
 20
151.5145731286295
 30
0.0
 40
0.25
 50
124.5005136600273
 51
214.50051366002725
  0
LINE
  5
1EB
  8
0
 10
117.65560340631042
 20
151.37296972231908
 30
0.0
 11
125.30239659368956
 21
140.24703027768095
 31
0.0
  0
ARC
  5
1EC
  8
0
 10
125.5084268713705
 20
140.38863368399137
 30
0.0
 40
0.25
 50
214.50051366002725
 51
304.5005136600273
  0
LINE
  5
1ED
  8
0
 10
147.9551635952878
 20
159.30766515046216
 30
0.0
 11
155.30783640471222
 21
170.62933484953788
 31
0.0
  0
ARC
  5
1EE
  8
0
 10
155.09817125425008
 20
170.76549844482565
 30
0.0
 40
0.25
 50
326.9989515858953
 51
56.99895158589538
  0
LINE
  5
1EF
  8
0
 10
155.23433484953785
 20
170.9751635952878
 30
0.0
 11
143.9126651504621
 21
178.32783640471223
 31
0.0
  0
ARC
  5
1F0
  8
0
 10
143.77650155517432
 20
178.1181712542501
 30
0.0
 40
0.25
 50
56.99895158589538
 51
146.9989515858953
  0
LINE
  5
1F1
  8
0
 10
143.56683640471218
 20
178.25433484953786
 30
0.0
 11
136.21416359528774
 21
166.93266515046213
 31
0.0
  0
ARC
  5
1F2
  8
0
 10
136.4238287457499
 20
166.79650155517436
 30
0.0
 40
0.25
 50
146.9989515858953
 51
236.99895158589538
  0
LINE
  5
1F3
  8
0
 10
136.28766515046212
 20
166.58683640471222
 30
0.0
 11
147.60933484953787
 21
159.23416359528778
 31
0.0
  0
ARC
  5
1F4
  8
0
 10
147.74549844482564
 20
159.44382874574993
 30
0.0
 40
0.25
 50
236.99895158589538
 51
326.9989515858953
  0
LINE
  5
1F5
  8
0
 10
166.91877669529663
 20
139.11877669529665
 30
0.0
 11
176.46522330470336
 21
148.66522330470335
 31
0.0
  0
ARC
  5
1F6
  8
0
 10
176.28844660940672
 20
148.84199999999998
 30
0.0
 40
0.25
 50
314.9999999999999
 51
45.00000000000009
  0
LINE
  5
1F7
  8
0
 10
176.46522330470336
 20
149.01877669529662
 30
0.0
 11
166.91877669529663
 21
158.56522330470332
 31
0.0
  0
ARC
  5
1F8
  8
0
 10
166.742
 20
158.38844660940669
 30
0.0
 40
0.25
 50
45.00000000000009
 51
134.99999999999991
  0
LINE
  5
1F9
  8
0
 10
166.56522330470335
 20
158.56522330470332
 30
0.0
 11
157.01877669529662
 21
149.01877669529662
 31
0.0
  0
ARC
  5
1FA
  8
0
 10
157.19555339059326
 20
148.84199999999998
 30
0.0
 40
0.25
 50
134.99999999999991
 51
225.00000000000009
  0
LINE
  5
1FB
  8
0
 10
157.01877669529662
 20
148.66522330470335
 30
0.0
 11
166.56522330470335
 21
139.11877669529665
 31
0.0
  0
ARC
  5
1FC
  8
0
 10
166.742
 20
139.29555339059328
 30
0.0
 40
0.25
 50
225.00000000000009
 51
314.9999999999999
  0
LINE
  5
1FD
  8
0
 10
180.17677669529664
 20
125.85977669529663
 30
0.0
 11
189.72322330470337
 21
135.40622330470333
 31
0.0
  0
ARC
  5
1FE
  8
0
 10
189.54644660940673
 20
135.58299999999997
 30
0.0
 40
0.25
 50
314.9999999999999
 51
45.00000000000009
  0
LINE
  5
1FF
  8
0
 10
189.72322330470337
 20
135.7597766952966
 30
0.0
 11
180.17677669529664
 21
145.3062233047033
 31
0.0
  0
ARC
  5
200
  8
0
 10
180.0
 20
145.12944660940667
 30
0.0
 40
0.25
 50
45.00000000000009
 51
134.99999999999991
  0
LINE
  5
201
  8
0
 10
179.82322330470336
 20
145.3062233047033
 30
0.0
 11
170.27677669529663
 21
135.7597766952966
 31
0.0
  0
ARC
  5
202
  8
0
 10
170.45355339059327
 20
135.58299999999997
 30
0.0
 40
0.25
 50
134.99999999999991
 51
225.00000000000009
  0
LINE
  5
203
  8
0
 10
170.27677669529663
 20
135.40622330470333
 30
0.0
 11
179.82322330470336
 21
125.85977669529663
 31
0.0
  0
ARC
  5
204
  8
0
 10
180.0
 20
126.03655339059327
 30
0.0
 40
0.25
 50
225.00000000000009
 51
314.9999999999999
  0
LINE
  5
205
  8
0
 10
193.43477669529665
 20
139.11877669529665
 30
0.0
 11
202.98122330470338
 21
148.66522330470335
 31
0.0
  0
ARC
  5
206
  8
0
 10
202.80444660940674
 20
148.84199999999998
 30
0.0
 40
0.25
 50
314.9999999999999
 51
45.00000000000009
  0
LINE
  5
207
  8
0
 10
202.98122330470338
 20
149.01877669529662
 30
0.0
 11
193.43477669529665
 21
158.56522330470332
 31
0.0
  0
ARC
  5
208
  8
0
 10
193.258
 20
158.38844660940669
 30
0.0
 40
0.25
 50
45.00000000000009
 51
134.99999999999991
  0
LINE
  5
209
  8
0
 10
193.08122330470337
 20
158.56522330470332
 30
0.0
 11
183.53477669529664
 21
149.01877669529662
 31
0.0
  0
ARC
  5
20A
  8
0
 10
183.71155339059328
 20
148.84199999999998
 30
0.0
 40
0.25
 50
134.99999999999991
 51
225.00000000000009
  0
LINE
  5
20B
  8
0
 10
183.53477669529664
 20
148.66522330470335
 30
0.0
 11
193.08122330470337
 21
139.11877669529665
 31
0.0
  0
ARC
  5
20C
  8
0
 10
193.258
 20
139.29555339059328
 30
0.0
 40
0.25
 50
225.00000000000009
 51
314.9999999999999
  0
LINE
  5
20D
  8
0
 10
180.17677669529664
 20
152.37677669529663
 30
0.0
 11
189.72322330470337
 21
161.92322330470333
 31
0.0
  0
ARC
  5
20E
  8
0
 10
189.54644660940673
 20
162.09999999999997
 30
0.0
 40
0.25
 50
314.9999999999999
 51
45.00000000000009
  0
LINE
  5
20F
  8
0
 10
189.72322330470337
 20
162.2767766952966
 30
0.0
 11
180.17677669529664
 21
171.8232233047033
 31
0.0
  0
ARC
  5
210
  8
0
 10
180.0
 20
171.64644660940667
 30
0.0
 40
0.25
 50
45.00000000000009
 51
134.99999999999991
  0
LINE
  5
211
  8
0
 10
179.82322330470336
 20
171.8232233047033
 30
0.0
 11
170.27677669529663
 21
162.2767766952966
 31
0.0
  0
ARC
  5
212
  8
0
 10
170.45355339059327
 20
162.09999999999997
 30
0.0
 40
0.25
 50
134.99999999999991
 51
225.00000000000009
  0
LINE
  5
213
  8
0
 10
170.27677669529663
 20
161.92322330470333
 30
0.0
 11
179.82322330470336
 21
152.37677669529663
 31
0.0
  0
ARC
  5
214
  8
0
 10
180.0
 20
152.55355339059327
 30
0.0
 40
0.25
 50
225.00000000000009
 51
314.9999999999999
  0
LINE
  5
215
  8
0
 10
212.39066515046213
 20
159.23416359528778
 30
0.0
 11
223.71233484953788
 21
166.58683640471222
 31
0.0
  0
ARC
  5
216
  8
0
 10
223.5761712542501
 20
166.79650155517436
 30
0.0
 40
0.25
 50
303.0010484141046
 51
33.001048414104694
  0
LINE
  5
217
  8
0
 10
223.78583640471226
 20
166.93266515046213
 30
0.0
 11
216.43316359528782
 21
178.25433484953786
 31
0.0
  0
ARC
  5
218
  8
0
 10
216.22349844482568
 20
178.1181712542501
 30
0.0
 40
0.25
 50
33.001048414104694
 51
123.00104841410469
  0
LINE
  5
219
  8
0
 10
216.0873348495379
 20
178.32783640471223
 30
0.0
 11
204.76566515046218
 21
170.9751635952878
 31
0.0
  0
ARC
  5
21A
  8
0
 10
204.90182874574995
 20
170.76549844482565
 30
0.0
 40
0.25
 50
123.00104841410469
 51
213.0010484141046
  0
LINE
  5
21B
  8
0
 10
204.6921635952878
 20
170.62933484953788
 30
0.0
 11
212.0448364047122
 21
159.30766515046216
 31
0.0
  0
ARC
  5
21C
  8
0
 10
212.25450155517436
 20
159.44382874574993
 30
0.0
 40
0.25
 50
213.0010484141046
 51
303.0010484141046
  0
LINE
  5
21D
  8
0
 10
223.22403027768095
 20
147.83039659368956
 30
0.0
 11
234.3499697223191
 21
140.18360340631043
 31
0.0
  0
ARC
  5
21E
  8
0
 10
234.4915731286295
 20
140.38963368399135
 30
0.0
 40
0.25
 50
235.49948633997275
 51
325.49948633997275
  0
LINE
  5
21F
  8
0
 10
234.69760340631044
 20
140.24803027768093
 30
0.0
 11
242.34439659368957
 21
151.37396972231906
 31
0.0
  0
ARC
  5
220
  8
0
 10
242.13836631600864
 20
151.51557312862948
 30
0.0
 40
0.25
 50
325.49948633997275
 51
55.499486339972755
  0
LINE
  5
221
  8
0
 10
242.27996972231907
 20
151.7216034063104
 30
0.0
 11
231.15403027768093
 21
159.36839659368954
 31
0.0
  0
ARC
  5
222
  8
0
 10
231.0124268713705
 20
159.16236631600862
 30
0.0
 40
0.25
 50
55.499486339972755
 51
145.49948633997275
  0
LINE
  5
223
  8
0
 10
230.80639659368958
 20
159.30396972231904
 30
0.0
 11
223.15960340631045
 21
148.1780302776809
 31
0.0
  0
ARC
  5
224
  8
0
 10
223.36563368399138
 20
148.03642687137048
 30
0.0
 40
0.25
 50
145.49948633997275
 51
235.49948633997275
  0
LINE
  5
225
  8
0
 10
249.0715359906365
 20
133.85901779839764
 30
0.0
 11
262.2764640093635
 21
131.05198220160239
 31
0.0
  0
ARC
  5
226
  8
0
 10
262.32844621096586
 20
131.29651819223886
 30
0.0
 40
0.25
 50
257.998997438636
 51
347.998997438636
  0
LINE
  5
227
  8
0
 10
262.5729822016024
 20
131.2445359906365
 30
0.0
 11
265.38001779839766
 21
144.44946400936354
 31
0.0
  0
ARC
  5
228
  8
0
 10
265.13548180776115
 20
144.5014462109659
 30
0.0
 40
0.25
 50
347.998997438636
 51
77.99899743863601
  0
LINE
  5
229
  8
0
 10
265.1874640093635
 20
144.74598220160237
 30
0.0
 11
251.9825359906365
 21
147.55301779839763
 31
0.0
  0
ARC
  5
22A
  8
0
 10
251.93055378903415
 20
147.30848180776115
 30
0.0
 40
0.25
 50
77.99899743863601
 51
167.9989974386359
  0
LINE
  5
22B
  8
0
 10
251.68601779839767
 20
147.3604640093635
 30
0.0
 11
248.87898220160238
 21
134.15553599063648
 31
0.0
  0
ARC
  5
22C
  8
0
 10
249.12351819223886
 20
134.10355378903412
 30
0.0
 40
0.25
 50
167.9989974386359
 51
257.998997438636
  0
LINE
  5
22D
  8
0
 10
285.0045359906365
 20
111.65401779839765
 30
0.0
 11
298.2094640093635
 21
108.84698220160239
 31
0.0
  0
ARC
  5
22E
  8
0
 10
298.26144621096586
 20
109.09151819223888
 30
0.0
 40
0.25
 50
257.998997438636
 51
347.998997438636
  0
LINE
  5
22F
  8
0
 10
298.50598220160236
 20
109.03953599063651
 30
0.0
 11
301.31301779839765
 21
122.24446400936354
 31
0.0
  0
ARC
  5
230
  8
0
 10
301.06848180776115
 20
122.29644621096591
 30
0.0
 40
0.25
 50
347.998997438636
 51
77.99899743863602
  0
LINE
  5
231
  8
0
 10
301.1204640093635
 20
122.5409822016024
 30
0.0
 11
287.9155359906365
 21
125.34801779839766
 31
0.0
  0
ARC
  5
232
  8
0
 10
287.86355378903414
 20
125.10348180776117
 30
0.0
 40
0.25
 50
77.99899743863602
 51
167.99899743863602
  0
LINE
  5
233
  8
0
 10
287.61901779839764
 20
125.15546400936354
 30
0.0
 11
284.81198220160235
 21
111.95053599063651
 31
0.0
  0
ARC
  5
234
  8
0
 10
285.05651819223885
 20
111.89855378903414
 30
0.0
 40
0.25
 50
167.99899743863602
 51
257.998997438636
  0
LINE
  5
235
  8
0
 10
303.9685359906365
 20
110.69001779839765
 30
0.0
 11
317.1734640093635
 21
107.88298220160239
 31
0.0
  0
ARC
  5
236
  8
0
 10
317.22544621096586
 20
108.12751819223888
 30
0.0
 40
0.25
 50
257.998997438636
 51
347.998997438636
  0
LINE
  5
237
  8
0
 10
317.46998220160236
 20
108.07553599063651
 30
0.0
 11
320.27701779839765
 21
121.28046400936354
 31
0.0
  0
ARC
  5
238
  8
0
 10
320.03248180776114
 20
121.33244621096591
 30
0.0
 40
0.25
 50
347.998997438636
 51
77.99899743863602
  0
LINE
  5
239
  8
0
 10
320.0844640093635
 20
121.5769822016024
 30
0.0
 11
306.8795359906365
 21
124.38401779839766
 31
0.0
  0
ARC
  5
23A
  8
0
 10
306.82755378903414
 20
124.13948180776117
 30
0.0
 40
0.25
 50
77.99899743863602
 51
167.99899743863602
  0
LINE
  5
23B
  8
0
 10
306.58301779839763
 20
124.19146400936354
 30
0.0
 11
303.77598220160235
 21
110.98653599063651
 31
0.0
  0
ARC
  5
23C
  8
0
 10
304.02051819223885
 20
110.93455378903414
 30
0.0
 40
0.25
 50
167.99899743863602
 51
257.998997438636
  0
LINE
  5
23D
  8
0
 10
281.10653599063653
 20
93.31401779839761
 30
0.0
 11
294.31146400936353
 21
90.50698220160236
 31
0.0
  0
ARC
  5
23E
  8
0
 10
294.3634462109659
 20
90.75151819223885
 30
0.0
 40
0.25
 50
257.998997438636
 51
347.998997438636
  0
LINE
  5
23F
  8
0
 10
294.6079822016024
 20
90.69953599063648
 30
0.0
 11
297.4150177983977
 21
103.90446400936351
 31
0.0
  0
ARC
  5
240
  8
0
 10
297.1704818077612
 20
103.95644621096588
 30
0.0
 40
0.25
 50
347.998997438636
 51
77.99899743863602
  0
LINE
  5
241
  8
0
 10
297.22246400936353
 20
104.20098220160237
 30
0.0
 11
284.01753599063653
 21
107.00801779839763
 31
0.0
  0
ARC
  5
242
  8
0
 10
283.9655537890342
 20
106.76348180776114
 30
0.0
 40
0.25
 50
77.99899743863602
 51
167.99899743863602
  0
LINE
  5
243
  8
0
 10
283.72101779839767
 20
106.81546400936351
 30
0.0
 11
280.9139822016024
 21
93.61053599063648
 31
0.0
  0
ARC
  5
244
  8
0
 10
281.1585181922389
 20
93.55855378903411
 30
0.0
 40
0.25
 50
167.99899743863602
 51
257.998997438636
  0
LINE
  5
245
  8
0
 10
300.07053599063653
 20
92.35001779839762
 30
0.0
 11
313.27546400936353
 21
89.54298220160236
 31
0.0
  0
ARC
  5
246
  8
0
 10
313.3274462109659
 20
89.78751819223885
 30
0.0
 40
0.25
 50
257.998997438636
 51
347.998997438636
  0
LINE
  5
247
  8
0
 10
313.5719822016024
 20
89.73553599063648
 30
0.0
 11
316.3790177983977
 21
102.94046400936351
 31
0.0
  0
ARC
  5
248
  8
0
 10
316.1344818077612
 20
102.99244621096588
 30
0.0
 40
0.25
 50
347.998997438636
 51
77.99899743863602
  0
LINE
  5
249
  8
0
 10
316.18646400936353
 20
103.23698220160237
 30
0.0
 11
302.98153599063653
 21
106.04401779839763
 31
0.0
  0
ARC
  5
24A
  8
0
 10
302.9295537890342
 20
105.79948180776114
 30
0.0
 40
0.25
 50
77.99899743863602
 51
167.99899743863602
  0
LINE
  5
24B
  8
0
 10
302.68501779839767
 20
105.85146400936351
 30
0.0
 11
299.8779822016024
 21
92.64653599063648
 31
0.0
  0
ARC
  5
24C
  8
0
 10
300.1225181922389
 20
92.59455378903411
 30
0.0
 40
0.25
 50
167.99899743863602
 51
257.998997438636
  0
LINE
  5
24D
  8
0
 10
277.2085359906365
 20
74.97401779839764
 30
0.0
 11
290.4134640093635
 21
72.16698220160238
 31
0.0
  0
ARC
  5
24E
  8
0
 10
290.46544621096587
 20
72.41151819223887
 30
0.0
 40
0.25
 50
257.998997438636
 51
347.998997438636
  0
LINE
  5
24F
  8
0
 10
290.7099822016024
 20
72.3595359906365
 30
0.0
 11
293.51701779839766
 21
85.56446400936353
 31
0.0
  0
ARC
  5
250
  8
0
 10
293.27248180776115
 20
85.6164462109659
 30
0.0
 40
0.25
 50
347.998997438636
 51
77.99899743863602
  0
LINE
  5
251
  8
0
 10
293.3244640093635
 20
85.8609822016024
 30
0.0
 11
280.1195359906365
 21
88.66801779839766
 31
0.0
  0
ARC
  5
252
  8
0
 10
280.06755378903415
 20
88.42348180776116
 30
0.0
 40
0.25
 50
77.99899743863602
 51
167.99899743863602
  0
LINE
  5
253
  8
0
 10
279.82301779839764
 20
88.47546400936353
 30
0.0
 11
277.01598220160236
 21
75.2705359906365
 31
0.0
  0
ARC
  5
254
  8
0
 10
277.26051819223886
 20
75.21855378903413
 30
0.0
 40
0.25
 50
167.99899743863602
 51
257.998997438636
  0
LINE
  5
255
  8
0
 10
296.1725359906365
 20
74.01001779839764
 30
0.0
 11
309.3774640093635
 21
71.20298220160238
 31
0.0
  0
ARC
  5
256
  8
0
 10
309.42944621096586
 20
71.44751819223887
 30
0.0
 40
0.25
 50
257.998997438636
 51
347.998997438636
  0
LINE
  5
257
  8
0
 10
309.67398220160237
 20
71.3955359906365
 30
0.0
 11
312.48101779839766
 21
84.60046400936353
 31
0.0
  0
ARC
  5
258
  8
0
 10
312.23648180776115
 20
84.6524462109659
 30
0.0
 40
0.25
 50
347.998997438636
 51
77.99899743863602
  0
LINE
  5
259
  8
0
 10
312.2884640093635
 20
84.8969822016024
 30
0.0
 11
299.0835359906365
 21
87.70401779839766
 31
0.0
  0
ARC
  5
25A
  8
0
 10
299.03155378903415
 20
87.45948180776116
 30
0.0
 40
0.25
 50
77.99899743863602
 51
167.99899743863602
  0
LINE
  5
25B
  8
0
 10
298.78701779839764
 20
87.51146400936354
 30
0.0
 11
295.97998220160235
 21
74.3065359906365
 31
0.0
  0
ARC
  5
25C
  8
0
 10
296.22451819223886
 20
74.25455378903413
 30
0.0
 40
0.25
 50
167.99899743863602
 51
257.998997438636
  0
LINE
  5
25D
  8
0
 10
273.3095359906365
 20
56.63301779839763
 30
0.0
 11
286.5144640093635
 21
53.82598220160237
 31
0.0
  0
ARC
  5
25E
  8
0
 10
286.56644621096586
 20
54.070518192238865
 30
0.0
 40
0.25
 50
257.998997438636
 51
347.998997438636
  0
LINE
  5
25F
  8
0
 10
286.81098220160237
 20
54.018535990636494
 30
0.0
 11
289.61801779839766
 21
67.22346400936352
 31
0.0
  0
ARC
  5
260
  8
0
 10
289.37348180776115
 20
67.2754462109659
 30
0.0
 40
0.25
 50
347.998997438636
 51
77.99899743863602
  0
LINE
  5
261
  8
0
 10
289.4254640093635
 20
67.51998220160239
 30
0.0
 11
276.2205359906365
 21
70.32701779839765
 31
0.0
  0
ARC
  5
262
  8
0
 10
276.16855378903415
 20
70.08248180776116
 30
0.0
 40
0.25
 50
77.99899743863602
 51
167.99899743863602
  0
LINE
  5
263
  8
0
 10
275.92401779839764
 20
70.13446400936353
 30
0.0
 11
273.11698220160235
 21
56.929535990636495
 31
0.0
  0
ARC
  5
264
  8
0
 10
273.36151819223886
 20
56.877553789034124
 30
0.0
 40
0.25
 50
167.99899743863602
 51
257.998997438636
  0
LINE
  5
265
  8
0
 10
292.2735359906365
 20
55.66901779839763
 30
0.0
 11
305.4784640093635
 21
52.86198220160237
 31
0.0
  0
ARC
  5
266
  8
0
 10
305.53044621096586
 20
53.106518192238866
 30
0.0
 40
0.25
 50
257.998997438636
 51
347.998997438636
  0
LINE
  5
267
  8
0
 10
305.77498220160237
 20
53.054535990636495
 30
0.0
 11
308.58201779839766
 21
66.25946400936353
 31
0.0
  0
ARC
  5
268
  8
0
 10
308.33748180776115
 20
66.3114462109659
 30
0.0
 40
0.25
 50
347.998997438636
 51
77.99899743863602
  0
LINE
  5
269
  8
0
 10
308.3894640093635
 20
66.55598220160239
 30
0.0
 11
295.1845359906365
 21
69.36301779839765
 31
0.0
  0
ARC
  5
26A
  8
0
 10
295.13255378903415
 20
69.11848180776116
 30
0.0
 40
0.25
 50
77.99899743863602
 51
167.99899743863602
  0
LINE
  5
26B
  8
0
 10
294.88801779839764
 20
69.17046400936353
 30
0.0
 11
292.08098220160235
 21
55.965535990636496
 31
0.0
  0
ARC
  5
26C
  8
0
 10
292.32551819223886
 20
55.913553789034125
 30
0.0
 40
0.25
 50
167.99899743863602
 51
257.998997438636
  0
LINE
  5
26D
  8
0
 10
266.2925359906365
 20
23.621017798397634
 30
0.0
 11
279.4974640093635
 21
20.813982201602368
 31
0.0
  0
ARC
  5
26E
  8
0
 10
279.54944621096587
 20
21.05851819223886
 30
0.0
 40
0.25
 50
257.998997438636
 51
347.998997438636
  0
LINE
  5
26F
  8
0
 10
279.7939822016024
 20
21.006535990636493
 30
0.0
 11
282.60101779839766
 21
34.211464009363524
 31
0.0
  0
ARC
  5
270
  8
0
 10
282.35648180776116
 20
34.263446210965895
 30
0.0
 40
0.25
 50
347.998997438636
 51
77.99899743863602
  0
LINE
  5
271
  8
0
 10
282.4084640093635
 20
34.50798220160239
 30
0.0
 11
269.2035359906365
 21
37.31501779839765
 31
0.0
  0
ARC
  5
272
  8
0
 10
269.15155378903415
 20
37.070481807761155
 30
0.0
 40
0.25
 50
77.99899743863602
 51
167.99899743863602
  0
LINE
  5
273
  8
0
 10
268.90701779839765
 20
37.122464009363526
 30
0.0
 11
266.09998220160236
 21
23.917535990636495
 31
0.0
  0
ARC
  5
274
  8
0
 10
266.34451819223887
 20
23.865553789034127
 30
0.0
 40
0.25
 50
167.99899743863602
 51
257.998997438636
  0
LINE
  5
275
  8
0
 10
284.6325359906365
 20
19.722017798397633
 30
0.0
 11
297.8374640093635
 21
16.914982201602367
 31
0.0
  0
ARC
  5
276
  8
0
 10
297.88944621096584
 20
17.15951819223886
 30
0.0
 40
0.25
 50
257.998997438636
 51
347.998997438636
  0
LINE
  5
277
  8
0
 10
298.13398220160235
 20
17.107535990636492
 30
0.0
 11
300.94101779839764
 21
30.312464009363524
 31
0.0
  0
ARC
  5
278
  8
0
 10
300.69648180776113
 20
30.36444621096589
 30
0.0
 40
0.25
 50
347.998997438636
 51
77.99899743863602
  0
LINE
  5
279
  8
0
 10
300.7484640093635
 20
30.608982201602384
 30
0.0
 11
287.5435359906365
 21
33.41601779839765
 31
0.0
  0
ARC
  5
27A
  8
0
 10
287.4915537890341
 20
33.171481807761154
 30
0.0
 40
0.25
 50
77.99899743863602
 51
167.99899743863602
  0
LINE
  5
27B
  8
0
 10
287.2470177983976
 20
33.223464009363525
 30
0.0
 11
284.43998220160233
 21
20.018535990636494
 31
0.0
  0
ARC
  5
27C
  8
0
 10
284.68451819223884
 20
19.966553789034126
 30
0.0
 40
0.25
 50
167.99899743863602
 51
257.998997438636
  0
LINE
  5
27D
  8
0
 10
58.66417855412243
 20
358.4251144800066
 30
0.0
 11
89.71780624973455
 21
351.82388875031387
 31
0.0
  0
ARC
  5
27E
  8
0
 10
90.02969970666777
 20
353.291104641559
 30
0.0
 40
1.5
 50
257.9989877806607
 51
347.9981231538051
  0
LINE
  5
27F
  8
0
 10
91.49691089109099
 20
352.97918904351457
 30
0.0
 11
94.82406904786451
 21
368.6297165918911
 31
0.0
  0
ARC
  5
280
  8
0
 10
93.35685786344129
 20
368.94163218993555
 30
0.0
 40
1.5
 50
347.9981231538051
 51
78.00094347753573
  0
LINE
  5
281
  8
0
 10
93.6687012391998
 20
370.4088587262944
 30
0.0
 11
62.614213792926485
 21
377.0091593327224
 31
0.0
  0
ARC
  5
282
  8
0
 10
62.302370417167964
 20
375.54193279636354
 30
0.0
 40
1.5
 50
78.00094347753573
 51
168.00044583927541
  0
LINE
  5
283
  8
0
 10
60.83514658935708
 20
375.853788915598
 30
0.0
 11
57.50884818324476
 21
360.20418649048617
 31
0.0
  0
ARC
  5
284
  8
0
 10
58.97607201105564
 20
359.8923303712517
 30
0.0
 40
1.5
 50
168.00044583927541
 51
257.9989877806607
  0
LINE
  5
285
  8
0
 10
39.95018691320996
 20
270.3930878895306
 30
0.0
 11
71.0057611701701
 21
263.7909231475243
 31
0.0
  0
ARC
  5
286
  8
0
 10
71.31767836819246
 20
265.25813399180606
 30
0.0
 40
1.5
 50
257.9980606733711
 51
347.9991535214178
  0
LINE
  5
287
  8
0
 10
72.7848951616525
 20
264.94624477912174
 30
0.0
 11
87.8081079570267
 21
335.61976989204453
 31
0.0
  0
ARC
  5
288
  8
0
 10
86.34089116356667
 20
335.93165910472885
 30
0.0
 40
1.5
 50
347.9991535214178
 51
77.99967345885163
  0
LINE
  5
289
  8
0
 10
86.65276706180313
 20
337.3988787284046
 30
0.0
 11
55.59720225527922
 21
344.0001277936337
 31
0.0
  0
ARC
  5
28A
  8
0
 10
55.28532635704276
 20
342.5329081699579
 30
0.0
 40
1.5
 50
77.99967345885163
 51
167.99899520885302
  0
LINE
  5
28B
  8
0
 10
53.81811042536177
 20
342.84480143667184
 30
0.0
 11
38.79488817955132
 21
272.17219200052625
 31
0.0
  0
ARC
  5
28C
  8
0
 10
40.26210411123231
 20
271.86029873381233
 30
0.0
 40
1.5
 50
167.99899520885302
 51
257.9980606733711
  0
LINE
  5
28D
  8
0
 10
81.94925719481243
 20
274.75616197509163
 30
0.0
 11
148.18578434582403
 21
260.67882919622446
 31
0.0
  0
ARC
  5
28E
  8
0
 10
148.4976163677114
 20
262.14605814568176
 30
0.0
 40
1.5
 50
258.00138685035256
 51
348.0008676628329
  0
LINE
  5
28F
  8
0
 10
149.96484249143273
 20
261.83421282846564
 30
0.0
 11
169.2991527737452
 21
352.801764894289
 31
0.0
  0
ARC
  5
290
  8
0
 10
167.83192665002386
 20
353.11361021150515
 30
0.0
 40
1.5
 50
348.0008676628329
 51
78.00121841212399
  0
LINE
  5
291
  8
0
 10
168.14376298527202
 20
354.5808382442318
 30
0.0
 11
101.9082041012157
 21
368.6581687510197
 31
0.0
  0
ARC
  5
292
  8
0
 10
101.59636776596754
 20
367.190940718293
 30
0.0
 40
1.5
 50
78.00121841212399
 51
168.00028387043767
  0
LINE
  5
293
  8
0
 10
100.1291448197453
 20
367.50280098520585
 30
0.0
 11
80.79386627047758
 21
276.5352511914618
 31
0.0
  0
ARC
  5
294
  8
0
 10
82.26108921669982
 20
276.22339092454894
 30
0.0
 40
1.5
 50
168.00028387043767
 51
258.00138685035256
  0
LINE
  5
295
  8
0
 10
94.2769424576096
 20
247.29133134159295
 30
0.0
 11
142.28014821445757
 21
214.29882059200187
 31
0.0
  0
ARC
  5
296
  8
0
 10
143.12977193778534
 20
215.53500000000003
 30
0.0
 40
1.5
 50
235.49933406182092
 51
270.0
  0
LINE
  5
297
  8
0
 10
143.12977193778534
 20
214.03500000000003
 30
0.0
 11
216.86823586190016
 21
214.03500000000003
 31
0.0
  0
ARC
  5
298
  8
0
 10
216.86823586190016
 20
215.53500000000003
 30
0.0
 40
1.5
 50
270.0
 51
304.50012248464685
  0
LINE
  5
299
  8
0
 10
217.71784785996192
 20
214.29881253333104
 30
0.0
 11
265.7219878646245
 21
247.29129498787054
 31
0.0
  0
ARC
  5
29A
  8
0
 10
264.8723758665627
 20
248.52748245453952
 30
0.0
 40
1.5
 50
304.50012248464685
 51
12.001280997629923
  0
LINE
  5
29B
  8
0
 10
266.3395902946789
 20
248.83938279427608
 30
0.0
 11
263.6018957444459
 21
261.7178071886502
 31
0.0
  0
ARC
  5
29C
  8
0
 10
262.13468131632976
 20
261.4059068489137
 30
0.0
 40
1.5
 50
12.001280997629923
 51
102.00043684112738
  0
LINE
  5
29D
  8
0
 10
261.82280259355264
 20
262.8731258721951
 30
0.0
 11
199.96964217349552
 21
249.72533786955992
 31
0.0
  0
ARC
  5
29E
  8
0
 10
199.65776345071836
 20
251.19255689284134
 30
0.0
 40
1.5
 50
225.00000000000006
 51
282.00043684112734
  0
LINE
  5
29F
  8
0
 10
198.59710327893853
 20
250.1318967210615
 30
0.0
 11
181.05966017177983
 21
267.6693398282202
 31
0.0
  0
ARC
  5
2A0
  8
0
 10
179.999
 20
266.60867965644036
 30
0.0
 40
1.5
 50
45.00000000000004
 51
134.99999999999994
  0
LINE
  5
2A1
  8
0
 10
178.93833982822017
 20
267.6693398282202
 30
0.0
 11
161.40089672106146
 21
250.1318967210615
 31
0.0
  0
ARC
  5
2A2
  8
0
 10
160.34023654928163
 20
251.19255689284134
 30
0.0
 40
1.5
 50
257.9995631588726
 51
314.99999999999994
  0
LINE
  5
2A3
  8
0
 10
160.02835782650448
 20
249.72533786955992
 30
0.0
 11
98.175289003966
 21
262.8731064018115
 31
0.0
  0
ARC
  5
2A4
  8
0
 10
97.86341028118885
 20
261.4058873785301
 30
0.0
 40
1.5
 50
77.99956315887262
 51
168.00229588124816
  0
LINE
  5
2A5
  8
0
 10
96.39617638451963
 20
261.71769612193685
 30
0.0
 11
93.65933228426815
 21
248.83931949299784
 31
0.0
  0
ARC
  5
2A6
  8
0
 10
95.12656618093736
 20
248.5275107495911
 30
0.0
 40
1.5
 50
168.00229588124816
 51
235.49933406182092
  0
LINE
  5
2A7
  8
0
 10
211.81118532868842
 20
260.6787825028846
 30
0.0
 11
242.48489672497453
 21
267.1970636803853
 31
0.0
  0
ARC
  5
2A8
  8
0
 10
242.38096555443474
 20
267.686142724907
 30
0.0
 40
0.5
 50
281.9971093150399
 51
11.999947856638517
  0
LINE
  5
2A9
  8
0
 10
242.8700394494089
 20
267.79009812522276
 30
0.0
 11
233.61794313511717
 21
311.3179838085068
 31
0.0
  0
ARC
  5
2AA
  8
0
 10
234.10701703009133
 20
311.4219392088226
 30
0.0
 40
0.5
 50
102.00670830940736
 51
191.9999478566385
  0
LINE
  5
2AB
  8
0
 10
234.00300392361416
 20
311.9110008344701
 30
0.0
 11
236.9368806655104
 21
312.53497462006766
 31
0.0
  0
ARC
  5
2AC
  8
0
 10
237.04089377198756
 20
312.0459129944202
 30
0.0
 40
0.5
 50
11.999947856638517
 51
102.00670830940736
  0
LINE
  5
2AD
  8
0
 10
237.5299676669617
 20
312.14986839473596
 30
0.0
 11
246.78204605374285
 21
268.6220670541353
 31
0.0
  0
ARC
  5
2AE
  8
0
 10
247.271119948717
 20
268.7260224544511
 30
0.0
 40
0.5
 50
191.9999478566385
 51
281.99914643595594
  0
LINE
  5
2AF
  8
0
 10
247.37506850813597
 20
268.23694710545595
 30
0.0
 11
278.04775936427063
 21
274.756151221037
 31
0.0
  0
ARC
  5
2B0
  8
0
 10
277.73591368601376
 20
276.22337726802243
 30
0.0
 40
1.5
 50
281.99914643595594
 51
11.99971612956233
  0
LINE
  5
2B1
  8
0
 10
279.203136632236
 20
276.5352375349353
 30
0.0
 11
259.8678526059405
 21
367.5028130966968
 31
0.0
  0
ARC
  5
2B2
  8
0
 10
258.4006296597183
 20
367.19095282978395
 30
0.0
 40
1.5
 50
11.99971612956233
 51
101.99830861851348
  0
LINE
  5
2B3
  8
0
 10
258.0888054362613
 20
368.6581834366299
 30
0.0
 11
209.47712313872478
 21
358.3269512413359
 31
0.0
  0
ARC
  5
2B4
  8
0
 10
209.5810645465438
 20
357.83787437238726
 30
0.0
 40
0.5
 50
101.99830861851348
 51
192.00372890652991
  0
LINE
  5
2B5
  8
0
 10
209.09199751283543
 20
357.73388669744594
 30
0.0
 11
210.5479868951698
 21
350.8861866336544
 31
0.0
  0
ARC
  5
2B6
  8
0
 10
210.05891986146145
 20
350.7821989587131
 30
0.0
 40
0.5
 50
281.9897191004212
 51
12.003728906529915
  0
LINE
  5
2B7
  8
0
 10
210.16278794797202
 20
350.2931065128456
 30
0.0
 11
207.22808344942408
 21
349.66986617594466
 31
0.0
  0
ARC
  5
2B8
  8
0
 10
207.1242153629135
 20
350.15895862181213
 30
0.0
 40
0.5
 50
191.9907730176945
 51
281.9897191004212
  0
LINE
  5
2B9
  8
0
 10
206.63512482771225
 20
350.055081538793
 30
0.0
 11
205.17992456408052
 21
356.9066859069449
 31
0.0
  0
ARC
  5
2BA
  8
0
 10
204.69083402887927
 20
356.8028088239258
 30
0.0
 40
0.5
 50
11.990773017694492
 51
102.01695629792758
  0
LINE
  5
2BB
  8
0
 10
204.58673344994574
 20
357.29185183784756
 30
0.0
 11
191.85267270826103
 21
354.5812045989607
 31
0.0
  0
ARC
  5
2BC
  8
0
 10
192.1649744450616
 20
353.11407555719535
 30
0.0
 40
1.5
 50
102.01695629792758
 51
191.99913233716714
  0
LINE
  5
2BD
  8
0
 10
190.69774832134027
 20
352.8022302399792
 30
0.0
 11
210.03216569334774
 21
261.83417431923345
 31
0.0
  0
ARC
  5
2BE
  8
0
 10
211.49939181706907
 20
262.1460196364496
 30
0.0
 40
1.5
 50
191.99913233716714
 51
281.9971093150399
  0
LINE
  5
2BF
  8
0
 10
288.99225356402945
 20
263.79094583820023
 30
0.0
 11
320.35761362378054
 21
270.4593866409057
 31
0.0
  0
ARC
  5
2C0
  8
0
 10
320.0456777137967
 20
271.9265935070505
 30
0.0
 40
1.5
 50
282.00267004496993
 51
322.02796113014927
  0
LINE
  5
2C1
  8
0
 10
321.228144380365
 20
271.00367824417157
 30
0.0
 11
336.03989152972724
 21
289.9809321505859
 31
0.0
  0
ARC
  5
2C2
  8
0
 10
334.85742486315894
 20
290.9038474134648
 30
0.0
 40
1.5
 50
322.02796113014927
 51
12.002055423621892
  0
LINE
  5
2C3
  8
0
 10
336.3246350754077
 20
291.21576758445883
 30
0.0
 11
324.5199084973922
 21
346.74284469804365
 31
0.0
  0
ARC
  5
2C4
  8
0
 10
323.05269828514344
 20
346.4309245270496
 30
0.0
 40
1.5
 50
12.002055423621892
 51
101.99991109089288
  0
LINE
  5
2C5
  8
0
 10
322.7408330256877
 20
347.8981464120911
 30
0.0
 11
273.3452458385072
 21
337.39887035088316
 31
0.0
  0
ARC
  5
2C6
  8
0
 10
273.6571110979629
 20
335.9316484658417
 30
0.0
 40
1.5
 50
101.99991109089288
 51
192.0008464785822
  0
LINE
  5
2C7
  8
0
 10
272.1898943045029
 20
335.6197592531574
 30
0.0
 11
287.2131008605856
 21
264.9462634916607
 31
0.0
  0
ARC
  5
2C8
  8
0
 10
288.6803176540456
 20
265.25815270434504
 30
0.0
 40
1.5
 50
192.0008464785822
 51
282.00267004496993
  0
LINE
  5
2C9
  8
0
 10
270.28018818005063
 20
351.8238801726487
 30
0.0
 11
319.67681286826
 21
362.3241200501905
 31
0.0
  0
ARC
  5
2CA
  8
0
 10
319.3649264853905
 20
363.79133744518714
 30
0.0
 40
1.5
 50
282.0007359724752
 51
11.999554160724573
  0
LINE
  5
2CB
  8
0
 10
320.8321503132014
 20
364.1031935644216
 30
0.0
 11
317.50585563816935
 21
379.752778435509
 31
0.0
  0
ARC
  5
2CC
  8
0
 10
316.0386318103585
 20
379.44092231627457
 30
0.0
 40
1.5
 50
11.999554160724573
 51
101.9994657769535
  0
LINE
  5
2CD
  8
0
 10
315.726777954446
 20
380.90814662514913
 30
0.0
 11
266.32928605258184
 21
370.40886697934087
 31
0.0
  0
ARC
  5
2CE
  8
0
 10
266.6411399084943
 20
368.9416426704663
 30
0.0
 40
1.5
 50
101.9994657769535
 51
192.00187684619476
  0
LINE
  5
2CF
  8
0
 10
265.1739287240711
 20
368.6297270724219
 30
0.0
 11
268.50109061275793
 21
352.9791819696009
 31
0.0
  0
ARC
  5
2D0
  8
0
 10
269.96830179718114
 20
353.29109756764535
 30
0.0
 40
1.5
 50
192.00187684619476
 51
282.0007359724752
  0
LINE
  5
2D1
  8
0
 10
180.62371033826534
 20
358.3285667220474
 30
0.0
 11
258.0634838603885
 21
374.7880292354844
 31
0.0
  0
ARC
  5
2D2
  8
0
 10
258.0115085646332
 20
375.03256669402833
 30
0.0
 40
0.25
 50
281.9993844980992
 51
11.9943891975467
  0
LINE
  5
2D3
  8
0
 10
258.25605055368493
 20
375.0845206697243
 30
0.0
 11
257.6641947736081
 21
377.87032460008606
 31
0.0
  0
ARC
  5
2D4
  8
0
 10
257.4196527845563
 20
377.81837062439007
 30
0.0
 40
0.25
 50
11.9943891975467
 51
102.25933101563504
  0
LINE
  5
2D5
  8
0
 10
257.3665685800026
 20
378.0626697591141
 30
0.0
 11
216.73559197564606
 21
369.2338907471848
 31
0.0
  0
ARC
  5
2D6
  8
0
 10
216.62942356653858
 20
369.7224890166328
 30
0.0
 40
0.5
 50
236.41953580775737
 51
282.25933101563504
  0
LINE
  5
2D7
  8
0
 10
216.35286980614669
 20
369.30593407714326
 30
0.0
 11
182.8406774376486
 21
391.5549147994532
 31
0.0
  0
ARC
  5
2D8
  8
0
 10
184.49999999999997
 20
394.05424443639015
 30
0.0
 40
3.0
 50
180.0
 51
236.41953580775737
  0
LINE
  5
2D9
  8
0
 10
181.49999999999997
 20
394.05424443639015
 30
0.0
 11
181.49999999999997
 21
446.25
 31
0.0
  0
ARC
  5
2DA
  8
0
 10
181.24999999999997
 20
446.25
 30
0.0
 40
0.25
 50
0.0
 51
90.0
  0
LINE
  5
2DB
  8
0
 10
181.24999999999997
 20
446.5
 30
0.0
 11
178.74999999999997
 21
446.5
 31
0.0
  0
ARC
  5
2DC
  8
0
 10
178.74999999999997
 20
446.25
 30
0.0
 40
0.25
 50
90.0
 51
180.0
  0
LINE
  5
2DD
  8
0
 10
178.49999999999997
 20
446.25
 30
0.0
 11
178.49999999999997
 21
394.05424443639015
 31
0.0
  0
ARC
  5
2DE
  8
0
 10
175.49999999999997
 20
394.05424443639015
 30
0.0
 40
3.0
 50
303.58046419224263
 51
0.0
  0
LINE
  5
2DF
  8
0
 10
177.15932256235135
 20
391.5549147994532
 30
0.0
 11
143.64713218031525
 21
369.30593539596936
 31
0.0
  0
ARC
  5
2E0
  8
0
 10
143.37057841992336
 20
369.7224903354589
 30
0.0
 40
0.5
 50
257.74020540246465
 51
303.58046419224263
  0
LINE
  5
2E1
  8
0
 10
143.26440605755585
 20
369.2338929250387
 30
0.0
 11
102.63043297431165
 21
378.06366734180364
 31
0.0
  0
ARC
  5
2E2
  8
0
 10
102.57734679312789
 20
377.81936863659354
 30
0.0
 40
0.25
 50
77.74020540246468
 51
168.00561080245376
  0
LINE
  5
2E3
  8
0
 10
102.33280480407615
 20
377.87132261228953
 30
0.0
 11
101.7409492163231
 21
375.08551958717607
 31
0.0
  0
ARC
  5
2E4
  8
0
 10
101.98549120537484
 20
375.03356561148007
 30
0.0
 40
0.25
 50
168.00561080245376
 51
258.0003618399848
  0
LINE
  5
2E5
  8
0
 10
101.93351482699511
 20
374.7890283830454
 30
0.0
 11
179.3762902486449
 21
358.32856948335876
 31
0.0
  0
ARC
  5
2E6
  8
0
 10
180.00000678920173
 20
361.2630162245752
 30
0.0
 40
3.0
 50
258.0003618399848
 51
281.9993844980992
  0
LINE
  5
2E7
  8
0
 10
143.78286771967717
 20
188.0
 30
0.0
 11
177.25
 21
188.0
 31
0.0
  0
ARC
  5
2E8
  8
0
 10
177.25
 20
188.25
 30
0.0
 40
0.25
 50
270.0
 51
0.0
  0
LINE
  5
2E9
  8
0
 10
177.5
 20
188.25
 30
0.0
 11
177.5
 21
204.75
 31
0.0
  0
ARC
  5
2EA
  8
0
 10
177.25
 20
204.75
 30
0.0
 40
0.25
 50
0.0
 51
90.0
  0
LINE
  5
2EB
  8
0
 10
177.25
 20
205.0
 30
0.0
 11
143.96099437444295
 21
205.0
 31
0.0
  0
ARC
  5
2EC
  8
0
 10
143.96099437444295
 20
202.0
 30
0.0
 40
3.0
 50
90.0
 51
125.52379413061013
  0
LINE
  5
2ED
  8
0
 10
142.21787138542294
 20
204.44162287119653
 30
0.0
 11
86.1773253408
 21
164.4331656765992
 31
0.0
  0
ARC
  5
2EE
  8
0
 10
86.322585589885
 20
164.22969710399948
 30
0.0
 40
0.25
 50
125.52379413061013
 51
209.24994043352726
  0
LINE
  5
2EF
  8
0
 10
86.10446146112045
 20
164.1075420203938
 30
0.0
 11
89.3808426331543
 21
158.25712820579287
 31
0.0
  0
ARC
  5
2F0
  8
0
 10
89.59896676191885
 20
158.37928328939856
 30
0.0
 40
0.25
 50
209.24994043352726
 51
299.2510113573854
  0
LINE
  5
2F1
  8
0
 10
89.72112592249343
 20
158.1611614438908
 30
0.0
 11
142.31695779278223
 21
187.6174621460932
 31
0.0
  0
ARC
  5
2F2
  8
0
 10
143.78286771967717
 20
185.0
 30
0.0
 40
3.0
 50
90.0
 51
119.25101135738538
  0
LINE
  5
2F3
  8
0
 10
217.6831052617542
 20
187.61740691168166
 30
0.0
 11
270.27787194726733
 21
158.16016899798072
 31
0.0
  0
ARC
  5
2F4
  8
0
 10
270.40003594986223
 20
158.37828813164393
 30
0.0
 40
0.25
 50
240.74771674317157
 51
330.7500595664728
  0
LINE
  5
2F5
  8
0
 10
270.6181600786268
 20
158.25613304803824
 30
0.0
 11
273.8945385388795
 21
164.10654202039382
 31
0.0
  0
ARC
  5
2F6
  8
0
 10
273.67641441011494
 20
164.2286971039995
 30
0.0
 40
0.25
 50
330.7500595664728
 51
54.47620586938986
  0
LINE
  5
2F7
  8
0
 10
273.82167465919997
 20
164.43216567659923
 30
0.0
 11
217.78112861457703
 21
204.44062287119655
 31
0.0
  0
ARC
  5
2F8
  8
0
 10
216.03800562555702
 20
201.99900000000002
 30
0.0
 40
3.0
 50
54.47620586938986
 51
90.0
  0
LINE
  5
2F9
  8
0
 10
216.03800562555702
 20
204.99900000000002
 30
0.0
 11
182.74899999999997
 21
204.99900000000002
 31
0.0
  0
ARC
  5
2FA
  8
0
 10
182.74899999999997
 20
204.74900000000002
 30
0.0
 40
0.25
 50
90.0
 51
180.0
  0
LINE
  5
2FB
  8
0
 10
182.49899999999997
 20
204.74900000000002
 30
0.0
 11
182.49899999999997
 21
188.24900724627182
 31
0.0
  0
ARC
  5
2FC
  8
0
 10
182.74899999999997
 20
188.24900724627182
 30
0.0
 40
0.25
 50
180.0
 51
270.00166069909557
  0
LINE
  5
2FD
  8
0
 10
182.74900724616674
 20
187.99900724637683
 30
0.0
 11
216.217050276614
 21
187.9999773064629
 31
0.0
  0
ARC
  5
2FE
  8
0
 10
216.2171372306153
 20
184.99997730772307
 30
0.0
 40
3.0
 50
60.74771674317159
 51
90.00166069909557
  0
LINE
  5
2FF
  8
0
 10
11.948908553993483
 20
164.56021387998067
 30
0.0
 11
51.98471575667271
 21
142.13689466617492
 31
0.0
  0
ARC
  5
300
  8
0
 10
53.45068846640856
 20
144.7543216497429
 30
0.0
 40
3.0
 50
240.74761432819452
 51
305.5230973466769
  0
LINE
  5
301
  8
0
 10
55.193781762299544
 20
142.3126775803053
 30
0.0
 11
81.67396155926676
 21
161.21691692290239
 31
0.0
  0
ARC
  5
302
  8
0
 10
81.81921933392434
 20
161.01344658378258
 30
0.0
 40
0.25
 50
29.256065222107075
 51
125.52309734667688
  0
LINE
  5
303
  8
0
 10
82.0373304033419
 20
161.13562498366377
 30
0.0
 11
85.0188118522997
 21
155.81312847107984
 31
0.0
  0
ARC
  5
304
  8
0
 10
84.80070078288215
 20
155.69095007119864
 30
0.0
 40
0.25
 50
299.25149414722506
 51
29.256065222107075
  0
LINE
  5
305
  8
0
 10
84.92286178140645
 20
155.47282925504496
 30
0.0
 11
16.440937000377794
 21
117.1187626435259
 31
0.0
  0
ARC
  5
306
  8
0
 10
17.90686898266947
 20
114.50131284968182
 30
0.0
 40
3.0
 50
119.25149414722509
 51
192.00004322978333
  0
LINE
  5
307
  8
0
 10
14.97242665107828
 20
113.8775755631856
 30
0.0
 11
37.56327012385087
 21
7.596407468778531
 31
0.0
  0
ARC
  5
308
  8
0
 10
40.497712455442056
 20
8.220144755274752
 30
0.0
 40
3.0
 50
192.00004322978333
 51
281.9993625199008
  0
LINE
  5
309
  8
0
 10
41.12141487887447
 20
5.285695013499554
 30
0.0
 11
98.34391343623079
 21
17.448047129126675
 31
0.0
  0
ARC
  5
30A
  8
0
 10
98.23996303232539
 20
17.937122086089207
 30
0.0
 40
0.5
 50
281.9993625199008
 51
12.000722256553608
  0
LINE
  5
30B
  8
0
 10
98.72903552221153
 20
18.041084096634286
 30
0.0
 11
76.53296349356678
 21
122.45892053347775
 31
0.0
  0
ARC
  5
30C
  8
0
 10
77.02203598345292
 20
122.56288254402283
 30
0.0
 40
0.5
 50
101.9999049360868
 51
192.00072225655362
  0
LINE
  5
30D
  8
0
 10
76.91808094950481
 20
123.05195651687033
 30
0.0
 11
148.7037621239776
 21
138.31034959804757
 31
0.0
  0
ARC
  5
30E
  8
0
 10
149.32749232766625
 20
135.3759057609625
 30
0.0
 40
3.0
 50
45.00096446175551
 51
101.9999049360868
  0
LINE
  5
30F
  8
0
 10
151.4487769626697
 20
137.49726181247723
 30
0.0
 11
179.6474406578805
 21
109.29954743936769
 31
0.0
  0
ARC
  5
310
  8
0
 10
180.00098809704775
 20
109.65310678128681
 30
0.0
 40
0.5
 50
225.0009644617555
 51
315.0009644942262
  0
LINE
  5
311
  8
0
 10
180.35454743916725
 20
109.29955934231994
 30
0.0
 11
208.55122313975374
 21
137.49718436199942
 31
0.0
  0
ARC
  5
312
  8
0
 10
210.67257919247066
 20
135.37589972819816
 30
0.0
 40
3.0
 50
78.0004105390263
 51
135.0009644942262
  0
LINE
  5
313
  8
0
 10
211.296293238869
 20
138.3103469995468
 30
0.0
 11
283.0839157851806
 21
123.05195439632979
 31
0.0
  0
ARC
  5
314
  8
0
 10
282.9799634441142
 20
122.56287985110502
 30
0.0
 40
0.5
 50
347.9992777434464
 51
78.0004105390263
  0
LINE
  5
315
  8
0
 10
283.4690359340004
 20
122.45891784055995
 30
0.0
 11
261.27296280431403
 21
18.041076224044293
 31
0.0
  0
ARC
  5
316
  8
0
 10
261.7620352942002
 20
17.937114213499214
 30
0.0
 40
0.5
 50
167.99927774344638
 51
257.9997152055585
  0
LINE
  5
317
  8
0
 10
261.65807701780204
 20
17.44804092986135
 30
0.0
 11
300.53755448122126
 21
9.183750894850451
 31
0.0
  0
ARC
  5
318
  8
0
 10
301.16130413961025
 20
12.118190596677632
 30
0.0
 40
3.0
 50
257.9997152055585
 51
347.99982878309874
  0
LINE
  5
319
  8
0
 10
304.0957450778919
 20
11.494446755235638
 30
0.0
 11
327.897574071714
 21
123.47160270435107
 31
0.0
  0
ARC
  5
31A
  8
0
 10
324.9631331334324
 20
124.09534654579306
 30
0.0
 40
3.0
 50
347.99982878309874
 51
60.74771674317159
  0
LINE
  5
31B
  8
0
 10
326.4291011645713
 20
126.71277614975163
 30
0.0
 11
275.0791174543908
 21
155.47283693793068
 31
0.0
  0
ARC
  5
31C
  8
0
 10
275.2012814569857
 20
155.6909560715939
 30
0.0
 40
0.25
 50
150.74815785802315
 51
240.74771674317157
  0
LINE
  5
31D
  8
0
 10
274.9831613827997
 20
155.81311839490635
 30
0.0
 11
277.96467742743175
 21
161.13659688817674
 31
0.0
  0
ARC
  5
31E
  8
0
 10
278.18279750161776
 20
161.01443456486427
 30
0.0
 40
0.25
 50
54.47690265332309
 51
150.74815785802315
  0
LINE
  5
31F
  8
0
 10
278.32805527627534
 20
161.21790490398408
 30
0.0
 11
304.8082182377004
 21
142.31367758030527
 31
0.0
  0
ARC
  5
320
  8
0
 10
306.5513115335914
 20
144.75532164974288
 30
0.0
 40
3.0
 50
234.4769026533231
 51
299.2523856718054
  0
LINE
  5
321
  8
0
 10
308.01728424332725
 20
142.1378946661749
 30
0.0
 11
348.0531037888699
 21
164.5612207929914
 31
0.0
  0
ARC
  5
322
  8
0
 10
346.58713107913405
 20
167.1786477765594
 30
0.0
 40
3.0
 50
299.2523856718054
 51
12.000253928407355
  0
LINE
  5
323
  8
0
 10
349.5215711169834
 20
167.80239585412477
 30
0.0
 11
328.81743568215603
 21
265.2055721591359
 31
0.0
  0
ARC
  5
324
  8
0
 10
331.7518757200054
 20
265.8293202367013
 30
0.0
 40
3.0
 50
119.25157589850724
 51
192.00025392840735
  0
LINE
  5
325
  8
0
 10
330.28594000306185
 20
268.44676793890835
 30
0.0
 11
343.5620674206766
 21
275.88223621885317
 31
0.0
  0
ARC
  5
326
  8
0
 10
342.0961317037331
 20
278.49968392106024
 30
0.0
 40
3.0
 50
299.2515758985072
 51
12.000043229783333
  0
LINE
  5
327
  8
0
 10
345.03057403532426
 20
279.1234212075565
 30
0.0
 11
322.43972660553476
 21
385.40460791819527
 31
0.0
  0
ARC
  5
328
  8
0
 10
319.5052842739436
 20
384.78087063169903
 30
0.0
 40
3.0
 50
12.000043229783333
 51
101.9990620807217
  0
LINE
  5
329
  8
0
 10
318.88159723775556
 20
387.7153236439129
 30
0.0
 11
263.44553456670945
 21
375.93297324289114
 31
0.0
  0
ARC
  5
32A
  8
0
 10
263.39356064702713
 20
376.177510993909
 30
0.0
 40
0.25
 50
191.9998081766471
 51
281.99906208072167
  0
LINE
  5
32B
  8
0
 10
263.1490235728256
 20
376.12553388990193
 30
0.0
 11
262.5517415847243
 21
378.9355709751488
 31
0.0
  0
ARC
  5
32C
  8
0
 10
262.7962786589258
 20
378.98754807915583
 30
0.0
 40
0.25
 50
102.26001658976843
 51
191.9998081766471
  0
LINE
  5
32D
  8
0
 10
262.74319153120825
 20
379.23184657868194
 30
0.0
 11
288.60817425543513
 21
384.85241995083584
 31
0.0
  0
ARC
  5
32E
  8
0
 10
288.502
 20
385.341016949888
 30
0.0
 40
0.5
 50
282.26001658976844
 51
0.0
  0
LINE
  5
32F
  8
0
 10
289.002
 20
385.341016949888
 30
0.0
 11
289.002
 21
468.501
 31
0.0
  0
ARC
  5
330
  8
0
 10
288.502
 20
468.501
 30
0.0
 40
0.5
 50
0.0
 51
90.0
  0
LINE
  5
331
  8
0
 10
288.502
 20
469.001
 30
0.0
 11
182.002
 21
469.001
 31
0.0
  0
ARC
  5
332
  8
0
 10
182.002
 20
468.501
 30
0.0
 40
0.5
 50
90.0
 51
180.0
  0
LINE
  5
333
  8
0
 10
181.502
 20
468.501
 30
0.0
 11
181.502
 21
451.751
 31
0.0
  0
ARC
  5
334
  8
0
 10
181.252
 20
451.751
 30
0.0
 40
0.25
 50
270.0
 51
0.0
  0
LINE
  5
335
  8
0
 10
181.252
 20
451.501
 30
0.0
 11
178.752
 21
451.501
 31
0.0
  0
ARC
  5
336
  8
0
 10
178.752
 20
451.751
 30
0.0
 40
0.25
 50
180.0
 51
270.0
  0
LINE
  5
337
  8
0
 10
178.502
 20
451.751
 30
0.0
 11
178.502
 21
468.501
 31
0.0
  0
ARC
  5
338
  8
0
 10
178.002
 20
468.501
 30
0.0
 40
0.5
 50
0.0
 51
90.0
  0
LINE
  5
339
  8
0
 10
178.002
 20
469.001
 30
0.0
 11
71.50200000000001
 21
469.001
 31
0.0
  0
ARC
  5
33A
  8
0
 10
71.50200000000001
 20
468.501
 30
0.0
 40
0.5
 50
90.0
 51
180.0
  0
LINE
  5
33B
  8
0
 10
71.00200000000001
 20
468.501
 30
0.0
 11
71.00200000000001
 21
385.34102212316486
 31
0.0
  0
ARC
  5
33C
  8
0
 10
71.50200000000001
 20
385.34102212316486
 30
0.0
 40
0.5
 50
180.0
 51
257.7407021036007
  0
LINE
  5
33D
  8
0
 10
71.39583187332175
 20
384.8524237923474
 30
0.0
 11
97.25780475537861
 21
379.232844191046
 31
0.0
  0
ARC
  5
33E
  8
0
 10
97.20472069203949
 20
378.9885450256373
 30
0.0
 40
0.25
 50
348.00019182335336
 51
77.74070210360071
  0
LINE
  5
33F
  8
0
 10
97.449257766241
 20
378.9365679216302
 30
0.0
 11
96.85197673442043
 21
376.12653533540447
 31
0.0
  0
ARC
  5
340
  8
0
 10
96.60743966021892
 20
376.1785124394115
 30
0.0
 40
0.25
 50
258.0005992302262
 51
348.00019182335336
  0
LINE
  5
341
  8
0
 10
96.55546429501638
 20
375.93397499562826
 30
0.0
 11
59.46538768907072
 21
383.8173087181018
 31
0.0
  0
ARC
  5
342
  8
0
 10
58.84168330664022
 20
380.8828593927024
 30
0.0
 40
3.0
 50
78.00059923022624
 51
167.99939575448124
  0
LINE
  5
343
  8
0
 10
55.90724708255809
 20
381.50662541197136
 30
0.0
 11
10.480445039647194
 21
167.80140688281756
 31
0.0
  0
ARC
  5
344
  8
0
 10
13.414881263729326
 20
167.17764086354865
 30
0.0
 40
3.0
 50
167.99939575448124
 51
240.74761432819452
  0
ENDSEC
  0
EOF
