  0
SECTION
  2
HEADER
  9
$ACADVER
  1
AC1009
  9
$DWGCODEPAGE
  3
ANSI_1252
  9
$INSBASE
 10
0.0
 20
0.0
 30
0.0
  9
$EXTMIN
 10
-100
 20
-100
 30
-100
  9
$EXTMAX
 10
100
 20
100
 30
100
  9
$LIMMIN
 10
0.0
 20
0.0
  9
$LIMMAX
 10
420.0
 20
297.0
  9
$ORTHOMODE
 70
0
  9
$REGENMODE
 70
1
  9
$DRAGMODE
 70
2
  9
$FILLMODE
 70
1
  9
$QTEXTMODE
 70
0
  9
$MIRRTEXT
 70
1
  9
$OSMODE
 70
20583
  9
$LTSCALE
 40
1.0
  9
$ATTMODE
 70
1
  9
$TEXTSIZE
 40
2.5
  9
$TRACEWID
 40
1.0
  9
$TEXTSTYLE
  7
Standard
  9
$CLAYER
  8
0
  9
$CELTYPE
  6
ByLayer
  9
$CECOLOR
 62
256
  9
$DIMSCALE
 40
1.0
  9
$DIMASZ
 40
2.5
  9
$DIMEXO
 40
0.625
  9
$DIMDLI
 40
3.75
  9
$DIMRND
 40
0.0
  9
$DIMDLE
 40
0.0
  9
$DIMEXE
 40
1.25
  9
$DIMTP
 40
0.0
  9
$DIMTM
 40
0.0
  9
$DIMTXT
 40
2.5
  9
$DIMCEN
 40
2.5
  9
$DIMTSZ
 40
0.0
  9
$DIMTOL
 70
0
  9
$DIMLIM
 70
0
  9
$DIMTIH
 70
0
  9
$DIMTOH
 70
0
  9
$DIMSE1
 70
0
  9
$DIMSE2
 70
0
  9
$DIMTAD
 70
1
  9
$DIMZIN
 70
8
  9
$DIMBLK
  1

  9
$DIMASO
 70
1
  9
$DIMSHO
 70
1
  9
$DIMPOST
  1

  9
$DIMAPOST
  1

  9
$DIMALT
 70
0
  9
$DIMALTD
 70
3
  9
$DIMALTF
 40
0.03937007874
  9
$DIMLFAC
 40
1.0
  9
$DIMTOFL
 70
1
  9
$DIMTVP
 40
0.0
  9
$DIMTIX
 70
0
  9
$DIMSOXD
 70
0
  9
$DIMSAH
 70
0
  9
$DIMBLK1
  1

  9
$DIMBLK2
  1

  9
$DIMSTYLE
  2
ISO-25
  9
$DIMCLRD
 70
0
  9
$DIMCLRE
 70
0
  9
$DIMCLRT
 70
0
  9
$DIMTFAC
 40
1.0
  9
$DIMGAP
 40
0.625
  9
$COORDS
 70
1
  9
$ATTDIA
 70
0
  9
$ATTREQ
 70
1
  9
$HANDLING
 70
1
  9
$LUNITS
 70
2
  9
$LUPREC
 70
4
  9
$SKETCHINC
 40
1.0
  9
$FILLETRAD
 40
10.0
  9
$AUNITS
 70
0
  9
$AUPREC
 70
2
  9
$MENU
  1
.
  9
$ELEVATION
 40
0.0
  9
$PELEVATION
 40
0.0
  9
$THICKNESS
 40
0.0
  9
$LIMCHECK
 70
0
  9
$CHAMFERA
 40
0.0
  9
$CHAMFERB
 40
0.0
  9
$SKPOLY
 70
0
  9
$TDCREATE
 40
2459085.6291319444
  9
$TDUPDATE
 40
2459085.6291319444
  9
$TDINDWG
 40
0.0
  9
$TDUSRTIMER
 40
0.0
  9
$USRTIMER
 70
1
  9
$ANGBASE
 50
0.0
  9
$ANGDIR
 70
0
  9
$PDMODE
 70
0
  9
$PDSIZE
 40
0.0
  9
$PLINEWID
 40
0.0
  9
$SPLFRAME
 70
0
  9
$SPLINETYPE
 70
6
  9
$SPLINESEGS
 70
8
  9
$HANDSEED
  5
D7
  9
$SURFTAB1
 70
6
  9
$SURFTAB2
 70
6
  9
$SURFTYPE
 70
6
  9
$SURFU
 70
6
  9
$SURFV
 70
6
  9
$UCSNAME
  2

  9
$UCSORG
 10
0.0
 20
0.0
 30
0.0
  9
$UCSXDIR
 10
1.0
 20
0.0
 30
0.0
  9
$UCSYDIR
 10
0.0
 20
1.0
 30
0.0
  9
$PUCSNAME
  2

  9
$PUCSORG
 10
0.0
 20
0.0
 30
0.0
  9
$PUCSXDIR
 10
1.0
 20
0.0
 30
0.0
  9
$PUCSYDIR
 10
0.0
 20
1.0
 30
0.0
  9
$USERI1
 70
0
  9
$USERI2
 70
0
  9
$USERI3
 70
0
  9
$USERI4
 70
0
  9
$USERI5
 70
0
  9
$USERR1
 40
0.0
  9
$USERR2
 40
0.0
  9
$USERR3
 40
0.0
  9
$USERR4
 40
0.0
  9
$USERR5
 40
0.0
  9
$WORLDVIEW
 70
1
  9
$SHADEDGE
 70
3
  9
$SHADEDIF
 70
70
  9
$TILEMODE
 70
1
  9
$MAXACTVP
 70
64
  9
$PLIMCHECK
 70
0
  9
$PEXTMIN
 10
1e+20
 20
1e+20
 30
1e+20
  9
$PEXTMAX
 10
-1e+20
 20
-1e+20
 30
-1e+20
  9
$PLIMMIN
 10
0.0
 20
0.0
  9
$PLIMMAX
 10
420.0
 20
297.0
  9
$UNITMODE
 70
0
  9
$VISRETAIN
 70
1
  9
$PLINEGEN
 70
0
  9
$PSLTSCALE
 70
1
  0
ENDSEC
  0
SECTION
  2
TABLES
  0
TABLE
  2
VPORT
 70
1
  0
VPORT
  5
23
  2
*Active
 70
0
 10
0.0
 20
0.0
 11
1.0
 21
1.0
 12
70.0
 22
50.0
 13
0.0
 23
0.0
 14
0.5
 24
0.5
 15
0.5
 25
0.5
 16
0.0
 26
0.0
 36
1.0
 17
0.0
 27
0.0
 37
0.0
 40
1.0
 41
1.34
 42
50.0
 43
0.0
 44
0.0
 50
0.0
 51
0.0
 71
0
 72
1000
 73
1
 74
3
 75
0
 76
0
 77
0
 78
0
  0
ENDTAB
  0
TABLE
  2
LTYPE
 70
3
  0
LTYPE
  5
24
  2
ByBlock
 70
0
  3

 72
65
 73
0
 40
0.0
  0
LTYPE
  5
25
  2
ByLayer
 70
0
  3

 72
65
 73
0
 40
0.0
  0
LTYPE
  5
26
  2
Continuous
 70
0
  3

 72
65
 73
0
 40
0.0
  0
ENDTAB
  0
TABLE
  2
LAYER
 70
2
  0
LAYER
  5
27
  2
0
 70
0
 62
7
  6
Continuous
  0
LAYER
  5
28
  2
Defpoints
 70
0
 62
7
  6
Continuous
  0
ENDTAB
  0
TABLE
  2
STYLE
 70
1
  0
STYLE
  5
29
  2
Standard
 70
0
 40
0.0
 41
1.0
 50
0.0
 71
0
 42
2.5
  3
txt
  4

  0
ENDTAB
  0
TABLE
  2
VIEW
 70
0
  0
ENDTAB
  0
TABLE
  2
UCS
 70
0
  0
ENDTAB
  0
TABLE
  2
APPID
 70
1
  0
APPID
  5
2A
  2
ACAD
 70
0
  0
ENDTAB
  0
TABLE
  2
DIMSTYLE
 70
1
  0
DIMSTYLE
105
2B
  2
Standard
 70
0
  3

  4

  5

  6

  7

 40
1.0
 41
2.5
 42
0.625
 43
3.75
 44
1.25
 45
0.0
 46
0.0
 47
0.0
 48
0.0
140
2.5
141
2.5
142
0.0
143
0.03937007874
144
1.0
145
0.0
146
1.0
147
0.625
 71
0
 72
0
 73
0
 74
0
 75
0
 76
0
 77
1
 78
8
170
0
171
3
172
1
173
0
174
0
175
0
176
0
177
0
178
0
  0
ENDTAB
  0
ENDSEC
  0
SECTION
  2
BLOCKS
  0
BLOCK
  5
18
  8
0
  2
$Model_Space
 70
0
 10
0.0
 20
0.0
 30
0.0
  3
$Model_Space
  1

  0
ENDBLK
  5
19
  8
0
  0
BLOCK
  5
1C
  8
0
  2
$Paper_Space
 70
0
 10
0.0
 20
0.0
 30
0.0
  3
$Paper_Space
  1

  0
ENDBLK
  5
1D
  8
0
  0
ENDSEC
  0
SECTION
  2
ENTITIES
  0
LINE
  5
2D
  8
0
 10
36.5
 20
93.0
 30
0.0
 11
50.0
 21
93.0
 31
0.0
  0
ARC
  5
2E
  8
0
 10
50.0
 20
93.25
 30
0.0
 40
0.25
 50
270.0
 51
0.0
  0
LINE
  5
2F
  8
0
 10
50.25
 20
93.25
 30
0.0
 11
50.25
 21
106.75
 31
0.0
  0
ARC
  5
30
  8
0
 10
50.0
 20
106.75
 30
0.0
 40
0.25
 50
0.0
 51
90.0
  0
LINE
  5
31
  8
0
 10
50.0
 20
107.0
 30
0.0
 11
36.5
 21
107.0
 31
0.0
  0
ARC
  5
32
  8
0
 10
36.5
 20
106.75
 30
0.0
 40
0.25
 50
90.0
 51
180.0
  0
LINE
  5
33
  8
0
 10
36.25
 20
106.75
 30
0.0
 11
36.25
 21
93.25
 31
0.0
  0
ARC
  5
34
  8
0
 10
36.5
 20
93.25
 30
0.0
 40
0.25
 50
180.0
 51
270.0
  0
LINE
  5
35
  8
0
 10
55.25
 20
93.0
 30
0.0
 11
68.75
 21
93.0
 31
0.0
  0
ARC
  5
36
  8
0
 10
68.75
 20
93.25
 30
0.0
 40
0.25
 50
270.0
 51
0.0
  0
LINE
  5
37
  8
0
 10
69.0
 20
93.25
 30
0.0
 11
69.0
 21
106.75
 31
0.0
  0
ARC
  5
38
  8
0
 10
68.75
 20
106.75
 30
0.0
 40
0.25
 50
0.0
 51
90.0
  0
LINE
  5
39
  8
0
 10
68.75
 20
107.0
 30
0.0
 11
55.25
 21
107.0
 31
0.0
  0
ARC
  5
3A
  8
0
 10
55.25
 20
106.75
 30
0.0
 40
0.25
 50
90.0
 51
180.0
  0
LINE
  5
3B
  8
0
 10
55.0
 20
106.75
 30
0.0
 11
55.0
 21
93.25
 31
0.0
  0
ARC
  5
3C
  8
0
 10
55.25
 20
93.25
 30
0.0
 40
0.25
 50
180.0
 51
270.0
  0
LINE
  5
3D
  8
0
 10
74.0
 20
93.0
 30
0.0
 11
87.5
 21
93.0
 31
0.0
  0
ARC
  5
3E
  8
0
 10
87.5
 20
93.25
 30
0.0
 40
0.25
 50
270.0
 51
0.0
  0
LINE
  5
3F
  8
0
 10
87.75
 20
93.25
 30
0.0
 11
87.75
 21
106.75
 31
0.0
  0
ARC
  5
40
  8
0
 10
87.5
 20
106.75
 30
0.0
 40
0.25
 50
0.0
 51
90.0
  0
LINE
  5
41
  8
0
 10
87.5
 20
107.0
 30
0.0
 11
74.0
 21
107.0
 31
0.0
  0
ARC
  5
42
  8
0
 10
74.0
 20
106.75
 30
0.0
 40
0.25
 50
90.0
 51
180.0
  0
LINE
  5
43
  8
0
 10
73.75
 20
106.75
 30
0.0
 11
73.75
 21
93.25
 31
0.0
  0
ARC
  5
44
  8
0
 10
74.0
 20
93.25
 30
0.0
 40
0.25
 50
180.0
 51
270.0
  0
LINE
  5
45
  8
0
 10
92.75
 20
93.0
 30
0.0
 11
106.25
 21
93.0
 31
0.0
  0
ARC
  5
46
  8
0
 10
106.25
 20
93.25
 30
0.0
 40
0.25
 50
270.0
 51
0.0
  0
LINE
  5
47
  8
0
 10
106.5
 20
93.25
 30
0.0
 11
106.5
 21
106.75
 31
0.0
  0
ARC
  5
48
  8
0
 10
106.25
 20
106.75
 30
0.0
 40
0.25
 50
0.0
 51
90.0
  0
LINE
  5
49
  8
0
 10
106.25
 20
107.0
 30
0.0
 11
92.75
 21
107.0
 31
0.0
  0
ARC
  5
4A
  8
0
 10
92.75
 20
106.75
 30
0.0
 40
0.25
 50
90.0
 51
180.0
  0
LINE
  5
4B
  8
0
 10
92.5
 20
106.75
 30
0.0
 11
92.5
 21
93.25
 31
0.0
  0
ARC
  5
4C
  8
0
 10
92.75
 20
93.25
 30
0.0
 40
0.25
 50
180.0
 51
270.0
  0
LINE
  5
4D
  8
0
 10
36.5
 20
66.25
 30
0.0
 11
50.0
 21
66.25
 31
0.0
  0
ARC
  5
4E
  8
0
 10
50.0
 20
66.5
 30
0.0
 40
0.25
 50
270.0
 51
0.0
  0
LINE
  5
4F
  8
0
 10
50.25
 20
66.5
 30
0.0
 11
50.25
 21
80.0
 31
0.0
  0
ARC
  5
50
  8
0
 10
50.0
 20
80.0
 30
0.0
 40
0.25
 50
0.0
 51
90.0
  0
LINE
  5
51
  8
0
 10
50.0
 20
80.25
 30
0.0
 11
36.5
 21
80.25
 31
0.0
  0
ARC
  5
52
  8
0
 10
36.5
 20
80.0
 30
0.0
 40
0.25
 50
90.0
 51
180.0
  0
LINE
  5
53
  8
0
 10
36.25
 20
80.0
 30
0.0
 11
36.25
 21
66.5
 31
0.0
  0
ARC
  5
54
  8
0
 10
36.5
 20
66.5
 30
0.0
 40
0.25
 50
180.0
 51
270.0
  0
LINE
  5
55
  8
0
 10
55.25
 20
69.25
 30
0.0
 11
68.75
 21
69.25
 31
0.0
  0
ARC
  5
56
  8
0
 10
68.75
 20
69.5
 30
0.0
 40
0.25
 50
270.0
 51
0.0
  0
LINE
  5
57
  8
0
 10
69.0
 20
69.5
 30
0.0
 11
69.0
 21
83.0
 31
0.0
  0
ARC
  5
58
  8
0
 10
68.75
 20
83.0
 30
0.0
 40
0.25
 50
0.0
 51
90.0
  0
LINE
  5
59
  8
0
 10
68.75
 20
83.25
 30
0.0
 11
55.25
 21
83.25
 31
0.0
  0
ARC
  5
5A
  8
0
 10
55.25
 20
83.0
 30
0.0
 40
0.25
 50
90.0
 51
180.0
  0
LINE
  5
5B
  8
0
 10
55.0
 20
83.0
 30
0.0
 11
55.0
 21
69.5
 31
0.0
  0
ARC
  5
5C
  8
0
 10
55.25
 20
69.5
 30
0.0
 40
0.25
 50
180.0
 51
270.0
  0
LINE
  5
5D
  8
0
 10
74.0
 20
72.25
 30
0.0
 11
87.5
 21
72.25
 31
0.0
  0
ARC
  5
5E
  8
0
 10
87.5
 20
72.5
 30
0.0
 40
0.25
 50
270.0
 51
0.0
  0
LINE
  5
5F
  8
0
 10
87.75
 20
72.5
 30
0.0
 11
87.75
 21
86.0
 31
0.0
  0
ARC
  5
60
  8
0
 10
87.5
 20
86.0
 30
0.0
 40
0.25
 50
0.0
 51
90.0
  0
LINE
  5
61
  8
0
 10
87.5
 20
86.25
 30
0.0
 11
74.0
 21
86.25
 31
0.0
  0
ARC
  5
62
  8
0
 10
74.0
 20
86.0
 30
0.0
 40
0.25
 50
90.0
 51
180.0
  0
LINE
  5
63
  8
0
 10
73.75
 20
86.0
 30
0.0
 11
73.75
 21
72.5
 31
0.0
  0
ARC
  5
64
  8
0
 10
74.0
 20
72.5
 30
0.0
 40
0.25
 50
180.0
 51
270.0
  0
LINE
  5
65
  8
0
 10
92.75
 20
69.25
 30
0.0
 11
106.25
 21
69.25
 31
0.0
  0
ARC
  5
66
  8
0
 10
106.25
 20
69.5
 30
0.0
 40
0.25
 50
270.0
 51
0.0
  0
LINE
  5
67
  8
0
 10
106.5
 20
69.5
 30
0.0
 11
106.5
 21
83.0
 31
0.0
  0
ARC
  5
68
  8
0
 10
106.25
 20
83.0
 30
0.0
 40
0.25
 50
0.0
 51
90.0
  0
LINE
  5
69
  8
0
 10
106.25
 20
83.25
 30
0.0
 11
92.75
 21
83.25
 31
0.0
  0
ARC
  5
6A
  8
0
 10
92.75
 20
83.0
 30
0.0
 40
0.25
 50
90.0
 51
180.0
  0
LINE
  5
6B
  8
0
 10
92.5
 20
83.0
 30
0.0
 11
92.5
 21
69.5
 31
0.0
  0
ARC
  5
6C
  8
0
 10
92.75
 20
69.5
 30
0.0
 40
0.25
 50
180.0
 51
270.0
  0
LINE
  5
6D
  8
0
 10
36.5
 20
47.5
 30
0.0
 11
50.0
 21
47.5
 31
0.0
  0
ARC
  5
6E
  8
0
 10
50.0
 20
47.75
 30
0.0
 40
0.25
 50
270.0
 51
0.0
  0
LINE
  5
6F
  8
0
 10
50.25
 20
47.75
 30
0.0
 11
50.25
 21
61.25
 31
0.0
  0
ARC
  5
70
  8
0
 10
50.0
 20
61.25
 30
0.0
 40
0.25
 50
0.0
 51
90.0
  0
LINE
  5
71
  8
0
 10
50.0
 20
61.5
 30
0.0
 11
36.5
 21
61.5
 31
0.0
  0
ARC
  5
72
  8
0
 10
36.5
 20
61.25
 30
0.0
 40
0.25
 50
90.0
 51
180.0
  0
LINE
  5
73
  8
0
 10
36.25
 20
61.25
 30
0.0
 11
36.25
 21
47.75
 31
0.0
  0
ARC
  5
74
  8
0
 10
36.5
 20
47.75
 30
0.0
 40
0.25
 50
180.0
 51
270.0
  0
LINE
  5
75
  8
0
 10
55.25
 20
50.5
 30
0.0
 11
68.75
 21
50.5
 31
0.0
  0
ARC
  5
76
  8
0
 10
68.75
 20
50.75
 30
0.0
 40
0.25
 50
270.0
 51
0.0
  0
LINE
  5
77
  8
0
 10
69.0
 20
50.75
 30
0.0
 11
69.0
 21
64.25
 31
0.0
  0
ARC
  5
78
  8
0
 10
68.75
 20
64.25
 30
0.0
 40
0.25
 50
0.0
 51
90.0
  0
LINE
  5
79
  8
0
 10
68.75
 20
64.5
 30
0.0
 11
55.25
 21
64.5
 31
0.0
  0
ARC
  5
7A
  8
0
 10
55.25
 20
64.25
 30
0.0
 40
0.25
 50
90.0
 51
180.0
  0
LINE
  5
7B
  8
0
 10
55.0
 20
64.25
 30
0.0
 11
55.0
 21
50.75
 31
0.0
  0
ARC
  5
7C
  8
0
 10
55.25
 20
50.75
 30
0.0
 40
0.25
 50
180.0
 51
270.0
  0
LINE
  5
7D
  8
0
 10
74.0
 20
53.5
 30
0.0
 11
87.5
 21
53.5
 31
0.0
  0
ARC
  5
7E
  8
0
 10
87.5
 20
53.75
 30
0.0
 40
0.25
 50
270.0
 51
0.0
  0
LINE
  5
7F
  8
0
 10
87.75
 20
53.75
 30
0.0
 11
87.75
 21
67.25
 31
0.0
  0
ARC
  5
80
  8
0
 10
87.5
 20
67.25
 30
0.0
 40
0.25
 50
0.0
 51
90.0
  0
LINE
  5
81
  8
0
 10
87.5
 20
67.5
 30
0.0
 11
74.0
 21
67.5
 31
0.0
  0
ARC
  5
82
  8
0
 10
74.0
 20
67.25
 30
0.0
 40
0.25
 50
90.0
 51
180.0
  0
LINE
  5
83
  8
0
 10
73.75
 20
67.25
 30
0.0
 11
73.75
 21
53.75
 31
0.0
  0
ARC
  5
84
  8
0
 10
74.0
 20
53.75
 30
0.0
 40
0.25
 50
180.0
 51
270.0
  0
LINE
  5
85
  8
0
 10
92.75
 20
50.5
 30
0.0
 11
106.25
 21
50.5
 31
0.0
  0
ARC
  5
86
  8
0
 10
106.25
 20
50.75
 30
0.0
 40
0.25
 50
270.0
 51
0.0
  0
LINE
  5
87
  8
0
 10
106.5
 20
50.75
 30
0.0
 11
106.5
 21
64.25
 31
0.0
  0
ARC
  5
88
  8
0
 10
106.25
 20
64.25
 30
0.0
 40
0.25
 50
0.0
 51
90.0
  0
LINE
  5
89
  8
0
 10
106.25
 20
64.5
 30
0.0
 11
92.75
 21
64.5
 31
0.0
  0
ARC
  5
8A
  8
0
 10
92.75
 20
64.25
 30
0.0
 40
0.25
 50
90.0
 51
180.0
  0
LINE
  5
8B
  8
0
 10
92.5
 20
64.25
 30
0.0
 11
92.5
 21
50.75
 31
0.0
  0
ARC
  5
8C
  8
0
 10
92.75
 20
50.75
 30
0.0
 40
0.25
 50
180.0
 51
270.0
  0
LINE
  5
8D
  8
0
 10
36.5
 20
28.75
 30
0.0
 11
50.0
 21
28.75
 31
0.0
  0
ARC
  5
8E
  8
0
 10
50.0
 20
29.0
 30
0.0
 40
0.25
 50
270.0
 51
0.0
  0
LINE
  5
8F
  8
0
 10
50.25
 20
29.0
 30
0.0
 11
50.25
 21
42.5
 31
0.0
  0
ARC
  5
90
  8
0
 10
50.0
 20
42.5
 30
0.0
 40
0.25
 50
0.0
 51
90.0
  0
LINE
  5
91
  8
0
 10
50.0
 20
42.75
 30
0.0
 11
36.5
 21
42.75
 31
0.0
  0
ARC
  5
92
  8
0
 10
36.5
 20
42.5
 30
0.0
 40
0.25
 50
90.0
 51
180.0
  0
LINE
  5
93
  8
0
 10
36.25
 20
42.5
 30
0.0
 11
36.25
 21
29.0
 31
0.0
  0
ARC
  5
94
  8
0
 10
36.5
 20
29.0
 30
0.0
 40
0.25
 50
180.0
 51
270.0
  0
LINE
  5
95
  8
0
 10
55.25
 20
31.75
 30
0.0
 11
68.75
 21
31.75
 31
0.0
  0
ARC
  5
96
  8
0
 10
68.75
 20
32.0
 30
0.0
 40
0.25
 50
270.0
 51
0.0
  0
LINE
  5
97
  8
0
 10
69.0
 20
32.0
 30
0.0
 11
69.0
 21
45.5
 31
0.0
  0
ARC
  5
98
  8
0
 10
68.75
 20
45.5
 30
0.0
 40
0.25
 50
0.0
 51
90.0
  0
LINE
  5
99
  8
0
 10
68.75
 20
45.75
 30
0.0
 11
55.25
 21
45.75
 31
0.0
  0
ARC
  5
9A
  8
0
 10
55.25
 20
45.5
 30
0.0
 40
0.25
 50
90.0
 51
180.0
  0
LINE
  5
9B
  8
0
 10
55.0
 20
45.5
 30
0.0
 11
55.0
 21
32.0
 31
0.0
  0
ARC
  5
9C
  8
0
 10
55.25
 20
32.0
 30
0.0
 40
0.25
 50
180.0
 51
270.0
  0
LINE
  5
9D
  8
0
 10
74.0
 20
34.75
 30
0.0
 11
87.5
 21
34.75
 31
0.0
  0
ARC
  5
9E
  8
0
 10
87.5
 20
35.0
 30
0.0
 40
0.25
 50
270.0
 51
0.0
  0
LINE
  5
9F
  8
0
 10
87.75
 20
35.0
 30
0.0
 11
87.75
 21
48.5
 31
0.0
  0
ARC
  5
A0
  8
0
 10
87.5
 20
48.5
 30
0.0
 40
0.25
 50
0.0
 51
90.0
  0
LINE
  5
A1
  8
0
 10
87.5
 20
48.75
 30
0.0
 11
74.0
 21
48.75
 31
0.0
  0
ARC
  5
A2
  8
0
 10
74.0
 20
48.5
 30
0.0
 40
0.25
 50
90.0
 51
180.0
  0
LINE
  5
A3
  8
0
 10
73.75
 20
48.5
 30
0.0
 11
73.75
 21
35.0
 31
0.0
  0
ARC
  5
A4
  8
0
 10
74.0
 20
35.0
 30
0.0
 40
0.25
 50
180.0
 51
270.0
  0
LINE
  5
A5
  8
0
 10
92.75
 20
31.75
 30
0.0
 11
106.25
 21
31.75
 31
0.0
  0
ARC
  5
A6
  8
0
 10
106.25
 20
32.0
 30
0.0
 40
0.25
 50
270.0
 51
0.0
  0
LINE
  5
A7
  8
0
 10
106.5
 20
32.0
 30
0.0
 11
106.5
 21
45.5
 31
0.0
  0
ARC
  5
A8
  8
0
 10
106.25
 20
45.5
 30
0.0
 40
0.25
 50
0.0
 51
90.0
  0
LINE
  5
A9
  8
0
 10
106.25
 20
45.75
 30
0.0
 11
92.75
 21
45.75
 31
0.0
  0
ARC
  5
AA
  8
0
 10
92.75
 20
45.5
 30
0.0
 40
0.25
 50
90.0
 51
180.0
  0
LINE
  5
AB
  8
0
 10
92.5
 20
45.5
 30
0.0
 11
92.5
 21
32.0
 31
0.0
  0
ARC
  5
AC
  8
0
 10
92.75
 20
32.0
 30
0.0
 40
0.25
 50
180.0
 51
270.0
  0
LINE
  5
AD
  8
0
 10
36.5
 20
10.0
 30
0.0
 11
50.0
 21
10.0
 31
0.0
  0
ARC
  5
AE
  8
0
 10
50.0
 20
10.25
 30
0.0
 40
0.25
 50
270.0
 51
0.0
  0
LINE
  5
AF
  8
0
 10
50.25
 20
10.25
 30
0.0
 11
50.25
 21
23.75
 31
0.0
  0
ARC
  5
B0
  8
0
 10
50.0
 20
23.75
 30
0.0
 40
0.25
 50
0.0
 51
90.0
  0
LINE
  5
B1
  8
0
 10
50.0
 20
24.0
 30
0.0
 11
36.5
 21
24.0
 31
0.0
  0
ARC
  5
B2
  8
0
 10
36.5
 20
23.75
 30
0.0
 40
0.25
 50
90.0
 51
180.0
  0
LINE
  5
B3
  8
0
 10
36.25
 20
23.75
 30
0.0
 11
36.25
 21
10.25
 31
0.0
  0
ARC
  5
B4
  8
0
 10
36.5
 20
10.25
 30
0.0
 40
0.25
 50
180.0
 51
270.0
  0
LINE
  5
B5
  8
0
 10
55.25
 20
13.0
 30
0.0
 11
68.75
 21
13.0
 31
0.0
  0
ARC
  5
B6
  8
0
 10
68.75
 20
13.25
 30
0.0
 40
0.25
 50
270.0
 51
0.0
  0
LINE
  5
B7
  8
0
 10
69.0
 20
13.25
 30
0.0
 11
69.0
 21
26.75
 31
0.0
  0
ARC
  5
B8
  8
0
 10
68.75
 20
26.75
 30
0.0
 40
0.25
 50
0.0
 51
90.0
  0
LINE
  5
B9
  8
0
 10
68.75
 20
27.0
 30
0.0
 11
55.25
 21
27.0
 31
0.0
  0
ARC
  5
BA
  8
0
 10
55.25
 20
26.75
 30
0.0
 40
0.25
 50
90.0
 51
180.0
  0
LINE
  5
BB
  8
0
 10
55.0
 20
26.75
 30
0.0
 11
55.0
 21
13.25
 31
0.0
  0
ARC
  5
BC
  8
0
 10
55.25
 20
13.25
 30
0.0
 40
0.25
 50
180.0
 51
270.0
  0
LINE
  5
BD
  8
0
 10
74.0
 20
16.0
 30
0.0
 11
87.5
 21
16.0
 31
0.0
  0
ARC
  5
BE
  8
0
 10
87.5
 20
16.25
 30
0.0
 40
0.25
 50
270.0
 51
0.0
  0
LINE
  5
BF
  8
0
 10
87.75
 20
16.25
 30
0.0
 11
87.75
 21
29.75
 31
0.0
  0
ARC
  5
C0
  8
0
 10
87.5
 20
29.75
 30
0.0
 40
0.25
 50
0.0
 51
90.0
  0
LINE
  5
C1
  8
0
 10
87.5
 20
30.0
 30
0.0
 11
74.0
 21
30.0
 31
0.0
  0
ARC
  5
C2
  8
0
 10
74.0
 20
29.75
 30
0.0
 40
0.25
 50
90.0
 51
180.0
  0
LINE
  5
C3
  8
0
 10
73.75
 20
29.75
 30
0.0
 11
73.75
 21
16.25
 31
0.0
  0
ARC
  5
C4
  8
0
 10
74.0
 20
16.25
 30
0.0
 40
0.25
 50
180.0
 51
270.0
  0
LINE
  5
C5
  8
0
 10
92.75
 20
13.0
 30
0.0
 11
106.25
 21
13.0
 31
0.0
  0
ARC
  5
C6
  8
0
 10
106.25
 20
13.25
 30
0.0
 40
0.25
 50
270.0
 51
0.0
  0
LINE
  5
C7
  8
0
 10
106.5
 20
13.25
 30
0.0
 11
106.5
 21
26.75
 31
0.0
  0
ARC
  5
C8
  8
0
 10
106.25
 20
26.75
 30
0.0
 40
0.25
 50
0.0
 51
90.0
  0
LINE
  5
C9
  8
0
 10
106.25
 20
27.0
 30
0.0
 11
92.75
 21
27.0
 31
0.0
  0
ARC
  5
CA
  8
0
 10
92.75
 20
26.75
 30
0.0
 40
0.25
 50
90.0
 51
180.0
  0
LINE
  5
CB
  8
0
 10
92.5
 20
26.75
 30
0.0
 11
92.5
 21
13.25
 31
0.0
  0
ARC
  5
CC
  8
0
 10
92.75
 20
13.25
 30
0.0
 40
0.25
 50
180.0
 51
270.0
  0
LINE
  5
CD
  8
0
 10
10.305935460789597
 20
41.35286772205027
 30
0.0
 11
32.55491479945314
 21
7.840677437648612
 31
0.0
  0
ARC
  5
CE
  8
0
 10
35.054244436390135
 20
9.5
 30
0.0
 40
3.0
 50
213.58046419224263
 51
270.0
  0
LINE
  5
CF
  8
0
 10
35.054244436390135
 20
6.5
 30
0.0
 11
109.5
 21
6.5
 31
0.0
  0
ARC
  5
D0
  8
0
 10
109.5
 20
7.0
 30
0.0
 40
0.5
 50
270.0
 51
0.0
  0
LINE
  5
D1
  8
0
 10
110.0
 20
7.0
 30
0.0
 11
110.0
 21
113.5
 31
0.0
  0
ARC
  5
D2
  8
0
 10
109.5
 20
113.5
 30
0.0
 40
0.5
 50
0.0
 51
90.0
  0
LINE
  5
D3
  8
0
 10
109.5
 20
114.0
 30
0.0
 11
26.34001838381045
 21
114.0
 31
0.0
  0
ARC
  5
D4
  8
0
 10
26.34001838381045
 20
113.5
 30
0.0
 40
0.5
 50
90.0
 51
167.74018261749384
  0
LINE
  5
D5
  8
0
 10
25.851421015612168
 20
113.60617255666938
 30
0.0
 11
10.233893032080815
 21
41.73559403911155
 31
0.0
  0
ARC
  5
D6
  8
0
 10
10.722490400279096
 20
41.62942148244217
 30
0.0
 40
0.5
 50
167.74018261749384
 51
213.58046419224263
  0
ENDSEC
  0
EOF
